<svg width="263" height="88" viewBox="0 0 263 88" fill="none" xmlns="http://www.w3.org/2000/svg">
<rect x="1.09583" y="1.09583" width="260.808" height="85.8083" rx="12.0542" fill="white"/>
<rect x="1.09583" y="1.09583" width="260.808" height="85.8083" rx="12.0542" stroke="#B8B8B8" stroke-width="2.19167"/>
<g opacity="0.5">
<path d="M39.0223 42.6536L17.7297 65.7631C17.7317 65.7672 17.7317 65.7733 17.7337 65.7774C18.3877 68.2867 20.6275 70.1334 23.2874 70.1334C24.3513 70.1334 25.3492 69.8389 26.2051 69.3236L26.2731 69.2827L50.2395 55.1409L39.0223 42.6536Z" fill="#EA4335"/>
<path d="M60.5625 38.7184L60.5426 38.7041L50.1953 32.5709L38.5381 43.1788L50.2373 55.1384L60.5286 49.0666C62.3324 48.0686 63.5583 46.1237 63.5583 43.8823C63.5583 41.6531 62.3504 39.7185 60.5625 38.7184Z" fill="#FBBC04"/>
<path d="M17.7293 21.9021C17.6013 22.3847 17.5333 22.8919 17.5333 23.4155V64.2517C17.5333 64.7753 17.6013 65.2825 17.7313 65.7631L39.7538 43.2446L17.7293 21.9021Z" fill="#4285F4"/>
<path d="M39.1796 43.8331L50.1988 32.5667L26.2605 18.3738C25.3905 17.8401 24.3746 17.5333 23.2887 17.5333C20.6289 17.5333 18.385 19.3841 17.7311 21.8955C17.7311 21.8975 17.7291 21.8996 17.7291 21.9016L39.1796 43.8331Z" fill="#34A853"/>
</g>
<path d="M85.6504 18.2166V21.9644C85.6504 25.2665 85.0732 27.9549 83.9189 30.0297H91.5898V18.2166H85.6504ZM95.3594 35.2897H93.4308V31.9584H82.0999V35.2897H80.1493V30.0297H81.6177C82.2314 29.4307 82.7501 28.3129 83.1738 26.6765C83.5098 25.1715 83.6779 23.4401 83.6779 21.4822V16.3318C83.6779 16.288 83.6925 16.266 83.7217 16.266H93.628V30.0297H95.3594V35.2897ZM113.371 24.1122C113.371 26.4354 112.596 28.3787 111.047 29.942C109.484 31.52 107.57 32.309 105.305 32.309C103.026 32.309 101.112 31.52 99.5632 29.942C98.0144 28.3787 97.24 26.4354 97.24 24.1122C97.24 21.789 98.0144 19.8458 99.5632 18.2824C101.112 16.7044 103.026 15.9154 105.305 15.9154C107.585 15.9154 109.499 16.7117 111.047 18.3043C112.596 19.8677 113.371 21.8037 113.371 24.1122ZM99.3002 24.1122C99.3002 25.924 99.87 27.4216 101.01 28.6051C102.164 29.7886 103.596 30.3804 105.305 30.3804C107.015 30.3804 108.439 29.7886 109.579 28.6051C110.733 27.4362 111.31 25.9386 111.31 24.1122C111.31 22.2858 110.733 20.7882 109.579 19.6193C108.439 18.4358 107.015 17.844 105.305 17.844C103.596 17.844 102.164 18.4358 101.01 19.6193C99.87 20.8028 99.3002 22.3004 99.3002 24.1122ZM123.136 32.309C120.813 32.309 118.87 31.5273 117.306 29.964C115.757 28.4006 114.983 26.45 114.983 24.1122C114.983 21.7744 115.757 19.8312 117.306 18.2824C118.855 16.7044 120.798 15.9154 123.136 15.9154C125.503 15.9154 127.424 16.7701 128.9 18.4796L127.454 19.8823C126.329 18.5235 124.889 17.844 123.136 17.844C121.397 17.844 119.944 18.4285 118.775 19.5974C117.62 20.7517 117.043 22.2566 117.043 24.1122C117.043 25.9678 117.62 27.4728 118.775 28.627C119.944 29.7959 121.397 30.3804 123.136 30.3804C124.962 30.3804 126.548 29.6133 127.892 28.0791L129.36 29.5037C128.615 30.395 127.702 31.089 126.621 31.5858C125.54 32.068 124.378 32.309 123.136 32.309ZM137.064 18.1947V31.9584H135.048V18.1947H130.665V16.266H141.448V18.1947H137.064ZM145.153 16.266C147.812 22.5342 149.141 25.6902 149.141 25.734H149.273C149.302 25.5879 150.617 22.4319 153.218 16.266H155.607L149.207 30.3585C148.93 30.8114 148.593 31.2424 148.199 31.6515C147.848 31.9145 147.563 32.0899 147.344 32.1775C146.877 32.4113 146.343 32.5282 145.744 32.5282C145.364 32.5282 144.86 32.404 144.232 32.1556C144.568 30.8991 144.751 30.2708 144.78 30.2708C145.145 30.4607 145.525 30.5557 145.92 30.5557C146.709 30.5557 147.264 30.132 147.585 29.2845C147.702 29.0654 147.892 28.6636 148.155 28.0791L142.764 16.266H145.153ZM159.417 31.9584H157.4V16.266H169.279V31.9584H167.263V18.1509H159.417V31.9584ZM174.442 31.9584H172.425V16.266H174.442V22.9945H182.288V16.266H184.304V31.9584H182.288V24.8793H174.442V31.9584ZM202.814 24.1122C202.814 26.4354 202.039 28.3787 200.491 29.942C198.927 31.52 197.013 32.309 194.748 32.309C192.469 32.309 190.555 31.52 189.006 29.942C187.457 28.3787 186.683 26.4354 186.683 24.1122C186.683 21.789 187.457 19.8458 189.006 18.2824C190.555 16.7044 192.469 15.9154 194.748 15.9154C197.028 15.9154 198.942 16.7117 200.491 18.3043C202.039 19.8677 202.814 21.8037 202.814 24.1122ZM188.743 24.1122C188.743 25.924 189.313 27.4216 190.453 28.6051C191.607 29.7886 193.039 30.3804 194.748 30.3804C196.458 30.3804 197.883 29.7886 199.022 28.6051C200.176 27.4362 200.754 25.9386 200.754 24.1122C200.754 22.2858 200.176 20.7882 199.022 19.6193C197.883 18.4358 196.458 17.844 194.748 17.844C193.039 17.844 191.607 18.4358 190.453 19.6193C189.313 20.8028 188.743 22.3004 188.743 24.1122ZM210.009 31.9584V16.266H215.685C216.927 16.266 217.994 16.6752 218.885 17.4934C219.776 18.297 220.222 19.3125 220.222 20.5398C220.222 22.0886 219.513 23.1771 218.096 23.8054V23.893C218.9 24.156 219.543 24.6163 220.025 25.2738C220.507 25.9167 220.748 26.6545 220.748 27.4874C220.748 28.7732 220.281 29.8398 219.345 30.6872C218.44 31.5347 217.322 31.9584 215.992 31.9584H210.009ZM212.025 18.1947V22.9945H215.685C216.401 22.9945 217 22.7534 217.483 22.2712C217.965 21.7744 218.206 21.2119 218.206 20.5836C218.206 19.97 217.972 19.4147 217.504 18.918C217.037 18.4358 216.46 18.1947 215.773 18.1947H212.025ZM212.025 24.8793V30.0297H216.08C216.81 30.0297 217.431 29.774 217.943 29.2626C218.44 28.7512 218.688 28.1449 218.688 27.4435C218.688 26.7568 218.432 26.1578 217.921 25.6464C217.409 25.135 216.767 24.8793 215.992 24.8793H212.025Z" fill="#B8B8B8"/>
<path d="M204.961 69.5395H208.53V45.4059H204.961V69.5395ZM237.114 54.0991L233.022 64.5626H232.899L228.652 54.0991H224.807L231.176 68.7229L227.546 76.8581H231.267L241.083 54.0991H237.114ZM216.87 66.7981C215.699 66.7981 214.069 66.2093 214.069 64.7479C214.069 62.8869 216.099 62.1726 217.853 62.1726C219.422 62.1726 220.162 62.5143 221.115 62.9795C220.837 65.2151 218.93 66.7981 216.87 66.7981ZM217.3 53.5721C214.715 53.5721 212.037 54.7207 210.931 57.2671L214.099 58.6011C214.777 57.2671 216.037 56.8308 217.361 56.8308C219.207 56.8308 221.084 57.9486 221.115 59.937V60.1841C220.468 59.8115 219.085 59.2536 217.392 59.2536C213.977 59.2536 210.499 61.1475 210.499 64.6861C210.499 67.9159 213.3 69.997 216.437 69.997C218.838 69.997 220.162 68.9101 220.992 67.636H221.115V69.4989H224.56V60.2459C224.56 55.9621 221.392 53.5721 217.3 53.5721ZM195.238 57.0374H190.161V48.765H195.238C197.907 48.765 199.422 50.9948 199.422 52.9002C199.422 54.7709 197.907 57.0374 195.238 57.0374ZM195.146 45.4059H186.593V69.5395H190.161V60.3965H195.146C199.103 60.3965 202.992 57.5046 202.992 52.9002C202.992 48.2959 199.103 45.4059 195.146 45.4059ZM148.504 66.802C146.038 66.802 143.973 64.7189 143.973 61.8579C143.973 58.966 146.038 56.8501 148.504 56.8501C150.939 56.8501 152.848 58.966 152.848 61.8579C152.848 64.7189 150.939 66.802 148.504 66.802ZM152.603 55.4505H152.479C151.677 54.4871 150.137 53.6165 148.196 53.6165C144.127 53.6165 140.398 57.2227 140.398 61.8579C140.398 66.4603 144.127 70.0376 148.196 70.0376C150.137 70.0376 151.677 69.1669 152.479 68.1707H152.603V69.3542C152.603 72.4951 150.939 74.1747 148.257 74.1747C146.068 74.1747 144.712 72.5878 144.157 71.2499L141.045 72.5569C141.938 74.7345 144.312 77.4083 148.257 77.4083C152.448 77.4083 155.993 74.9199 155.993 68.8561V54.1126H152.603V55.4505ZM158.459 69.5395H162.035V45.404H158.459V69.5395ZM167.303 61.578C167.212 58.4061 169.739 56.7883 171.556 56.7883C172.976 56.7883 174.177 57.5026 174.577 58.5297L167.303 61.578ZM178.399 58.8405C177.722 57.0065 175.656 53.6165 171.434 53.6165C167.242 53.6165 163.76 56.9428 163.76 61.827C163.76 66.4294 167.212 70.0376 171.834 70.0376C175.564 70.0376 177.722 67.7364 178.616 66.3985L175.842 64.5317C174.918 65.9004 173.653 66.802 171.834 66.802C170.016 66.802 168.721 65.9622 167.889 64.3155L178.769 59.7729L178.399 58.8405ZM91.7215 56.1358V59.6185H99.9803C99.7335 61.578 99.0869 63.0085 98.1016 64.0027C96.8983 65.217 95.0177 66.5549 91.7215 66.5549C86.6346 66.5549 82.6592 62.4178 82.6592 57.2864C82.6592 52.1531 86.6346 48.0179 91.7215 48.0179C94.4649 48.0179 96.4678 49.1068 97.9467 50.5064L100.382 48.0488C98.3159 46.0584 95.5744 44.5333 91.7215 44.5333C84.756 44.5333 78.9 50.2573 78.9 57.2864C78.9 64.3155 84.756 70.0376 91.7215 70.0376C95.4807 70.0376 98.3159 68.7924 100.535 66.4603C102.817 64.1591 103.525 60.9255 103.525 58.3115C103.525 57.5026 103.464 56.7574 103.34 56.1358H91.7215ZM112.917 66.802C110.451 66.802 108.323 64.7498 108.323 61.827C108.323 58.8714 110.451 56.8501 112.917 56.8501C115.381 56.8501 117.508 58.8714 117.508 61.827C117.508 64.7498 115.381 66.802 112.917 66.802ZM112.917 53.6165C108.415 53.6165 104.748 57.0683 104.748 61.827C104.748 66.5549 108.415 70.0376 112.917 70.0376C117.416 70.0376 121.083 66.5549 121.083 61.827C121.083 57.0683 117.416 53.6165 112.917 53.6165ZM130.733 66.802C128.267 66.802 126.14 64.7498 126.14 61.827C126.14 58.8714 128.267 56.8501 130.733 56.8501C133.199 56.8501 135.324 58.8714 135.324 61.827C135.324 64.7498 133.199 66.802 130.733 66.802ZM130.733 53.6165C126.233 53.6165 122.566 57.0683 122.566 61.827C122.566 66.5549 126.233 70.0376 130.733 70.0376C135.233 70.0376 138.9 66.5549 138.9 61.827C138.9 57.0683 135.233 53.6165 130.733 53.6165Z" fill="#B8B8B8"/>
</svg>
