<svg width="409" height="260" viewBox="0 0 409 260" fill="none" xmlns="http://www.w3.org/2000/svg">
<path d="M204.666 245.013C300.644 245.013 378.449 240.386 378.449 234.678C378.449 228.97 300.644 224.343 204.666 224.343C108.689 224.343 30.8843 228.97 30.8843 234.678C30.8843 240.386 108.689 245.013 204.666 245.013Z" fill="#FFC100"/>
<path opacity="0.6" d="M204.666 245.013C300.644 245.013 378.449 240.386 378.449 234.678C378.449 228.97 300.644 224.343 204.666 224.343C108.689 224.343 30.8843 228.97 30.8843 234.678C30.8843 240.386 108.689 245.013 204.666 245.013Z" fill="white"/>
<path d="M62.7342 15.7021H352.124C354.7 15.7021 357.17 16.7255 358.992 18.547C360.813 20.3685 361.836 22.839 361.836 25.415V216.144H53.0307V25.415C53.0307 22.8406 54.0527 20.3715 55.8722 18.5503C57.6917 16.729 60.1598 15.7046 62.7342 15.7021Z" fill="#FDD142" stroke="#263238" stroke-width="0.854846" stroke-miterlimit="10"/>
<path d="M349.31 31.3672H65.5571V191.722H349.31V31.3672Z" fill="white"/>
<path d="M349.31 31.3672H65.5571V191.722H349.31V31.3672Z" stroke="#263238" stroke-width="0.641134" stroke-miterlimit="10"/>
<path d="M314.247 206.496H102.022V216.951H314.247V206.496Z" fill="#FDD142" stroke="#263238" stroke-width="0.642282" stroke-miterlimit="10"/>
<path d="M314.247 211.538H102.022V216.961H314.247V211.538Z" fill="#FDD142" stroke="#263238" stroke-width="0.642282" stroke-miterlimit="10"/>
<path d="M28.0521 223.154C28.0521 223.154 31.5436 227.416 41.9807 230.899H374.279C374.279 230.899 382.024 228.958 385.515 223.535L28.0521 223.154Z" fill="#FDD142" stroke="#263238" stroke-width="0.854846" stroke-miterlimit="10"/>
<path d="M383.76 215.521H29.8535C28.4689 215.521 27.3464 216.644 27.3464 218.029V221.158C27.3464 222.543 28.4689 223.665 29.8535 223.665H383.76C385.145 223.665 386.267 222.543 386.267 221.158V218.029C386.267 216.644 385.145 215.521 383.76 215.521Z" fill="#FDD142" stroke="#263238" stroke-width="0.854846" stroke-miterlimit="10"/>
<path d="M207.369 24.4772C208.866 24.4772 210.08 23.2632 210.08 21.7657C210.08 20.2683 208.866 19.0543 207.369 19.0543C205.871 19.0543 204.657 20.2683 204.657 21.7657C204.657 23.2632 205.871 24.4772 207.369 24.4772Z" fill="#263238"/>
<path d="M171.544 19.0544H103.759C103.581 19.0544 103.404 19.0193 103.24 18.9512C103.075 18.883 102.926 18.7832 102.8 18.6573C102.674 18.5314 102.574 18.382 102.506 18.2175C102.438 18.053 102.403 17.8767 102.403 17.6987C102.403 17.5206 102.438 17.3443 102.506 17.1799C102.574 17.0154 102.674 16.8659 102.8 16.74C102.926 16.6141 103.075 16.5143 103.24 16.4461C103.404 16.378 103.581 16.343 103.759 16.343H171.544C171.903 16.3454 172.246 16.489 172.5 16.7427C172.754 16.9964 172.898 17.3399 172.9 17.6987C172.9 18.0582 172.757 18.4031 172.503 18.6573C172.249 18.9115 171.904 19.0544 171.544 19.0544Z" fill="#FDD142" stroke="#263238" stroke-width="0.642282" stroke-miterlimit="10"/>
<path d="M309.799 19.0544H242.014C241.654 19.0544 241.309 18.9115 241.055 18.6573C240.801 18.4031 240.658 18.0582 240.658 17.6987C240.66 17.3399 240.804 16.9964 241.058 16.7427C241.311 16.489 241.655 16.3454 242.014 16.343H309.799C310.159 16.343 310.504 16.4858 310.758 16.74C311.012 16.9943 311.155 17.3391 311.155 17.6987C311.155 18.0582 311.012 18.4031 310.758 18.6573C310.504 18.9115 310.159 19.0544 309.799 19.0544Z" fill="#FDD142" stroke="#263238" stroke-width="0.642282" stroke-miterlimit="10"/>
<path d="M359.181 72.1129C358.975 72.1129 358.778 72.032 358.632 71.8877C358.486 71.7434 358.403 71.5474 358.401 71.3422V48.88C358.403 48.6739 358.486 48.4769 358.632 48.3312C358.778 48.1854 358.975 48.1024 359.181 48.1C359.386 48.1025 359.582 48.1857 359.726 48.3318C359.87 48.4778 359.951 48.6748 359.951 48.88V71.3422C359.951 71.5466 359.87 71.7426 359.726 71.8872C359.581 72.0317 359.385 72.1129 359.181 72.1129Z" fill="#FDD142" stroke="#263238" stroke-width="0.642282" stroke-miterlimit="10"/>
<path d="M55.9371 72.1129C55.8359 72.1129 55.7357 72.093 55.6422 72.0542C55.5486 72.0155 55.4637 71.9587 55.3921 71.8872C55.3205 71.8156 55.2638 71.7306 55.225 71.6371C55.1863 71.5436 55.1664 71.4434 55.1664 71.3422V48.88C55.1664 48.6748 55.2473 48.4778 55.3915 48.3318C55.5358 48.1857 55.7318 48.1025 55.9371 48.1C56.1432 48.1024 56.3402 48.1854 56.486 48.3312C56.6317 48.4769 56.7147 48.6739 56.7171 48.88V71.3422C56.7147 71.5474 56.6314 71.7434 56.4854 71.8877C56.3394 72.032 56.1424 72.1129 55.9371 72.1129Z" fill="#FDD142" stroke="#263238" stroke-width="0.642282" stroke-miterlimit="10"/>
<path d="M72.605 166.428C72.605 166.428 72.7628 172.733 73.8307 176.113C74.607 178.426 75.5376 180.684 76.6164 182.873C76.6164 182.873 72.6236 185.027 70.7757 185.185C68.9278 185.343 66.4764 177.032 66.4764 171.349C66.4764 165.666 68.6121 163.967 72.605 166.428Z" fill="white" stroke="#263238" stroke-width="0.450441" stroke-linecap="round" stroke-linejoin="round"/>
<path d="M61.4714 149.909C61.4714 149.909 67.9714 149.667 70.4507 151.515C72.93 153.363 73.8307 161.506 74.6014 164.738L75.3722 167.969C73.5638 168.682 71.7005 169.248 69.8007 169.659C69.0766 169.713 68.3568 169.815 67.6464 169.966C67.6464 169.966 65.6872 158.786 63.3843 155.517C62.2198 153.835 60.935 152.24 59.54 150.744C59.54 150.744 58.5 149.5 61.4714 149.909Z" fill="white" stroke="#263238" stroke-width="0.450441" stroke-linecap="round" stroke-linejoin="round"/>
<path d="M56.16 139.982C55.6231 142.04 54.7944 144.01 53.6993 145.832C51.8422 148.906 51.0807 151.051 45.3979 151.209C39.715 151.366 36.79 156 34.3572 169.808C31.9243 183.616 30.5129 198.863 34.6636 208.548C38.8143 218.233 51.0715 217.286 59.0757 214.389C67.08 211.491 68.9186 202.401 69.0672 192.567C69.2157 182.734 69.225 167.199 67.6836 159.352C66.1422 151.506 61.6943 149.825 59.6886 149.212C57.6829 148.599 60.3107 144.904 60.3107 144.904L56.16 139.982Z" fill="white"/>
<mask id="mask0_67_14912" style="mask-type:luminance" maskUnits="userSpaceOnUse" x="32" y="139" width="38" height="78">
<path d="M56.16 139.982C55.6231 142.04 54.7944 144.01 53.6993 145.832C51.8422 148.906 51.0807 151.051 45.3979 151.209C39.715 151.366 36.79 156 34.3572 169.808C31.9243 183.616 30.5129 198.863 34.6636 208.548C38.8143 218.233 51.0715 217.286 59.0757 214.389C67.08 211.491 68.9186 202.401 69.0672 192.567C69.2157 182.734 69.225 167.199 67.6836 159.352C66.1422 151.506 61.6943 149.825 59.6886 149.212C57.6829 148.599 60.3107 144.904 60.3107 144.904L56.16 139.982Z" fill="white"/>
</mask>
<g mask="url(#mask0_67_14912)">
<g style="mix-blend-mode:multiply" opacity="0.4">
<path d="M39.9285 170.151C39.9285 170.151 38.5728 173.866 40.9778 176.754C43.3828 179.641 49.335 178.258 48.1835 179.604C47.0321 180.951 41.8785 182.613 40.9778 183.959C40.7139 184.299 40.5585 184.71 40.532 185.139C40.5055 185.568 40.6091 185.995 40.8293 186.364C40.8293 186.364 36.0935 187.209 35.7593 186.411C35.425 185.612 38.545 174.423 38.545 174.423L39.9285 170.151Z" fill="#FFC100"/>
</g>
<g style="mix-blend-mode:multiply" opacity="0.4">
<path d="M41.3771 190.571C41.3771 190.571 38.0807 194.174 38.2293 195.214C38.3779 196.254 41.3771 193.867 40.7829 195.362C40.1886 196.857 37.6257 199.271 36.8736 200.469C36.1214 201.667 33.1593 203.794 33.1593 203.794L32.1007 195.669L31.8964 194.248L41.3771 190.571Z" fill="#FFC100"/>
</g>
</g>
<path d="M56.16 139.982C55.6231 142.04 54.7944 144.01 53.6993 145.832C51.8422 148.906 51.0807 151.051 45.3979 151.209C39.715 151.366 36.79 156 34.3572 169.808C31.9243 183.616 30.5129 198.863 34.6636 208.548C38.8143 218.233 51.0715 217.286 59.0757 214.389C67.08 211.491 68.9186 202.401 69.0672 192.567C69.2157 182.734 69.225 167.199 67.6836 159.352C66.1422 151.506 61.6943 149.825 59.6886 149.212C57.6829 148.599 60.3107 144.904 60.3107 144.904L56.16 139.982Z" stroke="#263238" stroke-width="0.450441" stroke-linecap="round" stroke-linejoin="round"/>
<path d="M61.4714 149.909C60.8968 149.629 60.3006 149.396 59.6886 149.212C57.6921 148.599 60.3107 144.904 60.3107 144.904L56.16 139.982C55.623 142.04 54.7944 144.01 53.6993 145.832C52.13 148.441 51.3314 150.382 47.6357 151.004C48.8079 152.693 49.6637 154.581 50.1614 156.576C51.09 160.578 53.0771 167.031 56.7729 165.499C60.2829 164.041 62.9478 155.619 61.4714 149.909Z" fill="white"/>
<mask id="mask1_67_14912" style="mask-type:luminance" maskUnits="userSpaceOnUse" x="47" y="139" width="15" height="27">
<path d="M61.4714 149.909C60.8968 149.629 60.3006 149.396 59.6886 149.212C57.6921 148.599 60.3107 144.904 60.3107 144.904L56.16 139.982C55.623 142.04 54.7944 144.01 53.6993 145.832C52.13 148.441 51.3314 150.382 47.6357 151.004C48.8079 152.693 49.6637 154.581 50.1614 156.576C51.09 160.578 53.0771 167.031 56.7729 165.499C60.2829 164.041 62.9478 155.619 61.4714 149.909Z" fill="white"/>
</mask>
<g mask="url(#mask1_67_14912)">
<g style="mix-blend-mode:multiply" opacity="0.4">
<path d="M51.8886 150.93C50.9149 151.622 49.8274 152.137 48.6757 152.453L47.7471 150.865C47.7471 150.865 51.5821 151.339 55.4171 142.508C56.2511 144.143 57.4296 145.578 58.8714 146.714L54.2936 147.299" fill="#FFC100"/>
</g>
</g>
<path d="M61.4714 149.909C60.8968 149.629 60.3006 149.396 59.6886 149.212C57.6921 148.599 60.3107 144.904 60.3107 144.904L56.16 139.982C55.623 142.04 54.7944 144.01 53.6993 145.832C52.13 148.441 51.3314 150.382 47.6357 151.004C48.8079 152.693 49.6637 154.581 50.1614 156.576C51.09 160.578 53.0771 167.031 56.7729 165.499C60.2829 164.041 62.9478 155.619 61.4714 149.909Z" stroke="#263238" stroke-width="0.450441" stroke-linecap="round" stroke-linejoin="round"/>
<path d="M40.3093 168.721L44.7293 164.794" stroke="#263238" stroke-width="0.450441" stroke-linecap="round" stroke-linejoin="round"/>
<path d="M45.3978 151.208C45.3978 151.208 46.6978 152.991 47.6821 158.154C48.6664 163.317 51.61 167.988 54.5628 168.963C57.5157 169.938 58.9828 168.963 58.9828 168.963" stroke="#263238" stroke-width="0.450441" stroke-linecap="round" stroke-linejoin="round"/>
<path d="M30.7914 168.276C30.7914 168.276 28.4885 188.704 28.3307 192.251C28.1728 195.798 29.5564 194.87 31.8685 194.257C34.1807 193.644 47.3943 187.757 50.44 186.717C53.4857 185.677 53.9778 185.334 56.4385 185.64C58.5926 185.963 60.7624 186.17 62.9385 186.262C64.48 186.262 62.7807 182.724 60.4778 182.111C58.175 181.498 58.3235 181.647 55.7143 182.26C53.105 182.873 48.945 184.721 44.4878 185.64C40.0307 186.559 36.1864 186.875 35.7314 186.411C35.2764 185.946 38.5171 172.575 38.5171 172.575L30.7914 168.276Z" fill="white" stroke="#263238" stroke-width="0.450441" stroke-linecap="round" stroke-linejoin="round"/>
<path d="M47.6357 151.004C45.9216 151.209 44.1903 151.225 42.4728 151.051C40.9018 150.939 39.3249 151.156 37.8427 151.689C36.3605 152.221 35.0057 153.057 33.865 154.143C31.4042 156.594 29.2221 164.589 28.2935 166.595C27.365 168.601 27.0678 169.511 27.0678 169.511L38.4428 174.432L43.2064 160.903" fill="white"/>
<mask id="mask2_67_14912" style="mask-type:luminance" maskUnits="userSpaceOnUse" x="27" y="151" width="21" height="24">
<path d="M47.6357 151.004C45.9216 151.209 44.1903 151.225 42.4728 151.051C40.9018 150.939 39.3249 151.156 37.8427 151.689C36.3605 152.221 35.0057 153.057 33.865 154.143C31.4042 156.594 29.2221 164.589 28.2935 166.595C27.365 168.601 27.0678 169.511 27.0678 169.511L38.4428 174.432L43.2064 160.903" fill="white"/>
</mask>
<g mask="url(#mask2_67_14912)">
<g style="mix-blend-mode:multiply" opacity="0.4">
<path d="M47.5149 150.902C45.2792 151.143 43.0313 151.251 40.7828 151.227C39.4245 151.247 38.0875 151.567 36.8674 152.164C35.6474 152.761 34.5745 153.621 33.7256 154.681C31.6178 157.086 27.2999 169.418 27.2999 169.418L29.9464 170.551C29.9464 170.551 32.8249 157.086 36.1214 154.988C39.0194 153.26 42.3619 152.424 45.7321 152.583C46.6606 152.583 47.7006 152.518 48.3599 152.453L47.5149 150.902Z" fill="#FFC100"/>
</g>
</g>
<path d="M47.6357 151.004C45.9216 151.209 44.1903 151.225 42.4728 151.051C40.9018 150.939 39.3249 151.156 37.8427 151.689C36.3605 152.221 35.0057 153.057 33.865 154.143C31.4042 156.594 29.2221 164.589 28.2935 166.595C27.365 168.601 27.0678 169.511 27.0678 169.511L38.4428 174.432L43.2064 160.903" stroke="#263238" stroke-width="0.450441" stroke-linecap="round" stroke-linejoin="round"/>
<path d="M33.1779 202.429C33.1779 202.429 37.8207 198.25 41.0429 198.009" stroke="#263238" stroke-width="0.450441" stroke-linecap="round" stroke-linejoin="round"/>
<path d="M41.535 196.003C39.2524 197.009 37.035 198.156 34.8957 199.439" stroke="#263238" stroke-width="0.450441" stroke-linecap="round" stroke-linejoin="round"/>
<path d="M70.3227 135.7C72.1368 128.494 70.2531 121.808 66.1154 120.767C61.9777 119.725 57.1529 124.722 55.3388 131.928C53.5247 139.135 55.4084 145.821 59.5461 146.862C63.6838 147.904 68.5087 142.907 70.3227 135.7Z" fill="white"/>
<mask id="mask3_67_14912" style="mask-type:luminance" maskUnits="userSpaceOnUse" x="54" y="120" width="18" height="27">
<path d="M70.3227 135.7C72.1368 128.494 70.2531 121.808 66.1154 120.767C61.9777 119.725 57.1529 124.722 55.3388 131.928C53.5247 139.135 55.4084 145.821 59.5461 146.862C63.6838 147.904 68.5087 142.907 70.3227 135.7Z" fill="white"/>
</mask>
<g mask="url(#mask3_67_14912)">
<g style="mix-blend-mode:multiply" opacity="0.4">
<path d="M58.76 146.584C58.24 145.544 57.5529 143.046 58.045 141.468C58.7971 139.072 62.8457 136.379 62.8457 136.379C62.8457 136.379 60.9886 136.825 59.1314 137.113C57.2743 137.401 54.7021 137.819 54.7021 137.819L55.3429 142.313C56.2064 144.337 57.2557 145.99 58.76 146.584Z" fill="#FFC100"/>
</g>
</g>
<path d="M70.3227 135.7C72.1368 128.494 70.2531 121.808 66.1154 120.767C61.9777 119.725 57.1529 124.722 55.3388 131.928C53.5247 139.135 55.4084 145.821 59.5461 146.862C63.6838 147.904 68.5087 142.907 70.3227 135.7Z" stroke="#263238" stroke-width="0.450441" stroke-linecap="round" stroke-linejoin="round"/>
<g style="mix-blend-mode:multiply" opacity="0.4">
<path d="M55.3986 142.712C54.6928 144.105 52.5014 148.451 50.2357 149.881C49.5962 150.293 48.8981 150.606 48.165 150.809" fill="#FFC100"/>
</g>
<g style="mix-blend-mode:multiply" opacity="0.4">
<path d="M59.0943 165.499C59.0943 165.499 59.6978 174.051 59.0943 176.159C58.4907 178.267 56.095 178.109 57.2928 179.307C58.5977 180.394 60.0067 181.348 61.4993 182.158L63.5978 184.266L64.0714 181.071C64.0714 181.071 62.5671 181.526 61.0628 176.271C60.1028 172.742 59.4442 169.139 59.0943 165.499Z" fill="#FFC100"/>
</g>
<path d="M66.2443 137.559C65.7563 138.266 65.4385 139.076 65.3157 139.926C65.3157 140.205 65.3157 140.456 65.3157 140.66C65.324 140.758 65.3111 140.856 65.2777 140.948C65.2444 141.04 65.1915 141.124 65.1226 141.194C65.0538 141.263 64.9707 141.317 64.879 141.352C64.7872 141.386 64.6891 141.401 64.5914 141.394L63.4864 141.31" stroke="#263238" stroke-width="0.450441" stroke-linecap="round" stroke-linejoin="round"/>
<path d="M61.5179 143.539C61.0045 143.596 60.4888 143.454 60.0762 143.144C59.6636 142.833 59.3854 142.376 59.2986 141.867" stroke="#263238" stroke-width="0.450441" stroke-linecap="round" stroke-linejoin="round"/>
<path d="M63.1893 137.28L62.6321 138.394C62.3065 138.55 61.9387 138.593 61.586 138.517C61.2333 138.442 60.9155 138.252 60.6821 137.976" stroke="#263238" stroke-width="0.450441" stroke-linecap="round" stroke-linejoin="round"/>
<path d="M67.6279 138.951L66.8014 140.066C66.8014 140.066 65.6871 140.066 65.6871 139.23" stroke="#263238" stroke-width="0.450441" stroke-linecap="round" stroke-linejoin="round"/>
<path d="M72.0293 129.071C73.8864 123.602 69.3643 117.929 62.6136 118.049C55.8629 118.17 51.1364 124.772 48.8986 129.294C46.8059 131.391 45.0067 133.762 43.55 136.342C40.7643 141.106 40.7643 143.873 38.6286 146.946C36.4928 150.02 30.1786 150.178 26.4829 154.18C22.7871 158.182 22.7686 162.788 24.4864 165.861C26.2043 168.935 27.2721 172.928 25.0993 175.695C22.9264 178.462 20.8 182.195 22.49 188.463C22.8079 189.862 23.5454 191.132 24.6041 192.101C25.6628 193.07 26.9921 193.692 28.4143 193.886C28.3215 193.362 28.2935 192.829 28.3307 192.298C28.4514 189.512 29.8629 176.689 30.485 171.015L27.105 169.548C27.105 169.548 27.4114 168.619 28.3307 166.632C29.25 164.645 31.4043 156.631 33.9021 154.18C35.0436 153.096 36.3988 152.262 37.8809 151.731C39.3631 151.2 40.9397 150.984 42.51 151.097C44.2274 151.271 45.9588 151.255 47.6728 151.051C48.7081 150.925 49.6972 150.549 50.5546 149.955C51.4121 149.361 52.1121 148.568 52.5943 147.643L52.8357 147.244V147.197C53.0957 146.77 53.3557 146.315 53.6436 145.841C54.3102 144.718 54.8818 143.541 55.3521 142.322C54.8834 140.869 54.6331 139.354 54.6093 137.828C57.6364 137.726 66.0121 136.983 70.2464 132.006C70.4971 131.699 70.7293 131.393 70.9336 131.077C70.8731 132.644 70.649 134.2 70.265 135.72C69.4837 139.212 67.7215 142.407 65.1857 144.931L64.74 145.312L64.4614 145.535C64.3221 145.637 64.1921 145.739 64.0529 145.823C63.9551 145.894 63.8527 145.96 63.7464 146.018C63.6206 146.102 63.4904 146.179 63.3564 146.25L63.0314 146.417L62.6414 146.584L62.3164 146.705L61.9264 146.826L61.6014 146.909C60.9077 147.067 60.1873 147.067 59.4936 146.909L59.2243 146.816C58.9288 147.371 58.8337 148.011 58.955 148.627C59.0028 148.782 59.0906 148.923 59.2096 149.033C59.3285 149.144 59.4745 149.222 59.6329 149.259C60.2289 149.438 60.8095 149.664 61.3693 149.936C61.0156 153.69 60.395 157.414 59.5121 161.079C57.9707 167.533 59.6607 173.68 61.5086 178.137C63.3564 182.594 69.0393 185.361 71.0357 182.78C73.0321 180.199 72.4193 177.404 71.1936 171.247C69.9678 165.091 66.7364 156.186 66.7364 149.416C66.7364 142.647 70.7293 140.502 72.735 136.509C74.1743 133.621 72.8928 130.576 72.0293 129.071Z" fill="#263238"/>
<path d="M70.1536 127.001C70.1536 127.001 63.0593 133.213 56.225 133.881C49.3907 134.55 48.685 134.541 48.685 134.541" stroke="white" stroke-width="0.321272" stroke-linecap="round" stroke-linejoin="round"/>
<path d="M68.6028 122.339C68.6028 122.339 62.1678 129.666 56.8471 131.439C51.5264 133.213 49.3071 133.213 49.3071 133.213" stroke="white" stroke-width="0.321272" stroke-linecap="round" stroke-linejoin="round"/>
<path d="M64.8328 119.684C64.8328 119.684 63.0593 125.255 58.8436 127.892" stroke="white" stroke-width="0.321272" stroke-linecap="round" stroke-linejoin="round"/>
<path d="M52.6314 140.53C52.6314 140.53 52.4086 147.634 48.4157 148.739C44.4229 149.844 39.9936 147.634 34.8864 150.289C32.8931 151.362 31.2737 153.016 30.2436 155.031C29.2135 157.046 28.8216 159.328 29.12 161.571" stroke="white" stroke-width="0.321272" stroke-linecap="round" stroke-linejoin="round"/>
<path d="M27.5692 191.546C26.5114 190.01 25.8041 188.261 25.4976 186.422C25.1911 184.583 25.2929 182.7 25.7957 180.904C27.5692 174.915 28.8971 172.696 28.8971 172.696" stroke="white" stroke-width="0.321272" stroke-linecap="round" stroke-linejoin="round"/>
<path d="M66.8571 152.063C66.8571 152.063 67.9621 160.494 64.1921 165.815C60.4221 171.136 62.8643 178.462 62.8643 178.462" stroke="white" stroke-width="0.321272" stroke-linecap="round" stroke-linejoin="round"/>
<path d="M67.0521 144.3C67.0521 144.3 67.275 146.742 64.1643 152.954C61.0535 159.166 60.1714 161.163 59.9485 165.601" stroke="white" stroke-width="0.321272" stroke-linecap="round" stroke-linejoin="round"/>
<path d="M88.3443 214.927C88.3443 214.927 93.3307 214.444 96.2186 215.726C99.1065 217.007 99.7564 219.096 100.397 217.174C101.038 215.252 101.038 214.119 98.6329 212.838C96.2279 211.556 95.2529 212.355 94.2965 211.389C93.8269 210.885 93.2856 210.454 92.69 210.108C92.69 210.108 90.1179 209.783 89.9507 211.231C89.7836 212.68 87.3879 213.153 87.3879 213.153L88.3443 214.927Z" fill="white" stroke="#263238" stroke-width="0.450441" stroke-miterlimit="10"/>
<path d="M109.191 177.19C107.501 173.346 100.453 175.983 92.2815 182.566C81.705 191.091 73.4872 193.078 69.0672 193.421V193.282C66.7643 192.205 63.4957 192.159 59.605 192.79C59.4843 192.614 59.3636 192.437 59.2522 192.251C51.8236 180.728 49.8736 178.731 47.4129 180.728C44.9522 182.724 42.185 185.798 43.1043 195.334C43.1863 196.084 43.3292 196.827 43.5315 197.554C39.8745 199.291 36.3973 201.384 33.15 203.803C33.5072 205.427 34.0107 207.015 34.6543 208.548C38.7865 218.205 51.025 217.323 59.02 214.416C61.4377 215.724 64.0645 216.601 66.7829 217.007C73.1157 217.796 77.3965 217.564 79.9036 216.608L84.1565 220.081C90.8508 215.001 96.5223 208.7 100.871 201.509C102.991 197.923 104.871 194.201 106.498 190.366C109.144 184.377 110.045 179.121 109.191 177.19Z" fill="#263238"/>
<path d="M59.2336 192.214C60.1189 193.599 61.0864 194.929 62.1307 196.198L91 191.016L81.9093 183.736L56.16 187.506C57.0421 188.862 58.0729 190.441 59.2336 192.214Z" fill="#FFC100" stroke="#263238" stroke-width="0.450441" stroke-linecap="round" stroke-linejoin="round"/>
<path opacity="0.5" d="M59.2336 192.214C60.1189 193.599 61.0864 194.929 62.1307 196.198L91 191.016L81.9093 183.736L56.16 187.506C57.0421 188.862 58.0729 190.441 59.2336 192.214Z" fill="white" stroke="#263238" stroke-width="0.490518" stroke-linecap="round" stroke-linejoin="round"/>
<path d="M65.6593 175.156L61.165 195C61.4807 195.418 61.8057 195.826 62.0935 196.226L91 191.016L96.7107 170.235L65.6593 175.156Z" fill="#FFC100" stroke="#263238" stroke-width="0.450441" stroke-linecap="round" stroke-linejoin="round"/>
<path d="M80.3678 186.699C79.8089 186.857 79.2155 186.847 78.6622 186.67C78.1088 186.493 77.62 186.157 77.2569 185.703C76.8938 185.25 76.6726 184.699 76.6209 184.12C76.5693 183.541 76.6895 182.96 76.9666 182.45C77.2437 181.939 77.6652 181.521 78.1785 181.249C78.6918 180.977 79.274 180.862 79.8522 180.919C80.4304 180.976 80.9789 181.203 81.429 181.57C81.8792 181.937 82.211 182.429 82.3828 182.984C82.6025 183.744 82.5143 184.56 82.1372 185.255C81.7601 185.95 81.1244 186.469 80.3678 186.699Z" fill="white"/>
<path opacity="0.5" d="M65.6593 175.156L61.165 195C61.4807 195.418 61.8057 195.826 62.0935 196.226L91 191.016L96.7107 170.235L65.6593 175.156Z" fill="white" stroke="#263238" stroke-width="0.490518" stroke-linecap="round" stroke-linejoin="round"/>
<path d="M80.3678 186.699C79.8089 186.857 79.2155 186.847 78.6622 186.67C78.1088 186.493 77.62 186.157 77.2569 185.703C76.8938 185.25 76.6726 184.699 76.6209 184.12C76.5693 183.541 76.6895 182.96 76.9666 182.45C77.2437 181.939 77.6652 181.521 78.1785 181.249C78.6918 180.977 79.274 180.862 79.8522 180.919C80.4304 180.976 80.9789 181.203 81.429 181.57C81.8792 181.937 82.211 182.429 82.3828 182.984C82.6025 183.744 82.5143 184.56 82.1372 185.255C81.7601 185.95 81.1244 186.469 80.3678 186.699Z" fill="white" stroke="#263238" stroke-width="0.490518" stroke-linecap="round" stroke-linejoin="round"/>
<path d="M78.9286 214.992C78.9286 214.992 74.9543 217.945 72.7164 219.171C70.4786 220.396 69.7636 219.979 67.6186 222.021C65.4736 224.064 63.6536 225.485 63.1428 226.302C62.6321 227.119 62.0193 227.927 61.7128 226.098C61.5876 225.159 61.7102 224.204 62.0686 223.328C62.427 222.451 63.0087 221.684 63.7557 221.102C65.1764 220.081 67.1171 219.672 67.1171 218.316C67.0703 217.724 67.2568 217.138 67.6368 216.681C68.0168 216.225 68.5601 215.935 69.1507 215.874C70.2743 215.874 71.0078 216.989 73.125 215.874C74.5802 214.975 75.7744 213.711 76.5886 212.206L78.9286 214.992Z" fill="white" stroke="#263238" stroke-width="0.450441" stroke-miterlimit="10"/>
<path d="M43.7728 198.575C43.7728 198.575 48.165 209.077 58.2864 213.85" stroke="white" stroke-width="0.321272" stroke-miterlimit="10"/>
<path d="M77.9164 207.174C77.9164 207.174 84.2028 204.026 93.4143 188.11" stroke="white" stroke-width="0.321272" stroke-miterlimit="10"/>
<path d="M61.0629 195.325C61.0629 195.325 67.7207 205.084 75.4836 208.409" stroke="white" stroke-width="0.321272" stroke-miterlimit="10"/>
<path d="M106.618 133.648V98.1427H117.74C121.603 98.1427 124.91 99.0303 127.66 100.806C130.41 102.546 131.785 105.452 131.785 109.525C131.785 113.563 130.306 116.539 127.347 118.454C124.388 120.333 121.029 121.273 117.27 121.273H113.354V133.648H106.618ZM117.531 103.782H113.354V115.686H117.635C119.654 115.686 121.29 115.234 122.543 114.329C123.796 113.389 124.493 111.927 124.632 109.943C124.632 107.645 124.005 106.044 122.752 105.139C121.499 104.234 119.759 103.782 117.531 103.782ZM151.074 108.324L152.431 113.754C151.283 113.754 149.942 114.085 148.411 114.746C146.914 115.408 145.435 116.382 143.973 117.67V133.648H137.185V108.324H140.736L142.981 112.031C144.025 111.126 145.295 110.291 146.792 109.525C148.289 108.725 149.716 108.324 151.074 108.324ZM159.292 97.0984C160.371 97.0984 161.276 97.4639 162.007 98.1949C162.773 98.9259 163.156 99.8309 163.156 100.91C163.156 101.989 162.773 102.894 162.007 103.625C161.276 104.356 160.371 104.722 159.292 104.722C158.248 104.722 157.36 104.356 156.629 103.625C155.898 102.894 155.533 101.989 155.533 100.91C155.533 99.8309 155.898 98.9259 156.629 98.1949C157.36 97.4639 158.248 97.0984 159.292 97.0984ZM162.686 108.324V133.648H155.898V108.324H162.686ZM176.045 133.648L166.333 109.264L173.33 108.324L179.178 123.675L184.712 108.324H191.866L181.893 133.648H176.045ZM208.469 134.274C204.083 134.274 200.62 133.073 198.079 130.671C195.573 128.27 194.32 125.05 194.32 121.012C194.32 116.974 195.451 113.737 197.713 111.3C200.011 108.864 203.126 107.645 207.06 107.645C211.028 107.645 213.934 108.968 215.779 111.614C217.659 114.224 218.599 117.322 218.599 120.908V122.996H201.525C201.838 124.667 202.604 126.007 203.822 127.017C205.041 127.991 206.642 128.478 208.626 128.478C209.775 128.478 210.802 128.339 211.707 128.061C212.646 127.748 213.726 127.312 214.944 126.755L216.928 131.663C215.744 132.569 214.3 133.23 212.594 133.648C210.923 134.065 209.548 134.274 208.469 134.274ZM212.177 118.454C211.828 116.748 211.202 115.495 210.297 114.694C209.392 113.859 208.261 113.441 206.903 113.441C205.511 113.441 204.345 113.876 203.405 114.746C202.465 115.582 201.856 116.818 201.577 118.454H212.177ZM239.48 133.125C238.923 133.578 238.122 133.943 237.078 134.222C236.069 134.535 235.164 134.692 234.363 134.692C231.23 134.692 228.759 133.909 226.949 132.342C225.174 130.741 224.286 128.478 224.286 125.555V113.598H220.892V108.376H224.286V102.372L231.021 101.171V108.376H235.616L237.705 113.598H231.021V124.354C231.021 125.676 231.335 126.773 231.961 127.643C232.588 128.478 233.51 128.896 234.729 128.896C235.181 128.896 235.634 128.844 236.086 128.74C236.539 128.635 237.008 128.461 237.496 128.217L239.48 133.125Z" fill="black"/>
<path d="M283.45 107.389C283.881 108.369 283.782 109.949 283.463 110.164C283.146 110.381 282.409 109.735 281.895 108.981C281.382 108.227 278.59 114.661 278.38 114.974C278.22 115.209 275.827 116.739 274.684 118.579C274.305 119.193 274.139 121.146 274.009 121.252C273.49 121.668 272.374 121.119 271.046 120.028C269.717 118.938 268.186 125.69 269.772 127.483C271.895 129.882 278.237 137.852 282.911 138.353C290.896 139.216 299.675 133.019 300.829 126.98C301.982 120.94 300.647 118.312 301.725 113.271C302.638 109.003 306.144 107.551 306.556 105.408C306.899 103.604 304.305 102.658 303.427 102.492C301.867 102.195 297.494 103.431 296.491 108.693C296.1 110.737 295.165 112.479 293.068 112.08C290.974 111.678 289.727 108.713 289.088 106.096" fill="url(#paint0_linear_67_14912)"/>
<path d="M306.554 105.404C306.74 104.425 306.059 103.698 305.257 103.21C305.637 106.845 300.348 105.992 298.118 117.706C295.887 129.42 288.415 131.529 285.481 131.574C282.546 131.618 279.103 129.21 275.077 124.62C273.842 123.21 272.176 121.693 270.341 120.266C269.633 121.551 269.633 125.957 270.874 126.76C273.567 128.499 276.096 137.053 282.915 138.354C290.806 139.858 299.68 133.02 300.833 126.981C301.987 120.941 300.652 118.314 301.73 113.272C302.641 109.001 306.147 107.549 306.554 105.404Z" fill="url(#paint1_linear_67_14912)"/>
<path d="M271.046 120.028C269.716 118.934 266.548 115.802 264.511 114.287C262.473 112.773 260.738 112.858 259.611 114.65C258.485 116.443 262.065 119.389 262.889 120.154C264.147 121.325 267.977 125.637 269.772 127.483" fill="url(#paint2_linear_67_14912)"/>
<path d="M278.381 114.977C278.171 115.289 276.751 115.107 274.984 112.715C273.635 110.89 270.059 105.667 267.879 103.236C265.698 100.805 263.92 99.718 262.218 100.679C260.516 101.64 261.161 104.102 262.71 106.268C264.629 108.945 266.87 111.705 269.016 114.355C270.695 116.429 274.525 120.837 274.006 121.253" fill="url(#paint3_linear_67_14912)"/>
<path d="M269.021 114.356C270.605 116.311 274.103 120.346 274.056 121.146C274.71 120.33 273.966 117.621 272.982 116.592C267.289 110.642 262.156 101.488 261.359 101.657C260.894 102.858 261.549 104.646 262.712 106.271C264.632 108.943 266.873 111.703 269.021 114.356Z" fill="url(#paint4_linear_67_14912)"/>
<path d="M289.088 106.088C288.447 103.467 285.18 94.6363 284.48 92.2061C283.78 89.7758 281.945 89.1602 280.375 89.6283C278.805 90.0964 277.832 91.7563 279.417 96.5097C280.419 99.5078 281.179 102.216 283.45 107.389L287.732 108.498L289.088 106.088Z" fill="url(#paint5_linear_67_14912)"/>
<path d="M281.897 108.985C281.384 108.231 277.048 100.525 276.052 98.8603C274.186 95.7406 272.267 89.4562 268.189 91.316C266.045 92.2935 266.7 94.4283 267.086 95.3078C267.473 96.1873 272.907 105.555 273.457 106.365C274.008 107.176 278.59 114.661 278.377 114.976" fill="url(#paint6_linear_67_14912)"/>
<path d="M283.45 107.389C283.864 108.331 284.137 109.466 283.85 109.706C286.618 108.681 283.732 101.983 282.151 98.0125C280.929 94.9417 281.399 91.7104 280.497 89.592C280.456 89.603 280.414 89.6139 280.37 89.6266C278.8 90.0947 277.826 91.7548 279.412 96.5081C280.419 99.5076 281.179 102.216 283.45 107.389Z" fill="url(#paint7_linear_67_14912)"/>
<path d="M273.463 106.367C274.013 107.178 278.595 114.663 278.381 114.977C280.634 112.908 275.045 104.499 272.365 100.278C270.043 96.6178 270.06 93.8044 267.507 91.7363C266.209 92.8112 266.751 94.5386 267.089 95.3115C267.475 96.191 272.91 105.553 273.463 106.367Z" fill="url(#paint8_linear_67_14912)"/>
<path d="M278.224 115.095C277.995 115.179 277.175 114.849 276.564 114.399C277.008 114.846 277.825 115.329 278.224 115.095Z" fill="url(#paint9_linear_67_14912)"/>
<path d="M303.701 103.297C305.238 103.313 305.47 103.534 305.254 103.212C304.579 102.803 303.824 102.562 303.425 102.488C301.865 102.191 297.491 103.427 296.489 108.69C296.098 110.734 295.163 112.476 293.066 112.076C292.241 111.919 291.462 111.305 290.763 110.471C293.665 115.242 297.281 111.956 298.221 109.413C299.161 106.86 299.19 103.25 303.701 103.297Z" fill="url(#paint10_radial_67_14912)"/>
<path d="M279.81 89.8674C278.599 90.5666 278.031 92.3574 279.417 96.5097C280.419 99.5078 281.179 102.216 283.45 107.389C283.881 108.369 283.782 109.949 283.463 110.164C284.899 106.019 281.291 99.8157 280.425 96.0751C279.74 93.1152 279.925 91.5631 279.81 89.8674Z" fill="url(#paint11_linear_67_14912)"/>
<path d="M273.463 106.367C274.013 107.178 278.595 114.663 278.381 114.977C279.835 114.307 279.233 112.723 277.635 110.369C274.356 105.547 269.755 99.0277 268.342 94.1142C268.208 93.6489 267.871 93.2616 267.411 93.1108C266.217 92.7193 266.792 94.6405 267.089 95.3115C267.475 96.191 272.91 105.553 273.463 106.367Z" fill="url(#paint12_linear_67_14912)"/>
<path d="M262.714 106.266C264.632 108.943 266.873 111.704 269.019 114.353C270.698 116.427 274.528 120.835 274.009 121.252C276.886 119.318 265.502 109.969 261.361 101.652C260.899 102.852 261.55 104.642 262.714 106.266Z" fill="url(#paint13_linear_67_14912)"/>
<path d="M273.421 121.639C273.683 121.566 273.825 121.467 273.88 121.344C273.39 121.644 272.266 121.03 271.046 120.028C269.716 118.934 266.548 115.802 264.511 114.287C263.615 113.624 262.779 113.265 262.024 113.227C263.123 113.86 262.635 114.12 265.089 115.868C266.405 116.801 271.726 122.101 273.421 121.639Z" fill="url(#paint14_linear_67_14912)"/>
<path d="M271.596 109.472C273.103 111.766 276.443 115.784 278.123 115.122C277.685 115.184 276.359 114.578 274.986 112.719C273.637 110.893 270.061 105.67 267.881 103.24C266.112 101.266 264.612 100.179 263.202 100.346C267.066 102.099 270.171 107.304 271.596 109.472Z" fill="url(#paint15_linear_67_14912)"/>
<path d="M276.007 100.692C278.17 104.183 281.097 110.84 283.348 110.204C282.988 110.243 282.355 109.658 281.897 108.985C281.384 108.231 277.048 100.525 276.052 98.8603C274.76 96.6981 273.439 93.0202 271.398 91.5816C273.314 93.7873 274.254 97.8669 276.007 100.692Z" fill="url(#paint16_linear_67_14912)"/>
<path d="M290.765 110.466C289.689 109.182 289.477 107.672 289.088 106.088C288.447 103.467 285.18 94.6363 284.48 92.2061C284.266 91.4662 283.948 90.8937 283.561 90.4708C283.893 91.5943 283.815 93.0153 284.71 95.1071C286.149 98.4647 287.602 104.124 288.101 106.071C288.599 108.015 289.035 111.643 290.765 110.466Z" fill="url(#paint17_linear_67_14912)"/>
<path d="M294.046 135.726C293.568 133.402 292.528 131.841 290.42 132.716C284.672 135.105 280.994 130.839 273.279 125.054C266.398 119.895 262.804 116.158 259.5 114.879C258.785 116.686 262.104 119.418 262.892 120.153C264.15 121.323 277.014 136.853 282.911 138.353C286.669 139.308 290.759 137.859 294.046 135.726Z" fill="url(#paint18_linear_67_14912)"/>
<path d="M306.037 103.824C306.29 105.601 304.647 106.823 302.147 108.957C299.434 111.265 298.139 115.411 298.841 119.936C299.544 124.461 296.529 129.944 293.11 131.21C289.688 132.478 284.06 139.834 274.139 128.416C274.138 128.413 274.136 128.41 274.131 128.409C273.544 127.61 273.755 126.382 273.015 125.958C267.885 123.034 264.923 120.347 262.678 118.075C262.236 117.632 261.032 115.901 259.694 116.53C259.782 116.713 259.886 116.892 260.003 117.072C260.012 117.089 260.027 117.106 260.036 117.122C260.044 117.135 260.054 117.147 260.064 117.163C260.164 117.313 260.272 117.464 260.389 117.613C260.403 117.631 260.418 117.649 260.429 117.668C260.437 117.681 260.446 117.689 260.453 117.702C260.591 117.874 260.733 118.044 260.879 118.207C260.881 118.21 260.881 118.21 260.883 118.213C261.022 118.372 261.166 118.523 261.311 118.669C261.331 118.688 261.345 118.706 261.365 118.725C261.385 118.744 261.399 118.762 261.419 118.781C261.537 118.903 261.655 119.017 261.771 119.128C261.798 119.152 261.823 119.181 261.848 119.201C261.982 119.328 262.107 119.447 262.227 119.556C262.282 119.606 262.335 119.654 262.389 119.701C262.442 119.748 262.497 119.799 262.543 119.842C262.681 119.966 262.805 120.077 262.891 120.158C264.148 121.328 267.979 125.64 269.774 127.486C269.89 127.619 270.027 127.774 270.172 127.942C270.252 128.035 270.344 128.142 270.433 128.243C270.433 128.243 270.433 128.243 270.434 128.246C272.591 130.591 274.641 132.81 275.73 133.953C276.105 134.309 276.488 134.657 276.877 134.992C276.886 135 276.894 135.008 276.903 135.015C278.079 136.029 279.288 136.92 280.465 137.53C281.237 137.891 282.043 138.19 282.912 138.357C290.803 139.86 299.677 133.022 300.83 126.983C301.984 120.944 300.649 118.316 301.727 113.274C302.64 109.006 306.146 107.554 306.558 105.411C306.677 104.774 306.435 104.25 306.037 103.824Z" fill="url(#paint19_radial_67_14912)"/>
<path d="M288.71 85.3883C288.506 85.1525 288.706 84.8885 288.977 85.0426C289.011 85.062 289.046 85.0816 289.081 85.1012C289.471 85.3183 289.779 85.525 290.088 85.7316C290.776 86.2376 291.381 86.7332 291.977 87.311C293.167 88.4667 294.069 89.92 294.62 91.4959C295.172 93.0717 295.373 94.7701 295.174 96.3337C295.068 97.1567 294.892 97.8868 294.622 98.6887C294.487 99.0897 294.363 99.4083 294.146 99.7988C293.989 100.08 293.644 99.9752 293.662 99.6534C293.715 99.242 293.757 98.9128 293.727 98.4908L293.764 96.2374C293.696 94.8068 293.381 93.3448 292.891 91.944C292.4 90.5433 291.725 89.2861 290.874 88.0901C290.453 87.451 289.94 86.8837 289.52 86.2446C289.305 85.9662 289.007 85.6773 288.71 85.3883Z" fill="#FDD44E"/>
<path d="M286.656 88.0774C286.545 87.8659 286.719 87.5785 286.924 87.7014C286.942 87.7121 286.961 87.7207 286.981 87.727C287.224 87.8038 287.539 87.9504 287.779 88.0994C288.278 88.4099 288.777 88.7204 289.278 89.1123C290.2 89.8988 290.964 90.8533 291.407 91.9809C291.931 93.106 292.133 94.3228 292.008 95.5498C291.945 96.1226 291.8 96.698 291.655 97.2733C291.585 97.5058 291.446 97.8126 291.368 98.0538C291.359 98.0832 291.346 98.1109 291.331 98.1375C291.173 98.4037 290.872 98.3182 290.862 98.0091L290.837 97.2175C290.805 96.1854 290.647 95.1542 290.385 94.1554C290.257 93.6695 290.1 93.2049 289.882 92.7627C289.444 91.798 288.93 90.9987 288.331 90.1206C287.993 89.7235 287.651 89.245 287.313 88.8479C287.151 88.6213 286.992 88.4678 286.761 88.2511C286.736 88.2268 286.715 88.1972 286.7 88.1649C286.686 88.1348 286.671 88.1057 286.656 88.0774Z" fill="#FDD44E"/>
<path d="M270.814 138.571C271.121 138.746 271.013 139.185 270.661 139.149C270.64 139.147 270.619 139.145 270.598 139.142C270.142 139.091 269.791 139.099 269.417 139.025C268.586 138.899 267.816 138.669 267.023 138.356C265.459 137.813 264.051 136.874 262.823 135.62C261.617 134.448 260.672 132.94 260.161 131.4C259.853 130.601 259.732 129.838 259.588 128.994C259.557 128.56 259.549 128.209 259.518 127.775C259.517 127.76 259.516 127.745 259.515 127.729C259.505 127.541 259.867 127.484 259.929 127.662C260.042 128.073 260.215 128.379 260.41 128.768C260.695 129.485 261.063 130.18 261.408 130.792C262.121 132.099 262.976 133.279 264.054 134.309C265.133 135.339 266.271 136.264 267.633 137.039C268.262 137.397 268.973 137.732 269.684 138.067C269.992 138.242 270.379 138.396 270.768 138.549C270.784 138.555 270.799 138.563 270.814 138.571Z" fill="#FDD44E"/>
<path d="M272.935 135.186C273.26 135.299 273.257 135.604 272.915 135.639C272.349 135.695 271.777 135.686 271.21 135.64C270.916 135.616 270.615 135.572 270.319 135.49C269.2 135.25 268.038 134.772 267.135 134.102C266.157 133.42 265.374 132.459 264.914 131.391C264.679 130.895 264.454 130.323 264.305 129.763C264.265 129.535 264.234 129.238 264.204 128.938C264.202 128.913 264.202 128.892 264.205 128.868C264.235 128.6 264.478 128.526 264.628 128.75C264.643 128.773 264.659 128.795 264.674 128.816C264.868 129.075 264.985 129.323 265.114 129.496C265.436 129.928 265.682 130.349 266.015 130.705C266.67 131.493 267.335 132.207 268.174 132.791C268.936 133.364 269.861 133.884 270.722 134.318C271.152 134.534 271.668 134.687 272.174 134.915C272.389 135.023 272.69 135.067 272.906 135.175C272.915 135.179 272.925 135.182 272.935 135.186Z" fill="#FDD44E"/>
<defs>
<linearGradient id="paint0_linear_67_14912" x1="274.12" y1="148.828" x2="287.45" y2="123.879" gradientUnits="userSpaceOnUse">
<stop offset="0.00132565" stop-color="#FFCB4B"/>
<stop offset="1" stop-color="#FFD748"/>
</linearGradient>
<linearGradient id="paint1_linear_67_14912" x1="282.691" y1="135.114" x2="283.965" y2="88.4104" gradientUnits="userSpaceOnUse">
<stop offset="0.00132565" stop-color="#FFCB4B"/>
<stop offset="1" stop-color="#FFD748"/>
</linearGradient>
<linearGradient id="paint2_linear_67_14912" x1="264.62" y1="93.2566" x2="273.575" y2="126.471" gradientUnits="userSpaceOnUse">
<stop offset="0.00132565" stop-color="#FFCB4B"/>
<stop offset="1" stop-color="#FFD748"/>
</linearGradient>
<linearGradient id="paint3_linear_67_14912" x1="279.22" y1="79.8327" x2="280.308" y2="127.654" gradientUnits="userSpaceOnUse">
<stop offset="0.00132565" stop-color="#FFCB4B"/>
<stop offset="1" stop-color="#FFD748"/>
</linearGradient>
<linearGradient id="paint4_linear_67_14912" x1="334.519" y1="110.806" x2="278.407" y2="147.474" gradientUnits="userSpaceOnUse">
<stop stop-color="#FFBC47" stop-opacity="0"/>
<stop offset="1" stop-color="#FFA754"/>
</linearGradient>
<linearGradient id="paint5_linear_67_14912" x1="292.781" y1="95.0837" x2="286.736" y2="137.734" gradientUnits="userSpaceOnUse">
<stop offset="0.00132565" stop-color="#FFCB4B"/>
<stop offset="1" stop-color="#FFD748"/>
</linearGradient>
<linearGradient id="paint6_linear_67_14912" x1="287.512" y1="92.9245" x2="286.667" y2="133.214" gradientUnits="userSpaceOnUse">
<stop offset="0.00132565" stop-color="#FFCB4B"/>
<stop offset="1" stop-color="#FFD748"/>
</linearGradient>
<linearGradient id="paint7_linear_67_14912" x1="306.403" y1="113.269" x2="246.695" y2="97.5122" gradientUnits="userSpaceOnUse">
<stop stop-color="#FFBC47" stop-opacity="0"/>
<stop offset="1" stop-color="#FFA754"/>
</linearGradient>
<linearGradient id="paint8_linear_67_14912" x1="342.265" y1="112.692" x2="194.49" y2="13.7979" gradientUnits="userSpaceOnUse">
<stop stop-color="#FFBC47" stop-opacity="0"/>
<stop offset="1" stop-color="#FFA754"/>
</linearGradient>
<linearGradient id="paint9_linear_67_14912" x1="533.12" y1="129.806" x2="-168.319" y2="64.8782" gradientUnits="userSpaceOnUse">
<stop stop-color="#FFBC47" stop-opacity="0"/>
<stop offset="1" stop-color="#FFA754"/>
</linearGradient>
<radialGradient id="paint10_radial_67_14912" cx="0" cy="0" r="1" gradientTransform="matrix(26.0241 72.5916 -22.4557 84.127 283.012 72.9089)" gradientUnits="userSpaceOnUse">
<stop stop-color="#FFBC47" stop-opacity="0"/>
<stop offset="1" stop-color="#FFA754"/>
</radialGradient>
<linearGradient id="paint11_linear_67_14912" x1="349.036" y1="111.106" x2="254.593" y2="119.228" gradientUnits="userSpaceOnUse">
<stop offset="0.3118" stop-color="#FFBC47" stop-opacity="0"/>
<stop offset="1" stop-color="#FF8900"/>
</linearGradient>
<linearGradient id="paint12_linear_67_14912" x1="494.573" y1="111.674" x2="228.845" y2="180.092" gradientUnits="userSpaceOnUse">
<stop offset="0.3118" stop-color="#FFBC47" stop-opacity="0"/>
<stop offset="1" stop-color="#FF8900"/>
</linearGradient>
<linearGradient id="paint13_linear_67_14912" x1="395.076" y1="110.761" x2="244.655" y2="169.026" gradientUnits="userSpaceOnUse">
<stop offset="0.3118" stop-color="#FFBC47" stop-opacity="0"/>
<stop offset="1" stop-color="#FF8900"/>
</linearGradient>
<linearGradient id="paint14_linear_67_14912" x1="267.716" y1="80.1223" x2="277.082" y2="145.261" gradientUnits="userSpaceOnUse">
<stop stop-color="#FFBC47" stop-opacity="0"/>
<stop offset="1" stop-color="#FFBC47"/>
</linearGradient>
<linearGradient id="paint15_linear_67_14912" x1="291.994" y1="90.5217" x2="290.197" y2="134.306" gradientUnits="userSpaceOnUse">
<stop stop-color="#FFBC47" stop-opacity="0"/>
<stop offset="1" stop-color="#FFBC47"/>
</linearGradient>
<linearGradient id="paint16_linear_67_14912" x1="217.57" y1="111.701" x2="279.514" y2="154.84" gradientUnits="userSpaceOnUse">
<stop stop-color="#FFBC47" stop-opacity="0"/>
<stop offset="1" stop-color="#FFA754"/>
</linearGradient>
<linearGradient id="paint17_linear_67_14912" x1="234.944" y1="137.968" x2="242.266" y2="89.0546" gradientUnits="userSpaceOnUse">
<stop stop-color="#FFBC47" stop-opacity="0"/>
<stop offset="1" stop-color="#FFBC47"/>
</linearGradient>
<linearGradient id="paint18_linear_67_14912" x1="276.848" y1="112.19" x2="258.911" y2="113.032" gradientUnits="userSpaceOnUse">
<stop offset="0.3118" stop-color="#FFBC47" stop-opacity="0"/>
<stop offset="1" stop-color="#FF8900"/>
</linearGradient>
<radialGradient id="paint19_radial_67_14912" cx="0" cy="0" r="1" gradientTransform="matrix(1.83809 53.5322 -30.7686 2.63497 280.687 101.629)" gradientUnits="userSpaceOnUse">
<stop offset="0.6134" stop-color="#FFBC47" stop-opacity="0"/>
<stop offset="1" stop-color="#FF8900"/>
</radialGradient>
</defs>
</svg>
