<svg width="281" height="78" viewBox="0 0 281 78" fill="none" xmlns="http://www.w3.org/2000/svg">
<path d="M5.88 68V20.4H20.79C25.97 20.4 30.4033 21.59 34.09 23.97C37.7767 26.3033 39.62 30.2 39.62 35.66C39.62 41.0733 37.6367 45.0633 33.67 47.63C29.7033 50.15 25.2 51.41 20.16 51.41H14.91V68H5.88ZM20.51 27.96H14.91V43.92H20.65C23.3567 43.92 25.55 43.3133 27.23 42.1C28.91 40.84 29.8433 38.88 30.03 36.22C30.03 33.14 29.19 30.9933 27.51 29.78C25.83 28.5667 23.4967 27.96 20.51 27.96ZM65.4795 34.05L67.2995 41.33C65.7595 41.33 63.9629 41.7733 61.9095 42.66C59.9029 43.5467 57.9195 44.8533 55.9595 46.58V68H46.8595V34.05H51.6195L54.6295 39.02C56.0295 37.8067 57.7329 36.6867 59.7395 35.66C61.7462 34.5867 63.6595 34.05 65.4795 34.05ZM76.4974 19C77.9441 19 79.1574 19.49 80.1374 20.47C81.1641 21.45 81.6774 22.6633 81.6774 24.11C81.6774 25.5567 81.1641 26.77 80.1374 27.75C79.1574 28.73 77.9441 29.22 76.4974 29.22C75.0974 29.22 73.9074 28.73 72.9274 27.75C71.9474 26.77 71.4574 25.5567 71.4574 24.11C71.4574 22.6633 71.9474 21.45 72.9274 20.47C73.9074 19.49 75.0974 19 76.4974 19ZM81.0474 34.05V68H71.9474V34.05H81.0474ZM98.9576 68L85.9376 35.31L95.3176 34.05L103.158 54.63L110.578 34.05H120.168L106.798 68H98.9576ZM142.428 68.84C136.548 68.84 131.904 67.23 128.498 64.01C125.138 60.79 123.458 56.4733 123.458 51.06C123.458 45.6467 124.974 41.3067 128.008 38.04C131.088 34.7733 135.264 33.14 140.538 33.14C145.858 33.14 149.754 34.9133 152.228 38.46C154.748 41.96 156.008 46.1133 156.008 50.92V53.72H133.118C133.538 55.96 134.564 57.7567 136.198 59.11C137.831 60.4167 139.978 61.07 142.638 61.07C144.178 61.07 145.554 60.8833 146.768 60.51C148.028 60.09 149.474 59.5067 151.108 58.76L153.768 65.34C152.181 66.5533 150.244 67.44 147.958 68C145.718 68.56 143.874 68.84 142.428 68.84ZM147.398 47.63C146.931 45.3433 146.091 43.6633 144.878 42.59C143.664 41.47 142.148 40.91 140.328 40.91C138.461 40.91 136.898 41.4933 135.638 42.66C134.378 43.78 133.561 45.4367 133.188 47.63H147.398ZM184.002 67.3C183.255 67.9067 182.182 68.3967 180.782 68.77C179.429 69.19 178.215 69.4 177.142 69.4C172.942 69.4 169.629 68.35 167.202 66.25C164.822 64.1033 163.632 61.07 163.632 57.15V41.12H159.082V34.12H163.632V26.07L172.662 24.46V34.12H178.822L181.622 41.12H172.662V55.54C172.662 57.3133 173.082 58.7833 173.922 59.95C174.762 61.07 175.999 61.63 177.632 61.63C178.239 61.63 178.845 61.56 179.452 61.42C180.059 61.28 180.689 61.0467 181.342 60.72L184.002 67.3Z" fill="black"/>
<path d="M242.94 32.6207C243.518 33.9339 243.385 36.0529 242.958 36.3404C242.533 36.6323 241.544 35.766 240.856 34.7552C240.167 33.7444 236.425 42.3702 236.143 42.789C235.929 43.1045 232.72 45.1552 231.188 47.6224C230.68 48.4454 230.458 51.0642 230.283 51.2056C229.587 51.7644 228.091 51.0278 226.31 49.5656C224.529 48.1033 222.476 57.1561 224.603 59.5594C227.449 62.7753 235.952 73.4613 242.217 74.1329C252.923 75.2897 264.693 66.9813 266.239 58.8846C267.785 50.7879 265.995 47.2649 267.441 40.5063C268.664 34.7839 273.366 32.8378 273.918 29.9643C274.378 27.5457 270.899 26.2779 269.723 26.055C267.631 25.6567 261.768 27.3136 260.423 34.3686C259.899 37.1095 258.646 39.4447 255.835 38.909C253.028 38.3709 251.355 34.3959 250.499 30.8867" fill="url(#paint0_linear_8_730)"/>
<path d="M273.915 29.9597C274.164 28.6465 273.252 27.6716 272.176 27.0182C272.685 31.8916 265.595 30.7481 262.604 46.4521C259.614 62.1562 249.597 64.9836 245.663 65.0436C241.729 65.1037 237.112 61.8744 231.714 55.7209C230.059 53.831 227.826 51.7976 225.365 49.884C224.416 51.6072 224.416 57.5135 226.08 58.59C229.69 60.9223 233.081 72.3894 242.223 74.1344C252.802 76.1501 264.699 66.9829 266.245 58.8862C267.791 50.7896 266.002 47.2665 267.447 40.5079C268.668 34.7811 273.37 32.835 273.915 29.9597Z" fill="url(#paint1_linear_8_730)"/>
<path d="M226.31 49.5656C224.527 48.0989 220.281 43.8994 217.549 41.8689C214.817 39.8382 212.491 39.953 210.981 42.3555C209.47 44.7582 214.27 48.708 215.375 49.7345C217.061 51.304 222.196 57.0849 224.603 59.5594" fill="url(#paint2_linear_8_730)"/>
<path d="M236.145 42.7933C235.863 43.212 233.958 42.9673 231.59 39.7612C229.781 37.3139 224.987 30.3113 222.064 27.0527C219.141 23.794 216.758 22.3363 214.476 23.6248C212.194 24.9132 213.058 28.2141 215.135 31.1171C217.708 34.7062 220.711 38.407 223.589 41.9596C225.84 44.7393 230.974 50.6491 230.278 51.2079" fill="url(#paint3_linear_8_730)"/>
<path d="M223.596 41.9611C225.72 44.5814 230.409 49.9918 230.347 51.0636C231.222 49.9701 230.225 46.3385 228.905 44.9592C221.274 36.9822 214.392 24.7087 213.324 24.9354C212.7 26.5465 213.578 28.9435 215.138 31.1212C217.712 34.7033 220.716 38.4042 223.596 41.9611Z" fill="url(#paint4_linear_8_730)"/>
<path d="M250.498 30.8757C249.639 27.3623 245.26 15.5234 244.321 12.2653C243.383 9.00718 240.922 8.18176 238.817 8.80932C236.712 9.43689 235.408 11.6623 237.533 18.035C238.876 22.0545 239.896 25.6847 242.94 32.6207L248.681 34.1073L250.498 30.8757Z" fill="url(#paint5_linear_8_730)"/>
<path d="M240.858 34.7595C240.17 33.7486 234.357 23.4182 233.022 21.1864C230.52 17.0039 227.948 8.57862 222.48 11.072C219.606 12.3825 220.484 15.2446 221.002 16.4237C221.52 17.6027 228.805 30.1613 229.543 31.2481C230.282 32.3349 236.425 42.3701 236.138 42.7914" fill="url(#paint6_linear_8_730)"/>
<path d="M242.94 32.6207C243.495 33.8834 243.861 35.4055 243.476 35.7267C247.187 34.3524 243.318 25.3729 241.199 20.0498C239.561 15.9328 240.19 11.6007 238.981 8.76073C238.926 8.77541 238.87 8.79004 238.81 8.8071C236.705 9.43467 235.401 11.6602 237.526 18.0328C238.876 22.0541 239.896 25.6847 242.94 32.6207Z" fill="url(#paint7_linear_8_730)"/>
<path d="M229.551 31.2505C230.289 32.3374 236.431 42.3719 236.145 42.7933C239.164 40.0201 231.672 28.7458 228.078 23.0867C224.966 18.18 224.988 14.4081 221.566 11.6355C219.826 13.0765 220.552 15.3924 221.005 16.4287C221.523 17.6077 228.81 30.1593 229.551 31.2505Z" fill="url(#paint8_linear_8_730)"/>
<path d="M235.933 42.9509C235.626 43.0641 234.527 42.6222 233.708 42.0188C234.304 42.6175 235.399 43.2653 235.933 42.9509Z" fill="url(#paint9_linear_8_730)"/>
<path d="M270.09 27.1345C272.15 27.1554 272.462 27.4528 272.172 27.0209C271.267 26.4724 270.254 26.1493 269.72 26.0504C267.628 25.6521 261.765 27.3091 260.42 34.3641C259.896 37.105 258.643 39.4402 255.832 38.9045C254.726 38.6932 253.681 37.8708 252.745 36.753C256.635 43.1483 261.482 38.7437 262.743 35.3333C264.003 31.9116 264.042 27.0708 270.09 27.1345Z" fill="url(#paint10_radial_8_730)"/>
<path d="M238.06 9.12997C236.436 10.0673 235.675 12.4682 237.533 18.035C238.876 22.0545 239.896 25.6847 242.94 32.6207C243.518 33.9339 243.385 36.0529 242.958 36.3404C244.882 30.7837 240.046 22.4671 238.885 17.4524C237.967 13.4841 238.214 11.4033 238.06 9.12997Z" fill="url(#paint11_linear_8_730)"/>
<path d="M229.551 31.2505C230.289 32.3374 236.431 42.3719 236.145 42.7933C238.094 41.8951 237.287 39.7715 235.144 36.615C230.749 30.1507 224.579 21.4108 222.685 14.8234C222.505 14.1997 222.054 13.6804 221.437 13.4782C219.836 12.9533 220.608 15.529 221.005 16.4287C221.523 17.6077 228.81 30.1593 229.551 31.2505Z" fill="url(#paint12_linear_8_730)"/>
<path d="M215.14 31.1149C217.712 34.7039 220.716 38.4047 223.593 41.9574C225.844 44.7371 230.979 50.6468 230.283 51.2056C234.14 48.6126 218.879 36.0789 213.326 24.9291C212.707 26.5377 213.58 28.9372 215.14 31.1149Z" fill="url(#paint13_linear_8_730)"/>
<path d="M229.495 51.7247C229.846 51.6269 230.036 51.4936 230.11 51.3288C229.452 51.7318 227.947 50.9078 226.31 49.5656C224.527 48.0989 220.281 43.8994 217.549 41.8689C216.348 40.9791 215.227 40.4975 214.215 40.4476C215.688 41.2961 215.034 41.6447 218.324 43.9873C220.088 45.2384 227.222 52.3443 229.495 51.7247Z" fill="url(#paint14_linear_8_730)"/>
<path d="M227.048 35.4124C229.068 38.4883 233.546 43.8752 235.798 42.9882C235.211 43.0708 233.433 42.2586 231.592 39.7659C229.784 37.3186 224.99 30.316 222.067 27.0574C219.695 24.4114 217.684 22.9538 215.795 23.1778C220.975 25.5289 225.137 32.5062 227.048 35.4124Z" fill="url(#paint15_linear_8_730)"/>
<path d="M232.961 23.6421C235.861 28.3222 239.786 37.2466 242.803 36.3949C242.321 36.4465 241.472 35.6619 240.858 34.7595C240.17 33.7486 234.357 23.4182 233.022 21.1864C231.29 18.2875 229.519 13.3567 226.782 11.4281C229.351 14.3851 230.611 19.8546 232.961 23.6421Z" fill="url(#paint16_linear_8_730)"/>
<path d="M252.747 36.746C251.305 35.024 251.021 33.0005 250.498 30.8757C249.639 27.3623 245.26 15.5234 244.321 12.2653C244.034 11.2734 243.608 10.5058 243.089 9.93881C243.534 11.4451 243.429 13.3502 244.629 16.1545C246.559 20.6559 248.507 28.2425 249.176 30.8531C249.843 33.4591 250.428 38.3234 252.747 36.746Z" fill="url(#paint17_linear_8_730)"/>
<path d="M257.146 70.611C256.505 67.4954 255.111 65.4026 252.284 66.5747C244.579 69.7781 239.648 64.0594 229.304 56.3038C220.079 49.3866 215.261 44.3767 210.832 42.6625C209.873 45.0839 214.322 48.7477 215.379 49.732C217.065 51.3015 234.311 72.1215 242.217 74.1329C247.256 75.4131 252.739 73.4698 257.146 70.611Z" fill="url(#paint18_linear_8_730)"/>
<path d="M273.221 27.8409C273.561 30.2228 271.358 31.8609 268.006 34.7219C264.369 37.8165 262.632 43.3756 263.574 49.4422C264.517 55.5088 260.474 62.859 255.891 64.5564C251.303 66.2564 243.758 76.1176 230.458 60.811C230.455 60.8066 230.453 60.8024 230.446 60.8005C229.659 59.7301 229.942 58.083 228.95 57.5149C222.073 53.595 218.102 49.9929 215.092 46.9471C214.499 46.3527 212.885 44.0315 211.091 44.8753C211.21 45.1211 211.348 45.3611 211.505 45.6023C211.518 45.6241 211.537 45.6477 211.55 45.6696C211.56 45.687 211.574 45.7019 211.587 45.7238C211.721 45.9257 211.866 46.127 212.023 46.3276C212.042 46.3512 212.062 46.3749 212.077 46.4011C212.087 46.4186 212.099 46.4291 212.109 46.4466C212.294 46.677 212.484 46.9049 212.68 47.1234C212.683 47.1278 212.683 47.1278 212.685 47.1322C212.872 47.3445 213.065 47.5475 213.259 47.7435C213.286 47.769 213.305 47.7927 213.332 47.8181C213.358 47.8437 213.377 47.8673 213.404 47.8929C213.563 48.0572 213.721 48.2102 213.877 48.359C213.912 48.3907 213.946 48.4292 213.979 48.4567C214.159 48.6265 214.327 48.7858 214.487 48.9319C214.561 48.9997 214.632 49.0632 214.704 49.1266C214.775 49.1901 214.849 49.2578 214.912 49.3151C215.095 49.4824 215.262 49.6304 215.377 49.7387C217.063 51.3083 222.199 57.0892 224.605 59.5639C224.76 59.7419 224.945 59.9499 225.139 60.1753C225.246 60.2999 225.369 60.4437 225.488 60.5788C225.488 60.5788 225.488 60.5788 225.491 60.5832C228.382 63.7264 231.13 66.7019 232.59 68.2331C233.093 68.711 233.606 69.1768 234.128 69.6265C234.139 69.6371 234.151 69.6476 234.163 69.6581C235.74 71.0175 237.36 72.2118 238.938 73.0292C239.974 73.5134 241.054 73.9137 242.219 74.1373C252.798 76.1529 264.695 66.9857 266.241 58.889C267.787 50.7924 265.998 47.2692 267.443 40.5107C268.667 34.7883 273.368 32.8421 273.92 29.9687C274.079 29.1148 273.755 28.4117 273.221 27.8409Z" fill="url(#paint19_radial_8_730)"/>
<path d="M249.991 3.12503C249.719 2.80878 249.987 2.45495 250.35 2.66152C250.395 2.68755 250.442 2.71376 250.489 2.74008C251.013 3.03118 251.426 3.30819 251.839 3.58521C252.761 4.26365 253.573 4.928 254.372 5.70268C255.968 7.25204 257.177 9.20045 257.916 11.3131C258.655 13.4258 258.925 15.7028 258.657 17.7991C258.516 18.9023 258.279 19.8812 257.918 20.9563C257.737 21.4938 257.57 21.921 257.279 22.4445C257.069 22.8221 256.607 22.681 256.631 22.2496C256.702 21.698 256.758 21.2567 256.718 20.691L256.768 17.6699C256.676 15.752 256.254 13.7919 255.597 11.914C254.939 10.036 254.033 8.35054 252.893 6.74721C252.329 5.89038 251.642 5.12979 251.078 4.27296C250.79 3.89971 250.39 3.51237 249.991 3.12503Z" fill="#E0A100"/>
<path d="M247.239 6.73017C247.089 6.44656 247.323 6.06123 247.598 6.22601C247.622 6.24045 247.647 6.25188 247.674 6.26034C248 6.36327 248.422 6.55989 248.743 6.75966C249.412 7.17592 250.081 7.59217 250.754 8.11763C251.989 9.17199 253.013 10.4516 253.607 11.9634C254.311 13.4718 254.581 15.1031 254.414 16.7481C254.328 17.516 254.134 18.2874 253.94 19.0587C253.847 19.3703 253.66 19.7818 253.556 20.1051C253.543 20.1445 253.526 20.1817 253.505 20.2173C253.294 20.5742 252.89 20.4595 252.877 20.0451L252.844 18.9838C252.801 17.6002 252.589 16.2177 252.237 14.8786C252.067 14.2272 251.856 13.6044 251.563 13.0115C250.976 11.7182 250.286 10.6467 249.484 9.46935C249.03 8.93703 248.573 8.29549 248.119 7.76316C247.902 7.45938 247.689 7.25355 247.38 6.96306C247.345 6.93039 247.317 6.89073 247.297 6.84751C247.278 6.80711 247.259 6.76802 247.239 6.73017Z" fill="#E0A100"/>
<path d="M225.999 74.4251C226.411 74.6595 226.266 75.2483 225.794 75.1997C225.767 75.1969 225.739 75.1938 225.71 75.1906C225.099 75.1216 224.628 75.1325 224.126 75.0332C223.013 74.8648 221.98 74.556 220.917 74.1369C218.82 73.409 216.933 72.1495 215.286 70.4684C213.669 68.8976 212.402 66.875 211.717 64.8113C211.304 63.7394 211.142 62.7172 210.949 61.5848C210.908 61.0035 210.897 60.5324 210.856 59.951C210.854 59.9306 210.853 59.9102 210.852 59.89C210.838 59.6377 211.323 59.5614 211.407 59.7996C211.558 60.3507 211.79 60.7613 212.051 61.282C212.434 62.2437 212.927 63.175 213.39 63.9962C214.345 65.7487 215.491 67.3304 216.937 68.7111C218.383 70.0918 219.909 71.332 221.735 72.3711C222.578 72.8507 223.531 73.3001 224.485 73.7494C224.898 73.9844 225.417 74.1904 225.938 74.3958C225.959 74.4041 225.979 74.4139 225.999 74.4251Z" fill="#E0A100"/>
<path d="M228.843 69.8865C229.278 70.0387 229.275 70.4476 228.816 70.4936C228.057 70.5697 227.291 70.5569 226.531 70.4953C226.136 70.4633 225.732 70.4043 225.336 70.2949C223.835 69.9725 222.278 69.3322 221.068 68.433C219.756 67.5191 218.706 66.2305 218.09 64.7989C217.774 64.1337 217.473 63.3673 217.273 62.6158C217.219 62.3104 217.178 61.9119 217.138 61.5096C217.134 61.4767 217.135 61.4487 217.138 61.4158C217.18 61.0574 217.505 60.9581 217.706 61.2578C217.727 61.2888 217.748 61.3184 217.768 61.3465C218.027 61.6939 218.185 62.0266 218.358 62.2582C218.789 62.8372 219.119 63.4014 219.566 63.8794C220.443 64.9363 221.336 65.8922 222.459 66.6756C223.482 67.4442 224.722 68.1413 225.876 68.7225C226.452 69.0132 227.145 69.2175 227.823 69.5229C228.111 69.6683 228.515 69.7273 228.803 69.8726C228.817 69.8773 228.83 69.882 228.843 69.8865Z" fill="#E0A100"/>
<defs>
<linearGradient id="paint0_linear_8_730" x1="230.431" y1="88.1757" x2="248.303" y2="54.7281" gradientUnits="userSpaceOnUse">
<stop offset="0.00132565" stop-color="#FFCB4B"/>
<stop offset="1" stop-color="#FFD748"/>
</linearGradient>
<linearGradient id="paint1_linear_8_730" x1="241.923" y1="69.7897" x2="243.631" y2="7.17664" gradientUnits="userSpaceOnUse">
<stop offset="0.00132565" stop-color="#FFCB4B"/>
<stop offset="1" stop-color="#FFD748"/>
</linearGradient>
<linearGradient id="paint2_linear_8_730" x1="217.696" y1="13.6737" x2="229.7" y2="58.2025" gradientUnits="userSpaceOnUse">
<stop offset="0.00132565" stop-color="#FFCB4B"/>
<stop offset="1" stop-color="#FFD748"/>
</linearGradient>
<linearGradient id="paint3_linear_8_730" x1="237.269" y1="-4.32321" x2="238.728" y2="59.789" gradientUnits="userSpaceOnUse">
<stop offset="0.00132565" stop-color="#FFCB4B"/>
<stop offset="1" stop-color="#FFD748"/>
</linearGradient>
<linearGradient id="paint4_linear_8_730" x1="311.406" y1="37.2015" x2="236.179" y2="86.361" gradientUnits="userSpaceOnUse">
<stop stop-color="#FFBC47" stop-opacity="0"/>
<stop offset="1" stop-color="#FFA754"/>
</linearGradient>
<linearGradient id="paint5_linear_8_730" x1="255.45" y1="16.1232" x2="247.346" y2="73.3023" gradientUnits="userSpaceOnUse">
<stop offset="0.00132565" stop-color="#FFCB4B"/>
<stop offset="1" stop-color="#FFD748"/>
</linearGradient>
<linearGradient id="paint6_linear_8_730" x1="248.385" y1="13.2284" x2="247.252" y2="67.2435" gradientUnits="userSpaceOnUse">
<stop offset="0.00132565" stop-color="#FFCB4B"/>
<stop offset="1" stop-color="#FFD748"/>
</linearGradient>
<linearGradient id="paint7_linear_8_730" x1="273.713" y1="40.5039" x2="193.665" y2="19.379" gradientUnits="userSpaceOnUse">
<stop stop-color="#FFBC47" stop-opacity="0"/>
<stop offset="1" stop-color="#FFA754"/>
</linearGradient>
<linearGradient id="paint8_linear_8_730" x1="321.791" y1="39.7293" x2="123.675" y2="-92.8533" gradientUnits="userSpaceOnUse">
<stop stop-color="#FFBC47" stop-opacity="0"/>
<stop offset="1" stop-color="#FFA754"/>
</linearGradient>
<linearGradient id="paint9_linear_8_730" x1="577.662" y1="62.6738" x2="-362.728" y2="-24.372" gradientUnits="userSpaceOnUse">
<stop stop-color="#FFBC47" stop-opacity="0"/>
<stop offset="1" stop-color="#FFA754"/>
</linearGradient>
<radialGradient id="paint10_radial_8_730" cx="0" cy="0" r="1" gradientTransform="matrix(34.8895 97.3207 -30.1055 112.786 242.353 -13.6057)" gradientUnits="userSpaceOnUse">
<stop stop-color="#FFBC47" stop-opacity="0"/>
<stop offset="1" stop-color="#FFA754"/>
</radialGradient>
<linearGradient id="paint11_linear_8_730" x1="330.868" y1="37.6035" x2="204.253" y2="48.4928" gradientUnits="userSpaceOnUse">
<stop offset="0.3118" stop-color="#FFBC47" stop-opacity="0"/>
<stop offset="1" stop-color="#FF8900"/>
</linearGradient>
<linearGradient id="paint12_linear_8_730" x1="525.984" y1="38.3655" x2="169.734" y2="130.091" gradientUnits="userSpaceOnUse">
<stop offset="0.3118" stop-color="#FFBC47" stop-opacity="0"/>
<stop offset="1" stop-color="#FF8900"/>
</linearGradient>
<linearGradient id="paint13_linear_8_730" x1="392.593" y1="37.1406" x2="190.929" y2="115.255" gradientUnits="userSpaceOnUse">
<stop offset="0.3118" stop-color="#FFBC47" stop-opacity="0"/>
<stop offset="1" stop-color="#FF8900"/>
</linearGradient>
<linearGradient id="paint14_linear_8_730" x1="221.846" y1="-3.93498" x2="234.403" y2="83.3945" gradientUnits="userSpaceOnUse">
<stop stop-color="#FFBC47" stop-opacity="0"/>
<stop offset="1" stop-color="#FFBC47"/>
</linearGradient>
<linearGradient id="paint15_linear_8_730" x1="254.395" y1="10.0071" x2="251.985" y2="68.7065" gradientUnits="userSpaceOnUse">
<stop stop-color="#FFBC47" stop-opacity="0"/>
<stop offset="1" stop-color="#FFBC47"/>
</linearGradient>
<linearGradient id="paint16_linear_8_730" x1="154.617" y1="38.4013" x2="237.663" y2="96.2359" gradientUnits="userSpaceOnUse">
<stop stop-color="#FFBC47" stop-opacity="0"/>
<stop offset="1" stop-color="#FFA754"/>
</linearGradient>
<linearGradient id="paint17_linear_8_730" x1="177.91" y1="73.6161" x2="187.726" y2="8.04027" gradientUnits="userSpaceOnUse">
<stop stop-color="#FFBC47" stop-opacity="0"/>
<stop offset="1" stop-color="#FFBC47"/>
</linearGradient>
<linearGradient id="paint18_linear_8_730" x1="234.089" y1="39.0572" x2="210.042" y2="40.1862" gradientUnits="userSpaceOnUse">
<stop offset="0.3118" stop-color="#FFBC47" stop-opacity="0"/>
<stop offset="1" stop-color="#FF8900"/>
</linearGradient>
<radialGradient id="paint19_radial_8_730" cx="0" cy="0" r="1" gradientTransform="matrix(2.46425 71.7684 -41.2501 3.5326 239.236 24.8985)" gradientUnits="userSpaceOnUse">
<stop offset="0.6134" stop-color="#FFBC47" stop-opacity="0"/>
<stop offset="1" stop-color="#FF8900"/>
</radialGradient>
</defs>
</svg>
