<svg width="381" height="260" viewBox="0 0 381 260" fill="none" xmlns="http://www.w3.org/2000/svg">
<g clip-path="url(#clip0_67_14909)">
<path d="M366.909 207.792C363.225 207.853 353.925 208.006 350.363 208.043L344.782 208.067H344.508V207.786L344.483 200.834V200.529H344.788L355.852 200.571C358.609 200.596 364.159 200.651 366.915 200.693H367.062V200.84L366.915 207.792H366.909ZM366.909 207.792L366.763 200.84L366.909 200.986C364.146 201.023 358.609 201.084 355.846 201.108L344.782 201.151L345.087 200.846L345.063 207.799L344.782 207.518L350.265 207.542C353.772 207.579 363.28 207.738 366.903 207.792H366.909Z" fill="#EBEBEB"/>
<path d="M354.571 216.563C350.887 216.624 341.586 216.776 338.024 216.813L332.444 216.837H332.169V216.557L332.145 209.604V209.299H332.45L343.514 209.342C346.27 209.366 351.82 209.421 354.577 209.464H354.723V209.61L354.577 216.563H354.571ZM354.571 216.563L354.425 209.61L354.571 209.756C351.808 209.793 346.27 209.854 343.507 209.878L332.444 209.921L332.749 209.616L332.724 216.569L332.444 216.288L337.927 216.313C341.434 216.349 350.942 216.508 354.565 216.563H354.571Z" fill="#EBEBEB"/>
<path d="M36.6001 207.792C32.9163 207.853 23.6153 208.006 20.0535 208.043L14.4729 208.067H14.1985V207.786L14.168 200.834V200.529H14.4729L25.5365 200.571C28.2932 200.596 33.8433 200.651 36.6001 200.693H36.7464V200.84L36.6001 207.792ZM36.6001 207.792L36.4537 200.84L36.6001 200.986C33.8372 201.023 28.2993 201.084 25.5365 201.108L14.4729 201.151L14.7779 200.846L14.7535 207.799L14.4729 207.518L19.9559 207.542C23.4628 207.579 32.9712 207.738 36.594 207.792H36.6001Z" fill="#EBEBEB"/>
<path d="M24.2558 209.604H2.13477V216.557H24.2558V209.604Z" fill="#EBEBEB"/>
<path d="M379.248 209.604H357.126V216.557H379.248V209.604Z" fill="#EBEBEB"/>
<path d="M182.055 71.0043C178.371 71.0653 169.07 71.2178 165.508 71.2544L159.928 71.2788H159.653V70.9982L159.623 64.0454V63.7404H159.928L170.991 63.7831C173.748 63.8075 179.298 63.8624 182.055 63.9051H182.201V64.0515L182.055 71.0043ZM182.055 71.0043L181.909 64.0515L182.055 64.1978C179.292 64.2344 173.754 64.2954 170.991 64.3198L159.928 64.3625L160.233 64.0576L160.208 71.0104L159.928 70.7299L165.411 70.7543C168.918 70.7909 178.426 70.9494 182.049 71.0043H182.055Z" fill="#EBEBEB"/>
<path d="M169.711 72.8218H147.59V79.7747H169.711V72.8218Z" fill="#EBEBEB"/>
<path d="M194.393 79.7746C190.709 79.8356 181.408 79.9881 177.847 80.0247L172.266 80.0491H171.992V79.7685L171.967 72.8157V72.5107H172.272L183.336 72.5534C186.092 72.5778 191.643 72.6327 194.399 72.6754H194.546V72.8218L194.399 79.7746H194.393ZM194.393 79.7746L194.247 72.8218L194.393 72.9682C191.63 73.0048 186.092 73.0657 183.33 73.0901L172.266 73.1328L172.571 72.8279L172.547 79.7807L172.266 79.5002L177.749 79.5246C181.256 79.5612 190.764 79.7198 194.387 79.7746H194.393Z" fill="#EBEBEB"/>
<path d="M267.953 169.253H245.832V176.206H267.953V169.253Z" fill="#EBEBEB"/>
<path d="M366.543 12.9297C362.86 12.9907 353.559 13.1432 349.997 13.1798L344.416 13.2042H344.142V12.9236L344.117 5.97078V5.66583H344.422L355.486 5.70853C358.243 5.73292 363.793 5.78781 366.549 5.83051H366.696V5.97688L366.549 12.9297H366.543ZM366.543 12.9297L366.397 5.97688L366.543 6.12326C363.78 6.15985 358.243 6.22084 355.48 6.24524L344.416 6.28793L344.721 5.98298L344.697 12.9358L344.416 12.6553L349.899 12.6797C353.406 12.7163 362.914 12.8748 366.537 12.9297H366.543Z" fill="#EBEBEB"/>
<path d="M378.882 14.7411H356.761V21.694H378.882V14.7411Z" fill="#EBEBEB"/>
<path d="M23.8166 12.9358C20.1328 12.9968 10.8319 13.1493 7.27005 13.1859L1.68947 13.2103H1.41502V12.9297L1.38452 5.97689V5.67194H1.68947L12.753 5.71463C15.5098 5.73902 21.0599 5.79392 23.8166 5.83661H23.963V5.98298L23.8166 12.9358ZM23.8166 12.9358L23.6702 5.98298L23.8166 6.12936C21.0538 6.16595 15.5159 6.22694 12.753 6.25134L1.68947 6.29403L1.99442 5.98908L1.97002 12.9419L1.68947 12.6614L7.17246 12.6858C10.6794 12.7224 20.1877 12.8809 23.8105 12.9358H23.8166Z" fill="#EBEBEB"/>
<path d="M99.0659 16.144H47.8588V49.5787H99.0659V16.144Z" fill="#DBDBDB"/>
<path d="M99.0659 51.5364H47.8588V84.9711H99.0659V51.5364Z" fill="#EBEBEB"/>
<path d="M57.9038 57.9647H52.927V62.9415H57.9038V57.9647Z" fill="white"/>
<path d="M63.9173 57.9647H58.9406V62.9414H63.9173V57.9647Z" fill="#C7C7C7"/>
<path d="M69.9371 57.9647H64.9603V62.9414H69.9371V57.9647Z" fill="white"/>
<path d="M75.9507 57.9647H70.9739V62.9414H75.9507V57.9647Z" fill="white"/>
<path d="M81.9704 57.9647H76.9937V62.9414H81.9704V57.9647Z" fill="white"/>
<path d="M87.984 57.9647H83.0072V62.9414H87.984V57.9647Z" fill="white"/>
<path d="M93.9976 57.9647H89.0209V62.9414H93.9976V57.9647Z" fill="white"/>
<path d="M57.9038 64.021H52.927V68.9978H57.9038V64.021Z" fill="white"/>
<path d="M63.9173 64.021H58.9406V68.9978H63.9173V64.021Z" fill="white"/>
<path d="M69.9371 64.021H64.9603V68.9978H69.9371V64.021Z" fill="white"/>
<path d="M75.9507 64.021H70.9739V68.9978H75.9507V64.021Z" fill="white"/>
<path d="M81.9704 64.021H76.9937V68.9978H81.9704V64.021Z" fill="#C7C7C7"/>
<path d="M87.984 64.021H83.0072V68.9978H87.984V64.021Z" fill="white"/>
<path d="M93.9976 64.021H89.0209V68.9978H93.9976V64.021Z" fill="white"/>
<path d="M57.9038 70.0834H52.927V75.0601H57.9038V70.0834Z" fill="white"/>
<path d="M63.9173 70.0834H58.9406V75.0601H63.9173V70.0834Z" fill="white"/>
<path d="M69.9371 70.0834H64.9603V75.0601H69.9371V70.0834Z" fill="white"/>
<path d="M75.9507 70.0834H70.9739V75.0601H75.9507V70.0834Z" fill="white"/>
<path d="M81.9704 70.0834H76.9937V75.0601H81.9704V70.0834Z" fill="white"/>
<path d="M87.984 70.0834H83.0072V75.0601H87.984V70.0834Z" fill="white"/>
<path d="M93.9976 70.0834H89.0209V75.0601H93.9976V70.0834Z" fill="white"/>
<path d="M57.9038 76.1397H52.927V81.1165H57.9038V76.1397Z" fill="white"/>
<path d="M63.9173 76.1397H58.9406V81.1165H63.9173V76.1397Z" fill="white"/>
<path d="M69.9371 76.1397H64.9603V81.1165H69.9371V76.1397Z" fill="#C7C7C7"/>
<path d="M75.9507 76.1397H70.9739V81.1165H75.9507V76.1397Z" fill="white"/>
<path d="M81.9704 76.1397H76.9937V81.1165H81.9704V76.1397Z" fill="white"/>
<path d="M87.984 76.1397H83.0072V81.1165H87.984V76.1397Z" fill="white"/>
<path d="M93.9976 76.1397H89.0209V81.1165H93.9976V76.1397Z" fill="white"/>
<path d="M51.8109 47.9868H49.8654V53.1283H51.8109V47.9868Z" fill="#C7C7C7"/>
<path d="M56.3363 47.9869H54.3907V53.1283H56.3363V47.9869Z" fill="#C7C7C7"/>
<path d="M60.8618 47.9869H58.9163V53.1283H60.8618V47.9869Z" fill="#C7C7C7"/>
<path d="M65.3874 47.9869H63.4418V53.1283H65.3874V47.9869Z" fill="#C7C7C7"/>
<path d="M69.9127 47.9869H67.9672V53.1283H69.9127V47.9869Z" fill="#C7C7C7"/>
<path d="M74.4381 47.9869H72.4926V53.1283H74.4381V47.9869Z" fill="#C7C7C7"/>
<path d="M78.9636 47.9869H77.0181V53.1283H78.9636V47.9869Z" fill="#C7C7C7"/>
<path d="M83.4892 47.9869H81.5436V53.1283H83.4892V47.9869Z" fill="#C7C7C7"/>
<path d="M88.0145 47.9869H86.069V53.1283H88.0145V47.9869Z" fill="#C7C7C7"/>
<path d="M92.5399 47.9869H90.5944V53.1283H92.5399V47.9869Z" fill="#C7C7C7"/>
<path d="M97.0654 47.9869H95.1199V53.1283H97.0654V47.9869Z" fill="#C7C7C7"/>
<path d="M74.2857 19.5656C74.2857 20.0169 73.9197 20.3828 73.4684 20.3828C73.0171 20.3828 72.6511 20.0169 72.6511 19.5656C72.6511 19.1142 73.0171 18.7483 73.4684 18.7483C73.9197 18.7483 74.2857 19.1142 74.2857 19.5656Z" fill="#263238"/>
<path d="M34.9716 133.806V259.414H111.276V133.806H34.9716ZM41.9 180.591H104.348V213.452H41.9V180.591ZM41.9 139.905H104.348V172.766H41.9V139.905Z" fill="#DBDBDB"/>
<path d="M0.469559 259.414H34.9716L34.9716 133.806H0.469559L0.469559 259.414Z" fill="#EBEBEB"/>
<path d="M89.5088 172.76H104.348V139.905H89.5088V172.76Z" fill="#EBEBEB"/>
<path d="M41.9 251.492H103.957V220.161H41.9L41.9 251.492Z" stroke="#EBEBEB" stroke-width="0.30495" stroke-miterlimit="10"/>
<path d="M66.7656 233.481H79.0917V228.974H66.7656V233.481Z" fill="#EBEBEB"/>
<path d="M89.5088 213.452H104.348V180.597H89.5088V213.452Z" fill="#EBEBEB"/>
<path d="M60.8801 213.452V183.159H50.4386V213.452H60.8801Z" fill="#A6A6A6"/>
<path d="M60.8801 208.591V202.053H50.4386V208.591H60.8801Z" fill="#DBDBDB"/>
<path d="M60.8801 196.784V192.905H50.4387V196.784H60.8801Z" fill="#DBDBDB"/>
<path d="M59.758 172.76H86.1422V147.406H59.758V172.76Z" fill="#EBEBEB"/>
<path d="M49.7312 172.76H59.7579V147.406H49.7312V172.76Z" fill="#C7C7C7"/>
<path d="M86.1422 160.086H59.7518L80.3603 160.739L86.1422 160.086Z" fill="#C7C7C7"/>
<path d="M59.7518 169.704H86.1422L65.5337 170.357L59.7518 169.704Z" fill="#C7C7C7"/>
<path d="M86.1421 152.999H69.4248L84.2819 153.536L86.1421 152.999Z" fill="#C7C7C7"/>
<path d="M59.7518 165.972H76.4692L61.612 166.502L59.7518 165.972Z" fill="#C7C7C7"/>
<path d="M79.8115 150.181H60.9595L64.1005 150.499L79.8115 150.181Z" fill="#C7C7C7"/>
<path d="M83.5745 162.806H64.7225L67.8635 163.124L83.5745 162.806Z" fill="#C7C7C7"/>
<path d="M71.9803 155.414H59.7518L57.5684 156.268L71.9803 155.414Z" fill="#EBEBEB"/>
<path d="M89.5088 155.414H77.2804L75.0969 156.268L89.5088 155.414Z" fill="#EBEBEB"/>
<path d="M73.8162 166.807H86.0446L88.2281 167.661L73.8162 166.807Z" fill="#EBEBEB"/>
<path d="M59.7518 163.916H49.9386L47.749 164.77L59.7518 163.916Z" fill="#C7C7C7"/>
<path d="M56.3303 160.086H48.7126L49.7251 159.391L56.3303 160.086Z" fill="#C7C7C7"/>
<path d="M50.4447 181.128H41.9V213.446H50.4447V181.128Z" fill="#EBEBEB"/>
<path d="M46.1693 187.507C47.1513 187.507 47.9502 186.708 47.9502 185.726C47.9502 184.744 47.1513 183.945 46.1693 183.945C45.1874 183.945 44.3884 184.744 44.3884 185.726C44.3884 186.708 45.1874 187.507 46.1693 187.507Z" fill="white"/>
<path d="M46.1693 186.745C46.7304 186.745 47.1878 186.287 47.1878 185.726C47.1878 185.165 46.7304 184.708 46.1693 184.708C45.6082 184.708 45.1508 185.165 45.1508 185.726C45.1508 186.287 45.6082 186.745 46.1693 186.745Z" fill="#A6A6A6"/>
<path d="M50.4386 208.354V200.492H41.8939V208.354H50.4386Z" fill="white"/>
<path d="M93.1987 206.78H60.8801V213.501H93.1987V206.78Z" fill="#C7C7C7"/>
<path d="M67.2597 210.135C67.2597 209.153 66.4607 208.354 65.4788 208.354C64.4968 208.354 63.6979 209.153 63.6979 210.135C63.6979 211.116 64.4968 211.915 65.4788 211.915C66.4607 211.915 67.2597 211.116 67.2597 210.135Z" fill="white"/>
<path d="M66.4973 210.135C66.4973 209.573 66.0398 209.116 65.4787 209.116C64.9176 209.116 64.4602 209.573 64.4602 210.135C64.4602 210.696 64.9176 211.153 65.4787 211.153C66.0398 211.153 66.4973 210.696 66.4973 210.135Z" fill="#A6A6A6"/>
<path d="M88.106 206.78H80.2444V213.501H88.106V206.78Z" fill="white"/>
<path d="M339.976 9.13617H262.623V95.4369H339.976V9.13617Z" fill="#DBDBDB"/>
<path d="M334.883 14.2288H267.721V90.3869H334.883V14.2288Z" fill="#EBEBEB"/>
<path d="M297.466 27.6955H273.79V55.7448H297.466V27.6955Z" fill="white"/>
<path d="M286.476 29.6044C286.476 30.074 286.098 30.4583 285.622 30.4583C285.146 30.4583 284.768 30.0801 284.768 29.6044C284.768 29.1287 285.146 28.7505 285.622 28.7505C286.098 28.7505 286.476 29.1287 286.476 29.6044Z" fill="#455A64"/>
<path d="M278.297 33.3187C280.688 33.1357 283.085 33.1235 285.475 33.0991C287.866 33.1235 290.263 33.1357 292.654 33.3187C290.263 33.5017 287.866 33.5139 285.475 33.5382C283.085 33.5139 280.688 33.5017 278.297 33.3187Z" fill="#EBEBEB"/>
<path d="M278.297 35.5327C279.596 35.3619 280.901 35.3192 282.2 35.307C283.499 35.3131 284.805 35.3558 286.104 35.5327C284.805 35.7095 283.499 35.7461 282.2 35.7522C280.901 35.7461 279.596 35.7034 278.297 35.5327Z" fill="#EBEBEB"/>
<path d="M278.297 37.7527C279.962 37.5819 281.621 37.5392 283.286 37.527C284.951 37.5331 286.61 37.5758 288.275 37.7527C286.61 37.9296 284.951 37.9662 283.286 37.9723C281.621 37.9662 279.962 37.9235 278.297 37.7527Z" fill="#EBEBEB"/>
<path d="M278.297 39.9666C280.377 39.7959 282.456 39.7532 284.536 39.741C286.616 39.7471 288.696 39.7898 290.775 39.9666C288.696 40.1435 286.616 40.1801 284.536 40.1862C282.456 40.1801 280.377 40.1374 278.297 39.9666Z" fill="#EBEBEB"/>
<path d="M278.297 42.1867C280.102 42.0159 281.914 41.9732 283.719 41.961C285.524 41.9671 287.336 42.0098 289.141 42.1867C287.336 42.3635 285.524 42.4001 283.719 42.4062C281.914 42.4001 280.102 42.3574 278.297 42.1867Z" fill="#EBEBEB"/>
<path d="M278.297 44.4006C280.608 44.2176 282.926 44.2054 285.238 44.181C287.549 44.2054 289.867 44.2176 292.178 44.4006C289.867 44.5836 287.549 44.5958 285.238 44.6202C282.926 44.5958 280.608 44.5836 278.297 44.4006Z" fill="#EBEBEB"/>
<path d="M278.297 46.6206C279.791 46.4499 281.285 46.4072 282.78 46.395C284.274 46.4011 285.768 46.4438 287.262 46.6206C285.768 46.7975 284.274 46.8341 282.78 46.8402C281.285 46.8341 279.791 46.7914 278.297 46.6206Z" fill="#EBEBEB"/>
<path d="M278.297 48.8346C280.688 48.6516 283.085 48.6394 285.475 48.615C287.866 48.6394 290.263 48.6516 292.654 48.8346C290.263 49.0175 287.866 49.0297 285.475 49.0541C283.085 49.0297 280.688 49.0175 278.297 48.8346Z" fill="#EBEBEB"/>
<path d="M278.297 51.0545C280.688 50.8716 283.085 50.8594 285.475 50.835C287.866 50.8594 290.263 50.8716 292.654 51.0545C290.263 51.2375 287.866 51.2497 285.475 51.2741C283.085 51.2497 280.688 51.2375 278.297 51.0545Z" fill="#EBEBEB"/>
<path d="M329.077 45.1874H301.065V78.3781H329.077V45.1874Z" fill="white"/>
<path d="M315.922 49.6641C315.922 50.1337 315.544 50.518 315.068 50.518C314.592 50.518 314.214 50.1398 314.214 49.6641C314.214 49.1884 314.592 48.8102 315.068 48.8102C315.544 48.8102 315.922 49.1884 315.922 49.6641Z" fill="#455A64"/>
<path d="M304.986 53.4698C306.023 53.299 307.06 53.2563 308.091 53.2441C309.127 53.2502 310.164 53.2929 311.195 53.4698C310.158 53.6467 309.121 53.6833 308.091 53.6955C307.054 53.6894 306.017 53.6467 304.986 53.4698Z" fill="#EBEBEB"/>
<path d="M304.986 55.9703C306.328 55.7996 307.67 55.7569 309.005 55.7447C310.347 55.7508 311.689 55.7935 313.025 55.9703C311.683 56.1472 310.341 56.1838 309.005 56.196C307.664 56.1899 306.322 56.1472 304.986 55.9703Z" fill="#EBEBEB"/>
<path d="M304.986 58.477C306.23 58.3062 307.468 58.2635 308.713 58.2513C309.957 58.2574 311.195 58.3001 312.439 58.477C311.195 58.6539 309.957 58.6905 308.713 58.7027C307.468 58.6966 306.23 58.6539 304.986 58.477Z" fill="#EBEBEB"/>
<path d="M304.986 60.9776C306.23 60.8068 307.468 60.7642 308.713 60.752C309.957 60.7581 311.195 60.8007 312.439 60.9776C311.195 61.1545 309.957 61.1911 308.713 61.2033C307.468 61.1972 306.23 61.1545 304.986 60.9776Z" fill="#EBEBEB"/>
<path d="M304.986 63.4782C306.066 63.3075 307.145 63.2648 308.225 63.2526C309.304 63.2587 310.384 63.3014 311.463 63.4782C310.384 63.6551 309.304 63.6917 308.225 63.7039C307.145 63.6978 306.066 63.6551 304.986 63.4782Z" fill="#EBEBEB"/>
<path d="M304.986 65.9849C306.365 65.8142 307.749 65.7715 309.127 65.7593C310.506 65.7654 311.89 65.8081 313.269 65.9849C311.89 66.1618 310.506 66.1984 309.127 66.2106C307.749 66.2045 306.365 66.1618 304.986 65.9849Z" fill="#EBEBEB"/>
<path d="M304.986 68.4855C306.127 68.3147 307.267 68.272 308.408 68.2598C309.548 68.2659 310.689 68.3086 311.829 68.4855C310.689 68.6624 309.548 68.699 308.408 68.7112C307.267 68.7051 306.127 68.6624 304.986 68.4855Z" fill="#EBEBEB"/>
<path d="M304.986 70.9861C306.413 70.8153 307.847 70.7726 309.274 70.7665C310.701 70.7726 312.134 70.8153 313.561 70.9861C312.134 71.163 310.701 71.1996 309.274 71.2118C307.847 71.2057 306.413 71.163 304.986 70.9861Z" fill="#EBEBEB"/>
<path d="M304.986 73.4928C306.413 73.322 307.847 73.2793 309.274 73.2671C310.701 73.2732 312.134 73.3159 313.561 73.4928C312.134 73.6696 310.701 73.7062 309.274 73.7123C307.847 73.7062 306.413 73.6635 304.986 73.4928Z" fill="#EBEBEB"/>
<path d="M317.227 53.4698C318.581 53.299 319.941 53.2563 321.295 53.2441C322.649 53.2502 324.009 53.2929 325.363 53.4698C324.009 53.6467 322.649 53.6833 321.295 53.6955C319.941 53.6894 318.581 53.6467 317.227 53.4698Z" fill="#EBEBEB"/>
<path d="M317.227 55.9703C318.117 55.7996 319.008 55.7569 319.904 55.7447C320.795 55.7508 321.685 55.7935 322.582 55.9703C321.691 56.1472 320.801 56.1838 319.904 56.196C319.014 56.1899 318.123 56.1472 317.227 55.9703Z" fill="#EBEBEB"/>
<path d="M317.227 58.477C318.501 58.3062 319.782 58.2635 321.057 58.2513C322.332 58.2574 323.612 58.3001 324.887 58.477C323.612 58.6539 322.332 58.6905 321.057 58.7027C319.782 58.6966 318.501 58.6539 317.227 58.477Z" fill="#EBEBEB"/>
<path d="M317.227 60.9776C318.471 60.8068 319.709 60.7642 320.953 60.752C322.197 60.7581 323.436 60.8007 324.68 60.9776C323.436 61.1545 322.197 61.1911 320.953 61.2033C319.709 61.1972 318.471 61.1545 317.227 60.9776Z" fill="#EBEBEB"/>
<path d="M317.227 63.4782C318.581 63.3075 319.941 63.2648 321.295 63.2526C322.649 63.2587 324.009 63.3014 325.363 63.4782C324.009 63.6551 322.649 63.6917 321.295 63.7039C319.941 63.6978 318.581 63.6551 317.227 63.4782Z" fill="#EBEBEB"/>
<path d="M317.227 65.9849C318.306 65.8142 319.386 65.7715 320.465 65.7593C321.545 65.7654 322.624 65.8081 323.704 65.9849C322.624 66.1618 321.545 66.1984 320.465 66.2106C319.386 66.2045 318.306 66.1618 317.227 65.9849Z" fill="#EBEBEB"/>
<path d="M317.227 68.4855C318.501 68.3147 319.782 68.272 321.057 68.2598C322.332 68.2659 323.612 68.3086 324.887 68.4855C323.612 68.6624 322.332 68.699 321.057 68.7112C319.782 68.7051 318.501 68.6624 317.227 68.4855Z" fill="#EBEBEB"/>
<path d="M317.227 70.9861C318.215 70.8153 319.203 70.7726 320.191 70.7665C321.179 70.7726 322.167 70.8153 323.155 70.9861C322.167 71.163 321.179 71.1996 320.191 71.2118C319.203 71.2057 318.215 71.163 317.227 70.9861Z" fill="#EBEBEB"/>
<path d="M317.227 73.4928C318.172 73.322 319.124 73.2793 320.069 73.2671C321.014 73.2732 321.966 73.3159 322.911 73.4928C321.966 73.6696 321.014 73.7062 320.069 73.7123C319.124 73.7062 318.172 73.6635 317.227 73.4928Z" fill="#EBEBEB"/>
<path d="M309.53 19.9864H295.289V34.2275H309.53V19.9864Z" fill="#C7C7C7"/>
<path d="M303.26 21.4319C303.26 21.9015 302.882 22.2857 302.406 22.2857C301.931 22.2857 301.552 21.9076 301.552 21.4319C301.552 20.9561 301.931 20.578 302.406 20.578C302.882 20.578 303.26 20.9561 303.26 21.4319Z" fill="#455A64"/>
<path d="M334.816 14.2288H332.895V90.4662H334.816V14.2288Z" fill="#C7C7C7"/>
<path d="M337.414 206.189L335.884 207.738L335.829 207.171V207.164L336.811 206.189H337.414Z" fill="#DBDBDB"/>
<path d="M343.233 206.189L338.012 211.446L336.329 213.117L336.298 212.769V212.757L336.286 212.562L337.701 211.135L342.672 206.189H343.233Z" fill="#DBDBDB"/>
<path d="M349.063 206.189L340.934 214.373L336.792 218.49L336.786 218.405L336.75 217.954L340.622 214.05L348.533 206.189H349.063Z" fill="#DBDBDB"/>
<path d="M354.888 206.189L343.861 217.295L337.25 223.857L337.201 223.351L343.538 216.978L354.388 206.189H354.888Z" fill="#DBDBDB"/>
<path d="M360.688 206.189C359.901 207 359.109 207.805 358.316 208.61L346.776 220.222L337.701 229.243L337.664 228.761L346.465 219.899L358.066 208.372C358.798 207.64 359.535 206.914 360.28 206.195H360.688V206.189Z" fill="#DBDBDB"/>
<path d="M366.488 206.189C364.738 207.976 362.987 209.75 361.231 211.525L349.704 223.138L338.158 234.604L338.122 234.159L349.387 222.827L360.999 211.287C362.719 209.586 364.445 207.89 366.177 206.195H366.5L366.488 206.189Z" fill="#DBDBDB"/>
<path d="M372.258 206.189C369.574 208.958 366.866 211.702 364.152 214.453L352.625 226.053L341.013 237.592C340.22 238.385 339.415 239.172 338.61 239.959L338.573 239.587C339.299 238.836 340.037 238.099 340.769 237.354L352.308 225.742L363.908 214.215C366.622 211.531 369.355 208.854 372.081 206.195H372.252L372.258 206.189Z" fill="#DBDBDB"/>
<path d="M377.942 206.256V206.292C374.338 210.006 370.721 213.696 367.08 217.374L355.541 228.987L343.94 240.514C342.318 242.112 340.69 243.71 339.067 245.307L339.043 245.015C340.586 243.435 342.141 241.855 343.702 240.276L355.23 228.663L366.842 217.136C370.52 213.495 374.222 209.872 377.942 206.256Z" fill="#DBDBDB"/>
<path d="M377.412 212.544V212.562L377.393 212.757C374.929 215.282 372.465 217.801 369.995 220.296L358.468 231.896L346.856 243.435C344.422 245.844 341.976 248.253 339.512 250.644V250.62L339.494 250.443C341.861 248.015 344.233 245.6 346.618 243.185L358.145 231.585L369.757 220.045C372.301 217.539 374.85 215.032 377.412 212.538V212.544Z" fill="#DBDBDB"/>
<path d="M376.881 218.844L376.844 219.234C375.539 220.564 374.24 221.887 372.929 223.217L361.39 234.829L349.789 246.357C346.63 249.479 343.452 252.596 340.269 255.688H340.159C343.263 252.474 346.398 249.29 349.539 246.113L361.079 234.5L372.679 222.973C374.082 221.589 375.478 220.216 376.881 218.844Z" fill="#DBDBDB"/>
<path d="M376.344 225.162L376.302 225.669C376.149 225.821 375.997 225.98 375.844 226.132L364.317 237.745L352.705 249.272C350.533 251.425 348.356 253.553 346.179 255.688H345.922C348.1 253.468 350.277 251.242 352.461 249.028L363.988 237.428L375.6 225.888C375.85 225.65 376.088 225.4 376.338 225.156L376.344 225.162Z" fill="#DBDBDB"/>
<path d="M375.795 231.524L375.753 232.085L367.232 240.66L355.62 252.199C354.443 253.37 353.266 254.529 352.076 255.688H351.704C352.924 254.438 354.15 253.2 355.382 251.955L366.921 240.343L375.801 231.518L375.795 231.524Z" fill="#DBDBDB"/>
<path d="M375.265 237.879L375.21 238.495L370.148 243.588L358.547 255.115C358.352 255.304 358.163 255.499 357.968 255.688H357.504C357.773 255.42 358.041 255.145 358.31 254.877L369.837 243.264L375.265 237.873V237.879Z" fill="#DBDBDB"/>
<path d="M374.716 244.24L374.667 244.911L373.075 246.509L363.829 255.694H363.323L372.758 246.198L374.716 244.24Z" fill="#DBDBDB"/>
<path d="M374.185 250.626V250.65L374.13 251.291L369.702 255.694H369.147L374.185 250.626Z" fill="#DBDBDB"/>
<path d="M377.869 207.164L377.814 207.744L376.277 206.189H376.887L377.869 207.164Z" fill="#DBDBDB"/>
<path d="M377.412 212.562L377.363 213.117L375.679 211.446L370.453 206.189H371.026L375.997 211.135L377.412 212.562Z" fill="#DBDBDB"/>
<path d="M376.948 217.954L376.911 218.405L376.905 218.496L372.758 214.373L364.628 206.189H365.159L373.075 214.05L376.948 217.954Z" fill="#DBDBDB"/>
<path d="M376.497 223.363L376.448 223.87L369.837 217.295L358.81 206.189H359.298L370.148 216.978L376.497 223.363Z" fill="#DBDBDB"/>
<path d="M376.039 228.767L375.997 229.243L366.921 220.222L355.382 208.61C354.589 207.805 353.796 207.006 353.01 206.189H353.412C354.15 206.914 354.894 207.634 355.626 208.366L367.238 219.893L376.045 228.761L376.039 228.767Z" fill="#DBDBDB"/>
<path d="M375.576 234.159L375.539 234.604L363.994 223.138L352.467 211.525C350.71 209.75 348.96 207.976 347.209 206.189H347.533C349.253 207.884 350.985 209.58 352.711 211.281L364.323 222.821L375.588 234.152L375.576 234.159Z" fill="#DBDBDB"/>
<path d="M375.118 239.587L375.082 239.971C374.277 239.178 373.478 238.391 372.673 237.598L361.072 226.059L349.533 214.459C346.831 211.708 344.123 208.964 341.44 206.195H341.611C344.343 208.854 347.069 211.531 349.783 214.215L361.383 225.742L372.923 237.354C373.655 238.092 374.386 238.837 375.118 239.587Z" fill="#DBDBDB"/>
<path d="M374.655 245.009L374.637 245.301C373.002 243.722 371.38 242.118 369.757 240.508L358.145 228.98L346.618 217.368C342.977 213.69 339.36 209.994 335.755 206.286V206.25C339.476 209.866 343.178 213.489 346.856 217.13L358.468 228.657L369.995 240.27C371.557 241.849 373.112 243.429 374.655 245.009Z" fill="#DBDBDB"/>
<path d="M374.203 250.443L374.185 250.65C371.721 248.259 369.276 245.85 366.842 243.441L355.23 231.902L343.702 220.302C341.232 217.801 338.756 215.288 336.304 212.769L336.286 212.544C338.848 215.032 341.397 217.539 343.94 220.052L355.541 231.591L367.08 243.191C369.465 245.6 371.837 248.022 374.203 250.449V250.443Z" fill="#DBDBDB"/>
<path d="M373.539 255.694H373.429C370.245 252.596 367.068 249.485 363.908 246.363L352.308 234.836L340.769 223.223C339.458 221.894 338.152 220.57 336.853 219.24L336.817 218.85C338.219 220.222 339.616 221.601 341.013 222.979L352.625 234.506L364.152 246.119C367.293 249.296 370.434 252.48 373.539 255.694Z" fill="#DBDBDB"/>
<path d="M367.775 255.694H367.519C365.336 253.559 363.164 251.431 360.993 249.278L349.381 237.751L337.854 226.138C337.701 225.986 337.549 225.827 337.396 225.675L337.353 225.175C337.603 225.406 337.841 225.657 338.091 225.9L349.704 237.44L361.231 249.04C363.414 251.254 365.592 253.474 367.769 255.7L367.775 255.694Z" fill="#DBDBDB"/>
<path d="M361.981 255.694H361.615C360.426 254.535 359.243 253.376 358.066 252.205L346.465 240.666L337.945 232.097L337.902 231.524L346.782 240.349L358.322 251.961C359.542 253.2 360.774 254.444 361.987 255.694H361.981Z" fill="#DBDBDB"/>
<path d="M356.193 255.694H355.73C355.535 255.505 355.345 255.31 355.15 255.121L343.538 243.594L338.488 238.507L338.433 237.885L343.861 243.277L355.388 254.889C355.657 255.157 355.925 255.432 356.193 255.7V255.694Z" fill="#DBDBDB"/>
<path d="M350.375 255.694H349.869L340.622 246.509L339.031 244.911V244.905L338.97 244.252L340.934 246.198L350.375 255.694Z" fill="#DBDBDB"/>
<path d="M344.544 255.694H343.995L339.567 251.291L339.512 250.626L344.544 255.694Z" fill="#DBDBDB"/>
<path d="M336.186 206.263L335.299 206.344L339.804 255.748L340.691 255.667L336.186 206.263Z" fill="#DBDBDB"/>
<path d="M377.597 206.225L373.049 255.625L373.936 255.707L378.484 206.306L377.597 206.225Z" fill="#DBDBDB"/>
<path d="M380.479 200.785H333.145V208.799H380.479V200.785Z" fill="#DBDBDB"/>
<path d="M375.594 251.4H338.024V259.414H375.594V251.4Z" fill="#DBDBDB"/>
<path d="M203.469 212.05C203.469 212.05 190.563 209.122 183.488 202.608C176.413 196.089 172.461 184.415 172.461 184.415C172.461 184.415 180.061 185.806 186.934 188.215C188.087 189.453 190.289 191.996 191.313 194.405C191.313 194.405 191.533 191.862 191.35 189.977C193.192 190.825 194.79 191.764 195.948 192.765C201.816 197.894 203.469 212.044 203.469 212.044V212.05Z" fill="#FFC727"/>
<path d="M180.524 190.093C178.768 188.874 176.974 187.703 175.224 186.471C175.12 186.397 175.218 186.233 175.328 186.3C178.652 188.288 181.933 190.411 185.104 192.631C186.208 193.405 187.294 194.21 188.367 195.034C188.294 194.905 188.221 194.777 188.142 194.649C187.758 194.003 187.349 193.362 186.94 192.728C186.117 191.453 185.226 190.197 184.202 189.069C184.165 189.026 184.226 188.965 184.263 189.008C185.269 190.167 186.269 191.313 187.19 192.545C187.629 193.131 188.032 193.734 188.416 194.357C188.617 194.68 188.813 195.003 188.996 195.332C189.057 195.442 189.124 195.552 189.191 195.668C190.862 196.979 192.484 198.345 194.033 199.791C194.991 200.681 195.912 201.608 196.802 202.56C196.302 200.998 195.869 199.419 195.29 197.882C195.271 197.827 195.357 197.809 195.375 197.863C195.936 199.474 196.552 201.096 196.985 202.755C197.973 203.822 198.919 204.932 199.809 206.079C199.797 206.012 199.779 205.939 199.76 205.871C199.614 205.262 199.461 204.658 199.297 204.054C198.98 202.889 198.638 201.724 198.248 200.584C197.443 198.236 196.394 195.942 194.784 194.033C194.747 193.991 194.808 193.93 194.845 193.972C197.363 196.955 198.845 200.535 199.785 204.292C199.925 204.841 200.053 205.396 200.181 205.945C200.248 206.237 200.328 206.536 200.376 206.835C200.767 207.36 201.151 207.896 201.517 208.439C203.755 211.775 205.506 215.416 206.975 219.149C208.634 223.351 209.921 227.688 211.111 232.042C211.135 232.128 211.007 232.158 210.976 232.073C208.451 224.522 205.878 216.862 201.553 210.11C200.639 208.683 199.657 207.311 198.608 205.987C196.485 205.865 194.344 205.408 192.332 204.737C190.106 203.999 188.008 202.968 186.044 201.7C184.909 200.968 183.872 200.114 182.817 199.266C182.769 199.23 182.817 199.156 182.872 199.199C184.617 200.675 186.715 201.834 188.788 202.779C190.868 203.731 193.064 204.475 195.296 204.963C196.247 205.17 197.217 205.323 198.181 205.457C196.985 203.987 195.717 202.584 194.375 201.242C193.942 200.809 193.491 200.388 193.039 199.974C191.557 198.894 189.917 198.034 188.27 197.241C186.153 196.217 184.074 195.137 181.982 194.07C180.799 193.472 179.628 192.856 178.438 192.271C178.389 192.246 178.438 192.173 178.487 192.198C180.609 193.222 182.762 194.18 184.903 195.162C186.916 196.083 188.959 197.01 190.892 198.095C190.978 198.144 191.051 198.193 191.136 198.242C189.386 196.717 187.581 195.271 185.727 193.869C184.013 192.576 182.281 191.313 180.518 190.093H180.524Z" fill="#263238"/>
<path d="M181.256 196.747C182.305 197.205 183.372 197.613 184.415 198.101C185.483 198.601 186.495 199.187 187.507 199.785C187.55 199.809 187.507 199.876 187.465 199.852C186.434 199.358 185.391 198.9 184.373 198.388C183.33 197.863 182.299 197.302 181.226 196.833C181.177 196.808 181.201 196.723 181.25 196.747H181.256Z" fill="#263238"/>
<path d="M245.393 147.016C245.393 147.016 241.77 151.164 241.538 157.732C241.496 158.891 241.679 160.501 241.813 162.398C237.001 164.966 233.39 169.595 233.39 169.595C236.122 167.954 239.873 167.289 241.898 167.558C241.831 168.808 241.685 170.101 241.404 171.412C240.508 171.363 238.782 171.479 235.933 172.492C235.933 172.492 238.733 172.419 240.867 173.474C238.568 180.792 231.731 188.312 212.849 191.502C212.849 191.502 209.208 178.682 216.191 164.929C221.851 153.798 245.393 147.004 245.393 147.004V147.016Z" fill="#FFC727"/>
<path d="M206.311 222.827C206.64 219.698 207.049 216.581 207.53 213.477C208.494 207.262 209.75 201.078 211.336 194.991C212.086 192.118 212.983 189.307 214.062 186.568C213.989 186.074 214.001 185.556 213.995 185.056C213.983 184.452 213.977 183.848 213.989 183.244C214.001 182.037 214.062 180.829 214.16 179.621C214.361 177.243 214.727 174.858 215.319 172.54C215.666 171.193 216.063 169.869 216.459 168.539C216.478 168.485 216.557 168.509 216.545 168.564C215.88 170.863 215.496 173.26 215.148 175.633C214.807 177.981 214.599 180.347 214.514 182.72C214.489 183.366 214.477 184.019 214.477 184.665C214.477 184.94 214.489 185.22 214.502 185.501C215.429 183.256 216.478 181.055 217.685 178.914C219.588 175.529 221.778 172.315 224.15 169.247C224.126 168.899 224.236 168.527 224.303 168.192C224.394 167.771 224.486 167.35 224.577 166.929C224.772 166.069 224.986 165.209 225.224 164.356C225.693 162.642 226.315 160.989 226.846 159.299C226.864 159.245 226.944 159.269 226.931 159.324C226.431 160.995 226.102 162.727 225.718 164.429C225.529 165.27 225.346 166.112 225.157 166.954C225.065 167.375 224.974 167.795 224.888 168.216C224.882 168.247 224.876 168.277 224.87 168.308C225.632 167.344 226.413 166.393 227.206 165.459C230.81 161.233 234.762 157.33 238.745 153.457C239.233 152.981 239.733 152.517 240.233 152.048C240.276 152.011 240.331 152.072 240.294 152.109C236.495 156.073 232.75 160.086 229.2 164.288C228.358 165.289 227.529 166.295 226.712 167.32C227.139 167.027 227.572 166.746 227.999 166.466C229.096 165.746 230.213 165.045 231.353 164.404C232.5 163.764 233.652 163.136 234.83 162.55C236.043 161.953 237.336 161.465 238.501 160.782C238.55 160.751 238.593 160.836 238.544 160.861C237.336 161.355 236.214 162.105 235.098 162.77C233.951 163.453 232.799 164.136 231.67 164.856C230.56 165.557 229.444 166.252 228.34 166.972C227.419 167.57 226.517 168.222 225.565 168.771C223.388 171.595 221.339 174.516 219.515 177.578C218.362 179.505 217.325 181.488 216.386 183.506C216.612 183.409 216.837 183.311 217.063 183.214C217.636 182.957 218.216 182.701 218.789 182.445C219.899 181.951 221.015 181.469 222.131 180.987C224.248 180.067 226.401 179.219 228.474 178.212C229.639 177.645 230.786 177.048 231.865 176.328C231.914 176.297 231.951 176.371 231.908 176.407C228.035 179.079 223.699 180.957 219.411 182.854L217.551 183.677C217.039 183.903 216.526 184.153 216.002 184.354C214.739 187.184 213.672 190.099 212.806 193.106C211.086 199.101 209.775 205.231 208.695 211.373C207.61 217.539 206.884 223.748 206.311 229.981C206.237 230.761 206.17 231.536 206.079 232.311C206.042 232.622 205.585 232.622 205.585 232.298C205.621 229.133 205.945 225.961 206.274 222.814L206.311 222.827Z" fill="#263238"/>
<path d="M217.795 170.68C218.143 168.759 218.655 166.881 219.167 165.002C219.179 164.947 219.265 164.972 219.253 165.027C218.777 166.868 218.435 168.753 218.088 170.625C217.734 172.534 217.423 174.449 217.155 176.371C217.155 176.401 217.1 176.401 217.1 176.371C217.222 174.462 217.453 172.565 217.795 170.68Z" fill="#263238"/>
<path d="M225.937 175.889C227.218 174.98 228.651 174.297 230.042 173.577C230.731 173.224 231.426 172.882 232.122 172.547C232.841 172.199 233.585 171.906 234.299 171.552C234.348 171.528 234.39 171.601 234.342 171.632C233.652 171.979 232.994 172.4 232.317 172.766C231.615 173.15 230.92 173.535 230.219 173.913C228.84 174.657 227.48 175.474 226.029 176.078C225.901 176.133 225.815 175.974 225.925 175.895L225.937 175.889Z" fill="#263238"/>
<path opacity="0.1" d="M203.237 189.697C203.237 189.697 191.295 186.843 185.812 178.835C180.573 171.186 178.884 158.141 178.749 156.994C178.963 158.043 181.427 169.442 189.557 174.754C195.778 178.822 201.797 182.165 203.237 189.697Z" fill="#263238"/>
<path d="M192.21 169.064C194.308 171.089 195.887 173.468 196.613 176.316C196.619 176.34 196.583 176.352 196.577 176.328C195.68 173.675 194.198 171.065 192.155 169.131C192.112 169.095 192.173 169.027 192.216 169.064H192.21Z" fill="#263238"/>
<path d="M203.237 189.697C203.237 189.697 191.295 186.843 185.812 178.835C180.573 171.186 178.883 158.141 178.749 156.994C178.737 156.939 178.737 156.915 178.737 156.915C178.737 156.915 184.464 165.057 190.484 167.131C196.503 169.204 204.963 176.389 203.237 189.697Z" fill="#FFC727"/>
<path d="M180.847 161.404C181.957 163.575 183.116 165.734 184.537 167.716C185.922 169.65 187.593 171.296 189.447 172.772C191.069 174.059 192.783 175.23 194.424 176.493C194.411 176.474 194.399 176.45 194.387 176.432C194.076 175.974 193.747 175.529 193.411 175.096C192.728 174.224 191.978 173.4 191.228 172.583C189.746 170.973 188.227 169.393 186.898 167.649C186.16 166.685 185.513 165.655 184.982 164.563C184.958 164.514 185.043 164.484 185.068 164.533C187.007 168.57 190.874 171.15 193.631 174.559C194.021 175.047 194.393 175.547 194.735 176.066C194.973 176.438 195.265 176.846 195.424 177.279C196.924 178.511 198.315 179.853 199.498 181.396C199.4 180.609 199.23 179.829 199.016 179.079C198.717 178.011 198.333 177.005 197.748 176.054C197.717 176.005 197.79 175.956 197.821 176.005C198.382 176.95 198.888 177.963 199.211 179.012C199.474 179.865 199.602 180.713 199.644 181.591H199.651C200.248 182.396 200.773 183.244 201.267 184.11C201.218 183.854 201.169 183.598 201.12 183.348C200.883 182.159 200.62 180.969 200.315 179.798C199.687 177.42 198.845 175.114 197.443 173.071C197.412 173.022 197.485 172.974 197.516 173.022C198.9 175.035 199.943 177.286 200.7 179.603C201.078 180.774 201.383 181.97 201.651 183.171C201.779 183.757 201.901 184.348 202.011 184.94C202.072 185.245 202.133 185.556 202.188 185.873C203.408 188.453 204.267 191.222 204.944 193.966C206.164 198.913 206.921 204.005 207.494 209.067C208.092 214.38 208.403 219.753 208.317 225.102C208.305 225.773 208.268 226.443 208.232 227.114C208.22 227.285 207.963 227.309 207.957 227.133C207.841 224.486 207.774 221.833 207.616 219.186C207.457 216.533 207.232 213.892 206.945 211.251C206.39 206.073 205.585 200.901 204.457 195.814C203.487 191.447 202.23 187.056 199.846 183.226C198.65 181.311 197.217 179.609 195.54 178.103C193.863 176.602 192.033 175.285 190.27 173.888C188.514 172.504 186.824 170.997 185.434 169.241C183.933 167.344 182.75 165.216 181.634 163.075C181.354 162.532 181.061 161.995 180.78 161.459C180.756 161.41 180.829 161.361 180.853 161.41L180.847 161.404Z" fill="#263238"/>
<path d="M182.909 163.154C183.677 164.77 184.598 166.307 185.568 167.808C185.592 167.844 185.537 167.881 185.513 167.844C184.47 166.374 183.604 164.801 182.823 163.185C182.799 163.136 182.884 163.105 182.909 163.154Z" fill="#263238"/>
<path d="M247.058 184.415C247.058 184.415 247.247 201.383 237.098 206.286C226.95 211.19 221.509 207.103 214.617 208.744C214.617 208.744 214.624 208.744 214.63 208.738C214.898 208.335 219.82 201.261 227.645 199.315C235.696 197.308 244.618 191.49 247.058 184.421V184.415Z" fill="#FFC727"/>
<path opacity="0.1" d="M247.058 184.415C247.058 184.415 247.247 201.383 237.098 206.286C226.95 211.19 221.509 207.103 214.617 208.744C214.617 208.744 214.624 208.744 214.63 208.738C214.916 208.598 219.948 206.079 226.169 205.335C232.567 204.566 244.789 200.395 247.058 184.415Z" fill="black"/>
<path d="M213.947 209.049C215.154 207.957 216.514 207.018 217.984 206.317C218.204 206.213 218.423 206.128 218.649 206.036C218.759 205.902 218.868 205.774 218.99 205.646C219.295 205.329 219.613 205.024 219.948 204.737C220.588 204.188 221.265 203.688 221.991 203.267C223.674 202.279 225.516 201.59 227.23 200.669C227.279 200.645 227.322 200.718 227.273 200.748C226.425 201.187 225.602 201.675 224.772 202.157C223.967 202.627 223.144 203.072 222.363 203.578C221.662 204.03 220.985 204.536 220.357 205.085C220.18 205.243 220.009 205.408 219.838 205.585C220.954 205.2 222.107 204.908 223.266 204.676C225.126 204.298 227.005 204.036 228.859 203.639C229.767 203.444 230.67 203.2 231.548 202.913C232.39 202.236 233.232 201.559 234.031 200.828C234.994 199.937 235.879 198.973 236.653 197.918C236.684 197.876 236.763 197.918 236.726 197.967C235.476 199.583 234.134 201.212 232.567 202.56C233.006 202.395 233.439 202.218 233.866 202.023C237.312 200.455 240.38 197.967 242.514 194.832C242.545 194.783 242.624 194.832 242.587 194.881C240.727 197.571 238.373 199.87 235.592 201.596C234.195 202.462 232.725 203.17 231.17 203.688C229.383 204.286 227.529 204.639 225.681 204.987C223.87 205.329 222.052 205.67 220.302 206.268C218.685 206.817 217.161 207.616 215.795 208.64C213.184 210.598 211.165 213.276 209.714 216.179C207.793 220.033 206.878 224.339 206.366 228.584C206.341 228.767 206.061 228.767 206.073 228.578C206.548 221.442 208.457 214.02 213.953 209.067L213.947 209.049Z" fill="#263238"/>
<path d="M225.724 203.511C226.23 202.7 226.992 202.096 227.81 201.62C228.767 201.065 229.627 200.468 230.292 199.565C230.328 199.522 230.402 199.565 230.365 199.614C229.755 200.401 229.017 201.047 228.175 201.578C227.291 202.133 226.395 202.676 225.791 203.554C225.766 203.59 225.699 203.554 225.73 203.517L225.724 203.511Z" fill="#263238"/>
<path d="M220.338 221.57L219.881 230.902L218.466 259.415H197.174L195.759 230.902L195.302 221.57H220.338Z" fill="#37474F"/>
<path d="M220.338 221.57L220.009 228.23L195.674 229.115L195.302 221.57H220.338Z" fill="#263238"/>
<path d="M221.833 217.679H193.808V226.584H221.833V217.679Z" fill="#37474F"/>
<path d="M305.309 164.111L303.272 176.322L289.483 259.372H287.263L297.289 176.322L298.771 164.111H305.309Z" fill="#455A64"/>
<path opacity="0.1" d="M298.771 164.111H305.309L303.272 176.322H297.289L298.771 164.111Z" fill="black"/>
<path d="M348.618 259.372H346.392L332.603 176.322L330.565 164.111H337.11L338.592 176.322L348.618 259.372Z" fill="#455A64"/>
<path opacity="0.1" d="M337.11 164.111L338.592 176.322H332.603L330.565 164.111H337.11Z" fill="black"/>
<path d="M375.155 259.372H372.929L359.139 176.322L357.102 164.111H363.646L365.128 176.322L375.155 259.372Z" fill="#455A64"/>
<path opacity="0.1" d="M365.128 176.322H359.139L357.102 164.111H363.646L365.128 176.322Z" fill="black"/>
<path d="M371.63 169.845H285.402V159.202H323.234L335.945 85.2272H367.775L371.63 169.845Z" fill="#455A64"/>
<path opacity="0.1" d="M371.63 169.845H366.123L362.53 85.2272H367.775L371.63 169.845Z" fill="black"/>
<path d="M222.137 234.409C223.863 235.421 277.077 246.539 279.37 245.686C280.243 245.362 282.316 237.708 284.555 228.389C285.036 226.376 285.524 224.296 286.012 222.18C289.165 208.445 292.19 193.795 292.19 193.795L256.621 186.251L251.419 214.843L250.272 221.119C250.272 221.119 227.999 225.974 225.577 227.181C223.168 228.395 220.405 233.396 222.137 234.409Z" fill="#EB9481"/>
<path d="M283.695 231.945C281.798 239.587 280.133 245.405 279.37 245.686C277.077 246.546 223.863 235.415 222.137 234.402C220.411 233.39 223.174 228.395 225.577 227.175C227.072 226.431 236.122 224.296 242.837 222.772C236.97 224.174 226.029 228.151 248.662 229.786C267.374 231.146 279.724 231.762 283.695 231.939V231.945Z" fill="#263238"/>
<path d="M270.161 259.902C272.088 260.439 326.375 257.634 328.376 256.219C329.138 255.688 327.857 243.777 327.29 241.679C325.363 234.579 315.385 203.31 315.385 203.31L279.065 205.079L293.984 239.879C293.984 239.879 273.68 250.248 271.649 252.035C269.63 253.822 268.234 259.366 270.161 259.902Z" fill="#EB9481"/>
<path d="M328.376 256.219C326.375 257.64 272.094 260.439 270.155 259.908C268.228 259.366 269.618 253.828 271.643 252.041C272.594 251.205 277.498 248.522 282.475 245.881C276.235 249.394 266.355 257.225 327.815 243.258C328.376 249.473 328.79 255.932 328.382 256.212L328.376 256.219Z" fill="#263238"/>
<path d="M354.376 154.256C343.556 166.307 307.2 156.787 305.029 161.587C303.114 165.813 327.924 233.75 327.924 233.75L288.226 238.031C288.226 238.031 253.956 163.008 266.209 141.332C272.826 129.622 301.979 134.294 319.575 132.147C324.881 131.5 327.376 120.559 327.376 120.559H358.816C358.816 120.559 366.751 140.484 354.382 154.262L354.376 154.256Z" fill="#263238"/>
<path d="M277.242 134.611L310.579 160.123C321.649 159.891 345.88 163.721 354.376 154.256C366.745 140.478 358.816 120.559 358.816 120.559H327.376C327.376 120.559 324.881 131.5 319.575 132.147C307.225 133.647 289.196 131.799 277.242 134.611Z" fill="#37474F"/>
<path d="M286.707 229.169C287.805 228.828 298.094 227.681 300.369 227.431C304.913 226.943 319.221 225.602 321.813 225.608C321.88 225.608 321.893 225.717 321.825 225.73C319.575 226.199 310.445 227.267 308.176 227.498C303.626 227.968 287.994 229.481 286.732 229.359C286.622 229.346 286.604 229.2 286.714 229.163L286.707 229.169Z" fill="#37474F"/>
<path d="M300.217 157.604C302.772 156.335 322.118 156.963 335.999 155.664C340.525 155.244 345.063 154.274 348.515 151.31C351.625 148.638 353.626 144.942 354.693 141.13C356.029 136.385 355.888 131.439 355.663 126.578C355.608 125.383 355.522 124.187 355.449 122.992C355.449 122.925 355.571 122.907 355.577 122.98C356.632 131.683 357.444 141.405 351.778 148.949C349.289 152.267 345.788 154.499 341.659 155.585C333.285 157.787 301.802 157.244 300.692 158.092C299.369 159.104 319.721 221.064 320.124 222.247C320.197 222.467 319.813 222.619 319.715 222.4C317.709 217.642 297.991 158.702 300.211 157.598L300.217 157.604Z" fill="#37474F"/>
<path d="M264.782 143.424C266.654 138.673 270.923 135.715 277.205 134.58C277.309 134.562 277.303 134.714 277.205 134.745C271.722 136.349 267.807 138.551 265.654 143.18C264.647 145.339 264.129 148.376 263.867 152.444C262.568 172.729 280.267 218.783 280.627 219.588C280.657 219.661 280.56 219.716 280.517 219.649C278.023 215.447 257.06 163.044 264.788 143.43L264.782 143.424Z" fill="#37474F"/>
<path d="M250.431 213.019L280.493 219.411C280.493 219.411 256.78 148.632 267.916 139.502C271.003 136.971 277.736 136.087 285.732 139.539C297.673 144.698 311.5 155.213 324.533 159.062C336.737 162.666 351.229 159.348 356.218 153.859C366.696 142.326 358.816 120.534 358.816 120.534L322.082 120.187C322.082 120.187 322.728 120.711 320.667 122.541C320.667 122.541 288.763 118.369 277.724 125.115C257.81 137.282 250.443 213.013 250.443 213.013L250.431 213.019Z" fill="#263238"/>
<path d="M340.135 123.071C340.165 122.986 340.281 123.01 340.287 123.096C340.348 124.73 340.275 126.334 340.659 127.945C341.025 129.475 341.72 130.848 342.836 131.97C345.209 134.367 348.606 135.184 351.711 136.16C351.875 136.209 351.845 136.501 351.662 136.471C348.216 135.94 344.587 135.068 342.068 132.482C340.909 131.293 340.135 129.774 339.836 128.146C339.537 126.511 339.586 124.651 340.129 123.071H340.135Z" fill="#37474F"/>
<path d="M268.654 138.154C273.277 135.251 280.499 137.459 283.957 138.782C284.03 138.813 283.993 138.929 283.92 138.898C280.737 137.752 272.82 136.02 268.587 139.02C258.805 145.949 271.899 193.338 280.48 219.417C280.615 219.826 280.291 219.716 280.108 219.326C278.693 216.234 267.63 183.281 264.739 161.477C264.294 158.122 261.982 142.338 268.642 138.154H268.654Z" fill="#37474F"/>
<path d="M253.858 205.03C254.767 205.005 262.555 206.725 264.275 207.109C267.709 207.884 275.662 209.945 277.522 210.653C277.571 210.671 277.541 210.775 277.486 210.769C275.705 210.598 271.558 209.689 269.844 209.293C266.416 208.494 254.663 205.676 253.803 205.219C253.73 205.176 253.767 205.036 253.858 205.03Z" fill="#37474F"/>
<path d="M270.13 136.922C273.241 135.221 276.943 134.946 280.395 135.367C284.054 135.818 287.537 137.117 290.885 138.648C297.917 141.862 304.614 145.79 311.658 148.992C318.66 152.17 326.131 154.658 333.847 154.896C340.44 155.097 348.789 153.938 353.028 148.004C359.56 138.862 355.754 123.108 355.681 122.09C355.681 122.01 355.779 122.016 355.803 122.09C360.871 141.46 354.351 148.98 349.948 152.145C346.453 154.658 341.434 155.292 338.116 155.573C330.443 156.22 322.746 154.341 315.635 151.511C308.347 148.608 301.51 144.699 294.52 141.125C287.824 137.697 280.358 134.166 272.71 136.129C271.844 136.349 270.99 136.654 270.167 137.002C270.124 137.02 270.1 136.947 270.137 136.928L270.13 136.922Z" fill="#37474F"/>
<path d="M346.362 94.2841L343.581 94.1621C343.501 93.3815 343.324 92.6313 343.05 91.9665C341.94 89.2341 339.714 87.0568 337.976 84.8551C337.976 84.8429 337.957 84.8551 337.963 84.8734C339.58 87.0263 341.117 89.6977 341.977 92.3995C342.16 92.9728 342.257 93.5461 342.3 94.1072L340.568 94.034C340.47 92.3263 340.055 90.6857 339.195 89.1975C339.171 89.1549 339.104 89.2097 339.122 89.2585C339.818 90.7528 339.976 92.3629 339.939 94.0096L324.893 93.3571C324.662 91.9787 324.521 90.5637 324.515 89.1183C324.515 88.9536 324.289 88.978 324.296 89.1366C324.296 90.5576 324.35 91.9604 324.509 93.3449L323.253 93.2839C323.094 90.9175 323.143 88.5571 323.594 86.0017C323.612 85.9224 323.497 85.898 323.484 85.9773C322.972 88.3193 322.618 90.8077 322.612 93.2534L312.195 92.8081C312.854 91.2712 313.33 89.6245 313.72 88.0448C313.757 87.9107 313.567 87.868 313.531 88.0021C313.061 89.7525 312.366 91.2834 311.591 92.7716L310.048 92.7106C311.274 90.0087 312.201 87.191 312.451 84.2513C312.457 84.1293 312.281 84.1171 312.262 84.2391C311.841 87.4105 310.286 90.0331 308.749 92.6435L304.828 92.4788C306.224 90.0331 308.615 87.8131 308.987 84.9282C309.39 81.6897 306.523 80.1405 305.688 77.4143C304.285 72.8461 306.578 69.4612 309.438 66.3385C312.067 63.4537 311.835 60.148 312.518 56.4704C313.012 53.7624 313.799 50.7617 315.22 48.4075C319.587 41.1314 327.223 42.1621 327.229 42.2658C329.077 42.3146 330.748 42.8452 332.212 43.8149C332.218 43.8149 332.23 43.8149 332.236 43.8271C332.34 43.8881 332.432 43.9613 332.535 44.0406C334.109 45.1689 335.438 46.8218 336.475 48.9503L336.487 48.9747C336.786 49.5785 337.055 50.225 337.305 50.9081C337.732 52.1035 337.805 53.7563 338.152 55.6592C338.152 55.6958 338.159 55.7385 338.171 55.769C338.683 58.4464 339.775 61.563 343.239 64.3746C347.368 67.7047 346.185 73.0657 342.769 78.4328C341.324 80.7078 341.263 82.1776 341.818 83.434C341.818 83.434 341.818 83.4401 341.818 83.4523C341.897 83.6231 341.977 83.7694 342.068 83.9341C342.873 85.3186 344.337 86.5262 345.337 88.423C346.264 90.1673 346.465 92.2104 346.374 94.2658L346.362 94.2841Z" fill="#263238"/>
<path d="M320.856 43.3698C317.696 45.0409 315.263 47.8464 314.092 51.5119C313.195 54.3113 313.098 57.3547 311.915 60.0627C310.798 62.6182 308.835 64.5454 307.261 66.7533C305.175 69.6686 303.846 73.2487 305.566 76.591C306.633 78.6646 308.999 80.7261 308.877 83.3608C308.731 86.4408 306.06 89.4049 304.626 91.9482C304.559 92.0702 304.73 92.2044 304.809 92.0885C306.761 89.2159 310.17 85.4406 309.018 81.6653C308.487 79.9332 307.34 78.6158 306.432 77.146C304.663 74.2855 305.035 71.2238 306.773 68.2963C309.127 64.3259 312.25 61.7765 313.293 57.001C313.891 54.2686 314.147 51.4631 315.525 48.9869C316.83 46.6388 318.709 44.7969 320.935 43.5649C321.027 43.51 320.953 43.3332 320.856 43.388V43.3698Z" fill="#263238"/>
<path d="M344.105 87.6911C342.971 86.0748 341.568 84.8916 342.184 82.4398C342.611 80.7382 343.764 79.2806 344.556 77.768C346.532 73.9988 347.661 69.2599 345.727 65.3932C344.636 63.2158 342.775 62.6852 341.202 61.0934C339.299 59.1661 338.598 56.1837 337.982 53.4391C337.061 49.3223 335.896 44.6383 331.736 43.7051C331.7 43.699 331.688 43.76 331.724 43.7722C337.024 45.3092 336.994 52.2681 338.518 57.0802C339.037 58.7148 339.775 60.2883 340.921 61.4471C342.739 63.289 344.941 63.8989 345.88 66.7593C346.758 69.4368 346.38 72.4131 345.404 75.1027C344.556 77.4387 342.989 79.3903 342.184 81.714C341.702 83.1046 341.586 84.544 342.257 85.8065C342.788 86.7945 343.684 87.4532 344.245 88.4107C345.002 89.6976 345.294 91.198 345.252 92.7654C345.252 92.924 345.465 92.8996 345.471 92.741C345.544 90.8381 345.136 89.1426 344.105 87.685V87.6911Z" fill="#263238"/>
<path d="M331.834 78.134C330.041 85.5809 318.569 117.735 301.87 120.553C296.204 121.51 286.537 101.518 292.233 76.9203C292.404 76.1945 308.987 76.3775 309.792 80.4333C309.877 80.8664 309.499 92.1373 309.03 91.9543C308.45 91.7226 316.159 83.4462 325.893 75.4871C330.498 71.724 332.901 73.694 331.834 78.1401V78.134Z" fill="#EB9481"/>
<path d="M331.834 78.134C330.041 85.5809 318.569 117.735 301.87 120.553C296.204 121.51 286.634 103.036 290.495 81.1957L310.542 84.0378C310.628 84.4709 309.957 90.393 309.957 90.393C309.957 90.393 316.16 83.4462 325.894 75.4871C330.498 71.724 332.901 73.694 331.834 78.1401V78.134Z" fill="#FFC727"/>
<path d="M309.932 90.4479C309.573 96.2114 309.091 101.969 308.463 107.708C308.286 109.306 308.127 110.91 307.956 112.508C307.956 112.563 308.042 112.569 308.054 112.52C308.676 109.696 309.127 106.842 309.451 103.969C309.768 101.127 310.03 98.2424 310.067 95.382C310.091 93.7352 310.085 92.0885 310.042 90.4479C310.042 90.3747 309.939 90.3808 309.932 90.4479Z" fill="#263238"/>
<path d="M291.696 80.0979C291.696 80.0979 292.44 72.1936 295.594 67.0949C297.771 63.5696 300.686 58.0501 313.055 58.3062C315.989 58.3672 321.679 61.6973 320.423 63.7587C319.227 65.7226 314.311 62.0083 310.207 62.6914C310.207 62.6914 315.086 65.8446 314.915 68.7782C314.836 70.0895 314.537 73.6696 313.909 76.4202C313.909 76.4202 313.275 76.4446 312.463 76.3592C312.463 76.3592 312.213 79.1038 308.963 81.7568L291.696 80.0918V80.0979Z" fill="#EB9481"/>
<path d="M298.21 64.0637C300.284 63.4233 304.706 62.1364 308.688 62.3438C313.11 62.5755 321.569 64.2101 321.368 67.473C321.222 69.8638 317.934 69.5284 317.934 69.5284C317.934 69.5284 321.289 70.9433 320.679 73.0719C320.124 75.0175 317.599 74.5966 317.599 74.5966C317.599 74.5966 319.483 75.8042 318.593 77.573C317.52 79.7015 312.525 76.3166 309.573 77.5303C308.908 77.8047 298.21 64.0637 298.21 64.0637Z" fill="#EB9481"/>
<path d="M307.664 66.979C309.713 66.6984 314.537 67.2473 317.892 69.443C317.965 69.4917 317.971 69.5771 317.892 69.5466C313.683 67.9121 309.469 67.2107 307.664 67.0217C307.639 67.0217 307.645 66.9851 307.664 66.979Z" fill="#263238"/>
<path d="M308.353 62.0023C310.402 61.7217 315.226 62.2706 318.581 64.4663C318.654 64.5151 318.66 64.6004 318.581 64.5699C314.372 62.9354 310.158 62.234 308.353 62.045C308.328 62.045 308.334 62.0084 308.353 62.0023Z" fill="#263238"/>
<path d="M307.56 71.4496C309.353 71.3886 314.299 72.1815 317.623 74.5235C317.696 74.5784 317.696 74.6577 317.623 74.6272C313.299 72.7426 309.353 71.7911 307.56 71.4923C307.536 71.4923 307.542 71.4496 307.56 71.4496Z" fill="#263238"/>
<path d="M312.415 77.3046C312.11 77.0789 309.585 76.5544 307.249 77.329C307.194 77.3473 307.206 77.4327 307.267 77.4327C308.725 77.3534 309.932 77.3473 309.957 77.3473C308.804 79.9455 305.962 81.6898 304.712 82.3119C304.632 82.3485 304.693 82.4704 304.773 82.4461C307.212 81.7813 309.585 79.8845 310.146 77.3534C310.475 77.3717 312.195 77.4388 312.396 77.3717C312.427 77.3595 312.439 77.3168 312.415 77.2985V77.3046Z" fill="#263238"/>
<path opacity="0.1" d="M331.834 78.1341C330.041 85.581 318.569 117.735 301.87 120.553C300.961 120.705 299.948 120.357 298.905 119.571L330.925 73.7001C332.017 74.2429 332.377 75.8653 331.834 78.1341Z" fill="black"/>
<path d="M317.306 123.346L318.587 107.781C318.587 107.781 313.958 102.786 316.501 96.5408C317.788 93.3754 323.844 79.9577 328.705 74.5113C332.785 69.937 338.97 72.9255 341.428 75.9506C348.484 84.6356 352.205 95.3637 360.322 121.571L317.306 123.352V123.346Z" fill="#FFC727"/>
<path d="M329.992 104.982C328.242 105.134 326.473 105.378 324.735 105.921C323.869 106.189 323.015 106.519 322.161 106.879C321.734 107.055 321.307 107.214 320.88 107.367C320.441 107.525 319.971 107.665 319.52 107.659C319.477 107.659 319.471 107.751 319.514 107.757C319.947 107.806 320.362 107.848 320.795 107.806C321.209 107.769 321.63 107.659 322.039 107.537C322.917 107.275 323.789 106.952 324.668 106.677C326.436 106.122 328.205 105.567 329.992 105.201C330.071 105.183 330.071 104.976 329.992 104.982Z" fill="#263238"/>
<path d="M334.103 107.617C332.694 107.299 331.254 107.08 329.821 107.007C329.102 106.97 328.382 107.001 327.656 107.055C327.308 107.08 326.967 107.116 326.619 107.165C326.241 107.214 325.857 107.336 325.479 107.379C325.442 107.379 325.43 107.476 325.473 107.476C325.832 107.458 326.192 107.525 326.546 107.537C326.906 107.55 327.266 107.556 327.626 107.568C328.345 107.592 329.065 107.623 329.785 107.635C331.224 107.659 332.663 107.702 334.097 107.806C334.176 107.806 334.182 107.641 334.109 107.623L334.103 107.617Z" fill="#263238"/>
<path d="M343.184 79.9881C350.863 96.3151 356.419 126.462 351.796 130.64C346.648 135.294 335.993 112.447 336.408 111.477C336.719 110.745 336.817 93.8328 336.347 81.0127C335.877 68.2048 341.287 75.9505 343.19 79.9881H343.184Z" fill="#DD6A57"/>
<path d="M336.286 111.459C336.359 109.623 336.085 87.0385 336.085 79.7807C336.085 73.267 337.994 71.2665 341.544 76.5544C348.076 86.2884 355.705 112.179 355.266 123.809C354.839 135.007 348.466 132.811 343.251 125.743C338.982 119.955 336.292 111.459 336.292 111.459H336.286Z" fill="#FFC727"/>
<path d="M336.372 114.453C335.743 105.805 335.536 97.0835 335.737 88.4108C336.365 97.0591 336.573 105.787 336.372 114.453Z" fill="#263238"/>
<path d="M335.774 93.4547C335.292 92.4057 334.981 91.2773 334.981 90.1246C335.396 91.2042 335.695 92.2959 335.774 93.4547Z" fill="#263238"/>
<path d="M350.497 130.427C345.996 132.549 338.872 129.372 320.185 123.053C317.599 122.181 318.861 102.268 321.667 103.061C325.204 104.061 338.726 108.696 339.671 109.16C347.649 113.075 353.552 128.987 350.497 130.427Z" fill="#EB9481"/>
<path d="M324.747 103.933C324.747 103.933 318.459 100.822 314.391 99.5719C308.944 97.8947 303.553 98.6937 301.308 99.1572C296.631 100.139 286.006 105.738 287.086 109.08C288.061 112.105 298.637 105.829 298.637 105.829C298.637 105.829 286.799 110.446 288.647 113.874C290.495 117.302 302.351 109.318 302.351 109.318C302.351 109.318 290.294 114.338 292.758 117.57C294.618 120.016 305.767 113.386 305.767 113.386C305.767 113.386 295.435 117.771 297.24 120.369C299.235 123.236 309.908 117.765 309.908 117.765C315.611 123.59 320.679 124.59 324.344 124.474L328.181 125.798L326.089 104.451L324.741 103.933H324.747Z" fill="#EB9481"/>
<path d="M302.632 103.975C301.223 104.469 299.79 104.957 298.43 105.573C297.07 106.189 295.728 106.854 294.429 107.592C291.245 109.41 289.537 111.044 289.653 110.953C292.41 108.836 297.253 106.555 298.613 105.939C299.973 105.323 301.296 104.64 302.656 104.024C302.693 104.006 302.662 103.963 302.632 103.975Z" fill="#263238"/>
<path d="M304.95 108.849C303.175 109.556 301.388 110.19 299.65 110.977C297.917 111.758 296.338 112.654 294.661 113.551C294.533 113.618 294.612 113.667 294.746 113.6C296.454 112.77 298.1 112.13 299.82 111.319C301.534 110.514 303.23 109.629 304.968 108.885C304.992 108.873 304.974 108.836 304.95 108.842V108.849Z" fill="#263238"/>
<path d="M307.688 112.679C304.925 113.618 302.333 115.07 299.833 116.552C299.711 116.625 299.82 116.674 299.948 116.607C302.534 115.271 304.559 114.204 307.725 112.776C307.773 112.752 307.749 112.66 307.694 112.679H307.688Z" fill="#263238"/>
<path d="M326.156 101.475L329.388 130.226C329.388 130.226 348.929 133.897 352.668 131.098C355.339 129.097 348.899 113.49 340.287 108.72L326.162 101.475H326.156Z" fill="#FFC727"/>
<path d="M348.442 117.948C347.868 116.094 345.221 111.532 340.287 108.702C340.244 108.678 340.196 108.739 340.238 108.769C343.709 111.233 347.673 116.241 348.374 117.979C348.393 118.021 348.46 117.991 348.448 117.948H348.442Z" fill="#263238"/>
<path d="M334.822 127.518C334.676 124.724 334.377 121.943 334.078 119.162C333.773 116.381 333.475 113.594 333.103 110.819C332.889 109.251 332.688 107.684 332.426 106.122C332.419 106.08 332.346 106.086 332.352 106.122C332.499 108.91 332.785 111.697 333.066 114.472C333.353 117.259 333.664 120.04 334.005 122.821C334.2 124.389 334.42 125.956 334.682 127.518C334.694 127.597 334.829 127.591 334.822 127.511V127.518Z" fill="#263238"/>
<path d="M325.973 101.06C327.003 101.408 338.256 107.031 341.403 109.41C341.44 109.434 341.135 109.471 341.098 109.44C339.659 108.226 327.278 102.268 326.345 101.664C326.339 101.749 326.546 104.433 326.528 104.518C326.516 104.573 326.43 104.598 326.406 104.53C326.351 104.372 325.839 101.005 325.973 101.048V101.06Z" fill="#263238"/>
<path d="M329.388 130.225C335.628 131.323 341.977 132.378 348.326 131.976C353.528 131.598 354.394 129.75 354.815 124.852C355.26 114.716 352.9 104.561 350.161 94.8452C351.857 99.6573 353.144 104.61 354.107 109.629C354.919 114.338 357.7 129.603 352.174 131.708C349.716 132.653 347.081 132.622 344.508 132.537C339.391 132.269 334.341 131.396 329.382 130.232L329.388 130.225Z" fill="#263238"/>
<path d="M336.731 73.7062C336.774 74.5783 330.992 81.0189 327.217 81.9093C325.985 82.196 327.516 75.5176 327.516 75.5176L327.266 75.0602L323.765 68.6318L330.358 61.1484L331.328 60.1298C331.328 60.1298 332.169 61.9534 333.194 64.2344C333.243 64.3381 333.292 64.4479 333.34 64.5577C333.401 64.6858 333.462 64.8077 333.511 64.9236C333.67 65.2652 333.828 65.6067 333.981 65.9544C334.097 66.2166 334.212 66.4789 334.322 66.7594C334.444 67.04 334.554 67.3144 334.67 67.595C335.792 70.3822 336.707 73.3463 336.731 73.7123V73.7062Z" fill="#EB9481"/>
<path d="M333.194 64.2283C332.791 70.2602 329.059 73.7367 327.266 75.0602L323.765 68.6318L330.358 61.1484L331.328 60.1298C331.328 60.1298 332.169 61.9534 333.194 64.2344V64.2283Z" fill="#263238"/>
<path d="M311.122 58.7636C311.475 71.6081 319.209 72.8462 321.978 72.7669C324.491 72.6937 333.048 72.1326 334.023 59.3186C334.999 46.5047 328.919 42.6074 323.155 42.4671C317.398 42.3268 310.768 45.913 311.122 58.7575V58.7636Z" fill="#EB9481"/>
<path d="M312.409 56.6534C312.707 56.6046 312.976 56.5071 313.269 56.4278C313.598 56.3363 313.866 56.2997 314.098 56.0313C314.22 55.885 314.196 55.6105 314.068 55.4763C313.769 55.1653 313.336 55.1775 312.939 55.269C312.506 55.3666 312.195 55.5556 311.927 55.9094C311.665 56.2509 312.012 56.7266 312.409 56.6595V56.6534Z" fill="#263238"/>
<path d="M321.234 56.5619C320.929 56.5436 320.654 56.4704 320.356 56.4217C320.02 56.3668 319.746 56.3546 319.49 56.1106C319.349 55.9764 319.349 55.702 319.465 55.5556C319.734 55.2141 320.16 55.1836 320.569 55.2384C321.008 55.2933 321.338 55.4519 321.643 55.7752C321.941 56.0862 321.636 56.5985 321.234 56.568V56.5619Z" fill="#263238"/>
<path d="M319.355 59.3248C319.355 59.2882 319.422 59.3614 319.422 59.398C319.422 60.2701 319.557 61.2765 320.356 61.5448C320.38 61.5509 320.38 61.5997 320.349 61.5936C319.38 61.4838 319.203 60.1482 319.349 59.3187L319.355 59.3248Z" fill="#263238"/>
<path d="M320.112 58.3917C321.514 58.2453 321.697 61.0691 320.398 61.1972C319.118 61.3253 318.935 58.5075 320.112 58.3917Z" fill="#263238"/>
<path d="M320.673 58.5075C320.929 58.6538 321.191 58.9161 321.49 58.9283C321.838 58.9405 322.075 58.6294 322.283 58.3306C322.307 58.3001 322.332 58.3245 322.332 58.3611C322.374 58.8978 322.204 59.4711 321.63 59.587C321.106 59.6968 320.697 59.2393 320.526 58.7087C320.496 58.6111 320.575 58.4526 320.673 58.5136V58.5075Z" fill="#263238"/>
<path d="M314.488 59.459C314.482 59.4285 314.421 59.5078 314.427 59.5383C314.519 60.4105 314.476 61.4229 313.708 61.7705C313.683 61.7827 313.689 61.8254 313.72 61.8193C314.671 61.612 314.714 60.2702 314.488 59.459Z" fill="#263238"/>
<path d="M313.641 58.6051C312.232 58.6051 312.323 61.4228 313.635 61.4289C314.921 61.4289 314.824 58.6112 313.641 58.6051Z" fill="#263238"/>
<path d="M313.061 58.8125C312.842 58.9711 312.634 59.2516 312.366 59.276C312.055 59.3065 311.817 59.0077 311.61 58.721C311.585 58.6905 311.567 58.721 311.567 58.7515C311.567 59.2943 311.768 59.8493 312.287 59.9347C312.762 60.014 313.092 59.5383 313.208 58.9955C313.226 58.8979 313.147 58.7454 313.061 58.8064V58.8125Z" fill="#263238"/>
<path d="M320.63 66.0702C320.478 66.3203 320.343 66.6435 320.045 66.7472C319.758 66.8448 319.374 66.8021 319.081 66.7655C319.05 66.7655 319.032 66.796 319.056 66.8204C319.361 67.0888 319.874 67.1742 320.252 67.0034C320.618 66.8387 320.721 66.4606 320.728 66.0824C320.728 66.0275 320.66 66.0275 320.636 66.0641L320.63 66.0702Z" fill="#263238"/>
<path d="M316.434 63.6673C316.434 63.6673 316.507 64.9847 316.623 65.5885C316.635 65.6434 316.788 65.6434 316.995 65.6129C317.007 65.6129 317.013 65.6129 317.019 65.6129C318.123 65.5702 319.124 64.9908 319.605 63.9906C319.636 63.9235 319.544 63.8747 319.502 63.9235C318.819 64.6675 317.965 64.9908 317.026 65.1921C316.952 65.0335 316.977 62.9293 316.879 62.9415C316.544 62.9781 315.934 63.3319 315.568 63.5209C315.336 60.7825 315.543 58.0257 315.269 55.3056C315.257 55.208 315.117 55.208 315.104 55.2995C314.684 58.1721 314.879 61.3314 315.049 64.1613C315.068 64.5151 316.227 63.8198 316.446 63.6673H316.434Z" fill="#263238"/>
<path d="M333.853 60.9836C330.864 60.0261 330.352 57.0925 330.352 57.0925C326.656 56.0556 324.405 53.5794 324.174 53.3233C324.296 53.5733 325.156 55.3908 325.631 56.3057C317.343 55.8544 314.031 49.9932 314.031 49.9932C311.75 52.9512 311.445 54.6955 311.177 55.5799C311.177 55.5799 310.469 50.6275 312.586 46.9681C315.178 42.4915 319.538 42.7049 319.538 42.7049C319.538 42.7049 325.576 40.0092 331.151 44.681C337.152 49.7188 333.853 60.9836 333.853 60.9836Z" fill="#263238"/>
<path d="M319.307 55.7689C320.691 56.3239 322.185 56.6289 323.655 56.7509C323.667 56.7509 323.667 56.7326 323.655 56.7326C321.289 56.3849 319.087 55.4579 317.251 53.9209C316.471 53.2683 315.781 52.5304 315.184 51.7131C314.562 50.8531 313.933 49.8163 313.708 48.7673C313.689 48.688 313.567 48.7124 313.586 48.7917C313.824 49.8956 314.055 50.9141 314.647 51.8961C315.202 52.8292 315.94 53.6709 316.794 54.3357C317.556 54.9334 318.41 55.403 319.313 55.7689" fill="#263238"/>
<path d="M332.767 64.271C332.566 64.3746 332.377 64.4478 332.194 64.4905C331.98 64.5576 331.779 64.5759 331.596 64.5759C331.303 64.5759 331.047 64.521 330.834 64.4234C330.632 64.3441 330.456 64.2283 330.309 64.1063C329.931 63.7952 329.742 63.4476 329.742 63.4476L330.059 59.959C330.059 59.959 332.395 55.6531 334.31 56.446C336.237 57.2327 334.804 63.2463 332.773 64.2832L332.767 64.271Z" fill="#EB9481"/>
<path d="M333.853 58.1475C333.889 58.1414 333.901 58.1902 333.871 58.2024C332.45 58.977 331.828 60.4468 331.444 61.9411C331.822 61.3373 332.389 60.9713 333.188 61.4105C333.231 61.4349 333.2 61.4958 333.157 61.4958C332.535 61.4349 332.102 61.5934 331.749 62.124C331.498 62.5022 331.346 62.9657 331.181 63.3865C331.126 63.5268 330.876 63.4841 330.913 63.3255C330.913 63.3133 330.913 63.3011 330.919 63.2889C330.663 61.3983 331.834 58.5683 333.853 58.1475Z" fill="#263238"/>
<path d="M332.529 63.7525C332.499 64.0818 332.212 64.3258 331.883 64.2953C331.553 64.2648 331.309 63.9781 331.34 63.6488C331.37 63.3194 331.657 63.0816 331.986 63.106C332.316 63.1365 332.56 63.4231 332.529 63.7525Z" fill="white"/>
<path d="M333.639 62.7217C333.621 62.9535 333.414 63.1242 333.182 63.1059C332.95 63.0876 332.779 62.8803 332.798 62.6485C332.816 62.4168 333.023 62.246 333.255 62.2643C333.487 62.2826 333.658 62.4899 333.639 62.7217Z" fill="white"/>
<path d="M311.103 57.9707C311.244 63.3683 313.116 69.6503 318.453 71.974C319.172 72.3338 319.947 72.5412 320.722 72.7669C313.653 71.974 310.487 64.3381 311.103 57.9707Z" fill="#263238"/>
<path d="M75.6335 164.112L77.6706 176.322L91.4604 259.372H93.6866L83.6537 176.322L82.1717 164.112H75.6335Z" fill="#455A64"/>
<path opacity="0.1" d="M82.1717 164.112H75.6335L77.6706 176.322H83.6537L82.1717 164.112Z" fill="black"/>
<path d="M32.3247 259.372H34.5508L48.3407 176.322L50.3777 164.112H43.8396L42.3575 176.322L32.3247 259.372Z" fill="#455A64"/>
<path opacity="0.1" d="M43.8396 164.112L42.3575 176.322H48.3407L50.3777 164.112H43.8396Z" fill="black"/>
<path d="M5.78796 259.372H8.0141L21.8039 176.322L23.841 164.112H17.3029L15.8208 176.322L5.78796 259.372Z" fill="#455A64"/>
<path opacity="0.1" d="M15.8208 176.322H21.8039L23.841 164.112H17.3029L15.8208 176.322Z" fill="black"/>
<path d="M9.31921 169.845H95.5407V159.202H57.7147L44.9983 85.2273H13.1677L9.31921 169.845Z" fill="#455A64"/>
<path opacity="0.1" d="M9.31921 169.845H14.8266L18.4128 85.2273H13.1677L9.31921 169.845Z" fill="black"/>
<path d="M108.824 258.676C106.897 258.92 53.9577 247.961 52.2499 246.302C52.0426 246.119 52.933 241.313 54.2565 234.75L54.2809 234.622C55.1043 230.463 69.4247 196.601 69.4247 196.601L103.78 205.091L89.222 236.549C89.222 236.549 95.7723 240.989 101.402 245.222C101.402 245.228 101.414 245.234 101.414 245.24C104.89 247.839 107.891 250.174 108.531 250.943C110.203 252.943 110.739 258.457 108.818 258.683L108.824 258.676Z" fill="#AD6359"/>
<path d="M108.824 258.67C106.903 258.914 53.9637 247.955 52.2499 246.302C52.0425 246.113 52.9391 241.313 54.2626 234.744L54.287 234.622C54.5919 233.073 56.7814 227.389 59.3979 220.869C65.0517 222.211 85.3125 227.041 92.6801 229.084L89.2342 236.537C89.2342 236.537 95.7845 240.977 101.414 245.21C101.414 245.216 101.42 245.216 101.42 245.222C104.896 247.82 107.897 250.162 108.537 250.925C110.209 252.931 110.751 258.445 108.824 258.664V258.67Z" fill="#EBEBEB"/>
<path d="M109.007 258.92C107.025 259.152 54.0492 248.052 52.2926 246.35C51.6218 245.71 52.5427 237.373 55.1592 228.493L89.3074 235.689C89.3074 235.689 107.031 248.881 108.751 250.955C110.465 253.023 110.983 258.689 109.007 258.92Z" fill="#FFC727"/>
<path d="M108.69 256.64C99.8525 254.56 64.021 247.009 55.1286 245.625C55.0554 245.613 55.0432 245.661 55.1164 245.68C63.8258 247.93 99.7184 255.194 108.659 256.786C108.849 256.822 108.879 256.682 108.69 256.64Z" fill="#263238"/>
<path d="M91.9056 237.165C88.3621 236.373 83.9769 236.763 81.1592 239.209C81.0494 239.306 81.1836 239.459 81.3056 239.422C84.8674 238.44 88.1791 237.842 91.8751 237.617C92.1374 237.598 92.1618 237.22 91.9056 237.165Z" fill="#263238"/>
<path d="M94.4244 238.806C90.8809 238.013 86.4957 238.403 83.678 240.849C83.5682 240.947 83.7024 241.099 83.8244 241.063C87.3862 240.081 90.6979 239.483 94.3939 239.257C94.6562 239.239 94.6806 238.861 94.4244 238.806Z" fill="#263238"/>
<path d="M96.9433 240.453C93.3998 239.66 89.0146 240.05 86.1969 242.496C86.0871 242.593 86.2213 242.746 86.3433 242.709C89.9051 241.727 93.2168 241.13 96.9128 240.904C97.1751 240.886 97.1995 240.508 96.9433 240.453Z" fill="#263238"/>
<path d="M99.4684 242.099C95.9248 241.307 91.5397 241.697 88.7219 244.143C88.6121 244.24 88.7463 244.393 88.8683 244.356C92.4301 243.374 95.7419 242.776 99.4379 242.551C99.7001 242.532 99.7245 242.154 99.4684 242.099Z" fill="#263238"/>
<path opacity="0.1" d="M109.007 258.92C108.391 258.987 102.823 257.969 95.3881 256.462L100.17 243.917C104.207 247.033 108.001 250.052 108.757 250.961C110.465 253.023 110.989 258.689 109.007 258.926V258.92Z" fill="black"/>
<path d="M90.5944 237.385L54.1285 228.773C54.1285 228.773 84.7454 161.367 82.0741 157.817C80.7384 156.043 46.7853 155.518 35.984 146.357C21.9563 134.458 31.3671 116.271 31.3671 116.271L69.2845 115.143C69.2845 115.143 68.8271 123.072 70.3091 124.267C71.285 125.066 116.466 128.866 121.425 144.113C127.512 162.806 90.5944 237.379 90.5944 237.379V237.385Z" fill="#263238"/>
<path d="M88.5572 154.677C87.7949 154.024 86.6483 153.945 85.6968 153.786C80.226 152.871 74.7491 151.944 69.2783 151.029C64.1552 150.169 59.0076 149.407 53.9089 148.419C49.6884 147.602 45.3947 146.504 41.7414 144.211C38.0881 141.917 35.557 138.471 34.2823 134.446C33.0076 130.421 32.9162 126.097 33.3187 121.931C33.4163 120.912 33.6053 119.894 33.7944 118.888C33.8066 118.808 33.6846 118.784 33.6724 118.863C32.2819 126.639 32.1599 135.666 37.9844 141.863C40.8204 144.882 44.7238 146.656 48.7003 147.809C53.1892 149.108 57.8854 149.718 62.4902 150.493C67.961 151.407 73.4379 152.328 78.9147 153.237C81.5495 153.676 84.2209 154.018 86.8373 154.567C87.3375 154.67 87.9047 154.817 88.2645 155.195C88.7585 155.719 88.6243 156.464 88.4963 157.092C88.234 158.385 87.8864 159.659 87.5143 160.922C84.5258 171.132 63.0391 219.021 62.4475 220.143C62.3865 220.259 62.5694 220.35 62.6365 220.235C67.656 211.281 83.5927 174.48 86.9044 164.819C87.7522 162.355 88.5329 159.855 89.0574 157.305C89.2464 156.384 89.3562 155.347 88.5572 154.664V154.677Z" fill="#37474F"/>
<path d="M92.2777 228.541C91.2835 228.078 81.7081 225.797 79.5978 225.303C75.3712 224.309 62.0328 221.399 59.5871 221.119C59.52 221.113 59.5017 221.216 59.5627 221.241C61.6302 221.96 70.12 224.028 72.2303 224.516C76.4691 225.486 91.0335 228.724 92.2411 228.743C92.3447 228.743 92.3813 228.596 92.2837 228.553L92.2777 228.541Z" fill="#37474F"/>
<path d="M162.325 259.494C160.489 260.116 106.427 259.914 104.421 258.634C104.183 258.493 104.098 253.608 104.085 246.911V246.777C104.067 242.538 102.762 206.31 102.762 206.31L136.599 206.03L138.709 241.703C138.709 241.703 146.01 244.746 152.371 247.778C152.377 247.784 152.389 247.784 152.389 247.796C156.311 249.65 159.72 251.345 160.501 251.968C162.538 253.596 164.161 258.89 162.325 259.494Z" fill="#AD6359"/>
<path d="M162.325 259.488C160.483 260.104 106.421 259.908 104.421 258.628C104.183 258.493 104.098 253.602 104.085 246.912V246.777C104.085 246.485 104.085 246.18 104.073 245.881C104.073 245.661 104.073 245.448 104.061 245.228C104.061 244.911 104.049 244.588 104.037 244.258C103.964 241.441 103.823 236.866 103.659 231.859L138.124 231.634L138.716 241.697C138.716 241.697 146.016 244.746 152.377 247.771C152.383 247.778 152.396 247.778 152.396 247.784C156.317 249.638 159.727 251.333 160.507 251.955C162.538 253.59 164.173 258.878 162.331 259.482L162.325 259.488Z" fill="#EBEBEB"/>
<path d="M162.55 259.695C160.654 260.317 106.525 259.988 104.47 258.67C103.689 258.176 102.927 249.827 103.726 240.599L138.624 240.855C138.624 240.855 158.617 250.254 160.721 251.943C162.813 253.633 164.447 259.079 162.557 259.701L162.55 259.695Z" fill="#FFC727"/>
<path d="M161.788 257.524C152.719 257.243 116.094 256.981 107.111 257.396C107.037 257.396 107.037 257.451 107.111 257.451C116.094 257.92 152.719 257.89 161.788 257.67C161.977 257.67 161.977 257.53 161.788 257.524Z" fill="#263238"/>
<path d="M141.46 241.782C137.831 241.709 133.611 242.966 131.336 245.924C131.25 246.039 131.409 246.161 131.519 246.106C134.812 244.435 137.941 243.191 141.521 242.228C141.771 242.16 141.722 241.788 141.46 241.782Z" fill="#263238"/>
<path d="M144.259 242.892C140.631 242.819 136.41 244.076 134.135 247.034C134.05 247.149 134.208 247.271 134.318 247.216C137.612 245.545 140.74 244.301 144.32 243.344C144.571 243.277 144.522 242.898 144.259 242.898V242.892Z" fill="#263238"/>
<path d="M147.053 244.002C143.424 243.929 139.203 245.185 136.929 248.143C136.843 248.259 137.002 248.381 137.112 248.326C140.405 246.655 143.534 245.411 147.114 244.454C147.364 244.387 147.315 244.008 147.053 244.008V244.002Z" fill="#263238"/>
<path d="M149.852 245.112C146.223 245.039 142.003 246.295 139.728 249.253C139.643 249.369 139.801 249.491 139.911 249.436C143.204 247.765 146.333 246.521 149.913 245.557C150.163 245.49 150.114 245.118 149.852 245.112Z" fill="#263238"/>
<path d="M142.094 240.599L102.445 240.245C102.445 240.245 102.92 177.481 99.9258 173.656C95.9371 168.558 40.1496 168.674 28.1773 152.042C17.4309 137.105 26.5001 115.966 26.5001 115.966L68.7539 114.71C68.7539 114.71 67.4365 121.419 64.8383 128.018C64.8383 128.018 115.734 137.41 129.994 153.024C139.618 163.563 142.088 240.599 142.088 240.599H142.094Z" fill="#263238"/>
<path d="M72.2669 125.121C71.0471 125.334 69.8395 125.828 68.6868 126.267C67.4731 126.731 66.2777 127.255 65.1128 127.823C62.8013 128.951 60.5995 130.238 58.4283 131.604C58.3612 131.647 58.4283 131.738 58.4954 131.708C60.7825 130.518 63.1428 129.451 65.5092 128.432C66.6497 127.945 67.7842 127.451 68.9247 126.963C70.0713 126.469 71.2911 126.048 72.3767 125.438C72.517 125.359 72.4438 125.09 72.273 125.121H72.2669Z" fill="#37474F"/>
<path d="M69.7358 114.692C69.254 116.619 68.8271 118.564 68.2782 120.473C68.0281 121.352 67.7781 122.242 67.4426 123.096C67.1621 123.816 66.7412 124.633 65.9057 124.791C64.9481 124.974 64.6737 124.157 64.753 123.364C64.8384 122.48 65.064 121.596 65.2409 120.729C65.4422 119.729 65.6434 118.729 65.8264 117.723C65.9179 117.223 66.0094 116.716 66.0948 116.216C66.1191 116.088 66.2106 115.125 66.2777 114.85C66.2838 114.874 66.3021 114.893 66.3326 114.893H66.3631C66.3631 114.893 66.418 114.868 66.4241 114.838C66.4363 114.765 66.4302 114.746 66.3753 114.692C66.3509 114.667 66.3143 114.667 66.2899 114.685C66.1069 114.783 66.0947 115.039 66.0338 115.222C65.8752 115.71 65.7166 116.198 65.5763 116.692C65.308 117.613 65.0518 118.534 64.814 119.467C64.5822 120.394 64.3504 121.327 64.1248 122.254C63.954 122.95 63.7527 123.681 63.9357 124.395C64.1431 125.176 64.7652 125.566 65.4483 125.627C65.4178 125.688 65.3751 125.749 65.3446 125.816C65.2592 126.005 65.1982 126.206 65.125 126.402C65.0518 126.603 64.9847 126.798 64.9298 127.005C64.9054 127.103 64.8872 127.201 64.875 127.304C64.8628 127.414 64.8872 127.524 64.875 127.64C64.8506 127.81 65.0884 127.92 65.1738 127.749C65.2226 127.652 65.2958 127.573 65.3568 127.481C65.4178 127.384 65.4605 127.268 65.497 127.158C65.5641 126.963 65.619 126.774 65.6678 126.572C65.7166 126.377 65.7776 126.182 65.8142 125.987C65.8386 125.871 65.8386 125.749 65.8508 125.633C66.2411 125.596 66.6315 125.456 66.9608 125.212C67.5341 124.779 67.8696 124.114 68.1135 123.45C68.4063 122.645 68.6319 121.815 68.8576 120.992C69.4187 118.955 69.8944 116.881 70.0896 114.777C70.1079 114.551 69.7968 114.472 69.7419 114.704L69.7358 114.692Z" fill="#37474F"/>
<path d="M44.608 119.412C44.4311 120.37 44.3213 121.333 44.1018 122.285C43.8883 123.212 43.6321 124.139 43.3272 125.048C43.0344 125.914 42.6746 126.78 42.1501 127.536C41.6439 128.262 40.973 128.896 40.2777 129.445C38.9176 130.524 37.3807 131.384 35.7461 131.97C34.9228 132.263 34.0811 132.519 33.2273 132.708C32.782 132.806 32.3307 132.885 31.8794 132.946C31.5012 132.995 31.1292 133.007 30.7938 133.196C30.6474 133.275 30.6718 133.501 30.8121 133.574C31.3915 133.855 32.2026 133.702 32.8125 133.635C33.5322 133.562 34.2519 133.44 34.9533 133.257C36.3682 132.897 37.7405 132.299 38.9969 131.549C40.2289 130.817 41.467 129.902 42.3758 128.78C43.3211 127.621 43.8456 126.261 44.1811 124.816C44.5836 123.09 44.8641 121.211 44.7727 119.43C44.7727 119.327 44.608 119.308 44.5897 119.418L44.608 119.412Z" fill="#37474F"/>
<path d="M105.946 176.2C105.842 175.059 105.622 173.913 105.201 172.839C104.323 170.589 102.451 169.454 100.188 168.881C97.5167 168.204 94.76 167.801 92.0398 167.362C89.2648 166.911 86.4775 166.508 83.6964 166.124C78.0548 165.337 72.4011 164.612 66.7839 163.666C61.1911 162.727 55.6227 161.568 50.1946 159.928C45.2057 158.421 40.0825 156.555 36.0877 153.091C27.4881 145.638 27.177 133.147 28.2261 122.693C28.3724 121.217 28.5554 119.747 28.7323 118.272C28.7445 118.192 28.6225 118.168 28.6164 118.247C27.9333 124.133 27.1465 130.055 27.732 135.983C28.2078 140.826 29.6288 145.693 32.4344 149.718C35.3436 153.896 39.6556 156.591 44.3091 158.476C49.3957 160.531 54.775 161.916 60.136 163.038C71.2849 165.374 82.6596 166.362 93.8817 168.283C95.2662 168.521 96.6445 168.771 98.0229 169.04C99.2854 169.284 100.578 169.515 101.762 170.04C104.311 171.18 105.037 173.656 105.33 176.224C106.397 185.592 107.983 228.23 107.97 229.725C107.97 229.859 108.172 229.846 108.178 229.712C108.483 213.946 107.013 188.239 105.946 176.194V176.2Z" fill="#37474F"/>
<path d="M102.329 195.094C102.274 190.972 102.152 192.783 102.06 188.666C101.975 184.781 102.06 180.823 101.304 176.987C100.999 175.437 100.719 173.394 99.0597 172.681C98.2059 172.315 97.2605 172.12 96.364 171.882C95.3881 171.626 94.4062 171.376 93.4182 171.162C88.8622 170.18 84.2575 169.564 79.6405 168.942C79.5552 168.93 79.5186 169.052 79.61 169.07C83.5134 169.82 87.4167 170.589 91.2896 171.467C93.2291 171.906 95.1625 172.37 97.0776 172.894C97.8643 173.108 98.9316 173.26 99.4867 173.913C100.06 174.59 100.231 175.688 100.426 176.517C101.316 180.28 101.249 184.208 101.353 188.044C101.457 192.027 101.554 190.075 101.67 194.058C101.798 198.522 101.914 203.005 102.225 207.463C102.231 207.579 102.414 207.579 102.414 207.463C102.5 203.34 102.39 199.217 102.329 195.094Z" fill="#37474F"/>
<path d="M138.325 232.512C137.252 232.28 127.414 232.134 125.243 232.109C120.9 232.06 107.245 232.121 104.799 232.384C104.732 232.39 104.732 232.5 104.799 232.506C106.976 232.756 115.71 232.927 117.875 232.939C122.224 232.963 137.142 232.951 138.325 232.707C138.429 232.683 138.429 232.536 138.325 232.512Z" fill="#37474F"/>
<path d="M65.1006 128.128C72.8829 128.981 80.6225 130.732 88.1487 132.86C95.7419 135.007 103.195 137.679 110.392 140.911C114.435 142.729 118.345 144.76 122.23 146.894C122.309 146.937 122.23 147.047 122.157 147.01C115.192 143.381 107.903 140.252 100.53 137.569C93.1804 134.891 85.6542 132.69 78.0061 131.031C73.7002 130.091 69.3638 129.366 65.0213 128.64C64.7347 128.591 64.814 128.097 65.1006 128.128Z" fill="#37474F"/>
<path d="M21.9685 128.451C22.0905 128.585 71.6387 124.956 71.6387 124.956L71.285 121.785C71.285 121.785 73.6453 119.314 71.8217 112.77C67.9671 98.9195 60.2702 71.2849 57.6781 68.2476C54.525 64.5577 49.0481 63.4172 45.0166 65.7897C36.5573 70.7665 24.0483 106.708 20.7426 115.204C19.1142 119.394 22.2125 122.053 22.7065 124.023C22.7065 124.023 21.81 128.286 21.9624 128.457L21.9685 128.451Z" fill="#FFC727"/>
<path d="M69.2358 121.571C48.6212 122.437 26.2196 124.029 24.4204 124.121C24.335 124.121 24.335 124.261 24.4204 124.255C46.0352 123.956 67.4548 122.016 69.2358 121.766C69.3577 121.748 69.3638 121.565 69.2358 121.571Z" fill="#263238"/>
<path d="M55.0252 77.201C51.994 76.6643 48.6212 69.8151 48.2187 65.6068C48.1943 65.3202 49.6093 63.0087 51.2011 60.1177C52.1586 58.3612 53.1833 56.3851 53.9883 54.5128L64.5091 62.417C64.5091 62.417 61.667 65.8447 60.2825 69.1198C60.1666 69.3943 60.0873 69.6627 60.0324 69.9249C60.0202 69.9615 60.0141 70.0103 59.9959 70.0591C59.6055 71.6204 57.9588 77.7133 55.0252 77.201Z" fill="#FFC4C0"/>
<path d="M60.0324 69.9249C60.0202 69.9615 60.0141 70.0042 59.9959 70.053C59.6055 69.9554 59.1969 69.7968 58.7578 69.6077C52.0245 66.5277 54.0066 57.5195 54.7019 55.0494L57.3306 57.0255L64.5091 62.4231C64.5091 62.4231 61.6609 65.8507 60.2825 69.1259C60.1666 69.4004 60.0812 69.6626 60.0263 69.9249H60.0324Z" fill="#263238"/>
<path d="M72.6329 41.6378C72.6329 41.6378 76.1886 44.175 75.9874 48.3345C75.7861 52.494 73.9076 56.4706 73.5173 56.5925C73.127 56.7145 72.6329 41.6378 72.6329 41.6378Z" fill="#263238"/>
<path d="M54.1042 42.5892C52.0428 46.8585 52.4087 60.1665 55.1533 63.5453C59.1298 68.4428 66.6316 70.0102 71.0412 65.0091C75.3165 60.1604 74.5359 42.8209 71.3766 39.6495C66.7292 34.9776 57.1415 36.2828 54.0981 42.5892H54.1042Z" fill="#FFC4C0"/>
<path d="M65.552 52.9574C65.5459 52.9208 65.4849 53.0001 65.4849 53.0367C65.5337 53.9333 65.4361 54.9701 64.631 55.2811C64.6066 55.2933 64.6066 55.336 64.6371 55.3299C65.6251 55.1714 65.7349 53.793 65.5458 52.9513L65.552 52.9574Z" fill="#263238"/>
<path d="M64.7286 52.0426C63.2832 51.9633 63.2344 54.8603 64.5762 54.9335C65.8936 55.0006 65.9423 52.1096 64.7286 52.0426Z" fill="#263238"/>
<path d="M70.7423 53.1708C70.7484 53.1342 70.8094 53.2135 70.8094 53.2501C70.7667 54.1466 70.8704 55.1774 71.6755 55.4884C71.6999 55.5006 71.6999 55.5433 71.6694 55.5372C70.6814 55.3786 70.5594 54.0064 70.7423 53.1647V53.1708Z" fill="#263238"/>
<path d="M71.5535 52.2498C72.9989 52.1645 73.066 55.0615 71.7243 55.1408C70.4069 55.22 70.3398 52.323 71.5535 52.2498Z" fill="#263238"/>
<path d="M63.5821 50.164C63.9785 50.0848 64.3323 49.9384 64.7226 49.8225C65.1556 49.6883 65.5155 49.6212 65.8143 49.2492C65.9729 49.0479 65.9302 48.6759 65.7472 48.5051C65.3325 48.1026 64.7592 48.1392 64.2286 48.2795C63.6553 48.4319 63.2466 48.7003 62.899 49.1882C62.5635 49.6578 63.0576 50.2738 63.5821 50.1701V50.164Z" fill="#263238"/>
<path d="M72.6451 49.8042C72.2426 49.731 71.8889 49.5968 71.4985 49.4871C71.0594 49.359 70.6996 49.3041 70.3946 48.9381C70.2299 48.743 70.2665 48.3709 70.4434 48.1941C70.852 47.7793 71.4253 47.8037 71.962 47.9318C72.5415 48.0721 72.9501 48.3282 73.3099 48.804C73.6576 49.2614 73.1758 49.8957 72.6512 49.7981L72.6451 49.8042Z" fill="#263238"/>
<path d="M63.9481 60.7397C64.1493 60.9654 64.3384 61.2703 64.6616 61.3191C64.9727 61.3679 65.3447 61.252 65.6375 61.1606C65.668 61.1545 65.6924 61.185 65.6741 61.2093C65.4179 61.5387 64.9117 61.7156 64.5031 61.618C64.1005 61.5204 63.9298 61.1545 63.8566 60.7763C63.8444 60.7214 63.9176 60.7092 63.9481 60.7397Z" fill="#263238"/>
<path d="M65.0763 58.1232C65.5215 58.9344 66.229 59.4101 67.0158 59.6236C67.3634 59.7212 67.7416 59.7578 68.1075 59.7517C68.1807 59.7517 68.2539 59.7517 68.321 59.7395C68.3881 59.7395 68.4491 59.7334 68.5162 59.7212C68.6198 59.7151 68.6869 59.6297 68.7113 59.5321C68.7113 59.4955 68.7113 59.465 68.7113 59.4345V59.3491C68.7845 58.6599 68.7906 57.6109 68.7906 57.6109C69.0346 57.7573 70.2788 58.4221 70.2788 58.0622C70.3093 55.0676 70.3459 51.7437 69.7421 48.7613C69.7299 48.6637 69.5774 48.6759 69.5774 48.7735C69.431 51.6461 69.7969 54.5248 69.6994 57.4158C69.3029 57.2328 68.6503 56.8973 68.2905 56.879C68.1929 56.8973 68.3149 58.91 68.26 59.2211C68.26 59.2211 68.26 59.2333 68.2539 59.2516C67.089 59.3186 66.2412 58.91 65.1678 58.05C65.1068 57.9952 65.0275 58.05 65.0763 58.1232Z" fill="#263238"/>
<path d="M67.7111 59.3735C67.7111 59.3735 67.0524 60.1359 66.2168 60.3616C65.9058 60.4469 65.5825 60.4652 65.2471 60.3494C64.564 60.1115 64.5884 59.4711 64.7592 58.9344C64.8934 58.4892 65.1312 58.1171 65.1312 58.1171C65.1312 58.1171 66.0827 59.1479 67.7111 59.3735Z" fill="#263238"/>
<path d="M66.2168 60.3616C65.9058 60.4469 65.5825 60.4652 65.2471 60.3494C64.564 60.1115 64.5884 59.4711 64.7592 58.9344C65.5033 59.0686 66.2107 59.6297 66.2168 60.3616Z" fill="#FF9ABB"/>
<path d="M54.0982 54.5554C55.5436 55.0312 57.3123 50.7009 57.8185 49.0298C58.2699 47.5599 58.8554 42.8698 58.9286 42.5526C59.0078 42.2355 65.1739 46.8524 68.8638 45.8583C72.5537 44.8703 75.0726 41.6317 75.158 40.1008C75.2434 38.57 70.7789 34.5691 66.845 34.2824C62.9112 33.9957 57.4709 38.881 57.4709 38.881C57.4709 38.881 59.3311 36.7586 59.2701 36.5817C59.2152 36.4049 56.6475 37.3624 56.1413 39.1616C56.1413 39.1616 56.6963 36.8989 56.5012 36.8501C56.3121 36.8013 54.2872 38.7103 54.702 40.1923C54.702 40.1923 52.3721 42.1196 52.1099 44.2908C51.8476 46.456 52.3904 53.9882 54.086 54.5494L54.0982 54.5554Z" fill="#263238"/>
<path d="M71.4864 45.1508C70.3581 45.6387 69.2298 46.1755 67.9978 46.3096C66.6621 46.456 65.2898 46.0901 64.0639 45.5899C62.8075 45.0776 61.6731 44.3458 60.6424 43.4614C59.7458 42.6868 58.953 41.7598 57.9893 41.0645C57.7515 40.8937 57.4587 41.2353 57.6051 41.467C59.0444 43.7298 61.6304 45.6509 64.1432 46.5109C66.7902 47.4135 69.309 46.8768 71.5047 45.1813C71.5169 45.1691 71.5047 45.1447 71.4925 45.1508H71.4864Z" fill="#263238"/>
<path d="M56.3547 53.5918C56.3547 53.5918 54.3176 48.8407 52.2196 49.4872C50.1215 50.1276 51.0547 56.5925 53.0918 57.8794C55.1288 59.1602 56.3547 57.2939 56.3547 57.2939V53.5918Z" fill="#FFC4C0"/>
<path d="M52.5306 51.3291C52.494 51.3169 52.4757 51.3657 52.5062 51.384C53.9273 52.3354 54.4396 53.9394 54.7019 55.5496C54.3603 54.8787 53.7992 54.4335 52.9149 54.8238C52.8661 54.8421 52.8966 54.9153 52.9393 54.9153C53.6041 54.9153 54.0371 55.1166 54.3603 55.7143C54.586 56.1351 54.7019 56.6352 54.8361 57.0987C54.8788 57.2512 55.1471 57.2329 55.1227 57.0621C55.1227 57.0499 55.1227 57.0377 55.1227 57.0255C55.574 55.0617 54.6104 51.9756 52.5306 51.3352V51.3291Z" fill="#263238"/>
<path d="M59.5628 71.8704L56.2449 76.9448L49.6519 62.2706L47.5966 65.0518L53.3906 81.3117L56.1778 77.6645L57.8368 81.1775L59.9104 74.8163L59.5628 71.8704Z" fill="#EBEBEB"/>
<path d="M47.5966 65.0518C49.4141 70.6385 51.3474 76.1825 53.3235 81.7082L53.537 81.4276L56.312 77.7682L56.0193 77.7377L57.7087 81.2324L57.8551 81.5313C58.5625 79.3052 59.2334 77.0607 59.9043 74.8163C59.1663 76.9205 58.4162 79.0246 57.7026 81.1349L57.9465 81.1227L56.3303 77.5913L56.2144 77.3352L56.0376 77.5608L53.232 81.1958L53.5675 81.2507C51.6402 75.8287 49.6763 70.4189 47.5966 65.0579V65.0518Z" fill="#263238"/>
<path d="M43.0039 75.3468C46.4987 89.7892 57.0499 114.74 61.2582 117.973C64.9847 120.833 83.5439 117.515 91.7715 116.192C94.8515 115.698 91.186 94.7355 87.9047 95.3332C83.9709 96.0468 71.0349 97.0714 70.2481 96.3762C69.3821 95.6077 58.9772 80.4944 51.4023 71.4557C44.5409 63.2647 41.6866 69.8882 43.0039 75.3468Z" fill="#FFC4C0"/>
<path d="M99.3953 94.211C105.763 94.5647 107.342 95.6382 112.874 93.0827C116.503 91.4055 119.132 93.0034 116.601 96.303C112.459 101.701 104.146 102.963 101.14 102.573L99.3953 94.2049V94.211Z" fill="#FFC4C0"/>
<path d="M81.763 96.9373C81.763 96.9373 89.4905 94.4428 96.3091 94.15C101.03 93.9488 111.343 94.6502 119.016 106.476C120.839 109.282 121.443 114.569 116.802 111.069C113.508 108.58 112.173 106.013 109.989 104.915C109.989 104.915 109.959 111.733 107.08 113.447C105.793 114.216 102.231 116.222 99.2306 117.393C99.2306 117.393 98.8036 116.808 98.3584 115.991C98.3584 115.991 95.5163 117.338 90.9298 115.972L81.7448 96.9434L81.763 96.9373Z" fill="#FFC4C0"/>
<path d="M100.841 94.6744C102.774 96.2236 106.818 99.5658 109.166 103.457C111.782 107.775 115.655 116.795 112.447 118.692C110.093 120.083 108.312 116.771 108.312 116.771C108.312 116.771 109.129 120.839 106.726 121.632C104.543 122.352 103.317 119.705 103.317 119.705C103.317 119.705 103.384 122.254 101.146 122.547C98.45 122.894 98.7488 117.491 95.7115 115.484C95.0284 115.033 100.835 94.6744 100.835 94.6744H100.841Z" fill="#FFC4C0"/>
<path d="M104.146 105.458C105.726 107.208 108.294 112.112 108.367 116.68C108.367 116.783 108.294 116.838 108.269 116.747C107.117 111.733 105.08 107.312 104.104 105.482C104.092 105.458 104.128 105.439 104.146 105.458Z" fill="#263238"/>
<path d="M99.865 108.22C101.073 109.873 103.488 115.039 103.408 119.674C103.408 119.778 103.323 119.827 103.305 119.735C102.317 114.447 100.682 110.123 99.8162 108.245C99.804 108.22 99.8406 108.202 99.8588 108.22H99.865Z" fill="#263238"/>
<path d="M89.8991 120.059L85.886 94.0646L70.7117 95.626C65.3324 88.4109 54.5676 73.9868 50.0971 69.5528C44.8519 64.3565 40.8998 67.656 42.4062 75.0297C45.8461 91.8873 57.6598 117.131 61.0875 119.729C65.9971 123.456 89.9052 120.059 89.9052 120.059H89.8991Z" fill="#FFC727"/>
<path d="M83.8428 118.979C83.2817 117.296 82.135 110.068 81.8667 108.263C81.6044 106.494 80.7811 99.1817 80.5127 97.3276C80.5005 97.2239 80.6408 97.1752 80.653 97.2788C80.9457 99.1085 83.9647 117.168 83.9342 118.961C83.9342 119.022 83.8611 119.034 83.8428 118.979Z" fill="#263238"/>
<path d="M71.5167 121.474C69.3881 121.535 67.2474 121.461 65.1249 121.193C63.8075 121.004 62.417 120.784 61.2399 120.077C60.5568 119.607 60.0384 118.949 59.5383 118.308C54.7323 111.264 51.7925 103.049 48.6699 95.1626C47.1817 91.1677 45.7484 87.1546 44.4615 83.0865C45.8521 86.6423 47.7062 91.5093 49.1151 94.9857C52.3719 102.805 55.2873 110.904 59.892 118.046C60.5202 118.888 61.1484 119.76 62.1242 120.126C63.0818 120.534 64.1308 120.742 65.1676 120.925C67.2596 121.272 69.3942 121.407 71.5167 121.468V121.474Z" fill="#263238"/>
<path d="M45.8399 87.0935C45.2605 86.3617 44.7055 85.5749 44.4493 84.6722C44.8824 85.4834 45.4435 86.2641 45.8399 87.0935Z" fill="#263238"/>
<path d="M58.9039 80.3175C63.0086 85.093 66.4789 90.3991 70.553 95.199C70.614 95.2783 70.7116 95.3454 70.7665 95.4064C71.4435 95.4369 72.2302 95.3454 72.9682 95.2905L77.268 94.8758L85.8798 94.0341H85.9042V94.0524L85.9834 94.766L85.8615 94.0585L85.8859 94.0768C81.2445 94.7538 76.5971 95.3881 71.9192 95.7968C71.48 95.8211 71.0775 95.8882 70.6262 95.8211C70.4493 95.7419 70.3517 95.6199 70.2298 95.504C66.1739 90.7529 62.6914 85.2699 58.9039 80.3114V80.3175Z" fill="#263238"/>
<path d="M59.9469 80.6226C60.4348 81.4154 60.8983 82.2693 61.0447 83.1963C60.7093 82.3364 60.2457 81.4947 59.9469 80.6226Z" fill="#263238"/>
<path d="M0.463501 259.414C122.193 259.042 258.744 259.036 380.479 259.414C258.75 259.793 122.199 259.787 0.463501 259.414Z" fill="#263238"/>
<path d="M211.778 41.2943C220.145 29.5252 217.387 13.2015 205.618 4.83451C193.849 -3.53251 177.525 -0.774492 169.158 10.9947C160.791 22.7639 163.549 39.0875 175.318 47.4545C187.087 55.8215 203.411 53.0635 211.778 41.2943Z" fill="#FFC727"/>
<path opacity="0.1" d="M216.552 28.2631C217.403 14.5127 206.946 2.6762 193.195 1.82556C179.445 0.97491 167.608 11.4322 166.758 25.1826C165.907 38.933 176.364 50.7695 190.115 51.6201C203.865 52.4708 215.702 42.0134 216.552 28.2631Z" fill="black"/>
<path d="M214.882 29.5751C216.453 16.7634 207.34 5.10406 194.528 3.53325C181.717 1.96244 170.057 11.075 168.487 23.8867C166.916 36.6984 176.028 48.3577 188.84 49.9285C201.652 51.4993 213.311 42.3868 214.882 29.5751Z" fill="white"/>
<path opacity="0.5" d="M214.514 21.7672C203.871 28.2138 186.379 38.7956 176.602 44.5896C173.858 42.272 171.656 39.3384 170.217 36.0022L202.547 6.0379C208.567 9.20938 213.032 14.9302 214.508 21.7672H214.514Z" fill="#EBEBEB"/>
<path opacity="0.5" d="M215.026 27.543C214.935 30.2143 214.398 32.7698 213.483 35.1362L184.336 48.9199C183.055 48.4991 181.823 47.9685 180.652 47.3403C189.459 42.2537 205.548 32.9955 215.026 27.543Z" fill="#EBEBEB"/>
<path d="M191.893 5.0498H191.441V8.59332H191.893V5.0498Z" fill="#263238"/>
<path d="M181.023 7.83408L180.632 8.05975L182.404 11.1285L182.795 10.9029L181.023 7.83408Z" fill="#263238"/>
<path d="M173.003 15.6903L172.778 16.0812L175.847 17.8529L176.072 17.4621L173.003 15.6903Z" fill="#263238"/>
<path d="M173.541 26.5H169.997V26.9513H173.541V26.5Z" fill="#263238"/>
<path d="M175.857 35.598L172.789 37.3698L173.014 37.7606L176.083 35.9889L175.857 35.598Z" fill="#263238"/>
<path d="M182.403 42.3147L180.632 45.3844L181.023 45.6099L182.794 42.5402L182.403 42.3147Z" fill="#263238"/>
<path d="M191.893 44.858H191.441V48.4015H191.893V44.858Z" fill="#263238"/>
<path d="M200.932 42.3187L200.541 42.5444L202.313 45.6131L202.704 45.3875L200.932 42.3187Z" fill="#263238"/>
<path d="M207.477 35.5843L207.251 35.9752L210.32 37.7469L210.546 37.3561L207.477 35.5843Z" fill="#263238"/>
<path d="M213.343 26.5H209.799V26.9513H213.343V26.5Z" fill="#263238"/>
<path d="M210.321 15.6806L207.253 17.4523L207.478 17.8432L210.547 16.0714L210.321 15.6806Z" fill="#263238"/>
<path d="M202.317 7.8432L200.547 10.9129L200.938 11.1384L202.708 8.06866L202.317 7.8432Z" fill="#263238"/>
<path d="M192.008 6.65393L192.777 28.3053L190.563 28.2749L191.405 6.64783L192.008 6.65393Z" fill="#455A64"/>
<path d="M205.493 19.1751L190.929 28.47L189.868 26.5244L205.207 18.6445L205.493 19.1751Z" fill="#263238"/>
<path d="M192.429 26.7257C192.429 27.1465 192.088 27.482 191.673 27.482C191.258 27.482 190.917 27.1404 190.917 26.7257C190.917 26.311 191.258 25.9694 191.673 25.9694C192.088 25.9694 192.429 26.311 192.429 26.7257Z" fill="#FFC727"/>
<path d="M177.67 120.04H63.7284V123.566H177.67V120.04Z" fill="#455A64"/>
<path d="M174.681 203.267H66.7108V206.792H174.681V203.267Z" fill="#455A64"/>
<path d="M171.296 123.572H70.0957V130.921H171.296V123.572Z" fill="#37474F"/>
<path d="M59.5506 259.372H56.9524L75.2494 130.921H82.4462L59.5506 259.372Z" fill="#455A64"/>
<path d="M181.848 259.372H184.446L166.149 130.921H158.952L181.848 259.372Z" fill="#455A64"/>
<path d="M203.273 123.572L317.215 123.572V120.046L203.273 120.046V123.572Z" fill="#455A64"/>
<path d="M206.262 206.792H314.232V203.267H206.262V206.792Z" fill="#455A64"/>
<path d="M209.647 130.915H310.847V123.566L209.647 123.566V130.915Z" fill="#37474F"/>
<path d="M321.399 259.372H323.997L305.7 130.921H298.503L321.399 259.372Z" fill="#455A64"/>
<path d="M199.095 259.372H196.497L214.794 130.921H221.991L199.095 259.372Z" fill="#455A64"/>
<path d="M158.299 120.04H124.218V117.851L153.438 116.351L143.497 80.6776H139.313V76.9877H146.303L158.299 120.04Z" fill="#DBDBDB"/>
<path d="M142.966 76.9877L141.649 80.6837H139.319V76.9877H142.966Z" fill="#C7C7C7"/>
<path d="M140.822 39.8753L137.078 39.1961L124.169 110.369L127.914 111.048L140.822 39.8753Z" fill="#C7C7C7"/>
<path d="M144.735 57.6539L137.825 95.7543L127.908 111.051L140.82 39.8753L144.735 57.6539Z" fill="#DBDBDB"/>
<path d="M117.18 120.04V116.168L83.0988 117.851V120.04H117.18Z" fill="#DBDBDB"/>
<path d="M222.644 120.04H256.731V117.851L227.505 116.351L237.446 80.6776H241.63V76.9877H234.647L222.644 120.04Z" fill="#DBDBDB"/>
<path d="M237.977 76.9877L239.294 80.6837H241.63V76.9877H237.977Z" fill="#C7C7C7"/>
<path d="M253.036 111.057L256.78 110.378L243.872 39.205L240.127 39.8842L253.036 111.057Z" fill="#C7C7C7"/>
<path d="M236.214 57.6538L243.124 95.7542L253.035 111.05L240.129 39.8752L236.214 57.6538Z" fill="#DBDBDB"/>
<path d="M263.763 120.04V116.168L297.844 117.851V120.04H263.763Z" fill="#DBDBDB"/>
<path d="M222.241 120.083H243.917V115.125H222.241V120.083Z" fill="#263238"/>
<path d="M210.421 120.083H222.241V115.125H210.421V120.083Z" fill="#263238"/>
<path d="M222.241 119.571H243.917V115.643H222.241V119.571Z" fill="white"/>
<path d="M242.514 118.759C240.825 118.778 239.135 118.796 237.446 118.802L232.378 118.814L227.309 118.802C225.62 118.796 223.931 118.778 222.241 118.759C223.931 118.741 225.62 118.723 227.309 118.717L232.378 118.705L237.446 118.717C239.135 118.723 240.825 118.741 242.514 118.759Z" fill="#DBDBDB"/>
<path d="M242.514 117.991C240.825 118.009 239.135 118.028 237.446 118.034L232.378 118.046L227.309 118.034C225.62 118.028 223.931 118.009 222.241 117.991C223.931 117.973 225.62 117.954 227.309 117.948L232.378 117.936L237.446 117.948C239.135 117.954 240.825 117.973 242.514 117.991Z" fill="#DBDBDB"/>
<path d="M242.514 117.216C240.825 117.235 239.135 117.253 237.446 117.259L232.378 117.271L227.309 117.259C225.62 117.253 223.931 117.235 222.241 117.216C223.931 117.198 225.62 117.18 227.309 117.174L232.378 117.161L237.446 117.174C239.135 117.18 240.825 117.198 242.514 117.216Z" fill="#DBDBDB"/>
<path d="M242.514 116.448C240.825 116.466 239.135 116.485 237.446 116.491L232.378 116.503L227.309 116.491C225.62 116.485 223.931 116.466 222.241 116.448C223.931 116.43 225.62 116.411 227.309 116.405L232.378 116.393L237.446 116.405C239.135 116.411 240.825 116.43 242.514 116.448Z" fill="#DBDBDB"/>
<path d="M240.239 116.924V120.229L238.269 118.583L236.299 120.229V116.924C236.299 116.643 236.074 116.417 235.793 116.417H239.739C240.02 116.417 240.245 116.643 240.245 116.924H240.239Z" fill="#FFC727"/>
<path d="M244.027 111.575H207.982V115.131H244.027V111.575Z" fill="#37474F"/>
<path d="M240.203 111.575H236.842V115.131H240.203V111.575Z" fill="#455A64"/>
<path d="M234.64 111.575H233.335V115.131H234.64V111.575Z" fill="#455A64"/>
<path d="M226.193 111.575H248.625V106.086H226.193V111.575Z" fill="#FFC727"/>
<path d="M209.067 111.575H226.199V106.086H209.067V111.575Z" fill="#FFC727"/>
<path opacity="0.2" d="M209.067 111.575H226.199V106.086H209.067V111.575Z" fill="black"/>
<path d="M226.937 111.002H248.631V106.653H226.937V111.002Z" fill="white"/>
<path d="M247.223 110.105C245.533 110.136 243.844 110.16 242.148 110.172L237.074 110.19L231.999 110.172C230.31 110.16 228.621 110.142 226.925 110.105C228.615 110.075 230.304 110.05 231.999 110.038L237.074 110.02L242.148 110.038C243.838 110.05 245.527 110.068 247.223 110.105Z" fill="#DBDBDB"/>
<path d="M247.223 109.251C245.533 109.282 243.844 109.306 242.148 109.318L237.074 109.337L231.999 109.318C230.31 109.306 228.621 109.288 226.925 109.251C228.615 109.221 230.304 109.196 231.999 109.184L237.074 109.166L242.148 109.184C243.838 109.196 245.527 109.215 247.223 109.251Z" fill="#DBDBDB"/>
<path d="M247.223 108.397C245.533 108.428 243.844 108.452 242.148 108.464L237.074 108.483L231.999 108.464C230.31 108.452 228.621 108.434 226.925 108.397C228.615 108.367 230.304 108.342 231.999 108.33L237.074 108.312L242.148 108.33C243.838 108.342 245.527 108.361 247.223 108.397Z" fill="#DBDBDB"/>
<path d="M247.223 107.543C245.533 107.574 243.844 107.598 242.148 107.61L237.074 107.629L231.999 107.61C230.31 107.598 228.621 107.574 226.925 107.543C228.615 107.513 230.304 107.489 231.999 107.476L237.074 107.458L242.148 107.476C243.838 107.489 245.527 107.507 247.223 107.543Z" fill="#DBDBDB"/>
<path d="M231.048 100.591H211.36V106.08H231.048V100.591Z" fill="#455A64"/>
<path d="M242.203 100.591H231.042V106.08H242.203V100.591Z" fill="#455A64"/>
<path d="M231.048 101.158H211.36V105.506H231.048V101.158Z" fill="white"/>
<path d="M212.635 102.054C214.172 102.024 215.703 101.999 217.24 101.987L221.845 101.969L226.449 101.987C227.986 101.999 229.517 102.018 231.054 102.054C229.517 102.085 227.986 102.109 226.449 102.121L221.845 102.14L217.24 102.121C215.703 102.109 214.172 102.091 212.635 102.054Z" fill="#DBDBDB"/>
<path d="M212.635 102.908C214.172 102.878 215.703 102.853 217.24 102.841L221.845 102.823L226.449 102.841C227.986 102.853 229.517 102.872 231.054 102.908C229.517 102.939 227.986 102.963 226.449 102.975L221.845 102.994L217.24 102.975C215.703 102.963 214.172 102.945 212.635 102.908Z" fill="#DBDBDB"/>
<path d="M212.635 103.762C214.172 103.732 215.703 103.707 217.24 103.695L221.845 103.677L226.449 103.695C227.986 103.707 229.517 103.726 231.054 103.762C229.517 103.793 227.986 103.817 226.449 103.829L221.845 103.848L217.24 103.829C215.703 103.817 214.172 103.799 212.635 103.762Z" fill="#DBDBDB"/>
<path d="M212.635 104.616C214.172 104.585 215.703 104.561 217.24 104.549L221.845 104.531L226.449 104.549C227.986 104.561 229.517 104.585 231.054 104.616C229.517 104.646 227.986 104.671 226.449 104.683L221.845 104.701L217.24 104.683C215.703 104.671 214.172 104.652 212.635 104.616Z" fill="#DBDBDB"/>
<path d="M215.404 102.561V107.476L217.374 105.83L219.344 107.476V102.561C219.344 102.28 219.57 102.054 219.85 102.054H215.904C215.624 102.054 215.398 102.28 215.398 102.561H215.404Z" fill="#263238"/>
<path d="M121.089 54.6897H92.4241H82.7816V59.453H77.7073L82.7816 64.5274V77.0547H121.089V73.9503V54.6897Z" fill="white"/>
<path d="M121.089 54.6897C121.077 54.6104 82.1412 55.0861 82.9341 54.6897L82.9768 59.453V59.6482H82.7755L77.7011 59.6786L77.8597 59.2944L82.9585 64.3444L83.0317 64.4176V64.5273L83.0621 77.0608L82.7694 76.768C92.3143 76.7558 111.538 76.7924 121.077 76.8168L120.839 77.0547C120.864 71.4802 121.004 60.2581 121.077 54.6836L121.089 54.6897ZM121.089 54.6897C121.163 60.3861 121.303 71.5961 121.333 77.2986C111.654 77.323 92.4546 77.3596 82.7816 77.3535H82.4888V77.0608L82.5193 64.5273L82.5925 64.7103L77.5426 59.6116L77.1583 59.2212H77.7072L82.7816 59.2517L82.5803 59.453L82.623 54.6897V54.5311C82.7206 54.4823 120.967 54.7202 121.089 54.6897Z" fill="#263238"/>
<path d="M108.367 65.869C108.367 66.8083 109.129 67.5646 110.062 67.5646C110.996 67.5646 111.758 66.8022 111.758 65.869C111.758 64.9359 110.996 64.1735 110.062 64.1735C109.129 64.1735 108.367 64.9359 108.367 65.869Z" fill="#263238"/>
<path d="M99.8954 65.869C99.8954 66.8083 100.658 67.5646 101.591 67.5646C102.524 67.5646 103.286 66.8022 103.286 65.869C103.286 64.9359 102.524 64.1735 101.591 64.1735C100.658 64.1735 99.8954 64.9359 99.8954 65.869Z" fill="#263238"/>
<path d="M91.4178 65.8691C91.4178 66.8083 92.1802 67.5646 93.1134 67.5646C94.0465 67.5646 94.8089 66.8022 94.8089 65.8691C94.8089 64.936 94.0465 64.1736 93.1134 64.1736C92.1802 64.1736 91.4178 64.936 91.4178 65.8691Z" fill="#263238"/>
</g>
<defs>
<clipPath id="clip0_67_14909">
<rect width="380.943" height="260" fill="white"/>
</clipPath>
</defs>
</svg>
