<svg width="340" height="340" viewBox="0 0 340 340" fill="none" xmlns="http://www.w3.org/2000/svg">
<path d="M168.678 242.353C151.434 242.353 134.577 237.243 120.24 227.668C105.902 218.094 94.7273 204.485 88.1284 188.563C81.5295 172.641 79.8029 155.121 83.167 138.218C86.5311 121.315 94.8347 105.789 107.028 93.6028C119.221 81.4166 134.756 73.1177 151.669 69.7555C168.581 66.3933 186.111 68.1189 202.042 74.7141C217.974 81.3092 231.59 92.4776 241.17 106.807C250.75 121.137 255.864 137.983 255.864 155.217C255.842 178.321 246.65 200.471 230.304 216.808C213.958 233.145 191.794 242.332 168.678 242.353ZM168.678 68.8573C151.588 68.8573 134.881 73.9222 120.671 83.4116C106.461 92.9009 95.3859 106.389 88.8458 122.169C82.3057 137.949 80.5945 155.313 83.9286 172.065C87.2627 188.817 95.4924 204.205 107.577 216.283C119.662 228.361 135.058 236.586 151.82 239.918C168.582 243.25 185.956 241.54 201.745 235.004C217.534 228.467 231.03 217.398 240.525 203.196C250.019 188.994 255.087 172.298 255.087 155.217C255.056 132.323 245.942 110.375 229.744 94.1861C213.546 77.9972 191.585 68.8886 168.678 68.8573Z" fill="#EBEBEB"/>
<path d="M168.678 232.915C153.302 232.915 138.271 228.358 125.487 219.82C112.702 211.283 102.738 199.148 96.8536 184.951C90.9695 170.753 89.4299 155.131 92.4296 140.059C95.4293 124.987 102.833 111.143 113.706 100.277C124.578 89.4108 138.431 82.0108 153.511 79.0129C168.591 76.0149 184.223 77.5536 198.428 83.4343C212.634 89.315 224.775 99.2737 233.318 112.051C241.86 124.828 246.42 139.85 246.42 155.217C246.396 175.817 238.198 195.566 223.624 210.132C209.049 224.698 189.289 232.891 168.678 232.915ZM168.678 78.3034C153.457 78.3034 138.578 82.8143 125.922 91.2657C113.266 99.7172 103.403 111.729 97.5778 125.784C91.7531 139.838 90.229 155.303 93.1985 170.222C96.1679 185.142 103.497 198.847 114.26 209.604C125.023 220.36 138.736 227.686 153.664 230.653C168.592 233.621 184.066 232.098 198.128 226.277C212.19 220.455 224.21 210.597 232.666 197.948C241.122 185.3 245.636 170.429 245.636 155.217C245.612 134.826 237.497 115.276 223.069 100.857C208.642 86.4378 189.081 78.3269 168.678 78.3034Z" fill="#EBEBEB"/>
<path d="M115.279 22.0958L114.552 22.3893L119.937 35.7117L120.664 35.4182L115.279 22.0958Z" fill="#EBEBEB"/>
<path d="M123.056 41.3234L122.33 41.6169L131.214 63.5948L131.941 63.3013L123.056 41.3234Z" fill="#EBEBEB"/>
<path d="M36.7326 98.816L36.4263 99.5372L49.6603 105.152L49.9666 104.43L36.7326 98.816Z" fill="#EBEBEB"/>
<path d="M55.8434 106.923L55.5371 107.644L77.3692 116.906L77.6755 116.185L55.8434 106.923Z" fill="#EBEBEB"/>
<path d="M48.8049 203.197L35.4749 208.58L35.7685 209.306L49.0986 203.924L48.8049 203.197Z" fill="#EBEBEB"/>
<path d="M76.7114 191.934L54.7209 200.814L55.0146 201.54L77.0051 192.661L76.7114 191.934Z" fill="#EBEBEB"/>
<path d="M117.863 273.857L112.246 287.083L112.967 287.389L118.585 274.163L117.863 273.857Z" fill="#EBEBEB"/>
<path d="M129.617 246.172L120.35 267.991L121.071 268.297L130.339 246.478L129.617 246.172Z" fill="#EBEBEB"/>
<path d="M217.415 274.729L216.688 275.023L222.073 288.345L222.8 288.052L217.415 274.729Z" fill="#EBEBEB"/>
<path d="M206.137 246.839L205.41 247.132L214.295 269.11L215.022 268.817L206.137 246.839Z" fill="#EBEBEB"/>
<path d="M287.693 205.286L287.387 206.007L300.621 211.621L300.927 210.9L287.693 205.286Z" fill="#EBEBEB"/>
<path d="M259.992 193.531L259.686 194.252L281.518 203.514L281.824 202.793L259.992 193.531Z" fill="#EBEBEB"/>
<path d="M301.583 101.127L288.253 106.51L288.547 107.236L301.877 101.854L301.583 101.127Z" fill="#EBEBEB"/>
<path d="M282.344 108.901L260.354 117.781L260.647 118.507L282.638 109.627L282.344 108.901Z" fill="#EBEBEB"/>
<path d="M224.386 23.0403L218.769 36.2667L219.49 36.5729L225.108 23.3464L224.386 23.0403Z" fill="#EBEBEB"/>
<path d="M216.282 42.1398L207.015 63.9594L207.737 64.2655L217.004 42.4459L216.282 42.1398Z" fill="#EBEBEB"/>
<path d="M169.07 0.643066H168.286V35.9957H169.07V0.643066Z" fill="#EBEBEB"/>
<path d="M169.07 43.9635H168.286V56.2404H169.07V43.9635Z" fill="#EBEBEB"/>
<path d="M59.5926 45.6348L59.0383 46.1888L84.0507 71.1869L84.605 70.6329L59.5926 45.6348Z" fill="#EBEBEB"/>
<path d="M90.245 76.2753L89.6907 76.8293L98.3768 85.5105L98.9311 84.9565L90.245 76.2753Z" fill="#EBEBEB"/>
<path d="M49.3878 154.826H14.0149V155.609H49.3878V154.826Z" fill="#EBEBEB"/>
<path d="M69.6441 154.826H57.3601V155.609H69.6441V154.826Z" fill="#EBEBEB"/>
<path d="M84.0524 239.242L59.04 264.24L59.5944 264.794L84.6067 239.796L84.0524 239.242Z" fill="#EBEBEB"/>
<path d="M98.3792 224.927L89.6931 233.608L90.2474 234.162L98.9335 225.481L98.3792 224.927Z" fill="#EBEBEB"/>
<path d="M169.07 274.439H168.286V309.792H169.07V274.439Z" fill="#EBEBEB"/>
<path d="M169.07 254.194H168.286V266.471H169.07V254.194Z" fill="#EBEBEB"/>
<path d="M253.307 239.243L252.753 239.797L277.766 264.795L278.32 264.241L253.307 239.243Z" fill="#EBEBEB"/>
<path d="M238.976 224.924L238.422 225.478L247.108 234.159L247.663 233.605L238.976 224.924Z" fill="#EBEBEB"/>
<path d="M323.34 154.826H287.968V155.609H323.34V154.826Z" fill="#EBEBEB"/>
<path d="M279.995 154.826H267.711V155.609H279.995V154.826Z" fill="#EBEBEB"/>
<path d="M277.764 45.6456L252.751 70.6437L253.306 71.1977L278.318 46.1996L277.764 45.6456Z" fill="#EBEBEB"/>
<path d="M247.106 76.273L238.419 84.9541L238.974 85.5081L247.66 76.827L247.106 76.273Z" fill="#EBEBEB"/>
<path d="M170.46 155.217C170.46 155.57 170.355 155.914 170.16 156.207C169.964 156.5 169.685 156.728 169.36 156.863C169.034 156.998 168.676 157.033 168.33 156.964C167.984 156.896 167.667 156.726 167.417 156.477C167.168 156.228 166.998 155.91 166.93 155.565C166.861 155.219 166.896 154.861 167.031 154.536C167.166 154.21 167.394 153.932 167.687 153.736C167.98 153.541 168.325 153.436 168.678 153.436C169.15 153.436 169.604 153.624 169.938 153.958C170.272 154.292 170.46 154.745 170.46 155.217Z" fill="#EBEBEB"/>
<path d="M297.567 87.8531C297.426 87.7274 294.254 84.7709 293.47 78.0079C293.218 75.8274 293.795 71.7548 294.52 66.5883C295.999 55.9005 298.307 39.7505 292.346 37.6587C277.148 32.3296 253.149 33.9631 252.898 34.0074L252.772 32.3C253.771 32.2261 277.37 30.5926 292.915 36.0474C300.207 38.6048 297.996 54.2522 296.221 66.8248C295.533 71.6661 294.942 75.8496 295.171 77.8083C295.91 83.8839 298.691 86.5596 298.721 86.5892L297.567 87.8531Z" fill="#A6A6A6"/>
<path d="M307.307 98.3708C307.307 98.3117 304.415 92.2508 302.382 90.2404C301.132 89.0354 299.61 88.1503 297.944 87.6608L298.358 85.9978C300.306 86.5696 302.084 87.6101 303.535 89.0282C305.754 91.2456 308.712 97.3952 308.808 97.6539L307.307 98.3708Z" fill="#A6A6A6"/>
<path d="M297.53 102.739C297.205 102 294.417 95.1852 294.809 92.7386C295.228 90.7918 295.85 88.8942 296.665 87.0769L298.233 87.7717C297.481 89.4557 296.901 91.2115 296.502 93.0121C296.266 94.4904 297.981 99.3613 299.113 102.081L297.53 102.739Z" fill="#A6A6A6"/>
<path d="M305.991 101.734C305.991 101.667 302.973 95.3477 302.137 93.6034C301.487 92.2656 298.373 88.836 297.227 87.6238L298.477 86.4486C298.913 86.9069 302.796 91.0386 303.654 92.8569C304.511 94.6751 307.492 100.928 307.521 100.987L305.991 101.734Z" fill="#A6A6A6"/>
<path d="M300.939 103.087C300.939 103.035 299.29 98.0826 298.528 96.5304C297.685 94.823 296.835 88.0748 296.746 87.3135L298.447 87.0991C298.787 89.8783 299.527 94.6826 300.067 95.7691C300.88 97.4322 302.5 102.34 302.566 102.547L300.939 103.087Z" fill="#A6A6A6"/>
<path d="M246.397 52.9069L187.84 22.2477L255.834 12.3286L310.924 50.5638L246.397 52.9069Z" fill="#DBDBDB"/>
<path d="M213.051 51.037L215.27 31.8196C215.27 31.8196 236.354 27.4809 251.138 30.9178C265.922 34.3548 282.244 45.8261 282.244 45.8261L276.327 65.7826C276.327 65.7826 257.506 57.0387 245.51 54.5109C233.514 51.983 213.051 51.037 213.051 51.037Z" fill="#FFC727"/>
<path d="M213.051 51.0368H213.11C214.36 51.0959 233.884 52.0199 245.488 54.4664C257.321 56.9572 275.721 65.4646 276.29 65.7307L282.207 45.8112C282.207 45.8112 265.877 34.3177 251.094 30.8807C236.31 27.4438 215.27 31.7825 215.27 31.7825L213.051 51.0368Z" fill="#EBEBEB"/>
<path d="M266.787 59.3152H266.868L266.173 60.6973C264.08 59.8695 261.861 59.0417 259.643 58.2804C257.986 57.8221 256.315 57.4156 254.628 57.0386C251.636 56.0132 248.59 55.1545 245.502 54.4665C243.543 54.0526 241.361 53.683 239.083 53.3578C240.981 53.5746 242.882 53.821 244.785 54.0969C242.818 53.6756 240.843 53.3578 238.869 53.0326L239.076 51.0295H239.172C242.87 51.2512 246.567 51.5912 250.221 52.0791L249.134 51.7982C247.514 51.5247 245.894 51.2808 244.275 51.0591C242.056 50.7412 239.771 50.4456 237.537 50.1943H237.456L237.641 47.5556H237.826C238.809 47.6295 239.793 47.6812 240.784 47.7773L240.644 46.0182C241.797 45.8704 242.862 45.7965 243.964 45.7373C243.996 45.7337 244.028 45.7337 244.06 45.7373V43.0247H244.216H245.525C243.668 42.7439 241.827 42.5591 239.926 42.4408L240.074 39.3291H240.252C241.844 39.4178 243.422 39.5311 244.985 39.6691L245.133 37.836L243.683 37.6956H243.639L243.69 35.116H243.764C247.495 35.1933 251.214 35.5391 254.895 36.1508C251.04 34.6341 246.974 33.7216 242.84 33.4456L242.958 31.376H243.165C244.068 31.4204 244.963 31.5017 245.865 31.6126H246.005C249.171 31.9156 252.328 32.3517 255.457 32.8986C252.155 31.7108 248.79 30.7065 245.377 29.8904C245.813 29.8904 246.242 29.9791 246.671 30.0382C248.162 30.2263 249.644 30.4903 251.108 30.8291C252.062 31.0508 253.031 31.3095 254 31.5682C256.512 32.3235 258.981 33.2167 261.395 34.2439C262.801 34.8352 264.184 35.4634 265.522 36.0991L265.64 36.1582L265.138 37.2226C263.142 36.5352 261.11 35.9578 259.051 35.493C259.791 35.8699 260.53 36.2839 261.27 36.7126C263 37.6512 266.831 40.9773 268.429 42.2265L265.766 41.3839L264.701 43.3721L263.747 45.8186L263.074 45.6339L262.667 46.4617C264.107 46.9544 265.53 47.5186 266.935 48.1543L265.848 51.0443C262.621 50.1887 259.34 49.5565 256.026 49.1521C259.132 50.2017 262.165 51.3695 265.197 52.663H265.234L264.184 55.4347C263.747 55.2499 263.296 55.0799 262.838 54.9247C266.025 56.9795 269.671 59.6773 271.646 60.993L261.861 57.0239C260.22 56.4031 258.534 55.9089 256.818 55.5456C258.962 56.2847 261.085 57.0239 263.185 57.8812H263.252C264.454 58.2719 265.626 58.7512 266.757 59.3152H266.787Z" fill="white"/>
<path d="M213.051 51.0369C213.051 51.0369 230.438 58.4873 243.232 61.0151C255.805 63.506 275.676 65.6716 276.29 65.7308C275.721 65.4647 257.299 56.9573 245.488 54.4664C233.884 52.0199 214.36 51.096 213.11 51.0369H213.051Z" fill="#C7C7C7"/>
<path d="M38.1167 187C38.2277 186.897 40.8827 184.361 41.4817 178.626C41.674 176.785 41.1415 173.341 40.4759 169.017C39.0929 159.985 36.9926 146.348 42.0216 144.515C54.8306 139.843 75.161 141.011 75.3681 141.019L75.4494 139.54C74.6063 139.489 54.6162 138.35 41.5261 143.118C35.3804 145.335 37.4068 158.58 39.0412 169.202C39.6698 173.297 40.2097 176.83 40.0396 178.485C39.4997 183.659 37.1479 185.928 37.1257 185.95L38.1167 187Z" fill="#A6A6A6"/>
<path d="M34.6855 197.385C34.6855 197.326 35.0405 191.664 36.0093 189.439C36.6051 188.105 37.5162 186.936 38.6643 186.032L37.8138 184.849C36.4535 185.908 35.3763 187.287 34.6781 188.863C33.6057 191.324 33.2507 197.052 33.199 197.296L34.6855 197.385Z" fill="#A6A6A6"/>
<path d="M43.7524 197.762C43.7524 197.059 43.8264 190.843 42.7466 189.047C41.8077 187.645 40.7218 186.346 39.5074 185.174L38.5164 186.216C39.6201 187.307 40.6112 188.505 41.4746 189.794C42.1254 190.88 42.3103 195.241 42.2659 197.739L43.7524 197.762Z" fill="#A6A6A6"/>
<path d="M36.7781 199.617C36.7781 199.558 37.1479 193.652 37.2588 192.026C37.355 190.769 38.738 187.096 39.2409 185.78L37.8875 185.248C37.6878 185.751 35.935 190.215 35.8167 191.9C35.6984 193.586 35.336 199.439 35.3286 199.506L36.7781 199.617Z" fill="#A6A6A6"/>
<path d="M41.1785 199.092C41.1785 199.048 40.8975 194.657 41.0158 193.179C41.1416 191.575 39.6847 186.002 39.5367 185.374L38.1316 185.743C38.738 188.027 39.6625 192.041 39.6107 193.061C39.485 194.628 39.7586 198.974 39.7734 199.173L41.1785 199.092Z" fill="#A6A6A6"/>
<path d="M81.0627 156.939L130.295 130.397L72.6614 122.696L26.4319 155.609L81.0627 156.939Z" fill="#DBDBDB"/>
<path d="M109.247 155.018L107.191 138.757C107.191 138.757 89.3012 135.298 76.8249 138.358C64.3486 141.418 50.6521 151.3 50.6521 151.3L55.829 168.1C55.829 168.1 71.6702 160.51 81.7947 158.248C91.9192 155.986 109.247 155.018 109.247 155.018Z" fill="#FFC727"/>
<path d="M109.247 155.018H109.195C108.138 155.084 91.6234 156.06 81.8317 158.248C71.8625 160.465 56.3614 167.856 55.8807 168.1L50.7039 151.307C50.7039 151.307 64.4004 141.41 76.8841 138.358C89.3677 135.305 107.243 138.757 107.243 138.757L109.247 155.018Z" fill="#EBEBEB"/>
<path d="M63.8682 162.609H63.8017L64.4007 163.776C66.1978 163.037 68.0467 162.298 69.903 161.633C71.2933 161.226 72.7059 160.894 74.1258 160.532C76.6501 159.63 79.2229 158.87 81.832 158.255C83.4812 157.886 85.3227 157.553 87.2529 157.25C85.6407 157.457 84.0334 157.681 82.431 157.923C84.0876 157.546 85.759 157.243 87.423 156.962L87.2307 155.269H87.1494C84.0137 155.498 80.9149 155.816 77.8088 156.274L78.7259 156.023C80.094 155.779 81.4622 155.557 82.8304 155.343C84.7236 155.055 86.6317 154.781 88.5249 154.545H88.5915L88.4066 152.327H88.2513C87.423 152.394 86.5873 152.453 85.759 152.542L85.8626 151.063C84.8789 150.953 83.9767 150.901 83.0449 150.856H82.9635V148.565C82.9192 148.569 82.8747 148.569 82.8304 148.565H81.7211C83.2889 148.314 84.8642 148.129 86.4468 148.011L86.2841 145.379H86.151C84.805 145.468 83.4738 145.579 82.15 145.712L82.0021 144.16L83.2223 144.064H83.2593L83.1928 141.846H83.1336C79.9757 141.95 76.8293 142.281 73.7191 142.837C76.9598 141.518 80.3849 140.708 83.8732 140.435L83.7548 138.69H83.5773C82.8378 138.742 82.0613 138.823 81.2995 138.927H81.1812C78.504 139.223 75.8342 139.592 73.194 140.109C75.9793 139.075 78.8184 138.192 81.6989 137.463C81.3291 137.5 80.9593 137.552 80.6043 137.604C79.3346 137.782 78.0755 138.029 76.8326 138.343C76.0265 138.543 75.2056 138.764 74.3921 139.016C72.2647 139.683 70.176 140.468 68.1355 141.366C66.9522 141.876 65.7837 142.423 64.6595 142.97L64.5634 143.022L64.9997 143.923C66.6805 143.317 68.394 142.807 70.1322 142.393C69.4962 142.719 68.8824 143.073 68.276 143.45C66.7969 144.263 63.6168 147.146 62.2782 148.188L64.4968 147.449L65.4139 149.119L66.2422 151.189C66.4345 151.13 66.6194 151.071 66.8116 151.026L67.1666 151.714C65.9538 152.157 64.7483 152.653 63.5724 153.192L64.519 155.624C67.2428 154.867 70.0152 154.296 72.8168 153.916C70.1988 154.84 67.6399 155.86 65.0811 156.991L66.0499 159.209C66.4197 159.053 66.7895 158.906 67.1814 158.773C64.5116 160.539 61.4499 162.86 59.7859 163.991L67.9801 160.561C69.3576 160.008 70.7771 159.565 72.2252 159.238C70.4207 159.874 68.6383 160.554 66.8634 161.278H66.8116C65.7941 161.616 64.805 162.034 63.8534 162.527L63.8682 162.609Z" fill="white"/>
<path d="M109.247 155.018C109.247 155.018 94.6039 161.5 83.8138 163.769C73.179 165.986 56.3985 168.034 55.8809 168.1C56.3616 167.864 71.8626 160.48 81.8318 158.248C91.6235 156.03 108.138 155.084 109.195 155.018H109.247Z" fill="#C7C7C7"/>
<path d="M211.793 282.998H125.562V340H211.793V282.998Z" fill="#FFC727"/>
<path opacity="0.4" d="M211.793 282.998H125.562V340H211.793V282.998Z" fill="white"/>
<path opacity="0.5" d="M160.994 331.855H125.562V340H160.994V331.855Z" fill="#FFC727"/>
<path opacity="0.5" d="M211.793 331.855H176.361V340H211.793V331.855Z" fill="#FFC727"/>
<path d="M212.311 281.143H125.044V282.998H212.311V281.143Z" fill="#FFC727"/>
<path opacity="0.5" d="M211.793 282.998H125.562V285.489L211.793 284.573V282.998Z" fill="#FFC727"/>
<path d="M211.793 286.79H125.562V289.163H211.793V286.79Z" fill="white"/>
<path opacity="0.5" d="M211.793 289.163H125.562V289.968L211.793 289.562V289.163Z" fill="#FFC727"/>
<path d="M211.793 310.006H125.562V312.379H211.793V310.006Z" fill="white"/>
<path opacity="0.5" d="M211.793 312.379H125.562V313.177L211.793 312.778V312.379Z" fill="#FFC727"/>
<path d="M141.647 292.866H135.006V307.973H141.647V292.866Z" fill="white"/>
<path d="M140.855 293.62H135.797V307.212H140.855V293.62Z" fill="#455A64"/>
<g opacity="0.1">
<path d="M140.855 297.352L135.797 303.627V307.219L140.855 300.944V297.352Z" fill="white"/>
<path d="M140.855 294.669L135.797 300.944V302.519L140.855 296.243V294.669Z" fill="white"/>
</g>
<path d="M142.408 291.713H134.251V292.866H142.408V291.713Z" fill="white"/>
<path d="M135.006 293.331V292.866H141.654V293.102L135.006 293.331Z" fill="#EBEBEB"/>
<path d="M153.79 292.866H147.149V307.973H153.79V292.866Z" fill="white"/>
<path d="M152.999 293.62H147.94V307.212H152.999V293.62Z" fill="#455A64"/>
<g opacity="0.1">
<path d="M152.999 297.352L147.94 303.627V307.219L152.999 300.944V297.352Z" fill="white"/>
<path d="M152.999 294.669L147.94 300.944V302.519L152.999 296.243V294.669Z" fill="white"/>
</g>
<path d="M154.545 291.713H146.387V292.866H154.545V291.713Z" fill="white"/>
<path d="M147.149 293.331V292.866H153.79V293.102L147.149 293.331Z" fill="#EBEBEB"/>
<path d="M165.926 292.866H159.285V307.973H165.926V292.866Z" fill="white"/>
<path d="M165.135 293.62H160.076V307.212H165.135V293.62Z" fill="#455A64"/>
<g opacity="0.1">
<path d="M165.135 297.352L160.076 303.627V307.219L165.135 300.944V297.352Z" fill="white"/>
<path d="M165.135 294.669L160.076 300.944V302.519L165.135 296.243V294.669Z" fill="white"/>
</g>
<path d="M166.688 291.713H158.531V292.866H166.688V291.713Z" fill="white"/>
<path d="M159.285 293.331V292.866H165.926V293.102L159.285 293.331Z" fill="#EBEBEB"/>
<path d="M178.07 292.866H171.429V307.973H178.07V292.866Z" fill="white"/>
<path d="M177.278 293.62H172.22V307.212H177.278V293.62Z" fill="#455A64"/>
<g opacity="0.1">
<path d="M177.278 297.352L172.22 303.627V307.219L177.278 300.944V297.352Z" fill="white"/>
<path d="M177.278 294.669L172.22 300.944V302.519L177.278 296.243V294.669Z" fill="white"/>
</g>
<path d="M178.824 291.713H170.667V292.866H178.824V291.713Z" fill="white"/>
<path d="M171.429 293.331V292.866H178.07V293.102L171.429 293.331Z" fill="#EBEBEB"/>
<path d="M190.206 292.866H183.564V307.973H190.206V292.866Z" fill="white"/>
<path d="M189.415 293.62H184.356V307.212H189.415V293.62Z" fill="#455A64"/>
<g opacity="0.1">
<path d="M189.415 297.352L184.356 303.627V307.219L189.415 300.944V297.352Z" fill="white"/>
<path d="M189.415 294.669L184.356 300.944V302.519L189.415 296.243V294.669Z" fill="white"/>
</g>
<path d="M190.96 291.713H182.803V292.866H190.96V291.713Z" fill="white"/>
<path d="M183.564 293.331V292.866H190.206V293.102L183.564 293.331Z" fill="#EBEBEB"/>
<path d="M202.342 292.866H195.701V307.973H202.342V292.866Z" fill="white"/>
<path d="M201.558 293.62H196.499V307.212H201.558V293.62Z" fill="#455A64"/>
<g opacity="0.1">
<path d="M201.558 297.352L196.499 303.627V307.219L201.558 300.944V297.352Z" fill="white"/>
<path d="M201.558 294.669L196.499 300.944V302.519L201.558 296.243V294.669Z" fill="white"/>
</g>
<path d="M203.104 291.713H194.947V292.866H203.104V291.713Z" fill="white"/>
<path d="M195.708 293.331V292.866H202.349V293.102L195.708 293.331Z" fill="#EBEBEB"/>
<path d="M141.647 315.978H135.006V331.086H141.647V315.978Z" fill="white"/>
<path d="M140.855 316.732H135.797V330.325H140.855V316.732Z" fill="#455A64"/>
<g opacity="0.1">
<path d="M140.855 320.465L135.797 326.74V330.325L140.855 324.049V320.465Z" fill="white"/>
<path d="M140.855 317.774L135.797 324.049V325.624L140.855 319.349V317.774Z" fill="white"/>
</g>
<path d="M142.408 314.825H134.251V315.978H142.408V314.825Z" fill="white"/>
<path d="M135.006 316.444V315.978H141.654V316.207L135.006 316.444Z" fill="#EBEBEB"/>
<path d="M153.79 315.978H147.149V331.086H153.79V315.978Z" fill="white"/>
<path d="M152.999 316.732H147.94V330.325H152.999V316.732Z" fill="#455A64"/>
<g opacity="0.1">
<path d="M152.999 320.465L147.94 326.74V330.325L152.999 324.049V320.465Z" fill="white"/>
<path d="M152.999 317.774L147.94 324.049V325.624L152.999 319.349V317.774Z" fill="white"/>
</g>
<path d="M154.545 314.825H146.387V315.978H154.545V314.825Z" fill="white"/>
<path d="M147.149 316.444V315.978H153.79V316.207L147.149 316.444Z" fill="#EBEBEB"/>
<path d="M190.206 315.978H183.564V331.086H190.206V315.978Z" fill="white"/>
<path d="M189.415 316.732H184.356V330.325H189.415V316.732Z" fill="#455A64"/>
<g opacity="0.1">
<path d="M189.415 320.465L184.356 326.74V330.325L189.415 324.049V320.465Z" fill="white"/>
<path d="M189.415 317.774L184.356 324.049V325.624L189.415 319.349V317.774Z" fill="white"/>
</g>
<path d="M190.96 314.825H182.803V315.978H190.96V314.825Z" fill="white"/>
<path d="M183.564 316.444V315.978H190.206V316.207L183.564 316.444Z" fill="#EBEBEB"/>
<path d="M202.342 315.978H195.701V331.086H202.342V315.978Z" fill="white"/>
<path d="M201.558 316.732H196.499V330.325H201.558V316.732Z" fill="#455A64"/>
<g opacity="0.1">
<path d="M201.558 320.465L196.499 326.74V330.325L201.558 324.049V320.465Z" fill="white"/>
<path d="M201.558 317.774L196.499 324.049V325.624L201.558 319.349V317.774Z" fill="white"/>
</g>
<path d="M203.104 314.825H194.947V315.978H203.104V314.825Z" fill="white"/>
<path d="M195.708 316.444V315.978H202.349V316.207L195.708 316.444Z" fill="#EBEBEB"/>
<path d="M160.239 321.61H177.116L168.677 315.749L160.239 321.61Z" fill="white"/>
<path d="M162.214 320.982H175.141L168.678 316.488L162.214 320.982Z" fill="#FFC727"/>
<path opacity="0.5" d="M162.214 320.982H175.141L168.678 316.488L162.214 320.982Z" fill="white"/>
<path opacity="0.5" d="M168.677 316.488L168.33 316.732L174.424 320.982H175.141L168.677 316.488Z" fill="#FFC727"/>
<path d="M177.123 322.689H160.239V323.259H177.123V322.689Z" fill="white"/>
<path d="M176.657 321.61H160.69V322.689H176.657V321.61Z" fill="#FFC727"/>
<path opacity="0.7" d="M176.657 321.61H160.69V322.689H176.657V321.61Z" fill="white"/>
<path d="M163.086 323.924H160.801L160.602 323.266H163.286L163.086 323.924Z" fill="white"/>
<path d="M163.012 323.924H160.875V324.146H163.012V323.924Z" fill="#FFC727"/>
<path opacity="0.7" d="M163.012 323.924H160.875V324.146H163.012V323.924Z" fill="white"/>
<path d="M160.801 339.335H163.086L163.286 340H160.602L160.801 339.335Z" fill="white"/>
<path d="M160.875 339.335H163.012V339.113H160.875V339.335Z" fill="#FFC727"/>
<path opacity="0.7" d="M160.875 339.335H163.012V339.113H160.875V339.335Z" fill="white"/>
<path d="M162.887 324.146H160.993V339.121H162.887V324.146Z" fill="white"/>
<path opacity="0.3" d="M161.43 324.478H161.334V338.788H161.43V324.478Z" fill="#FFC727"/>
<path opacity="0.3" d="M161.807 324.478H161.711V338.788H161.807V324.478Z" fill="#FFC727"/>
<path opacity="0.3" d="M162.177 324.478H162.081V338.788H162.177V324.478Z" fill="#FFC727"/>
<path opacity="0.3" d="M162.547 324.478H162.45V338.788H162.547V324.478Z" fill="#FFC727"/>
<path d="M176.665 323.924H174.379L174.18 323.266H176.864L176.665 323.924Z" fill="white"/>
<path d="M176.591 323.924H174.453V324.146H176.591V323.924Z" fill="#FFC727"/>
<path opacity="0.7" d="M176.591 323.924H174.453V324.146H176.591V323.924Z" fill="white"/>
<path d="M174.379 339.335H176.665L176.864 340H174.18L174.379 339.335Z" fill="white"/>
<path d="M174.453 339.335H176.591V339.113H174.453V339.335Z" fill="#FFC727"/>
<path opacity="0.7" d="M174.453 339.335H176.591V339.113H174.453V339.335Z" fill="white"/>
<path d="M176.465 324.146H174.572V339.121H176.465V324.146Z" fill="white"/>
<path opacity="0.3" d="M175.016 324.478H174.919V338.788H175.016V324.478Z" fill="#FFC727"/>
<path opacity="0.3" d="M175.386 324.478H175.289V338.788H175.386V324.478Z" fill="#FFC727"/>
<path opacity="0.3" d="M175.755 324.478H175.659V338.788H175.755V324.478Z" fill="#FFC727"/>
<path opacity="0.3" d="M176.132 324.478H176.036V338.788H176.132V324.478Z" fill="#FFC727"/>
<path d="M168.596 324.323H163.656V340H168.596V324.323Z" fill="#FFC727"/>
<path d="M173.699 324.323H168.759V340H173.699V324.323Z" fill="#FFC727"/>
<path d="M167.575 325.38H164.684V334.567H167.575V325.38Z" fill="white"/>
<path d="M167.332 325.639H164.928V334.316H167.332V325.639Z" fill="#455A64"/>
<path d="M172.671 325.38H169.779V334.567H172.671V325.38Z" fill="white"/>
<path d="M172.427 325.639H170.023V334.316H172.427V325.639Z" fill="#455A64"/>
<path d="M130.953 276.523H77.1133V340H130.953V276.523Z" fill="#FFC727"/>
<path opacity="0.6" d="M130.953 276.523H77.1133V340H130.953V276.523Z" fill="white"/>
<path opacity="0.5" d="M130.953 331.855H77.1133V340H130.953V331.855Z" fill="#FFC727"/>
<path d="M131.471 274.668H76.5957V276.523H131.471V274.668Z" fill="#FFC727"/>
<path opacity="0.5" d="M130.953 276.523H77.1133V279.014L130.953 278.098V276.523Z" fill="#FFC727"/>
<path d="M130.953 280.315H77.1133V282.688H130.953V280.315Z" fill="white"/>
<path opacity="0.5" d="M130.953 282.688H77.1133V283.493L130.953 283.087V282.688Z" fill="#FFC727"/>
<path d="M130.953 303.531H77.1133V305.904H130.953V303.531Z" fill="white"/>
<path opacity="0.5" d="M130.953 305.904H77.1133V306.702L130.953 306.303V305.904Z" fill="#FFC727"/>
<path d="M89.1458 286.391H82.5046V301.499H89.1458V286.391Z" fill="white"/>
<path d="M88.3544 287.152H83.2959V300.745H88.3544V287.152Z" fill="#455A64"/>
<g opacity="0.1">
<path d="M88.3544 290.877L83.2959 297.153V300.745L88.3544 294.47V290.877Z" fill="white"/>
<path d="M88.3544 288.194L83.2959 294.47V296.044L88.3544 289.769V288.194Z" fill="white"/>
</g>
<path d="M89.9002 285.238H81.7429V286.391H89.9002V285.238Z" fill="white"/>
<path d="M82.4971 286.857V286.391H89.1457V286.627L82.4971 286.857Z" fill="#EBEBEB"/>
<path d="M101.282 286.391H94.6409V301.499H101.282V286.391Z" fill="white"/>
<path d="M100.49 287.152H95.4319V300.745H100.49V287.152Z" fill="#455A64"/>
<g opacity="0.1">
<path d="M100.49 290.877L95.4319 297.153V300.745L100.49 294.47V290.877Z" fill="white"/>
<path d="M100.49 288.194L95.4319 294.47V296.044L100.49 289.769V288.194Z" fill="white"/>
</g>
<path d="M102.036 285.238H93.8789V286.391H102.036V285.238Z" fill="white"/>
<path d="M94.6409 286.857V286.391H101.282V286.627L94.6409 286.857Z" fill="#EBEBEB"/>
<path d="M113.418 286.391H106.777V301.499H113.418V286.391Z" fill="white"/>
<path d="M112.634 287.152H107.575V300.745H112.634V287.152Z" fill="#455A64"/>
<g opacity="0.1">
<path d="M112.634 290.877L107.575 297.153V300.745L112.634 294.47V290.877Z" fill="white"/>
<path d="M112.634 288.194L107.575 294.47V296.044L112.634 289.769V288.194Z" fill="white"/>
</g>
<path d="M114.18 285.238H106.022V286.391H114.18V285.238Z" fill="white"/>
<path d="M106.777 286.857V286.391H113.425V286.627L106.777 286.857Z" fill="#EBEBEB"/>
<path d="M125.562 286.391H118.92V301.499H125.562V286.391Z" fill="white"/>
<path d="M124.77 287.152H119.712V300.745H124.77V287.152Z" fill="#455A64"/>
<g opacity="0.1">
<path d="M124.77 290.877L119.712 297.153V300.745L124.77 294.47V290.877Z" fill="white"/>
<path d="M124.77 288.194L119.712 294.47V296.044L124.77 289.769V288.194Z" fill="white"/>
</g>
<path d="M126.316 285.238H118.158V286.391H126.316V285.238Z" fill="white"/>
<path d="M118.92 286.857V286.391H125.562V286.627L118.92 286.857Z" fill="#EBEBEB"/>
<path d="M89.1458 309.467H82.5046V324.574H89.1458V309.467Z" fill="white"/>
<path d="M88.3544 310.228H83.2959V323.82H88.3544V310.228Z" fill="#455A64"/>
<g opacity="0.1">
<path d="M88.3544 313.953L83.2959 320.228V323.82L88.3544 317.545V313.953Z" fill="white"/>
<path d="M88.3544 311.27L83.2959 317.545V319.12L88.3544 312.844V311.27Z" fill="white"/>
</g>
<path d="M89.9002 308.313H81.7429V309.467H89.9002V308.313Z" fill="white"/>
<path d="M82.4971 309.932V309.467H89.1457V309.703L82.4971 309.932Z" fill="#EBEBEB"/>
<path d="M101.282 309.467H94.6409V324.574H101.282V309.467Z" fill="white"/>
<path d="M100.49 310.228H95.4319V323.82H100.49V310.228Z" fill="#455A64"/>
<g opacity="0.1">
<path d="M100.49 313.953L95.4319 320.228V323.82L100.49 317.545V313.953Z" fill="white"/>
<path d="M100.49 311.27L95.4319 317.545V319.12L100.49 312.844V311.27Z" fill="white"/>
</g>
<path d="M102.036 308.313H93.8789V309.467H102.036V308.313Z" fill="white"/>
<path d="M94.6409 309.932V309.467H101.282V309.703L94.6409 309.932Z" fill="#EBEBEB"/>
<path d="M113.418 309.467H106.777V324.574H113.418V309.467Z" fill="white"/>
<path d="M112.634 310.228H107.575V323.82H112.634V310.228Z" fill="#455A64"/>
<g opacity="0.1">
<path d="M112.634 313.953L107.575 320.228V323.82L112.634 317.545V313.953Z" fill="white"/>
<path d="M112.634 311.27L107.575 317.545V319.12L112.634 312.844V311.27Z" fill="white"/>
</g>
<path d="M114.18 308.313H106.022V309.467H114.18V308.313Z" fill="white"/>
<path d="M106.777 309.932V309.467H113.425V309.703L106.777 309.932Z" fill="#EBEBEB"/>
<path d="M125.562 309.467H118.92V324.574H125.562V309.467Z" fill="white"/>
<path d="M124.77 310.228H119.712V323.82H124.77V310.228Z" fill="#455A64"/>
<g opacity="0.1">
<path d="M124.77 313.953L119.712 320.228V323.82L124.77 317.545V313.953Z" fill="white"/>
<path d="M124.77 311.27L119.712 317.545V319.12L124.77 312.844V311.27Z" fill="white"/>
</g>
<path d="M126.316 308.313H118.158V309.467H126.316V308.313Z" fill="white"/>
<path d="M118.92 309.932V309.467H125.562V309.703L118.92 309.932Z" fill="#EBEBEB"/>
<path d="M260.242 276.523H206.402V340H260.242V276.523Z" fill="#FFC727"/>
<path opacity="0.6" d="M260.242 276.523H206.402V340H260.242V276.523Z" fill="white"/>
<path opacity="0.5" d="M260.242 331.855H206.402V340H260.242V331.855Z" fill="#FFC727"/>
<path d="M260.759 274.668H205.884V276.523H260.759V274.668Z" fill="#FFC727"/>
<path opacity="0.5" d="M260.242 276.523H206.402V279.014L260.242 278.098V276.523Z" fill="#FFC727"/>
<path d="M260.242 280.315H206.402V282.688H260.242V280.315Z" fill="white"/>
<path opacity="0.5" d="M260.242 282.688H206.402V283.493L260.242 283.087V282.688Z" fill="#FFC727"/>
<path d="M260.242 303.531H206.402V305.904H260.242V303.531Z" fill="white"/>
<path opacity="0.5" d="M260.242 305.904H206.402V306.702L260.242 306.303V305.904Z" fill="#FFC727"/>
<path d="M218.435 286.391H211.793V301.499H218.435V286.391Z" fill="white"/>
<path d="M217.643 287.152H212.585V300.745H217.643V287.152Z" fill="#455A64"/>
<g opacity="0.1">
<path d="M217.643 290.877L212.585 297.153V300.745L217.643 294.47V290.877Z" fill="white"/>
<path d="M217.643 288.194L212.585 294.47V296.044L217.643 289.769V288.194Z" fill="white"/>
</g>
<path d="M219.189 285.238H211.032V286.391H219.189V285.238Z" fill="white"/>
<path d="M211.793 286.857V286.391H218.435V286.627L211.793 286.857Z" fill="#EBEBEB"/>
<path d="M230.571 286.391H223.929V301.499H230.571V286.391Z" fill="white"/>
<path d="M229.779 287.152H224.721V300.745H229.779V287.152Z" fill="#455A64"/>
<g opacity="0.1">
<path d="M229.787 290.877L224.728 297.153V300.745L229.787 294.47V290.877Z" fill="white"/>
<path d="M229.787 288.194L224.728 294.47V296.044L229.787 289.769V288.194Z" fill="white"/>
</g>
<path d="M231.332 285.238H223.175V286.391H231.332V285.238Z" fill="white"/>
<path d="M223.929 286.857V286.391H230.578V286.627L223.929 286.857Z" fill="#EBEBEB"/>
<path d="M242.714 286.391H236.073V301.499H242.714V286.391Z" fill="white"/>
<path d="M241.923 287.152H236.864V300.745H241.923V287.152Z" fill="#455A64"/>
<g opacity="0.1">
<path d="M241.923 290.877L236.864 297.153V300.745L241.923 294.47V290.877Z" fill="white"/>
<path d="M241.923 288.194L236.864 294.47V296.044L241.923 289.769V288.194Z" fill="white"/>
</g>
<path d="M243.469 285.238H235.311V286.391H243.469V285.238Z" fill="white"/>
<path d="M236.073 286.857V286.391H242.714V286.627L236.073 286.857Z" fill="#EBEBEB"/>
<path d="M254.85 286.391H248.209V301.499H254.85V286.391Z" fill="white"/>
<path d="M254.059 287.152H249V300.745H254.059V287.152Z" fill="#455A64"/>
<g opacity="0.1">
<path d="M254.059 290.877L249 297.153V300.745L254.059 294.47V290.877Z" fill="white"/>
<path d="M254.059 288.194L249 294.47V296.044L254.059 289.769V288.194Z" fill="white"/>
</g>
<path d="M255.612 285.238H247.455V286.391H255.612V285.238Z" fill="white"/>
<path d="M248.209 286.857V286.391H254.85V286.627L248.209 286.857Z" fill="#EBEBEB"/>
<path d="M218.435 309.467H211.793V324.574H218.435V309.467Z" fill="white"/>
<path d="M217.643 310.228H212.585V323.82H217.643V310.228Z" fill="#455A64"/>
<g opacity="0.1">
<path d="M217.643 313.953L212.585 320.228V323.82L217.643 317.545V313.953Z" fill="white"/>
<path d="M217.643 311.27L212.585 317.545V319.12L217.643 312.844V311.27Z" fill="white"/>
</g>
<path d="M219.189 308.313H211.032V309.467H219.189V308.313Z" fill="white"/>
<path d="M211.793 309.932V309.467H218.435V309.703L211.793 309.932Z" fill="#EBEBEB"/>
<path d="M230.571 309.467H223.929V324.574H230.571V309.467Z" fill="white"/>
<path d="M229.779 310.228H224.721V323.82H229.779V310.228Z" fill="#455A64"/>
<g opacity="0.1">
<path d="M229.787 313.953L224.728 320.228V323.82L229.787 317.545V313.953Z" fill="white"/>
<path d="M229.787 311.27L224.728 317.545V319.12L229.787 312.844V311.27Z" fill="white"/>
</g>
<path d="M231.332 308.313H223.175V309.467H231.332V308.313Z" fill="white"/>
<path d="M223.929 309.932V309.467H230.578V309.703L223.929 309.932Z" fill="#EBEBEB"/>
<path d="M242.714 309.467H236.073V324.574H242.714V309.467Z" fill="white"/>
<path d="M241.923 310.228H236.864V323.82H241.923V310.228Z" fill="#455A64"/>
<g opacity="0.1">
<path d="M241.923 313.953L236.864 320.228V323.82L241.923 317.545V313.953Z" fill="white"/>
<path d="M241.923 311.27L236.864 317.545V319.12L241.923 312.844V311.27Z" fill="white"/>
</g>
<path d="M243.469 308.313H235.311V309.467H243.469V308.313Z" fill="white"/>
<path d="M236.073 309.932V309.467H242.714V309.703L236.073 309.932Z" fill="#EBEBEB"/>
<path d="M254.85 309.467H248.209V324.574H254.85V309.467Z" fill="white"/>
<path d="M254.059 310.228H249V323.82H254.059V310.228Z" fill="#455A64"/>
<g opacity="0.1">
<path d="M254.059 313.953L249 320.228V323.82L254.059 317.545V313.953Z" fill="white"/>
<path d="M254.059 311.27L249 317.545V319.12L254.059 312.844V311.27Z" fill="white"/>
</g>
<path d="M255.612 308.313H247.455V309.467H255.612V308.313Z" fill="white"/>
<path d="M248.209 309.932V309.467H254.85V309.703L248.209 309.932Z" fill="#EBEBEB"/>
<path d="M133.297 282.998H204.058L168.677 258.429L133.297 282.998Z" fill="#FFC727"/>
<path opacity="0.8" d="M133.297 282.998H204.058L168.677 258.429L133.297 282.998Z" fill="white"/>
<path d="M141.573 280.345H195.775L168.678 261.527L141.573 280.345Z" fill="#FFC727"/>
<path opacity="0.4" d="M141.573 280.345H195.775L168.678 261.527L141.573 280.345Z" fill="white"/>
<path opacity="0.5" d="M168.677 261.527L167.206 262.547L192.765 280.345H195.775L168.677 261.527Z" fill="#FFC727"/>
<path d="M199.961 282.998H137.387V285.4H199.961V282.998Z" fill="#FFC727"/>
<path opacity="0.7" d="M199.961 282.998H137.387V285.4H199.961V282.998Z" fill="white"/>
<path d="M148.14 287.559H140.671L140.027 285.4H148.783L148.14 287.559Z" fill="#FFC727"/>
<path opacity="0.8" d="M148.14 287.559H140.671L140.027 285.4H148.783L148.14 287.559Z" fill="white"/>
<path d="M147.896 287.559H140.915V288.276H147.896V287.559Z" fill="#FFC727"/>
<path opacity="0.7" d="M147.896 287.559H140.915V288.276H147.896V287.559Z" fill="white"/>
<path d="M140.671 337.842H148.14L148.783 340H140.027L140.671 337.842Z" fill="#FFC727"/>
<path opacity="0.8" d="M140.671 337.842H148.14L148.783 340H140.027L140.671 337.842Z" fill="white"/>
<path d="M140.915 337.834H147.896V337.117H140.915V337.834Z" fill="#FFC727"/>
<path opacity="0.7" d="M140.915 337.834H147.896V337.117H140.915V337.834Z" fill="white"/>
<path d="M147.497 288.276H141.314V337.125H147.497V288.276Z" fill="#FFC727"/>
<path opacity="0.8" d="M147.497 288.276H141.314V337.125H147.497V288.276Z" fill="white"/>
<path opacity="0.3" d="M142.742 289.355H142.423V336.046H142.742V289.355Z" fill="#FFC727"/>
<path opacity="0.3" d="M143.963 289.355H143.644V336.046H143.963V289.355Z" fill="#FFC727"/>
<path opacity="0.3" d="M145.175 289.355H144.856V336.046H145.175V289.355Z" fill="#FFC727"/>
<path opacity="0.3" d="M146.388 289.355H146.069V336.046H146.388V289.355Z" fill="#FFC727"/>
<path d="M160.276 287.559H152.814L152.163 285.4H160.927L160.276 287.559Z" fill="#FFC727"/>
<path opacity="0.8" d="M160.276 287.559H152.814L152.163 285.4H160.927L160.276 287.559Z" fill="white"/>
<path d="M160.039 287.559H153.058V288.276H160.039V287.559Z" fill="#FFC727"/>
<path opacity="0.7" d="M160.039 287.559H153.058V288.276H160.039V287.559Z" fill="white"/>
<path d="M152.814 337.842H160.276L160.927 340H152.163L152.814 337.842Z" fill="#FFC727"/>
<path opacity="0.8" d="M152.814 337.842H160.276L160.927 340H152.163L152.814 337.842Z" fill="white"/>
<path d="M153.051 337.834H160.032V337.117H153.051V337.834Z" fill="#FFC727"/>
<path opacity="0.7" d="M153.051 337.834H160.032V337.117H153.051V337.834Z" fill="white"/>
<path d="M159.633 288.276H153.45V337.125H159.633V288.276Z" fill="#FFC727"/>
<path opacity="0.8" d="M159.633 288.276H153.45V337.125H159.633V288.276Z" fill="white"/>
<path opacity="0.3" d="M154.886 289.355H154.567V336.046H154.886V289.355Z" fill="#FFC727"/>
<path opacity="0.3" d="M156.099 289.355H155.78V336.046H156.099V289.355Z" fill="#FFC727"/>
<path opacity="0.3" d="M157.311 289.355H156.992V336.046H157.311V289.355Z" fill="#FFC727"/>
<path opacity="0.3" d="M158.532 289.355H158.213V336.046H158.532V289.355Z" fill="#FFC727"/>
<path d="M184.556 287.559H177.093L176.443 285.4H185.206L184.556 287.559Z" fill="#FFC727"/>
<path opacity="0.8" d="M184.556 287.559H177.093L176.443 285.4H185.206L184.556 287.559Z" fill="white"/>
<path d="M184.319 287.559H177.338V288.276H184.319V287.559Z" fill="#FFC727"/>
<path opacity="0.7" d="M184.319 287.559H177.338V288.276H184.319V287.559Z" fill="white"/>
<path d="M177.093 337.842H184.556L185.206 340H176.443L177.093 337.842Z" fill="#FFC727"/>
<path opacity="0.8" d="M177.093 337.842H184.556L185.206 340H176.443L177.093 337.842Z" fill="white"/>
<path d="M177.33 337.834H184.312V337.117H177.33V337.834Z" fill="#FFC727"/>
<path opacity="0.7" d="M177.33 337.834H184.312V337.117H177.33V337.834Z" fill="white"/>
<path d="M183.912 288.276H177.729V337.125H183.912V288.276Z" fill="#FFC727"/>
<path opacity="0.8" d="M183.912 288.276H177.729V337.125H183.912V288.276Z" fill="white"/>
<path opacity="0.3" d="M179.165 289.355H178.846V336.046H179.165V289.355Z" fill="#FFC727"/>
<path opacity="0.3" d="M180.378 289.355H180.059V336.046H180.378V289.355Z" fill="#FFC727"/>
<path opacity="0.3" d="M181.591 289.355H181.272V336.046H181.591V289.355Z" fill="#FFC727"/>
<path opacity="0.3" d="M182.811 289.355H182.492V336.046H182.811V289.355Z" fill="#FFC727"/>
<path d="M196.699 287.559H189.23L188.586 285.4H197.342L196.699 287.559Z" fill="#FFC727"/>
<path opacity="0.8" d="M196.699 287.559H189.23L188.586 285.4H197.342L196.699 287.559Z" fill="white"/>
<path d="M196.455 287.559H189.474V288.276H196.455V287.559Z" fill="#FFC727"/>
<path opacity="0.7" d="M196.455 287.559H189.474V288.276H196.455V287.559Z" fill="white"/>
<path d="M189.23 337.842H196.699L197.342 340H188.586L189.23 337.842Z" fill="#FFC727"/>
<path opacity="0.8" d="M189.23 337.842H196.699L197.342 340H188.586L189.23 337.842Z" fill="white"/>
<path d="M189.474 337.834H196.455V337.117H189.474V337.834Z" fill="#FFC727"/>
<path opacity="0.7" d="M189.474 337.834H196.455V337.117H189.474V337.834Z" fill="white"/>
<path d="M196.055 288.276H189.873V337.125H196.055V288.276Z" fill="#FFC727"/>
<path opacity="0.8" d="M196.055 288.276H189.873V337.125H196.055V288.276Z" fill="white"/>
<path opacity="0.3" d="M191.301 289.355H190.982V336.046H191.301V289.355Z" fill="#FFC727"/>
<path opacity="0.3" d="M192.514 289.355H192.195V336.046H192.514V289.355Z" fill="#FFC727"/>
<path opacity="0.3" d="M193.735 289.355H193.416V336.046H193.735V289.355Z" fill="#FFC727"/>
<path opacity="0.3" d="M194.947 289.355H194.628V336.046H194.947V289.355Z" fill="#FFC727"/>
<path d="M302.211 294.795L300.362 293.568C308.497 281.269 316.455 256.818 312.55 251.977C304.171 241.577 252.794 228.813 252.277 228.687L252.802 226.536C254.946 227.061 305.428 239.611 314.281 250.58C319.302 256.818 310.317 282.547 302.211 294.795Z" fill="#263238"/>
<path d="M298.328 315.387L296.428 314.241C296.48 314.153 301.686 305.505 302.522 301.255C302.995 298.676 302.838 296.021 302.063 293.516L304.156 292.777C305.069 295.661 305.254 298.725 304.696 301.698C303.786 306.318 298.55 315.017 298.328 315.387Z" fill="#263238"/>
<path d="M284.662 306.916L282.82 305.682C283.508 304.655 289.632 295.556 292.974 294.033C296.317 292.511 301.339 291.683 301.553 291.646L301.923 293.863C301.871 293.863 296.872 294.721 293.891 296.081C291.813 296.997 287.125 303.221 284.662 306.916Z" fill="#263238"/>
<path d="M293.033 316.533L291.133 315.394C291.192 315.298 296.606 306.31 298.062 303.827C299.209 301.876 300.917 295.113 301.479 292.673L303.639 293.169C303.557 293.538 301.531 302.304 299.978 304.95C298.514 307.478 293.085 316.444 293.033 316.533Z" fill="#263238"/>
<path d="M287.006 311.603L285.261 310.228C285.313 310.169 290.149 304.004 291.458 301.743C292.871 299.303 300.577 292.644 301.457 291.897L302.899 293.575C299.578 296.428 294.305 301.247 293.374 302.859C291.954 305.261 287.169 311.344 287.006 311.603Z" fill="#263238"/>
<path d="M242.108 253.167L172.02 202.921L258.518 200.304L327.926 248.74L242.108 253.167Z" fill="#FFC727"/>
<path opacity="0.2" d="M242.108 253.167L172.02 202.921L258.518 200.304L327.926 248.74L242.108 253.167Z" fill="black"/>
<path d="M198.119 247.498L202.882 222.205C202.882 222.205 231.244 218.472 250.502 224.422C269.76 230.372 290.29 247.187 290.29 247.187L280.528 273.057C280.528 273.057 256.426 259.664 240.777 255.163C225.128 250.661 198.119 247.498 198.119 247.498Z" fill="#FFC727"/>
<path d="M198.119 247.498H198.201C199.857 247.697 225.638 250.78 240.777 255.148C256.182 259.583 279.781 272.614 280.513 273.027L290.275 247.202C290.275 247.202 269.745 230.402 250.48 224.43C231.214 218.457 202.867 222.212 202.867 222.212L198.119 247.498Z" fill="#FFC727"/>
<path opacity="0.1" d="M198.119 247.498H198.201C199.857 247.697 225.638 250.78 240.777 255.148C256.182 259.583 279.781 272.614 280.513 273.027L290.275 247.202C290.275 247.202 269.745 230.402 250.48 224.43C231.214 218.457 202.867 222.212 202.867 222.212L198.119 247.498Z" fill="black"/>
<path d="M243.617 223.883L243.706 223.927C243.654 223.956 243.624 223.956 243.617 223.883Z" fill="#263238"/>
<path d="M265.478 264.793C266.991 265.539 268.447 266.396 269.834 267.358V267.417C269.805 267.392 269.773 267.372 269.737 267.358C265.618 265.289 260.707 262.923 255.686 260.706C251.899 259.05 248.061 257.513 244.496 256.271C243.217 255.835 241.975 255.436 240.799 255.096C239.046 254.593 237.153 254.106 235.156 253.618H235.045L235.614 251.4C240.392 252.391 245.095 253.522 249.769 254.852C249.331 254.66 248.887 254.475 248.438 254.298C246.404 253.647 244.348 253.026 242.3 252.42C239.467 251.593 236.613 250.787 233.78 250.04H233.677L234.416 246.685H234.512C235.814 246.973 237.116 247.224 238.402 247.549L238.55 245.258C240.074 245.258 241.457 245.391 242.892 245.524H243.017L243.513 242.028L245.45 242.279C243.084 241.54 240.695 240.971 238.292 240.469L239.031 236.485L239.393 236.566C241.368 236.965 243.321 237.394 245.266 237.852L245.791 235.516C245.162 235.376 244.541 235.243 243.905 235.117L244.452 231.791H244.511L244.726 231.828C249.458 232.629 254.129 233.761 258.703 235.213C254.014 232.545 248.944 230.61 243.668 229.478C243.668 229.478 243.668 229.382 243.72 229.226V229.153L243.757 228.968V228.857C243.765 228.784 243.78 228.712 243.801 228.643V228.524L243.875 228.162C243.949 227.793 244.023 227.423 244.075 227.164V227.016C244.072 226.957 244.072 226.898 244.075 226.839C245.399 227.098 246.7 227.408 247.995 227.763C252.01 228.761 256.011 229.862 259.931 231.207C254.692 228.427 249.271 226.004 243.705 223.956L243.587 223.912L243.454 223.868L243.358 223.823C242.618 223.993 242.973 223.262 243.358 222.759C243.735 222.833 244.097 222.899 244.496 222.988C245.399 223.158 246.286 223.358 247.159 223.572C247.27 223.59 247.379 223.62 247.484 223.661C249.207 224.296 250.923 224.962 252.609 225.664C256.729 227.268 260.848 228.901 264.93 230.623C267.445 231.932 269.878 233.314 272.193 234.703C269.974 233.772 267.755 232.87 265.537 231.991C268.083 233.45 270.552 235.042 272.932 236.758L273.073 236.854L271.853 238.687C269.425 237.434 266.929 236.319 264.376 235.346C265.248 235.975 266.114 236.625 266.942 237.305C269.005 238.843 273.309 243.839 275.129 245.746L271.853 244.157L270.122 246.529L268.436 249.486C268.155 249.36 267.881 249.227 267.6 249.116L266.927 250.107C268.695 251.023 270.418 252.021 272.104 253.063L270.159 256.582C266.164 254.87 262.055 253.44 257.86 252.302C261.676 254.239 265.381 256.33 269.064 258.577L267.142 261.763H267.105C266.579 261.452 266.025 261.149 265.47 260.869C269.168 264.106 273.383 268.26 275.683 270.337L263.851 263.441C261.855 262.316 259.776 261.347 257.631 260.543C260.256 261.874 262.852 263.286 265.411 264.756L265.478 264.793Z" fill="#FFC727"/>
<path d="M198.119 247.498C198.119 247.498 220.446 259.035 237.153 263.611C253.6 268.119 279.699 272.894 280.513 273.035C279.773 272.621 256.182 259.582 240.777 255.155C225.638 250.787 199.857 247.705 198.201 247.505L198.119 247.498Z" fill="#FFC727"/>
<path opacity="0.4" d="M198.119 247.498C198.119 247.498 220.446 259.035 237.153 263.611C253.6 268.119 279.699 272.894 280.513 273.035C279.773 272.621 256.182 259.582 240.777 255.155C225.638 250.787 199.857 247.705 198.201 247.505L198.119 247.498Z" fill="black"/>
<path d="M92.2076 64.5704L88.4062 109.332C88.4062 109.332 120.562 133.31 153.886 140.435C187.211 147.56 222.162 141.669 222.162 141.669L238.58 99.5387C238.58 99.5387 194.562 99.0435 165.179 92.2065C138.415 85.9609 92.2076 64.5704 92.2076 64.5704Z" fill="#FFC727"/>
<g opacity="0.1">
<path d="M92.2076 64.5704L88.4062 109.332C88.4062 109.332 120.562 133.31 153.886 140.435C187.211 147.56 222.162 141.669 222.162 141.669L238.58 99.5387C238.58 99.5387 194.562 99.0435 165.179 92.2065C138.415 85.9609 92.2076 64.5704 92.2076 64.5704Z" fill="black"/>
</g>
<path d="M154.767 138.565L154.633 138.52C154.7 138.491 154.752 138.506 154.767 138.565Z" fill="white"/>
<path d="M173.115 93.8696V93.9509C166.703 92.7018 160.298 91.3935 153.886 89.93C157.584 91.0683 161.356 92.0513 165.127 92.9752L164.388 96.8335C157.17 95.7544 150.07 94.4757 142.941 92.8865L144.915 93.6257C148.029 94.4239 151.165 95.1778 154.293 95.9096C158.634 96.9148 163.02 97.8831 167.361 98.7626L166.547 103.84H166.392H166.348C164.403 103.523 162.458 103.257 160.52 102.887V106.317C158.242 106.398 156.171 106.361 154.019 106.317H153.842L153.391 111.55H153.08L150.484 111.38C154.064 112.237 157.695 112.924 161.319 113.471L160.49 119.473L160.165 119.414C157.113 118.985 154.078 118.505 151.061 117.973L150.469 121.498L153.206 121.927H153.302L152.762 126.923H152.681H152.585C145.385 126.138 138.25 124.841 131.234 123.043C138.454 126.635 146.188 129.089 154.16 130.316L153.583 134.315H153.354C151.564 134.056 149.774 133.738 147.999 133.361H147.8C141.676 132.216 135.575 130.9 129.584 129.23C137.714 132.884 146.08 135.988 154.626 138.52L154.796 138.565L154.995 138.624H155.04L155.173 138.683C156.423 138.321 155.602 139.895 154.966 140.627C154.611 140.568 154.226 140.487 153.886 140.413L153.45 140.317C152.148 140.026 150.849 139.715 149.552 139.385C149.175 139.297 148.813 139.193 148.406 139.082C146.104 138.382 143.818 137.643 141.55 136.865C139.184 136.096 136.812 135.318 134.436 134.529C128.815 132.363 123.424 129.917 118.439 127.419L121.398 128.402C117.493 126.45 113.692 124.299 110.008 121.957L109.794 121.824L111.451 118.978C115.204 120.654 119.048 122.12 122.965 123.368C121.575 122.511 120.217 121.597 118.89 120.626C115.688 118.505 108.833 111.424 105.948 108.733L110.97 110.818L113.359 107.122L115.577 102.525L116.849 103.013L117.789 101.46C115.074 100.248 112.397 98.9178 109.794 97.4544L112.39 92.0365C118.503 94.2453 124.763 96.0284 131.123 97.3731C125.258 94.8231 119.563 92.0218 113.906 88.9987H113.854C113.841 88.9816 113.823 88.9688 113.802 88.9618L116.406 84.0539H116.457C117.278 84.4752 118.129 84.8744 118.987 85.2587C113.152 80.7426 106.54 74.9109 102.931 72.0061L121.19 81.3044C124.249 82.8094 127.421 84.0699 130.679 85.0739C126.661 83.3148 122.684 81.4497 118.75 79.4787C116.472 78.5112 114.267 77.3798 112.153 76.0935H112.101L111.968 76.0048L113.277 73.8687L113.425 73.9278C114.424 74.3565 115.437 74.7852 116.487 75.2065C117.7 75.7165 118.95 76.2339 120.222 76.7513C122.071 77.6235 123.919 78.4883 125.798 79.3235C128.268 80.2326 130.775 81.1048 133.282 81.9252H133.378C144.509 86.1678 156.009 90.1 165.179 92.2731C167.013 92.7018 168.877 93.1157 170.844 93.4926L173.063 93.9139L173.115 93.8696Z" fill="#FFC727"/>
<path d="M160.668 112.821L298.935 101.845L179.475 29.9496L48.3743 40.4378L160.668 112.821Z" fill="#FFC727"/>
<g opacity="0.2">
<path d="M160.668 112.821L298.935 101.845L179.475 29.9496L48.3743 40.4378L160.668 112.821Z" fill="white"/>
</g>
<path d="M164.499 67.9039C164.499 67.9039 171.414 72.9743 179.541 71.4739C179.541 71.4739 179.541 65.2874 173.41 63.8239C167.279 62.3604 164.499 67.9039 164.499 67.9039Z" fill="#263238"/>
<path d="M253.423 189.358C237.656 184.65 238.513 156.784 239.268 132.201C239.771 116.08 240.281 99.413 235.148 96.3826C216.275 85.2587 169.942 67.4013 169.476 67.2239L170.534 64.4669C171.007 64.6443 217.569 82.5904 236.65 93.84C243.306 97.7574 242.803 113.76 242.226 132.275C241.486 155.794 240.68 182.447 254.273 186.505L253.423 189.358Z" fill="#263238"/>
<path d="M272.999 212.596C272.496 212.3 260.626 205.242 256.559 200.282C253.985 197.084 252.24 193.302 251.478 189.269L254.436 188.833C255.127 192.333 256.649 195.615 258.873 198.405C262.608 202.965 274.404 209.987 274.53 210.053L272.999 212.596Z" fill="#263238"/>
<path d="M283.915 193.652C278.583 190.807 268.946 186.372 265.855 186.571C261.418 186.86 254.873 189.055 254.806 189.077L253.859 186.261C254.14 186.165 260.833 183.918 265.692 183.6C270.647 183.282 283.848 190.252 285.342 191.036L283.915 193.652Z" fill="#263238"/>
<path d="M280.076 210.578C279.95 210.504 267.674 203.187 264.309 201.154C260.752 198.989 252.691 189.794 252.35 189.402L254.569 187.458C256.788 190.023 263.207 197.03 265.84 198.634C269.19 200.674 281.459 207.962 281.585 208.036L280.076 210.578Z" fill="#263238"/>
<path d="M284.166 200.763C283.759 200.585 274.108 196.328 270.913 194.384C268.761 193.054 259.339 190.688 253.526 189.387L254.162 186.497C255.693 186.837 269.205 189.853 272.466 191.871C275.484 193.734 285.253 198.013 285.349 198.057L284.166 200.763Z" fill="#263238"/>
<path d="M28.7388 265.917L26.5793 265.385C28.3025 258.437 28.0585 248.91 27.9179 240.506C27.7109 230.897 27.5334 222.656 30.1366 219.44C39.0112 208.487 91.9707 193.571 94.2263 192.943L94.818 195.079C94.2781 195.227 40.2537 210.423 31.8598 220.83C29.7742 223.417 29.9517 231.695 30.144 240.454C30.3215 248.998 30.5286 258.696 28.7388 265.917Z" fill="#263238"/>
<path d="M15.0646 282.695L12.9717 281.956C13.1122 281.55 16.4698 271.97 19.4576 268.312C21.3935 265.986 23.876 264.175 26.683 263.042L27.4226 265.126C25.0023 266.138 22.8595 267.715 21.1733 269.723C18.437 273.079 15.0942 282.599 15.0646 282.695Z" fill="#263238"/>
<path d="M30.3807 287.706L28.2508 287.071C29.5302 282.813 31.3273 275.245 30.7283 273.027C29.8704 269.871 27.3337 265.481 27.3115 265.436L29.227 264.32C29.3379 264.512 31.9337 269.006 32.8656 272.451C33.7974 275.895 30.6987 286.516 30.3807 287.706Z" fill="#263238"/>
<path d="M17.5568 287.522L15.4639 286.783C15.5008 286.679 18.9694 276.767 19.953 274.04C20.9957 271.165 26.4536 264.003 26.6829 263.692L28.4504 265.045C26.927 267.033 22.8076 272.665 22.0385 274.786C21.0549 277.499 17.5938 287.403 17.5568 287.522Z" fill="#263238"/>
<path d="M25.3073 288.756L23.1331 288.261C23.207 287.936 24.8414 280.367 25.8028 277.773C26.4463 276.036 26.7938 268.903 26.8678 264.527L29.0865 264.564C29.0865 265.717 28.8646 275.895 27.881 278.541C26.9787 281.017 25.3221 288.675 25.3073 288.756Z" fill="#263238"/>
<path d="M104.942 219.566L179.593 173.326L88.5391 166.703L19.2134 222.656L104.942 219.566Z" fill="#FFC727"/>
<path opacity="0.2" d="M104.942 219.566L179.593 173.326L88.5391 166.703L19.2134 222.656L104.942 219.566Z" fill="black"/>
<path d="M148.938 213.897L144.168 188.604C144.168 188.604 115.814 184.871 96.5558 190.821C77.2978 196.771 56.7678 213.609 56.7678 213.609L66.5225 239.478C66.5225 239.478 90.6246 226.085 106.274 221.584C121.923 217.083 148.938 213.897 148.938 213.897Z" fill="#FFC727"/>
<path d="M148.931 213.897H148.85C147.201 214.096 121.42 217.179 106.274 221.54C90.8761 225.974 67.2696 239.013 66.5448 239.426L56.7605 213.609C56.7605 213.609 77.2905 196.816 96.5559 190.843C115.821 184.871 144.168 188.626 144.168 188.626L148.931 213.897Z" fill="#FFC727"/>
<path opacity="0.1" d="M148.931 213.897H148.85C147.201 214.096 121.42 217.179 106.274 221.54C90.8761 225.974 67.2696 239.013 66.5448 239.426L56.7605 213.609C56.7605 213.609 77.2905 196.816 96.5559 190.843C115.821 184.871 144.168 188.626 144.168 188.626L148.931 213.897Z" fill="black"/>
<path d="M98.7598 190.888H98.8562C98.8265 190.91 98.7894 190.917 98.7598 190.888Z" fill="#263238"/>
<path d="M141.78 214.806C139.79 215.087 137.483 215.42 134.983 215.804C134.65 215.848 134.325 215.9 133.985 215.959C133.297 216.055 132.594 216.166 131.885 216.284C130.753 216.351 129.614 216.469 128.468 216.61C128.985 216.61 129.496 216.61 130.013 216.61C123.113 217.733 115.429 219.174 109.069 220.815C107.812 221.044 106.562 221.273 105.312 221.554L104.684 218.997C109.373 217.615 114.061 216.388 118.831 215.375C118.336 215.375 117.848 215.449 117.352 215.501C115.242 215.89 113.142 216.304 111.051 216.743C108.137 217.356 105.201 218.006 102.317 218.694L101.378 215.323C101.414 215.317 101.449 215.304 101.481 215.286H101.555C102.813 214.932 104.055 214.547 105.32 214.237L104.373 212.13L104.573 212.034C105.845 211.384 107.058 210.852 108.322 210.32L108.426 210.268L107.228 206.956L107.42 206.89C107.953 206.676 108.492 206.469 109.032 206.269C106.631 206.762 104.255 207.351 101.903 208.036L100.72 204.155H100.779C102.805 203.542 104.824 202.965 106.858 202.426L106.229 200.127L104.366 200.659L103.286 197.473C103.303 197.468 103.321 197.468 103.338 197.473C107.957 195.906 112.682 194.67 117.478 193.778C112.16 193.624 106.851 194.285 101.733 195.736L101.511 195.796L100.771 193.216C102.184 192.795 103.597 192.418 105.039 192.115C108.921 191.117 112.841 190.252 116.783 189.602C110.8 189.621 104.825 190.051 98.9004 190.888H98.7821H98.6416H98.5085C98.0795 191.257 97.9612 190.888 97.9686 190.422C98.3384 190.319 98.7081 190.215 99.0927 190.119C105.074 188.666 111.186 187.821 117.338 187.599C119.556 187.488 121.693 187.443 123.779 187.436L121.93 187.65C124.899 187.742 127.861 187.989 130.805 188.39L130.598 190.607C127.86 190.65 125.127 190.845 122.411 191.191C123.491 191.324 124.556 191.494 125.621 191.701C128.165 192.085 134.318 194.465 136.825 195.286L133.194 195.433L132.772 198.338L132.698 201.768L131.796 201.827L131.663 203.032C133.645 203.032 135.649 203.032 137.638 203.216L137.594 207.237C133.262 207.612 128.963 208.288 124.726 209.263C128.963 209.174 133.179 209.263 137.439 209.506H137.609L137.402 213.202H137.217C136.647 213.202 136.056 213.202 135.471 213.202C137.483 213.66 139.687 214.244 141.78 214.806Z" fill="#FFC727"/>
<path d="M148.931 213.897C148.931 213.897 126.604 225.435 109.905 230.01C93.4573 234.519 67.3584 239.293 66.5449 239.434C67.2845 239.02 90.8762 225.982 106.274 221.547C121.42 217.186 147.201 214.104 148.85 213.904L148.931 213.897Z" fill="#FFC727"/>
<path opacity="0.4" d="M148.931 213.897C148.931 213.897 126.604 225.435 109.905 230.01C93.4573 234.519 67.3584 239.293 66.5449 239.434C67.2845 239.02 90.8762 225.982 106.274 221.547C121.42 217.186 147.201 214.104 148.85 213.904L148.931 213.897Z" fill="black"/>
</svg>
