<svg width="263" height="88" viewBox="0 0 263 88" fill="none" xmlns="http://www.w3.org/2000/svg">
<rect x="1.09583" y="1.09583" width="260.808" height="85.8083" rx="12.0542" fill="white"/>
<rect x="1.09583" y="1.09583" width="260.808" height="85.8083" rx="12.0542" stroke="#B8B8B8" stroke-width="2.19167"/>
<path d="M54.1441 45.5059C54.1707 43.4898 54.7192 41.513 55.7386 39.7595C56.758 38.0059 58.2152 36.5326 59.9745 35.4766C58.8569 33.9182 57.3824 32.6358 55.6683 31.731C53.9541 30.8263 52.0475 30.3242 50.0998 30.2648C45.9451 29.839 41.9174 32.6919 39.8002 32.6919C37.642 32.6919 34.3824 30.307 30.8722 30.3775C28.6017 30.4491 26.389 31.0937 24.4496 32.2485C22.5101 33.4032 20.9102 35.0288 19.8055 36.9667C15.0206 45.0548 18.5898 56.9416 23.1734 63.4795C25.4666 66.6809 28.1468 70.2569 31.6538 70.1301C35.0856 69.9912 36.3673 67.9937 40.5098 67.9937C44.6138 67.9937 45.8163 70.1301 49.3944 70.0495C53.0769 69.9912 55.397 66.8339 57.6099 63.6022C59.2576 61.3211 60.5255 58.8 61.3667 56.1322C59.2273 55.2488 57.4015 53.7701 56.1172 51.8804C54.8328 49.9908 54.1465 47.7738 54.1441 45.5059Z" fill="#B8B8B8"/>
<path d="M47.3856 25.965C49.3935 23.6117 50.3827 20.5871 50.1431 17.5333C47.0756 17.8479 44.2421 19.2792 42.2071 21.5421C41.2121 22.6476 40.4501 23.9337 39.9646 25.3269C39.479 26.7201 39.2795 28.1931 39.3774 29.6616C40.9117 29.677 42.4296 29.3523 43.8168 28.712C45.2039 28.0717 46.4242 27.1324 47.3856 25.965Z" fill="#B8B8B8"/>
<path d="M88.5024 29.3878V20.1321H83.9372L83.8312 23.0889C83.7156 26.2191 83.6193 28.2128 82.8007 29.2819V29.3878H88.5024ZM81.2693 34.0879H79.3045V29.3878H80.3928C81.5486 28.5981 81.6738 26.9896 81.7894 22.8L81.9146 18.1866H90.6598V29.3878H92.3453V34.0879H90.3805V31.3334H81.2693V34.0879ZM98.5864 20.97C101.245 20.97 103.104 22.7133 103.104 25.5835V26.8548C103.104 29.8309 101.245 31.5067 98.5864 31.5067C95.8897 31.5067 94.0501 29.8501 94.0501 26.8548V25.5931C94.0501 22.7904 95.9186 20.97 98.5864 20.97ZM98.5961 22.7615C97.0743 22.7615 96.2075 24.0232 96.2075 25.6798V26.797C96.2075 28.4536 97.0165 29.7153 98.5961 29.7153C100.156 29.7153 100.956 28.4632 100.956 26.797V25.6798C100.956 24.0232 100.118 22.7615 98.5961 22.7615ZM105.415 26.9222V25.4968C105.415 22.7518 107.11 20.97 109.807 20.97C112.407 20.97 113.814 22.5688 113.862 24.3603H111.839C111.752 23.7053 111.271 22.8193 109.855 22.8193C108.362 22.8193 107.563 23.8883 107.563 25.5449V26.9126C107.563 28.6173 108.42 29.6672 109.865 29.6672C111.223 29.6672 111.752 29.0315 111.897 28.2128H113.92C113.862 29.9946 112.542 31.5067 109.807 31.5067C107.091 31.5067 105.415 29.7538 105.415 26.9222ZM123.763 22.8771H120.584V31.3334H118.456V22.8771H115.278V21.1434H123.763V22.8771ZM134.54 21.1434C134.107 22.8 131.083 31.1215 131.073 31.16L130.851 31.7475C130.004 34.0205 128.877 34.9066 126.903 34.9066C126.527 34.9066 126.007 34.8681 125.737 34.8103V33.1248C125.891 33.1537 126.277 33.1826 126.517 33.1826C127.654 33.1826 128.232 32.7588 128.482 31.709L128.569 31.4008L124.938 21.1434H127.307L129.734 29.3204H129.821L132.277 21.1434H134.54ZM143.305 31.3334V22.8771H139.125V31.3334H136.987V21.1434H145.443V31.3334H143.305ZM155.267 31.3334V26.9511H150.991V31.3334H148.852V21.1434H150.991V25.2175H155.267V21.1434H157.405V31.3334H155.267ZM164.792 20.97C167.451 20.97 169.309 22.7133 169.309 25.5835V26.8548C169.309 29.8309 167.451 31.5067 164.792 31.5067C162.096 31.5067 160.256 29.8501 160.256 26.8548V25.5931C160.256 22.7904 162.124 20.97 164.792 20.97ZM164.802 22.7615C163.28 22.7615 162.413 24.0232 162.413 25.6798V26.797C162.413 28.4536 163.222 29.7153 164.802 29.7153C166.362 29.7153 167.162 28.4632 167.162 26.797V25.6798C167.162 24.0232 166.324 22.7615 164.802 22.7615ZM176.61 31.3334V21.1434H181.195C183.063 21.1434 184.354 22.1258 184.354 23.7246C184.354 24.9382 183.65 25.6701 182.649 25.9109V25.988C183.988 26.1517 184.893 27.0185 184.893 28.4632C184.893 30.3413 183.285 31.3334 181.117 31.3334H176.61ZM178.71 22.7037V25.3427H180.395C181.647 25.3427 182.283 24.8996 182.283 23.9558C182.283 23.1082 181.599 22.7037 180.684 22.7037H178.71ZM178.71 26.8259V29.7731H180.646C181.898 29.7731 182.784 29.4071 182.784 28.3188C182.784 27.346 182.013 26.8259 180.819 26.8259H178.71Z" fill="#B8B8B8"/>
<path d="M83.7349 68.3334H79.2852L88.3387 42.0398H93.2314L102.266 68.3334H97.6426L95.3118 61.0521H86.0849L83.7349 68.3334ZM90.8043 46.5858H90.6309L87.0673 57.7004H94.3294L90.8043 46.5858ZM114.546 68.6223C111.907 68.6223 109.904 67.3702 108.825 65.5018H108.671V75.0946H104.395V47.9727H108.555V50.9584H108.709C109.827 49.0129 111.907 47.703 114.642 47.703C119.208 47.703 122.463 51.151 122.463 57.2381V59.0488C122.463 65.0972 119.246 68.6223 114.546 68.6223ZM113.564 65.0972C116.28 65.0972 118.129 62.9206 118.129 58.8176V57.3922C118.129 53.4433 116.395 51.1896 113.487 51.1896C110.501 51.1896 108.632 53.6167 108.632 57.3729V58.8176C108.632 62.6701 110.52 65.0972 113.564 65.0972ZM136.284 68.6223C133.645 68.6223 131.642 67.3702 130.563 65.5018H130.409V75.0946H126.133V47.9727H130.294V50.9584H130.448C131.565 49.0129 133.645 47.703 136.381 47.703C140.946 47.703 144.201 51.151 144.201 57.2381V59.0488C144.201 65.0972 140.985 68.6223 136.284 68.6223ZM135.302 65.0972C138.018 65.0972 139.867 62.9206 139.867 58.8176V57.3922C139.867 53.4433 138.134 51.1896 135.225 51.1896C132.239 51.1896 130.371 53.6167 130.371 57.3729V58.8176C130.371 62.6701 132.259 65.0972 135.302 65.0972ZM153.063 61.0328H157.34C157.532 63.3058 159.535 65.2513 163.253 65.2513C166.663 65.2513 168.685 63.6525 168.685 61.1677C168.685 59.1643 167.337 58.0856 164.525 57.4114L160.21 56.3327C156.819 55.5429 153.776 53.5204 153.776 49.244C153.776 44.2165 158.168 41.4619 163.272 41.4619C168.377 41.4619 172.634 44.2165 172.73 49.1285H168.531C168.339 46.894 166.624 45.0448 163.215 45.0448C160.21 45.0448 158.168 46.4702 158.168 48.9166C158.168 50.631 159.362 51.8638 161.808 52.4224L166.104 53.4818C170.053 54.445 173.058 56.3135 173.058 60.7824C173.058 65.9448 168.878 68.8535 162.926 68.8535C155.606 68.8535 153.16 64.5771 153.063 61.0328ZM178.269 47.9727V43.0222H182.468V47.9727H186.436V51.4015H182.468V62.2656C182.468 64.4808 183.296 65.0972 185.589 65.0972C185.955 65.0972 186.301 65.0972 186.552 65.0587V68.3334C186.205 68.3912 185.396 68.4682 184.529 68.4682C179.579 68.4682 178.211 66.696 178.211 62.6124V51.4015H175.399V47.9727H178.269ZM197.985 47.626C203.841 47.626 207.019 51.7482 207.019 57.2958V58.9332C207.019 64.6735 203.86 68.6801 197.985 68.6801C192.11 68.6801 188.912 64.6735 188.912 58.9332V57.2958C188.912 51.7675 192.129 47.626 197.985 47.626ZM197.985 51.0547C194.806 51.0547 193.227 53.6552 193.227 57.3536V58.9139C193.227 62.5546 194.787 65.2321 197.985 65.2321C201.182 65.2321 202.723 62.5738 202.723 58.9139V57.3536C202.723 53.6359 201.163 51.0547 197.985 51.0547ZM210.631 68.3334V47.9727H214.908V50.6502H215.062C215.582 49.3789 217.103 47.6838 219.935 47.6838C220.494 47.6838 220.975 47.7223 221.38 47.7993V51.5748C221.014 51.4785 220.263 51.4207 219.55 51.4207C216.121 51.4207 214.965 53.5396 214.965 56.2749V68.3334H210.631ZM231.753 68.6801C226.302 68.6801 222.835 65.078 222.835 59.0488V56.9876C222.835 51.3052 226.225 47.626 231.58 47.626C237.012 47.626 240.287 51.44 240.287 57.1803V59.1258H227.053V59.6074C227.053 63.0361 228.902 65.3091 231.811 65.3091C233.988 65.3091 235.471 64.2304 235.991 62.4775H240.055C239.439 65.7714 236.781 68.6801 231.753 68.6801ZM227.053 56.1401H236.107V56.1016C236.107 53.2122 234.315 50.9392 231.599 50.9392C228.845 50.9392 227.053 53.2122 227.053 56.1016V56.1401Z" fill="#B8B8B8"/>
</svg>
