<svg width="263" height="88" viewBox="0 0 263 88" fill="none" xmlns="http://www.w3.org/2000/svg">
<g clip-path="url(#clip0_8_509)">
<rect width="263" height="88" rx="13.7217" fill="white"/>
<mask id="mask0_8_509" style="mask-type:luminance" maskUnits="userSpaceOnUse" x="0" y="0" width="254" height="92">
<path d="M253.852 0H0V91.4783H253.852V0Z" fill="white"/>
</mask>
<g mask="url(#mask0_8_509)">
<path d="M104.737 62.582C108.879 61.5145 111.608 58.3203 111.608 54.1445C111.608 48.9787 107.501 45.3455 101.741 45.3455H91.4783V73.1464H96.2136V62.9264H99.5714L106.915 73.1464H112.478L104.737 62.5736V62.582ZM101.741 49.6847C104.703 49.6847 106.752 51.5013 106.752 54.1445C106.752 56.7878 104.703 58.6043 101.741 58.6043H96.2136V49.6934H101.741V49.6847Z" fill="#222222"/>
<path d="M123.14 73.541C125.629 73.541 127.919 72.2408 129.219 70.0712L130.123 73.1449H133.515V52.6364H128.978V64.5093C128.978 67.4279 127.041 69.477 124.398 69.477C121.754 69.477 119.981 67.4279 119.981 64.5093V52.6364H115.443V65.0172C115.443 69.9507 118.758 73.541 123.14 73.541Z" fill="#222222"/>
<path d="M148.001 73.5401C153.253 73.5401 157.593 70.5439 157.593 65.576C157.593 60.0141 153.055 58.3956 149.146 57.0525C146.107 56.0279 143.464 55.0807 143.464 52.5925C143.464 50.4228 145.479 49.2777 147.846 49.2777C150.335 49.2777 152.108 50.5779 153.098 52.7905L157.601 52.0415C156.181 47.7023 152.59 44.9385 147.691 44.9385C142.793 44.9385 138.617 47.8571 138.617 52.825C138.617 58.4299 143.154 59.9624 147.063 61.2625C150.059 62.2441 152.745 63.1911 152.745 65.7223C152.745 67.9352 150.731 69.1921 148.044 69.1921C144.962 69.1921 143.309 67.7371 141.845 65.0939L137.265 65.8861C138.608 70.5782 142.87 73.5401 148.001 73.5401Z" fill="#222222"/>
<path d="M169.939 69.2025C168.398 69.2025 167.649 68.4535 167.649 66.9124V56.5806H173.77V52.6374H167.649V46.7224H164.256L163.111 52.6374H159.753V56.5806H163.111V66.9124C163.111 70.9331 165.436 73.1459 169.939 73.1459H173.77L174.166 69.2025H169.939Z" fill="#222222"/>
<path d="M187.132 73.5415C193.563 73.5415 198.101 69.1247 198.101 62.8911C198.101 56.6578 193.563 52.241 187.132 52.241C180.7 52.241 176.163 56.6578 176.163 62.8911C176.163 69.1247 180.7 73.5415 187.132 73.5415ZM187.132 69.4002C183.421 69.4002 180.899 66.757 180.899 62.8911C180.899 59.0255 183.421 56.3822 187.132 56.3822C190.843 56.3822 193.365 59.0255 193.365 62.8911C193.365 66.757 190.843 69.4002 187.132 69.4002Z" fill="#222222"/>
<path d="M206.59 73.1449V61.0395C206.59 58.4395 207.856 56.9759 210.62 56.9759H213.228L212.832 52.6364H211.963C209.552 52.6364 207.701 53.308 206.315 55.5982L205.445 52.6364H202.053V73.1449H206.59Z" fill="#222222"/>
<path d="M235.557 62.6574C235.557 56.7426 231.14 52.2483 224.898 52.2483C218.656 52.2483 214.239 56.7081 214.239 62.8986C214.239 69.089 218.656 73.5488 224.898 73.5488C229.16 73.5488 233.19 71.5342 234.722 67.6338L230.459 66.9193C229.469 68.383 227.575 69.4076 225.173 69.4076C221.704 69.4076 219.413 67.2809 218.974 64.121H235.47C235.513 63.6906 235.547 63.217 235.547 62.6574M224.889 56.1915C227.73 56.1915 229.867 58.0082 230.614 60.5653H219.25C219.999 57.922 222.134 56.1915 224.898 56.1915" fill="#222222"/>
<path d="M22.1562 69.327C26.0169 73.1826 32.2228 73.1826 44.6435 73.1826H46.8348C59.2555 73.1826 65.4614 73.1826 69.322 69.327C73.1826 65.4715 73.1826 59.2596 73.1826 46.836V44.6423C73.1826 32.2186 73.1826 26.0068 69.322 22.1513C65.4614 18.2957 59.2468 18.2957 46.8348 18.2957H44.6435C32.2228 18.2957 26.0082 18.2957 22.1562 22.1513C18.2957 26.0155 18.2957 32.2273 18.2957 44.6423V46.836C18.2957 59.2596 18.2957 65.4715 22.1562 69.327Z" fill="#0077FF"/>
<path fill-rule="evenodd" clip-rule="evenodd" d="M60.6691 54.779L56.9626 53.8537C56.5176 53.7252 56.2008 53.3224 56.1837 52.8598L55.7215 39.2108C55.5845 37.4029 54.2491 35.9635 52.8452 35.5436C52.7681 35.518 52.6826 35.5436 52.6398 35.6207C52.5884 35.6893 52.6142 35.7835 52.6741 35.835C53.0165 36.1005 53.9752 36.9746 53.9752 38.4826V56.3298C53.9752 58.0519 52.3402 59.32 50.6625 58.9001L46.8959 57.9576C46.4765 57.812 46.1856 57.4264 46.1769 56.9724L45.7147 43.3234C45.5777 41.5156 44.2423 40.0762 42.8386 39.6563C42.7615 39.6307 42.676 39.6563 42.633 39.7333C42.5818 39.802 42.6074 39.8962 42.6673 39.9476C43.0097 40.2131 43.9684 41.0872 43.9684 42.5952V57.4694V60.4424C43.9684 62.1645 42.3421 63.4326 40.6644 63.0127L30.0328 60.3567C28.5518 59.9882 27.516 58.6602 27.516 57.1437V39.2707C27.516 37.5486 29.1425 36.2805 30.8202 36.7004L37.5228 38.3712V35.1496C37.5228 33.4273 39.1491 32.1592 40.827 32.5791L47.5294 34.2499V31.0283C47.5294 29.3062 49.1559 28.0381 50.8336 28.458L61.4652 31.114C62.946 31.4825 63.9817 32.8105 63.9817 34.327V52.2C63.9817 53.9221 62.3555 55.1902 60.6776 54.7703" fill="white"/>
<path d="M97.9487 32.2143C96.6493 32.2143 95.4809 31.9125 94.4437 31.3085C93.4066 30.6915 92.5927 29.8382 92.002 28.7487C91.4243 27.659 91.1354 26.4315 91.1354 25.0662C91.1354 23.7009 91.4243 22.48 92.002 21.4035C92.5927 20.3139 93.4 19.4671 94.4241 18.8633C95.461 18.2463 96.6294 17.9377 97.9291 17.9377C99.3339 17.9377 100.581 18.2922 101.671 19.0011C102.773 19.6969 103.561 20.6421 104.034 21.8368L102.025 22.1518C101.657 21.4166 101.113 20.8456 100.391 20.4386C99.6818 20.0185 98.8809 19.8085 97.9883 19.8085C97.0692 19.8085 96.2488 20.0317 95.5269 20.478C94.8179 20.9243 94.2599 21.5479 93.853 22.3487C93.459 23.1365 93.2621 24.0421 93.2621 25.0662C93.2621 26.1034 93.459 27.0223 93.853 27.8232C94.2599 28.6108 94.8243 29.2278 95.5465 29.6742C96.2685 30.1204 97.0955 30.3436 98.0276 30.3436C98.9465 30.3436 99.7605 30.1337 100.469 29.7136C101.191 29.2804 101.743 28.6764 102.124 27.9018L104.132 28.217C103.633 29.4377 102.826 30.4092 101.71 31.1312C100.594 31.8535 99.3403 32.2143 97.9487 32.2143Z" fill="#1A1C20"/>
<path d="M114.618 32.0174H112.078L108.317 27.8034H107.706V32.0174H105.777V21.8367H107.706V25.9523H108.297L111.901 21.8367H114.225L109.853 26.7596L114.618 32.0174Z" fill="#1A1C20"/>
<path d="M119.405 21.6395C120.665 21.6395 121.656 22.0531 122.378 22.8801C123.113 23.694 123.481 24.8361 123.481 26.3066V32.0171H122.102L121.649 30.4222C121.321 30.934 120.881 31.3608 120.33 31.7022C119.779 32.0434 119.116 32.214 118.341 32.214C117.658 32.214 117.048 32.0764 116.51 31.8006C115.972 31.525 115.551 31.1442 115.25 30.6585C114.948 30.1597 114.797 29.6017 114.797 28.9846C114.797 28.0262 115.177 27.2582 115.939 26.6808C116.7 26.1031 117.803 25.8142 119.247 25.8142H121.551C121.498 25.0133 121.275 24.3963 120.881 23.9632C120.488 23.5168 119.962 23.2935 119.306 23.2935C118.807 23.2935 118.367 23.4118 117.987 23.648C117.606 23.8845 117.317 24.193 117.12 24.5736L115.328 24.2783C115.591 23.4644 116.096 22.821 116.845 22.3484C117.593 21.8758 118.446 21.6395 119.405 21.6395ZM118.755 30.5798C119.582 30.5798 120.251 30.3106 120.763 29.7723C121.288 29.2209 121.551 28.4662 121.551 27.5077V27.3895H119.306C117.599 27.3895 116.746 27.9015 116.746 28.9256C116.746 29.4244 116.93 29.8249 117.298 30.1267C117.665 30.4286 118.151 30.5798 118.755 30.5798Z" fill="#1A1C20"/>
<path d="M131.24 28.3152C130.925 28.4598 130.551 28.5714 130.118 28.65C129.684 28.7289 129.258 28.7683 128.838 28.7683C127.617 28.7683 126.678 28.4268 126.022 27.7442C125.365 27.0615 125.037 26.0967 125.037 24.8496V21.8367H126.967V24.8496C126.967 26.3068 127.669 27.0354 129.074 27.0354C129.927 27.0354 130.649 26.8843 131.24 26.5824V21.8367H133.17V32.0174H131.24V28.3152Z" fill="#1A1C20"/>
<path d="M139.645 21.6395C140.905 21.6395 141.896 22.0531 142.618 22.8801C143.354 23.694 143.721 24.8361 143.721 26.3066V32.0171H142.343L141.89 30.4222C141.561 30.934 141.122 31.3608 140.57 31.7022C140.019 32.0434 139.356 32.214 138.582 32.214C137.899 32.214 137.288 32.0764 136.75 31.8006C136.212 31.525 135.792 31.1442 135.49 30.6585C135.188 30.1597 135.037 29.6017 135.037 28.9846C135.037 28.0262 135.418 27.2582 136.179 26.6808C136.94 26.1031 138.043 25.8142 139.487 25.8142H141.791C141.739 25.0133 141.516 24.3963 141.122 23.9632C140.728 23.5168 140.203 23.2935 139.546 23.2935C139.048 23.2935 138.608 23.4118 138.227 23.648C137.846 23.8845 137.557 24.193 137.361 24.5736L135.569 24.2783C135.831 23.4644 136.337 22.821 137.085 22.3484C137.833 21.8758 138.687 21.6395 139.645 21.6395ZM138.995 30.5798C139.822 30.5798 140.492 30.3106 141.004 29.7723C141.529 29.2209 141.791 28.4662 141.791 27.5077V27.3895H139.546C137.84 27.3895 136.986 27.9015 136.986 28.9256C136.986 29.4244 137.17 29.8249 137.538 30.1267C137.906 30.4286 138.391 30.5798 138.995 30.5798Z" fill="#1A1C20"/>
<path d="M148.921 32.0174H146.065V21.8367H147.936V29.8514H148.231L152.347 21.8367H155.202V32.0174H153.332V24.0224H153.036L148.921 32.0174ZM150.654 20.5173C149.8 20.5173 149.085 20.2941 148.507 19.8478C147.943 19.3883 147.608 18.7056 147.503 17.7998H149.078C149.144 18.2199 149.308 18.5415 149.57 18.7647C149.846 18.9748 150.207 19.0798 150.654 19.0798C151.1 19.0798 151.454 18.9748 151.717 18.7647C151.993 18.5415 152.157 18.2199 152.209 17.7998H153.804C153.686 18.7056 153.338 19.3883 152.76 19.8478C152.196 20.2941 151.494 20.5173 150.654 20.5173Z" fill="#1A1C20"/>
<path d="M162.107 32.0174H160.177V23.6089H156.653V21.8367H165.632V23.6089H162.107V32.0174Z" fill="#1A1C20"/>
<path d="M176.575 26.858C176.575 27.1205 176.568 27.3238 176.555 27.4684H168.146C168.252 28.3742 168.606 29.0962 169.21 29.6344C169.814 30.1727 170.582 30.4419 171.514 30.4419C172.157 30.4419 172.728 30.317 173.227 30.0677C173.739 29.8052 174.126 29.4638 174.389 29.0436L176.201 29.3391C175.807 30.258 175.17 30.967 174.29 31.4658C173.424 31.9648 172.459 32.214 171.396 32.214C170.385 32.214 169.479 31.9908 168.678 31.5447C167.877 31.0852 167.254 30.4549 166.807 29.6543C166.361 28.8534 166.138 27.9475 166.138 26.9367C166.138 25.9128 166.361 25.0003 166.807 24.1994C167.254 23.3987 167.871 22.7751 168.658 22.3287C169.446 21.8693 170.345 21.6395 171.356 21.6395C172.354 21.6395 173.247 21.8693 174.034 22.3287C174.835 22.7751 175.459 23.3987 175.905 24.1994C176.351 24.9873 176.575 25.8732 176.575 26.858ZM171.356 23.3528C170.582 23.3528 169.912 23.5824 169.348 24.0418C168.796 24.5015 168.429 25.1185 168.245 25.8929H174.468C174.297 25.1316 173.929 24.5212 173.365 24.0617C172.813 23.589 172.144 23.3528 171.356 23.3528Z" fill="#1A1C20"/>
<path d="M185.248 32.0174H182.392V21.8367H184.263V29.8514H184.558L188.674 21.8367H191.529V32.0174H189.659V24.0224H189.363L185.248 32.0174Z" fill="#1A1C20"/>
<path d="M199.537 26.8184C200.076 26.976 200.522 27.2648 200.876 27.685C201.231 28.092 201.408 28.5975 201.408 29.2012C201.408 29.7656 201.244 30.2777 200.916 30.7371C200.587 31.1835 200.115 31.5447 199.498 31.8202C198.894 32.0828 198.192 32.214 197.391 32.214C196.314 32.214 195.389 31.9648 194.614 31.4658C193.84 30.9539 193.328 30.2713 193.078 29.4178L194.87 29.1225C195.303 30.0677 196.137 30.5402 197.371 30.5402C198.054 30.5402 198.572 30.4156 198.927 30.1661C199.294 29.9035 199.478 29.5427 199.478 29.083C199.478 28.6761 199.307 28.3479 198.966 28.0984C198.638 27.8492 198.106 27.7243 197.371 27.7243H196.032V26.0308H197.371C198.001 26.0308 198.48 25.9128 198.809 25.6763C199.15 25.4401 199.321 25.1249 199.321 24.7311C199.321 24.311 199.137 23.9698 198.769 23.7073C198.415 23.4447 197.975 23.3134 197.45 23.3134C196.938 23.3134 196.478 23.4381 196.071 23.6876C195.664 23.9369 195.356 24.2783 195.146 24.7115L193.354 24.3963C193.656 23.5168 194.175 22.8407 194.91 22.3681C195.658 21.8824 196.524 21.6395 197.509 21.6395C198.218 21.6395 198.855 21.7642 199.419 22.0137C199.997 22.2631 200.443 22.611 200.758 23.0573C201.086 23.5037 201.25 24.0025 201.25 24.5539C201.25 25.1185 201.093 25.5977 200.778 25.9915C200.463 26.3853 200.049 26.6611 199.537 26.8184Z" fill="#1A1C20"/>
</g>
</g>
<rect x="1.14348" y="1.14348" width="260.713" height="85.713" rx="12.5783" stroke="#3D3D3D" stroke-width="2.28696"/>
<defs>
<clipPath id="clip0_8_509">
<rect width="263" height="88" rx="13.7217" fill="white"/>
</clipPath>
</defs>
</svg>
