<svg width="24" height="24" viewBox="0 0 24 24" fill="none" xmlns="http://www.w3.org/2000/svg">
<path d="M23 12.9949H1C0.448 12.9949 0 12.5469 0 11.9949C0 11.4429 0.448 10.9949 1 10.9949H23C23.552 10.9949 24 11.4429 24 11.9949C24 12.5469 23.552 12.9949 23 12.9949ZM23 5.32812H1C0.448 5.32812 0 4.88013 0 4.32812C0 3.77613 0.448 3.32812 1 3.32812H23C23.552 3.32812 24 3.77613 24 4.32812C24 4.88013 23.552 5.32812 23 5.32812ZM23 20.6614H1C0.448 20.6614 0 20.2134 0 19.6614C0 19.1094 0.448 18.6614 1 18.6614H23C23.552 18.6614 24 19.1094 24 19.6614C24 20.2134 23.552 20.6614 23 20.6614Z" fill="#3D3D3D"/>
</svg>
