<svg width="608" height="340" viewBox="0 0 608 340" fill="none" xmlns="http://www.w3.org/2000/svg">
<path d="M560.49 226.845L549.869 227.071L544.478 227.16C542.673 227.201 540.859 227.161 539.054 227.209H538.698V226.845L538.649 217.762V217.357H539.054L549.772 217.406C553.35 217.406 556.92 217.495 560.49 217.535H560.717V217.762C560.717 219.3 560.652 220.83 560.612 222.344L560.49 226.845ZM560.49 226.845L560.377 222.271C560.337 220.765 560.288 219.276 560.272 217.786L560.49 218.013C556.92 218.053 553.35 218.142 549.772 218.142L539.054 218.191L539.459 217.786V226.845L539.095 226.489C540.859 226.489 542.624 226.489 544.397 226.529L549.667 226.667L560.49 226.845Z" fill="#EBEBEB"/>
<path d="M548.534 238.267L537.913 238.494L532.513 238.583C530.716 238.583 528.903 238.583 527.097 238.632H526.741V238.267V229.209V228.804H527.146L537.864 228.861C541.434 228.861 545.012 228.95 548.582 228.99H548.809V229.209C548.809 230.747 548.744 232.277 548.704 233.791L548.534 238.267ZM548.534 238.267L548.42 233.693C548.38 232.188 548.331 230.698 548.315 229.209L548.534 229.435C544.964 229.476 541.385 229.565 537.815 229.565L527.097 229.613L527.502 229.209V238.267L527.138 237.911C528.903 237.911 530.667 237.911 532.44 237.952L537.759 238.049L548.534 238.267Z" fill="#EBEBEB"/>
<path d="M572.447 238.267L561.826 238.494L556.435 238.583C554.629 238.583 552.816 238.583 551.011 238.632H550.655V238.267L550.606 229.209V228.804H551.011L561.729 228.861C565.307 228.861 568.877 228.95 572.447 228.99H572.674V229.209C572.674 230.747 572.601 232.277 572.568 233.791L572.447 238.267ZM572.447 238.267L572.334 233.693C572.334 232.188 572.245 230.698 572.228 229.209L572.447 229.435C568.877 229.476 565.307 229.565 561.729 229.565L551.011 229.613L551.415 229.209V238.267L551.051 237.911C552.824 237.911 554.581 237.911 556.354 237.952L561.68 238.049L572.447 238.267Z" fill="#EBEBEB"/>
<path d="M254.83 119.057L244.209 119.283L238.818 119.373C237.013 119.373 235.199 119.373 233.394 119.373H233.038V119.008L232.989 109.95V109.545H233.394L244.112 109.593C247.69 109.593 251.26 109.683 254.83 109.723H255.057V109.942C255.057 111.48 254.984 113.002 254.944 114.515L254.83 119.057ZM254.83 119.057L254.717 114.475C254.717 112.969 254.628 111.48 254.612 109.998L254.83 110.217C251.26 110.217 247.69 110.346 244.112 110.346L233.394 110.403L233.799 109.998L233.758 119.057L233.394 118.693C235.159 118.693 236.924 118.693 238.696 118.741L244.023 118.83L254.83 119.057Z" fill="#EBEBEB"/>
<path d="M242.857 130.479L232.236 130.706L226.837 130.795C225.04 130.795 223.226 130.795 221.421 130.835H221.065V130.471L221 121.429V121.024H221.405L232.123 121.072C235.693 121.072 239.271 121.162 242.841 121.202H243.068V121.429C243.068 122.967 243.003 124.489 242.962 126.002L242.857 130.479ZM242.857 130.479L242.744 125.897C242.703 124.392 242.655 122.902 242.639 121.421L242.857 121.639C239.287 121.68 235.709 121.769 232.139 121.769L221.421 121.825L221.826 121.421L221.81 130.479L221.445 130.115C223.21 130.115 224.975 130.115 226.748 130.163L232.066 130.252L242.857 130.479Z" fill="#EBEBEB"/>
<path d="M266.787 130.479L256.166 130.706L250.774 130.795C248.969 130.795 247.164 130.795 245.351 130.835H244.994V130.471L244.946 121.429V121.024H245.351L256.069 121.072C259.647 121.072 263.217 121.162 266.787 121.202H267.013V121.429C267.013 122.967 266.941 124.489 266.908 126.002L266.787 130.479ZM266.787 130.479L266.673 125.897C266.673 124.392 266.584 122.902 266.568 121.421L266.787 121.639C263.217 121.68 259.647 121.769 256.069 121.769L245.351 121.825L245.755 121.421L245.715 130.479L245.351 130.115C247.123 130.115 248.88 130.115 250.653 130.163L255.98 130.252L266.787 130.479Z" fill="#EBEBEB"/>
<path d="M80.0459 178.994L69.4249 179.221L64.0254 179.31C62.2283 179.31 60.4149 179.31 58.6097 179.35H58.2859V178.986V169.927V169.522H58.6907L69.4087 169.571C72.9787 169.571 76.5568 169.66 80.1268 169.701H80.3535V169.919C80.3535 171.457 80.2887 172.979 80.2483 174.493L80.0459 178.994ZM80.0459 178.994L79.9326 174.412C79.9326 172.906 79.8435 171.417 79.8273 169.935L80.0459 170.154C76.4759 170.194 72.8978 170.283 69.3278 170.283L58.6097 170.34L59.0145 169.935L58.974 178.994L58.6097 178.63C60.3745 178.63 62.1392 178.63 63.9121 178.678L69.2306 178.767L80.0459 178.994Z" fill="#EBEBEB"/>
<path d="M435.411 119.049L424.79 119.275L419.398 119.364C417.593 119.405 415.78 119.364 413.975 119.405H413.618V119.04L413.57 109.982V109.577H413.975L424.693 109.626C428.271 109.626 431.841 109.723 435.411 109.763H435.637V109.982C435.637 111.52 435.573 113.05 435.532 114.556L435.411 119.049ZM435.411 119.049L435.297 114.475C435.257 112.961 435.208 111.471 435.192 109.99L435.411 110.209C431.841 110.249 428.271 110.338 424.693 110.346L413.975 110.395L414.379 109.99L414.339 119.049L413.975 118.684C415.739 118.684 417.504 118.684 419.277 118.733L424.604 118.822L435.411 119.049Z" fill="#EBEBEB"/>
<path d="M559.251 31.0695L548.63 31.2962L543.231 31.3852C541.434 31.3852 539.62 31.3853 537.815 31.4338H537.459V31.0695V22.011V21.6062H537.864L548.582 21.6548C552.152 21.6548 555.73 21.7519 559.3 21.7924H559.527V22.011C559.527 23.5491 559.462 25.0791 559.421 26.5848L559.251 31.0695ZM559.251 31.0695L559.138 26.4957C559.098 24.9819 559.049 23.4924 559.033 22.011L559.251 22.2295C555.681 22.2295 552.103 22.3591 548.533 22.3672L537.815 22.4157L538.22 22.011L538.179 31.0695L537.815 30.7053C539.58 30.7053 541.345 30.7052 543.118 30.7538L548.436 30.8429L559.251 31.0695Z" fill="#EBEBEB"/>
<path d="M571.208 42.4919L560.587 42.7186L555.196 42.8076C553.391 42.8481 551.577 42.8077 549.772 42.8481H549.416V42.4838L549.367 33.4253V33.0205H549.772L560.49 33.0691C564.068 33.0691 567.638 33.1662 571.208 33.2067H571.435V33.4253C571.435 34.9634 571.362 36.4934 571.321 37.9991L571.208 42.4919ZM571.208 42.4919L571.095 37.9181C571.095 36.4043 571.006 34.9148 570.99 33.4334L571.208 33.6519C567.638 33.6924 564.068 33.7815 560.49 33.7896L549.772 33.8381L550.177 33.4334V42.4919L549.812 42.1277C551.577 42.1277 553.342 42.1276 555.115 42.1762L560.441 42.2653L571.208 42.4919Z" fill="#EBEBEB"/>
<path d="M56.1325 31.0776L45.5035 31.3043L40.112 31.3933C38.3149 31.3933 36.5016 31.3933 34.6963 31.4419H34.332V31.0776V22.019V21.6143H34.7449L45.463 21.6709C49.033 21.6709 52.603 21.76 56.1811 21.8004H56.3996V22.019C56.3996 23.5571 56.3268 25.0871 56.2944 26.6009L56.1325 31.0776ZM56.1325 31.0776L56.0111 26.5038C56.0111 24.99 55.922 23.5004 55.9058 22.019L56.1325 22.2376C52.5544 22.2862 48.9844 22.3671 45.4144 22.3752L34.6963 22.4238L35.1011 22.019L35.0525 31.0776L34.6963 30.7619C36.4611 30.7619 38.2177 30.7619 39.9906 30.7619L45.3173 30.8509L56.1325 31.0776Z" fill="#EBEBEB"/>
<path d="M318.693 143.44C317.7 144.378 316.468 145.025 315.131 145.31C314.322 145.52 313.423 145.642 312.565 145.795H309.635C308.429 145.609 307.206 145.464 306.032 145.229C301.646 144.287 297.49 142.482 293.809 139.918C284.113 133.508 275.943 125.046 269.879 115.131C267.846 111.859 266.446 108.234 265.751 104.445C265.572 103.449 265.435 102.445 265.281 101.442V98.5112C265.524 97.3859 265.718 96.2445 266.018 95.1354C266.313 94.0946 266.87 93.1469 267.637 92.3831C267.782 92.5126 267.912 92.6178 268.041 92.7474C272.704 97.4048 277.37 102.062 282.038 106.72C282.189 106.845 282.297 107.015 282.346 107.206C282.396 107.396 282.384 107.597 282.313 107.78C281.959 108.934 281.911 110.161 282.175 111.339C282.439 112.518 283.006 113.607 283.819 114.499C287.801 119.022 292.065 123.289 296.585 127.274C297.486 128.092 298.586 128.66 299.774 128.923C300.963 129.186 302.199 129.133 303.361 128.771C303.701 128.682 303.944 128.625 304.235 128.917C309.001 133.709 313.777 138.491 318.564 143.262C318.588 143.286 318.621 143.359 318.693 143.44Z" fill="#EBEBEB"/>
<path d="M327.857 132.973V133.944C327.435 134.552 326.978 135.136 326.489 135.693C325.048 137.19 323.559 138.639 322.093 140.104L321.64 140.533L307.247 126.148C309.133 124.286 311.011 122.384 312.954 120.53C313.165 120.335 313.412 120.183 313.682 120.086C313.952 119.988 314.239 119.945 314.526 119.96C314.813 119.975 315.094 120.048 315.353 120.173C315.611 120.299 315.841 120.476 316.03 120.692C317.115 121.744 318.167 122.821 319.268 123.882C321.77 126.391 324.287 128.884 326.764 131.41C327.169 131.901 327.535 132.424 327.857 132.973Z" fill="#EBEBEB"/>
<path d="M290.125 98.5839C288.344 100.308 286.523 101.992 284.758 103.66L270.478 89.3877C270.794 89.1044 271.158 88.8049 271.49 88.4811C272.801 87.1777 274.089 85.842 275.424 84.563C275.967 84.0869 276.537 83.6436 277.132 83.2354H278.112C278.658 83.5706 279.177 83.9468 279.666 84.3606C283.163 87.8254 286.647 91.3063 290.117 94.8034C291.429 96.1149 291.429 97.2968 290.125 98.5839Z" fill="#EBEBEB"/>
<path d="M50.8059 106.525H144.492V47.0901H50.8059V106.525Z" fill="#EBEBEB"/>
<path d="M162.018 106.525H144.492V88.2705L162.018 106.525Z" fill="#EBEBEB"/>
<path d="M133.644 57.363H61.6453V58.4964H133.644V57.363Z" fill="white"/>
<path d="M98.8591 63.4668H61.6453V64.6001H98.8591V63.4668Z" fill="white"/>
<path d="M119.866 75.6663H61.6453V76.7996H119.866V75.6663Z" fill="white"/>
<path d="M133.644 81.762H61.6453V82.8953H133.644V81.762Z" fill="white"/>
<path d="M133.644 87.8577H61.6453V88.991H133.644V87.8577Z" fill="white"/>
<path d="M87.2262 93.9614H61.6453V95.0948H87.2262V93.9614Z" fill="white"/>
<path d="M556.337 130.26H462.651V182.677H556.337V130.26Z" fill="#DBDBDB"/>
<path d="M445.125 182.685H462.651V164.431L445.125 182.685Z" fill="#DBDBDB"/>
<path d="M536.39 157.63H473.709V158.764H536.39V157.63Z" fill="white"/>
<path d="M523.503 163.734H473.709V164.868H523.503V163.734Z" fill="white"/>
<path d="M527.259 145.431H473.709V146.564H527.259V145.431Z" fill="white"/>
<path d="M543.628 139.335H473.709V140.469H543.628V139.335Z" fill="white"/>
<path d="M528.668 169.83H473.709V170.963H528.668V169.83Z" fill="white"/>
<path d="M509.004 74.5491H336.972V82.0938H509.004V74.5491Z" fill="#EBEBEB"/>
<path d="M354.159 82.1021H346.614V107.052H354.159V82.1021Z" fill="#EBEBEB"/>
<path d="M354.159 82.1021H346.614V89.8168H354.159V82.1021Z" fill="#DBDBDB"/>
<path d="M499.363 82.1021H491.818V107.052H499.363V82.1021Z" fill="#EBEBEB"/>
<path d="M499.363 82.1021H491.818V89.8168H499.363V82.1021Z" fill="#DBDBDB"/>
<path d="M381.197 74.5491V26.4714H369.086V74.5491H381.197Z" fill="#C7C7C7"/>
<path d="M381.197 29.1834V23.8972H369.086V29.1834H381.197Z" fill="#DBDBDB"/>
<path d="M381.189 37.9183V35.9592H369.078V37.9183H381.189Z" fill="#DBDBDB"/>
<path d="M382.702 68.251V62.9648H369.086V68.251H382.702Z" fill="#DBDBDB"/>
<path d="M389.656 74.5491V18.4653H381.197V74.5491H389.656Z" fill="#DBDBDB"/>
<path d="M387.932 45.3092V23.7354H382.856V45.3092H387.932Z" fill="#EBEBEB"/>
<path d="M449.827 68.5583L409.942 29.1301L403.995 35.1463L443.88 74.5745L449.827 68.5583Z" fill="#C7C7C7"/>
<path d="M439.303 60.4957L423.96 45.3289L420.392 48.9385L435.734 64.1054L439.303 60.4957Z" fill="#DBDBDB"/>
<path d="M404.017 74.5652V31.96H389.648V74.5652H404.017Z" fill="#A6A6A6"/>
<path d="M404.017 70.0401V66.0735H389.648V70.0401H404.017Z" fill="#C7C7C7"/>
<path d="M404.017 63.4749V61.9368H389.648V63.4749H404.017Z" fill="#C7C7C7"/>
<path d="M369.086 74.5654V34.5264H359.161V74.5654H369.086Z" fill="#A6A6A6"/>
<path d="M369.086 70.3152V66.5833H359.161V70.3152H369.086Z" fill="#C7C7C7"/>
<path d="M369.086 46.5073V42.7754H359.161V46.5073H369.086Z" fill="#C7C7C7"/>
<path d="M369.086 50.5145V49.0654H359.161V50.5145H369.086Z" fill="#C7C7C7"/>
<path d="M490.92 55.8978L489.843 58.7554L489.179 60.4959L488.094 63.3616L483.869 74.5573H461.016L456.774 63.3616L455.689 60.4959L455.033 58.7554L453.949 55.8978L462.384 43.6011L458.013 35.4978H486.88L482.484 43.6011L490.92 55.8978Z" fill="#DBDBDB"/>
<path d="M490.92 55.8977L489.843 58.7553H455.033L453.949 55.8977H490.92Z" fill="#A6A6A6"/>
<path d="M489.179 60.4956L488.094 63.3613H456.774L455.689 60.4956H489.179Z" fill="#A6A6A6"/>
<path d="M45.1875 292.748L109.787 292.554L174.379 292.481L303.571 292.352L432.763 292.481L497.355 292.554L561.955 292.748L497.355 292.951L432.763 293.023L303.571 293.153L174.379 293.023L109.787 292.951L45.1875 292.748Z" fill="#263238"/>
<path d="M296.561 292.732H395.857L376.064 177.561H301.807L296.561 292.732Z" fill="#DBDBDB"/>
<path d="M296.561 292.732H305.272L310.153 177.561H301.807L296.561 292.732Z" fill="#A6A6A6"/>
<path d="M382.84 200.139C394.076 225.234 421.228 266.884 433.379 256.562C451.553 241.133 463.857 207.003 468.715 193.201C471.443 185.47 432.059 172.534 429.647 179.552C426.215 189.526 420.831 210.371 417.715 213.326C416.095 214.872 403.192 196.763 393.429 188.174C379.335 175.796 379.254 192.124 382.84 200.139Z" fill="#AD6359"/>
<path d="M478.55 181.584C475.045 189.469 461.55 202.802 457.065 204.769C452.581 206.736 428.894 185.34 429.388 180.305C429.882 175.27 444.016 148.896 451.844 144.848C459.672 140.8 482.185 173.408 478.55 181.584Z" fill="#AD6359"/>
<path d="M431.242 174.768C431.242 174.768 431.808 163.548 428.975 154.06C426.595 146.087 422.167 134.519 426.401 133.078C435.111 130.123 446.153 158.982 446.153 158.982C446.153 158.982 448.986 172.501 440.624 176.193C435.378 178.508 431.242 174.768 431.242 174.768Z" fill="#AD6359"/>
<path d="M441.061 153.486C441.628 158.027 446.655 154.757 446.655 154.757C446.655 154.757 440.559 161.233 442.955 165.661C445.287 169.943 451.213 165.774 451.642 165.483C451.318 165.831 445.878 171.902 448.752 176.128C451.739 180.516 456.968 175.318 457.308 174.978C457.106 175.391 454.564 180.985 457.478 183.705C462.481 188.36 469.378 174.242 474.689 172.663C474.689 172.663 478.396 181.349 478.55 181.568C478.55 181.568 485.391 168.259 482.865 161.217C482.511 160.188 481.817 159.31 480.897 158.729C479.977 158.148 478.887 157.897 477.805 158.019C477.805 158.019 480.485 153.971 478.332 150.571C477.214 148.831 473.474 149.057 473.474 149.057C473.474 149.057 475.482 145.73 473.377 142.832C471.702 140.509 468.18 141.1 468.18 141.1C468.18 141.1 468.625 137.004 466.148 135.19C461.113 131.531 439.839 143.763 441.061 153.486Z" fill="#AD6359"/>
<path d="M467.573 141.124C467.646 141.084 467.573 140.979 467.533 141.003C459.551 143.318 451.496 148.289 446.364 154.902C446.194 155.121 446.469 155.485 446.704 155.283C453.334 149.495 459.607 144.905 467.573 141.124Z" fill="#263238"/>
<path d="M473.523 148.952C473.612 148.912 473.523 148.766 473.45 148.791C465.234 151.219 456.321 157.096 451.294 165.394C451.124 165.677 451.253 166.106 451.48 165.799C455.236 160.553 466.335 152.328 473.523 148.952Z" fill="#263238"/>
<path d="M457.155 175.667C462.279 167.895 469.378 162.544 477.465 158.1C477.563 158.043 477.466 157.906 477.376 157.93C472.827 159.023 467.97 162.39 464.424 165.337C461.068 168.003 458.472 171.503 456.896 175.488C456.823 175.667 457.049 175.845 457.155 175.667Z" fill="#263238"/>
<path d="M446.493 154.749C446.291 155.008 446.898 155.016 446.703 155.283C445.894 156.4 441.563 163.564 443.546 165.807C445.165 167.596 448.638 166.689 449.852 165.807L452.888 163.613L450.8 166.762C449.86 168.142 449.149 169.664 448.695 171.271C448.443 172.003 448.35 172.779 448.421 173.55C448.493 174.32 448.727 175.066 449.108 175.739C449.465 176.363 450.026 176.845 450.697 177.103C451.368 177.361 452.108 177.38 452.791 177.156C454.314 176.632 455.677 175.726 456.75 174.525L459.826 171.287L457.98 175.335C457.464 176.455 457.092 177.635 456.871 178.848C456.624 179.988 456.717 181.176 457.138 182.264C457.347 182.743 457.684 183.155 458.113 183.454C458.542 183.752 459.045 183.926 459.567 183.956C460.749 183.836 461.872 183.381 462.805 182.645C464.849 181.083 466.768 179.364 468.544 177.504C469.475 176.598 470.406 175.683 471.386 174.809C472.306 173.888 473.409 173.171 474.624 172.704C473.469 173.289 472.441 174.095 471.596 175.076C470.698 176.007 469.84 176.978 468.982 177.958C467.295 179.98 465.425 181.842 463.396 183.519C462.307 184.442 460.974 185.03 459.559 185.211C458.778 185.218 458.012 185 457.353 184.582C456.694 184.164 456.169 183.564 455.843 182.855C455.276 181.52 455.121 180.046 455.398 178.621C455.615 177.267 456.01 175.947 456.572 174.695L457.802 175.505C456.555 176.944 454.953 178.033 453.155 178.662C452.148 178.984 451.06 178.944 450.079 178.549C449.131 178.133 448.33 177.442 447.78 176.565C447.298 175.711 447.003 174.764 446.913 173.787C446.824 172.811 446.943 171.826 447.262 170.899C447.779 169.139 448.586 167.478 449.65 165.985L450.597 166.908C448.978 167.96 445.222 169.401 442.397 166.948C439.272 163.151 445.303 155.979 446.493 154.749Z" fill="#263238"/>
<path d="M446.655 154.757C445.78 155.106 444.858 155.321 443.919 155.396C443.542 155.435 443.161 155.372 442.817 155.214C442.472 155.056 442.176 154.809 441.96 154.498C441.578 153.749 441.424 152.905 441.515 152.069C441.563 151.146 441.66 150.183 441.806 149.187C441.189 150.001 440.753 150.936 440.527 151.932C440.371 152.469 440.323 153.031 440.386 153.587C440.448 154.143 440.62 154.681 440.891 155.17C441.245 155.678 441.745 156.067 442.324 156.287C442.882 156.469 443.479 156.491 444.048 156.352C445.064 156.108 445.976 155.55 446.655 154.757Z" fill="#263238"/>
<path d="M427.251 180.305L468.245 208.857C468.245 208.857 443.757 259.59 428.627 259.452C413.497 259.315 391.64 221.316 384.103 204.89C376.566 188.465 381.059 174.549 396.311 189.509C411.562 204.469 417.026 210.638 417.52 210.436C418.443 210.063 427.251 180.305 427.251 180.305Z" fill="#FFC727"/>
<path d="M468.245 208.857C468.245 208.857 451.245 244.039 436.843 255.728C433.953 258.076 431.177 259.477 428.627 259.444C413.497 259.315 391.64 221.308 384.062 204.89C379.375 194.723 379.335 185.518 383.593 183.535C386.224 182.313 390.474 183.818 396.278 189.534C411.659 204.599 416.986 210.654 417.488 210.452C418.443 210.063 427.259 180.313 427.259 180.313L468.245 208.857Z" fill="#FFC727"/>
<path d="M442.874 249.738C442.372 250.321 441.862 250.887 441.352 251.438C436.739 254.342 431.564 256.238 426.166 256.999C424.677 257.164 423.178 257.223 421.681 257.177L420.75 256.595C422.537 256.703 424.33 256.657 426.109 256.457C428.239 256.224 430.334 255.741 432.351 255.016L433.881 254.514L435.362 253.891C435.856 253.68 436.366 253.502 436.843 253.259L438.276 252.531C439.87 251.705 441.406 250.772 442.874 249.738ZM411.772 205.044C407.095 207.172 402.828 210.107 399.168 213.714C396.794 216.053 394.6 218.567 392.603 221.235C392.7 221.413 392.805 221.599 392.919 221.777C394.939 219.064 397.167 216.512 399.581 214.143C402.648 211.13 406.142 208.585 409.951 206.59L411.384 205.862C411.647 205.728 411.917 205.609 412.193 205.506L411.772 205.044ZM447.181 207.626C443.293 205.724 439.226 204.213 435.038 203.117C434.601 203.012 434.164 202.907 433.719 202.818C433.435 202.753 433.144 202.688 432.861 202.64C429.322 201.898 425.69 201.713 422.094 202.089C421.568 202.162 421.05 202.243 420.523 202.34C420.467 202.526 420.402 202.721 420.345 202.899C420.944 202.794 421.551 202.705 422.159 202.632C425.496 202.279 428.867 202.418 432.164 203.045L433.047 203.206C433.67 203.336 434.293 203.474 434.917 203.627C439.069 204.697 443.104 206.178 446.962 208.047C452.742 210.883 458.349 214.059 463.752 217.559C463.833 217.422 463.906 217.284 463.971 217.155C458.569 213.647 452.962 210.466 447.181 207.626ZM451.431 197.151C444.868 197.422 438.473 199.307 432.812 202.64L432.116 203.045C430.686 203.901 429.305 204.836 427.979 205.846C421.041 211.124 415.504 217.907 410.234 224.732C407.595 228.156 405.005 231.605 402.269 234.94C402.074 235.183 401.872 235.417 401.67 235.66L401.977 236.106C402.212 235.83 402.447 235.555 402.673 235.296C405.426 231.953 408.024 228.504 410.671 225.088C415.941 218.288 421.471 211.553 428.335 206.347C429.823 205.212 431.381 204.172 432.998 203.231C433.217 203.093 433.443 202.964 433.67 202.842C435.555 201.784 437.52 200.875 439.547 200.122L441.061 199.572C441.563 199.394 442.089 199.272 442.607 199.118L444.153 198.689L445.772 198.374C447.863 197.902 450.001 197.68 452.143 197.71H452.241L451.431 197.151ZM401.119 194.326C398.291 195.583 395.335 196.53 392.303 197.151L390.725 197.459C390.199 197.556 389.664 197.588 389.106 197.661L387.487 197.847L385.868 197.912C384.389 198.015 382.905 197.988 381.431 197.831L381.577 198.366C388.42 198.865 395.278 197.629 401.516 194.771C401.427 194.617 401.273 194.472 401.119 194.326ZM389.446 184.272C386.579 186.219 383.606 188.006 380.541 189.623C380.541 189.841 380.541 190.06 380.541 190.286C383.812 188.576 386.975 186.667 390.012 184.571C389.818 184.466 389.632 184.361 389.446 184.272Z" fill="white"/>
<path d="M458.555 213.617C457.47 212.718 456.377 211.844 455.276 210.97C453.042 209.205 450.808 207.448 448.574 205.7C444.121 202.227 439.572 198.876 434.99 195.581C432.391 193.703 429.833 191.727 427.153 189.971C427.141 189.961 427.126 189.954 427.111 189.95C427.095 189.946 427.079 189.946 427.063 189.948C427.048 189.95 427.033 189.955 427.019 189.963C427.005 189.972 426.993 189.982 426.984 189.995C426.974 190.008 426.967 190.022 426.963 190.038C426.959 190.053 426.958 190.069 426.96 190.085C426.963 190.101 426.968 190.116 426.976 190.13C426.984 190.144 426.995 190.156 427.008 190.165C429.137 192.043 431.42 193.759 433.63 195.548C435.84 197.337 438.034 199.135 440.276 200.883C444.734 204.348 449.245 207.745 453.811 211.075C455.082 212.014 456.337 213.002 457.656 213.884C458.328 214.337 458.968 214.839 459.648 215.277C460.328 215.714 461.056 216.086 461.72 216.58C461.735 216.589 461.753 216.591 461.77 216.588C461.787 216.585 461.803 216.575 461.814 216.562C461.824 216.548 461.83 216.531 461.829 216.513C461.828 216.496 461.821 216.479 461.809 216.467C460.7 215.536 459.664 214.524 458.555 213.617Z" fill="#263238"/>
<path d="M417.836 209.529C416.271 213.758 414.984 218.085 413.983 222.481C413.448 224.651 413.027 226.845 412.615 229.031C412.178 231.203 411.886 233.401 411.74 235.612C411.74 235.693 411.862 235.693 411.878 235.612C412.558 233.499 413.06 231.297 413.545 229.136C414.031 226.974 414.582 224.797 415.067 222.66C416.047 218.304 417.196 213.99 418.046 209.61C418.052 209.596 418.054 209.581 418.054 209.567C418.054 209.552 418.05 209.537 418.044 209.524C418.038 209.51 418.03 209.498 418.019 209.488C418.008 209.478 417.996 209.47 417.982 209.464C417.968 209.459 417.953 209.456 417.938 209.457C417.923 209.457 417.909 209.46 417.895 209.467C417.882 209.473 417.87 209.481 417.859 209.492C417.849 209.503 417.841 209.515 417.836 209.529Z" fill="#263238"/>
<path opacity="0.1" d="M436.843 255.728C433.953 258.076 431.177 259.477 428.627 259.444C413.497 259.315 391.64 221.308 384.062 204.89C379.375 194.723 379.335 185.518 383.593 183.535L436.843 255.728Z" fill="black"/>
<path d="M413.375 292.732H314.962C313.877 290.741 330.003 204.542 363.193 180.265C370.56 174.882 383.625 178.346 387.252 183.584C405.515 209.902 413.375 292.732 413.375 292.732Z" fill="#FFC727"/>
<path d="M408.259 254.466C405.802 253.596 403.395 252.593 401.046 251.462C397.752 249.884 394.57 248.135 391.405 246.289L390.943 246.014C387.705 244.096 384.467 242.064 381.294 240.016L380.841 239.724L378.687 238.332C371.402 233.661 364.229 228.852 356.45 225.112C352.604 223.189 348.521 221.785 344.307 220.935C342.192 220.558 340.039 220.438 337.895 220.579C337.361 220.579 336.835 220.692 336.276 220.765C335.912 220.838 335.548 220.887 335.175 220.959C335.232 220.83 335.281 220.708 335.345 220.579C335.637 220.522 335.936 220.474 336.228 220.409C336.762 220.344 337.304 220.263 337.847 220.223C340.012 220.077 342.186 220.194 344.323 220.571C348.582 221.413 352.709 222.821 356.595 224.756C364.415 228.496 371.636 233.305 378.906 237.959L381.043 239.328L381.504 239.619C384.743 241.699 387.981 243.764 391.34 245.715L391.802 245.99C394.878 247.779 398.011 249.479 401.233 251.009C403.483 252.086 405.788 253.045 408.138 253.883L408.259 254.466ZM399.5 213.366L399.168 213.682C392.927 219.761 388.264 227.177 383.868 234.592C382.94 236.173 382.006 237.752 381.067 239.328C380.994 239.465 380.922 239.595 380.841 239.724C379.651 241.732 378.453 243.731 377.206 245.698C376.113 247.431 374.972 249.139 373.757 250.79C373.644 250.944 373.539 251.098 373.425 251.244C372.197 252.903 370.872 254.49 369.459 255.996C367.986 257.559 366.358 258.969 364.602 260.205L363.946 260.667C363.727 260.82 363.484 260.942 363.258 261.079L361.873 261.889C360.919 262.37 359.935 262.789 358.927 263.144C354.843 264.5 350.569 265.191 346.266 265.192C341.978 265.175 337.706 264.689 333.524 263.743C329.476 262.885 325.55 261.735 321.592 260.586C321.592 260.715 321.527 260.845 321.486 260.966C325.437 262.124 329.403 263.289 333.435 264.156C337.666 265.121 341.991 265.62 346.331 265.645C350.682 265.647 355.005 264.953 359.137 263.589C360.169 263.234 361.175 262.81 362.149 262.318L363.565 261.508C363.805 261.381 364.037 261.24 364.262 261.088L364.933 260.618C366.717 259.369 368.369 257.943 369.863 256.36C371.371 254.747 372.782 253.047 374.089 251.268C374.211 251.114 374.316 250.968 374.421 250.815C375.571 249.244 376.655 247.633 377.659 245.998C378.914 244.031 380.088 242.031 381.302 240.032L381.537 239.635L384.346 234.891C388.75 227.484 393.413 220.134 399.589 214.127L399.694 214.03C399.622 213.795 399.557 213.577 399.5 213.366ZM404.171 232.592C403.548 233.402 402.916 234.163 402.277 234.94C399.596 238.309 396.601 241.416 393.332 244.217C392.684 244.727 392.036 245.237 391.364 245.715L390.943 246.014C390.007 246.675 389.025 247.27 388.005 247.795L387.301 248.176C387.066 248.305 386.807 248.394 386.564 248.508L385.091 249.139C384.086 249.502 383.058 249.797 382.014 250.021C379.505 250.559 376.947 250.83 374.381 250.831H373.757C372.235 250.831 370.713 250.709 369.2 250.548C364.928 250.01 360.728 249.002 356.676 247.544C352.629 246.144 348.638 244.419 344.671 242.687C340.723 240.901 336.668 239.363 332.528 238.081C331.306 237.733 330.1 237.425 328.804 237.198L328.683 237.547C329.946 237.781 331.201 238.081 332.423 238.437C336.538 239.723 340.569 241.264 344.493 243.051C348.46 244.759 352.426 246.492 356.514 247.908C360.601 249.379 364.835 250.399 369.143 250.952C370.568 251.114 371.993 251.219 373.417 251.244C373.628 251.244 373.83 251.244 374.041 251.244C376.759 251.288 379.474 251.033 382.136 250.483C383.2 250.248 384.249 249.948 385.277 249.584L386.783 248.937C387.033 248.823 387.284 248.734 387.527 248.605L388.248 248.216C389.353 247.653 390.414 247.006 391.421 246.281L391.842 245.982C392.457 245.537 393.064 245.067 393.663 244.589C396.966 241.777 399.991 238.654 402.698 235.264C403.237 234.6 403.777 233.928 404.317 233.248C404.268 233.038 404.22 232.811 404.171 232.592ZM394.003 196.771C393.437 196.908 392.87 197.038 392.303 197.151L390.725 197.459C390.199 197.556 389.664 197.588 389.106 197.661L387.487 197.848L385.868 197.912C383.73 198.051 381.584 197.937 379.473 197.572C376.161 197 372.952 195.939 369.953 194.423L369.143 194.027C368.576 193.735 368.018 193.428 367.467 193.112C363.761 190.936 360.284 188.392 357.089 185.518L356.733 185.875C359.958 188.779 363.465 191.355 367.2 193.565C367.589 193.792 368.01 194.01 368.382 194.221L369.192 194.626C372.392 196.305 375.833 197.482 379.392 198.115C384.325 198.807 389.345 198.532 394.173 197.305C394.141 197.127 394.068 196.949 394.003 196.771ZM388.24 185.073C383.941 187.957 379.353 190.385 374.551 192.318C372.809 192.997 371.028 193.567 369.216 194.027L368.455 194.221C366.351 194.71 364.213 195.043 362.06 195.217L360.441 195.322C359.906 195.362 359.372 195.322 358.822 195.322H357.203L355.583 195.192C353.633 195.08 351.701 194.757 349.82 194.229C349.706 194.383 349.593 194.537 349.488 194.698C355.953 196.322 362.722 196.297 369.175 194.626L369.985 194.423C371.6 193.996 373.189 193.477 374.745 192.869C379.572 190.923 384.184 188.481 388.507 185.583L388.24 185.073ZM412.453 284.264C411.643 284.264 410.769 284.337 409.927 284.361H409.862L409.368 284.402C405.22 284.836 401.188 286.035 397.476 287.939C394.821 289.326 392.284 290.929 389.891 292.732H390.401C392.684 291.041 395.099 289.536 397.622 288.231C401.366 286.32 405.436 285.13 409.619 284.726H409.919H410.113C410.923 284.726 411.683 284.637 412.461 284.645C412.477 284.499 412.469 284.386 412.453 284.264ZM412.873 287.988C411.994 286.871 411.084 285.773 410.145 284.693C410.056 284.58 409.959 284.475 409.862 284.369L409.53 283.981C406.702 280.684 403.449 277.777 399.856 275.335C398.033 274.146 396.07 273.186 394.012 272.478C393.502 272.308 392.967 272.162 392.449 272.016C391.931 271.87 391.389 271.757 390.83 271.684C389.762 271.482 388.669 271.466 387.592 271.36C383.24 271.201 378.898 271.891 374.81 273.392C370.759 274.932 366.89 276.914 363.274 279.302C356.798 283.471 350.896 288.377 344.59 292.732H344.857C351.131 288.449 357 283.633 363.412 279.553C367.015 277.182 370.87 275.219 374.907 273.7C378.955 272.218 383.252 271.539 387.56 271.7C388.62 271.814 389.705 271.83 390.757 272.032C391.292 272.105 391.802 272.259 392.328 272.364C392.854 272.469 393.364 272.648 393.866 272.818C395.894 273.52 397.828 274.472 399.622 275.651C403.183 278.077 406.404 280.968 409.198 284.248C409.247 284.305 409.295 284.353 409.336 284.41L409.619 284.726C410.753 286.045 411.862 287.389 412.93 288.773C412.938 288.514 412.906 288.263 412.857 287.988H412.873Z" fill="white"/>
<path d="M350.127 190.829C330.092 214.006 303.086 254.943 314.12 263.994C332.261 278.873 385.244 287.47 397.404 288.911C402.649 289.542 413.157 255.251 409.652 250.815C406.146 246.379 350.127 243.246 349.747 239.805C349.528 237.854 358.036 220.887 363.509 200.074C369.799 176.08 355.77 184.296 350.127 190.829Z" fill="#AD6359"/>
<path d="M400.472 247.99C400.472 247.99 416.549 247.868 427.065 248.281C432.934 248.508 442.956 249.803 447.189 251.948C453.52 255.146 477.951 272.591 473.855 278.606C470.139 284.046 451.051 266.398 451.051 266.398C451.051 266.398 471.888 282.508 466.213 288.255C460.538 294.003 441.62 271.191 441.62 271.191C441.62 271.191 462.667 288.191 455.876 293.21C450.743 296.974 432.448 277.286 432.448 277.286C432.448 277.286 450.427 292.044 445.319 296.148C439.653 300.681 421.641 283.568 421.641 283.568C406.907 291.809 396.546 289.704 389.26 287.332C387.552 286.725 400.472 247.99 400.472 247.99Z" fill="#AD6359"/>
<path d="M444.202 260.367C446.72 262.172 449.278 263.977 451.625 266.034C453.973 268.09 456.248 270.154 458.401 272.388C463.671 277.861 466.116 282.103 465.93 281.86C461.688 276.039 453.398 268.681 451.051 266.657C448.703 264.633 446.461 262.504 444.121 260.488C444.064 260.399 444.145 260.326 444.202 260.367Z" fill="#263238"/>
<path d="M436.755 268.713C439.863 271.142 443.045 273.457 446.048 276.04C449.051 278.622 453.115 282.346 455.924 285.114C456.135 285.325 455.924 285.73 455.697 285.527C452.783 282.872 448.452 279.245 445.506 276.622C442.559 274 439.717 271.271 436.69 268.77C436.641 268.762 436.706 268.673 436.755 268.713Z" fill="#263238"/>
<path d="M429.048 274.72C433.994 278.209 438.293 282.605 442.405 287.017C442.615 287.235 442.405 287.268 442.146 287.057C437.783 282.888 434.383 279.585 428.926 274.914C428.862 274.817 428.967 274.647 429.048 274.72Z" fill="#263238"/>
<path d="M398.213 247.48C405.547 247.431 427.089 247.374 434.407 247.941C440.883 248.435 446.218 249.827 451.65 253.421C463.307 261.128 470.819 270.179 472.697 272.85C473.831 274.469 475.474 277.084 473.976 278.897C472.139 281.099 465.379 278.946 458.247 272.494C457.988 272.259 458.15 272.113 458.417 272.332C468.431 280.427 472.414 279.504 473.458 278.12C474.138 277.221 473.458 275.691 472.875 274.477C471.9 272.759 470.709 271.173 469.33 269.758C464.73 264.837 459.641 260.397 454.143 256.506C448.252 252.109 441.234 249.473 433.905 248.904C426.409 248.289 405.669 248.483 398.181 247.763C398.027 247.714 398.051 247.488 398.213 247.48Z" fill="#263238"/>
<path d="M467.403 285.017C466.99 283.017 465.549 281.188 464.408 279.536C463.021 277.458 461.429 275.525 459.656 273.765C459.583 273.692 459.445 273.765 459.518 273.878C461.028 275.643 462.431 277.498 463.72 279.431C464.405 280.495 465.026 281.598 465.582 282.734C466.108 283.827 466.731 285.09 466.456 286.336C465.938 288.716 462.91 288.66 461.121 288.02C459.962 287.584 458.846 287.042 457.786 286.401C456.342 285.481 454.973 284.45 453.69 283.317C453.584 283.22 453.293 283.26 453.406 283.366C456.078 285.907 461.137 291.194 465.266 289.259C466.058 288.909 466.704 288.294 467.094 287.521C467.484 286.747 467.593 285.862 467.403 285.017Z" fill="#263238"/>
<path d="M400.715 245.909L381.456 289.623C381.456 289.623 314.152 274.428 310.25 261.654C306.348 248.88 327.436 214.702 346.468 193.363C365.185 172.396 367.953 186.619 363.298 202.834C358.644 219.049 351.01 237.741 351.86 239.141C352.71 240.542 400.715 245.909 400.715 245.909Z" fill="#FFC727"/>
<path d="M356.19 224.562C356.142 224.683 356.101 224.813 356.053 224.934C352.314 223.095 348.352 221.751 344.266 220.935C342.151 220.558 339.998 220.438 337.855 220.579C337.321 220.579 336.794 220.692 336.236 220.765C335.677 220.838 335.183 220.927 334.665 221.073C333.613 221.299 332.617 221.704 331.589 222.02C327.622 223.529 323.983 225.789 320.871 228.674L321.381 227.792C324.35 225.171 327.767 223.106 331.468 221.696C332.504 221.372 333.516 220.959 334.584 220.733C335.11 220.587 335.653 220.522 336.203 220.409C336.754 220.296 337.28 220.263 337.822 220.223C339.987 220.077 342.162 220.194 344.299 220.571C348.419 221.378 352.417 222.72 356.19 224.562ZM391.81 245.99L391.348 245.715L389.502 244.622L388.385 244.492C389.195 245.002 390.077 245.52 390.927 246.014L391.389 246.289C393.817 247.706 396.246 249.066 398.739 250.337L398.933 249.892C396.537 248.653 394.165 247.35 391.81 245.99ZM378.671 243.31C378.185 244.12 377.691 244.929 377.19 245.699C376.097 247.431 374.955 249.139 373.741 250.79C373.628 250.944 373.522 251.098 373.409 251.244C372.18 252.903 370.856 254.49 369.442 255.996C367.969 257.559 366.342 258.969 364.585 260.205L363.93 260.667C363.711 260.82 363.468 260.942 363.241 261.079L361.857 261.889C360.903 262.37 359.919 262.79 358.91 263.144C354.827 264.5 350.552 265.191 346.25 265.192C341.968 265.174 337.7 264.688 333.524 263.743C329.306 262.844 325.17 261.622 321.017 260.416C317.333 259.347 313.626 258.27 309.837 257.566C309.837 257.696 309.837 257.825 309.837 257.947C313.585 258.651 317.252 259.736 320.92 260.796C325.064 262.01 329.217 263.225 333.451 264.156C337.682 265.121 342.007 265.62 346.347 265.645C350.698 265.647 355.022 264.953 359.153 263.589C360.185 263.234 361.191 262.81 362.165 262.318L363.581 261.509C363.821 261.381 364.053 261.24 364.278 261.088L364.95 260.618C366.733 259.369 368.385 257.943 369.88 256.36C371.387 254.747 372.798 253.047 374.105 251.268C374.227 251.114 374.332 250.968 374.437 250.815C375.587 249.244 376.671 247.633 377.675 245.998C378.226 245.14 378.76 244.266 379.294 243.399L378.671 243.31ZM392.368 244.929C392.036 245.188 391.696 245.448 391.348 245.69L390.927 245.99C389.99 246.651 389.008 247.246 387.989 247.771L387.284 248.151C387.05 248.281 386.79 248.37 386.548 248.483L385.074 249.115C384.07 249.477 383.042 249.772 381.998 249.997C379.489 250.534 376.93 250.806 374.364 250.807H373.741C372.219 250.807 370.697 250.685 369.183 250.523C364.911 249.985 360.711 248.978 356.66 247.52C352.612 246.119 348.621 244.395 344.655 242.663C340.707 240.877 336.651 239.338 332.512 238.057C328.359 236.867 323.931 236.219 319.632 237.061C318.265 237.336 316.941 237.796 315.698 238.429C315.617 238.591 315.536 238.761 315.463 238.923C316.794 238.213 318.22 237.701 319.697 237.401C323.923 236.591 328.294 237.223 332.407 238.413C336.522 239.699 340.553 241.24 344.477 243.027C348.443 244.735 352.41 246.468 356.498 247.884C360.589 249.364 364.829 250.393 369.143 250.952C370.568 251.114 371.992 251.219 373.417 251.244C373.628 251.244 373.83 251.244 374.04 251.244C376.759 251.288 379.473 251.033 382.136 250.483C383.2 250.248 384.249 249.948 385.277 249.584L386.782 248.937C387.033 248.823 387.284 248.734 387.527 248.605L388.248 248.216C389.353 247.653 390.414 247.006 391.421 246.281L391.842 245.982C392.263 245.674 392.651 245.35 393.105 245.027L392.368 244.929ZM357.121 185.478C356.773 185.17 356.433 184.871 356.093 184.555L355.656 184.838L356.79 185.85C359.425 188.21 362.24 190.362 365.209 192.286C365.209 192.084 365.209 191.881 365.209 191.687C362.367 189.831 359.669 187.763 357.138 185.502L357.121 185.478ZM362.043 195.192L360.424 195.298C359.89 195.338 359.356 195.298 358.805 195.298H357.186L355.567 195.168C353.426 195.04 351.308 194.665 349.253 194.051C348.354 193.784 347.464 193.476 346.59 193.12L346.395 193.338L346.209 193.549C347.153 193.945 348.118 194.288 349.099 194.577C354.226 195.946 359.581 196.244 364.828 195.451C364.828 195.249 364.885 195.055 364.917 194.852C364.019 195.03 363.039 195.144 362.06 195.217L362.043 195.192ZM387.592 271.336C383.238 271.185 378.896 271.883 374.81 273.392C370.759 274.932 366.89 276.914 363.274 279.302C361.25 280.613 359.275 281.989 357.324 283.406L357.64 283.495C359.534 282.127 361.452 280.808 363.42 279.553C367.023 277.182 370.878 275.219 374.915 273.7C378.963 272.218 383.26 271.539 387.568 271.7C388.126 271.757 388.685 271.789 389.243 271.838L389.397 271.498C388.822 271.449 388.207 271.417 387.608 271.36L387.592 271.336Z" fill="white"/>
<path d="M373.733 282.394C374.389 281.148 375.02 279.901 375.652 278.646C376.92 276.104 378.183 273.557 379.44 271.004C381.934 265.937 384.297 260.804 386.572 255.623C387.876 252.693 389.292 249.795 390.466 246.808C390.48 246.778 390.481 246.743 390.47 246.712C390.459 246.681 390.435 246.656 390.405 246.642C390.375 246.628 390.341 246.626 390.31 246.638C390.279 246.649 390.253 246.672 390.239 246.702C388.839 249.172 387.625 251.754 386.329 254.288C385.034 256.822 383.715 259.331 382.468 261.889C379.985 266.957 377.578 272.065 375.247 277.213C374.591 278.654 373.879 280.079 373.288 281.552C372.98 282.305 372.624 283.034 372.325 283.795C372.025 284.556 371.798 285.333 371.515 286.086C371.511 286.094 371.509 286.102 371.509 286.111C371.508 286.12 371.51 286.129 371.513 286.137C371.516 286.145 371.52 286.153 371.526 286.159C371.532 286.166 371.539 286.171 371.547 286.175C371.555 286.179 371.564 286.181 371.573 286.181C371.582 286.181 371.59 286.18 371.599 286.177C371.607 286.174 371.615 286.169 371.621 286.164C371.628 286.158 371.633 286.15 371.637 286.142C372.292 284.888 373.061 283.673 373.733 282.394Z" fill="#263238"/>
<path d="M382.905 286.62L381.553 289.68L381.513 289.777H381.383C375.012 288.595 368.682 287.179 362.392 285.6C356.102 284.021 349.86 282.232 343.684 280.241C337.485 278.282 331.406 275.963 325.477 273.295C322.503 271.957 319.629 270.404 316.88 268.649C315.509 267.754 314.212 266.75 313.003 265.645C311.756 264.576 310.801 263.209 310.226 261.67C310.942 263.115 311.987 264.371 313.278 265.338C314.556 266.319 315.912 267.194 317.334 267.952C320.145 269.515 323.049 270.908 326.028 272.121C331.978 274.59 338.09 276.695 344.234 278.67C350.378 280.646 356.579 282.483 362.797 284.248C369.014 286.013 375.255 287.761 381.505 289.437L381.343 289.518L382.905 286.62Z" fill="#263238"/>
<path d="M399.946 247.609L400.617 245.869L400.69 245.99C393.939 245.545 387.196 245.002 380.452 244.298C373.709 243.594 367.006 242.825 360.303 241.821C358.627 241.562 356.952 241.287 355.276 240.963C354.467 240.793 353.6 240.631 352.734 240.388C352.516 240.323 352.305 240.259 352.07 240.169C351.936 240.126 351.805 240.069 351.682 239.999C351.587 239.949 351.498 239.889 351.415 239.821C351.327 239.748 351.253 239.661 351.196 239.562C351.163 239.499 351.133 239.434 351.107 239.368C351.102 239.336 351.102 239.303 351.107 239.271C351.075 238.963 351.091 238.651 351.156 238.348C351.196 238.129 351.237 237.895 351.293 237.692C352.151 234.333 353.236 231.159 354.337 227.978C356.539 221.575 358.935 215.252 361.461 208.97C359.51 215.447 357.51 221.923 355.519 228.399C354.564 231.637 353.511 234.875 352.775 238.113C352.726 238.316 352.702 238.502 352.661 238.696C352.621 238.89 352.661 239.117 352.621 239.036C352.612 238.993 352.595 238.952 352.572 238.915C352.572 238.834 352.427 238.753 352.459 238.769C352.418 238.769 352.491 238.785 352.459 238.769L352.661 238.85L353.196 239.02C354.005 239.23 354.815 239.384 355.624 239.546C357.243 239.846 358.935 240.105 360.595 240.356C363.93 240.858 367.271 241.33 370.617 241.772L380.663 243.124C387.357 244.015 394.052 244.97 400.747 245.95H400.868L400.82 246.055L399.946 247.609Z" fill="#263238"/>
<path d="M362.181 213.115C361.706 214.257 361.106 215.343 360.392 216.353C359.721 217.387 358.903 218.317 357.964 219.114C358.579 218.037 359.235 217.017 359.931 216.005C360.607 214.986 361.359 214.02 362.181 213.115Z" fill="#263238"/>
<path d="M381.796 198.163C376.081 199.782 365.784 191.42 361.558 184.45C361.266 183.972 362.416 164.285 362.238 160.358C362.238 159.549 387.123 165.216 387.123 165.216C387.123 165.216 385.075 173.554 385.431 180.394C385.455 180.977 387.309 196.593 381.796 198.163Z" fill="#AD6359"/>
<path d="M361.857 172.688C373.506 180.912 384.856 177.755 385.333 177.61C385.525 173.437 386.102 169.29 387.058 165.224C387.058 165.224 362.124 159.557 362.165 160.367C362.311 162.204 362.108 167.515 361.857 172.688Z" fill="#263238"/>
<path d="M387.001 149.001C387.641 154.813 392.296 159.071 397.387 158.505C402.479 157.938 406.098 152.781 405.483 146.977C404.867 141.173 400.196 136.907 395.096 137.473C389.996 138.04 386.362 143.197 387.001 149.001Z" fill="#455A64"/>
<path d="M384.054 149.697C384.767 156.173 389.94 160.893 395.606 160.269C401.273 159.646 405.32 153.906 404.584 147.438C403.847 140.97 398.707 136.243 393.032 136.866C387.357 137.489 383.342 143.237 384.054 149.697Z" fill="#C7C7C7"/>
<path d="M358.789 130.779C356.069 139.505 360.53 164.779 366.706 170.445C375.668 178.662 390.417 179.528 397.412 168.745C404.195 158.286 397.8 125.46 390.887 120.303C380.711 112.694 362.804 117.899 358.789 130.779Z" fill="#AD6359"/>
<path d="M379.788 146.645C379.788 146.588 379.675 146.75 379.691 146.823C380.064 148.507 380.217 150.507 378.793 151.365C378.744 151.365 378.793 151.478 378.793 151.454C380.646 150.83 380.42 148.183 379.788 146.645Z" fill="#263238"/>
<path d="M377.934 145.164C375.166 145.48 376 151.001 378.566 150.709C381.132 150.418 380.258 144.905 377.934 145.164Z" fill="#263238"/>
<path d="M389.616 145.318C389.616 145.253 389.762 145.382 389.77 145.455C389.972 147.171 390.498 149.098 392.125 149.438C392.174 149.438 392.19 149.535 392.125 149.535C390.191 149.551 389.535 146.977 389.616 145.318Z" fill="#263238"/>
<path d="M390.871 143.286C393.591 142.662 394.635 148.143 392.117 148.726C389.6 149.309 388.572 143.828 390.871 143.286Z" fill="#263238"/>
<path d="M375.376 142.97C376.071 142.65 376.747 142.29 377.4 141.893C378.165 141.614 378.816 141.09 379.254 140.404C379.349 140.161 379.361 139.893 379.287 139.643C379.214 139.392 379.06 139.173 378.849 139.02C378.389 138.778 377.872 138.664 377.352 138.69C376.832 138.715 376.329 138.879 375.895 139.165C374.919 139.605 374.142 140.393 373.717 141.375C373.632 141.604 373.616 141.853 373.67 142.092C373.725 142.33 373.847 142.547 374.024 142.717C374.2 142.886 374.422 143 374.662 143.045C374.903 143.09 375.151 143.064 375.376 142.97Z" fill="#263238"/>
<path d="M392.619 140.201C391.855 140.164 391.093 140.085 390.336 139.967C389.524 139.997 388.724 139.758 388.062 139.287C387.88 139.098 387.766 138.853 387.738 138.593C387.71 138.332 387.77 138.069 387.908 137.846C388.247 137.45 388.684 137.151 389.176 136.979C389.668 136.807 390.197 136.768 390.709 136.866C391.777 136.911 392.79 137.352 393.55 138.105C393.713 138.285 393.82 138.508 393.859 138.748C393.897 138.988 393.865 139.234 393.767 139.456C393.668 139.678 393.507 139.866 393.303 139.999C393.1 140.131 392.862 140.202 392.619 140.201Z" fill="#263238"/>
<path d="M380.727 162.666C381.197 163.006 381.691 163.475 382.346 163.475C382.98 163.368 383.585 163.128 384.119 162.771C384.129 162.759 384.143 162.752 384.158 162.75C384.173 162.749 384.188 162.753 384.2 162.763C384.212 162.772 384.22 162.786 384.221 162.802C384.223 162.817 384.218 162.832 384.208 162.844C384.016 163.218 383.726 163.533 383.367 163.754C383.009 163.976 382.597 164.095 382.176 164.098C381.815 164.062 381.472 163.918 381.193 163.686C380.913 163.454 380.709 163.144 380.606 162.795C380.533 162.714 380.655 162.617 380.727 162.666Z" fill="#263238"/>
<path d="M381.747 157.283C382.284 157.892 382.94 158.385 383.676 158.729C384.411 159.073 385.21 159.261 386.022 159.282C386.733 159.31 387.444 159.236 388.134 159.063C388.268 159.039 388.398 159.001 388.523 158.95C388.646 158.919 388.768 158.881 388.887 158.837C388.976 158.807 389.053 158.749 389.105 158.671C389.158 158.594 389.184 158.501 389.179 158.408C389.174 158.349 389.16 158.292 389.138 158.238V158.092C388.968 156.773 388.539 154.789 388.539 154.789C389.057 154.959 391.68 155.688 391.534 155.008C390.336 149.341 389.001 143.092 386.613 137.741C386.596 137.705 386.568 137.677 386.533 137.661C386.498 137.645 386.458 137.642 386.42 137.653C386.383 137.663 386.351 137.687 386.33 137.72C386.309 137.752 386.3 137.791 386.305 137.83C387.244 143.294 389.138 148.556 390.174 154.02C389.241 153.746 388.273 153.607 387.301 153.607C387.123 153.688 388.199 157.42 388.224 158.019C388.229 158.04 388.229 158.063 388.224 158.084C386.054 158.699 384.289 158.286 381.917 157.129C381.739 157.048 381.626 157.161 381.747 157.283Z" fill="#263238"/>
<path d="M387.252 158.513C386.676 159.561 385.84 160.442 384.823 161.071C384.256 161.394 383.603 161.535 382.953 161.476C381.537 161.322 381.334 160.075 381.399 158.966C381.453 158.377 381.575 157.795 381.763 157.234C383.41 158.233 385.333 158.682 387.252 158.513Z" fill="#263238"/>
<path d="M384.815 161.095C384.248 161.418 383.595 161.559 382.945 161.5C381.529 161.346 381.326 160.099 381.391 158.99C382.905 158.893 384.475 159.67 384.815 161.095Z" fill="#FF99BA"/>
<path opacity="0.2" d="M362.934 139.756C361.938 142.266 359.89 148.159 358.724 148.572C357.615 140.379 357.575 132.948 359.607 128.382C360.447 126.497 361.627 124.781 363.088 123.323C363.258 125.517 363.994 137.133 362.934 139.756Z" fill="#263238"/>
<path d="M384.832 128.042C384.139 129.244 383.148 130.247 381.956 130.956C380.764 131.665 379.41 132.055 378.023 132.09C376.612 132.127 375.215 131.803 373.964 131.148C372.713 130.494 371.65 129.531 370.875 128.35C370.871 128.343 370.865 128.336 370.859 128.331C370.852 128.326 370.844 128.322 370.836 128.319C370.828 128.317 370.819 128.317 370.81 128.318C370.802 128.319 370.794 128.322 370.786 128.326C370.779 128.33 370.772 128.336 370.767 128.342C370.762 128.349 370.758 128.357 370.756 128.365C370.753 128.374 370.753 128.382 370.754 128.391C370.755 128.399 370.758 128.407 370.762 128.415C371.466 129.732 372.517 130.832 373.801 131.596C375.085 132.359 376.554 132.757 378.048 132.746C379.511 132.663 380.927 132.197 382.153 131.394C383.38 130.591 384.373 129.48 385.034 128.172C385.051 128.145 385.057 128.113 385.05 128.081C385.043 128.05 385.024 128.023 384.997 128.006C384.971 127.989 384.938 127.983 384.907 127.99C384.876 127.997 384.849 128.016 384.832 128.042Z" fill="#263238"/>
<path d="M401.718 115.017C400.552 112.866 398.662 111.197 396.384 110.306C393.226 109.059 390.061 109.893 386.928 110.791C386.911 110.791 386.895 110.798 386.882 110.81C386.87 110.823 386.864 110.839 386.864 110.856C386.864 110.873 386.87 110.89 386.882 110.902C386.895 110.914 386.911 110.921 386.928 110.921C389.592 110.168 392.344 109.561 395.064 110.387C397.315 111.06 399.265 112.49 400.585 114.434C401.872 116.448 402.391 118.857 402.048 121.222C401.705 123.587 400.521 125.749 398.715 127.314C397.65 128.187 396.418 128.834 395.094 129.214C393.77 129.594 392.382 129.7 391.016 129.524C390.911 129.524 390.863 129.669 390.976 129.686C392.835 130.001 394.746 129.792 396.493 129.081C398.241 128.371 399.755 127.187 400.867 125.664C401.978 124.14 402.643 122.336 402.786 120.456C402.93 118.575 402.546 116.692 401.678 115.017H401.718Z" fill="#263238"/>
<path d="M358.053 135.822C358.053 135.822 352.2 128.301 355.033 122.87C356.652 119.785 363.622 118.935 363.622 118.935C363.622 118.935 365.241 115.365 370.754 113.05C376.267 110.735 383.707 112.095 383.707 112.095C383.707 112.095 388.653 107.982 394.319 110.022C402.22 112.872 403.224 123.971 396.618 128.747C391.972 132.106 384.298 128.82 384.298 128.82C383.65 129.022 377.578 134.3 371.394 129.143C371.394 129.143 367.872 133.58 363.671 131.637C363.273 132.824 362.522 133.862 361.518 134.61C360.513 135.358 359.304 135.781 358.053 135.822Z" fill="#263238"/>
<path d="M364.059 151.381C364.059 151.381 358.239 143.286 354.563 145.382C350.888 147.479 355.373 159.241 359.712 160.763C360.257 161.003 360.845 161.13 361.44 161.137C362.035 161.144 362.625 161.031 363.176 160.804C363.726 160.577 364.225 160.242 364.643 159.817C365.06 159.393 365.388 158.889 365.605 158.335L364.059 151.381Z" fill="#AD6359"/>
<path d="M355.924 148.734C355.851 148.734 355.843 148.823 355.924 148.847C358.992 150.045 360.635 152.846 361.801 155.761C360.878 154.643 359.639 154.044 358.142 155.145C358.061 155.202 358.142 155.323 358.223 155.307C358.756 155.137 359.329 155.135 359.863 155.302C360.397 155.468 360.868 155.795 361.21 156.238C361.786 156.992 362.277 157.806 362.675 158.667C362.821 158.934 363.307 158.78 363.201 158.472V158.4C363.201 154.465 360.101 149.066 355.924 148.734Z" fill="#263238"/>
<path d="M359.21 145.714C359.21 145.714 356.061 133.166 358.514 125.476C361.242 116.927 371.531 108.557 383.69 112.111C383.69 112.111 370.195 113.851 363.638 125.128C360.627 130.309 363.517 145.269 363.517 145.269L359.21 145.714Z" fill="#C7C7C7"/>
<path d="M372.276 149.94C373.506 156.416 369.92 162.52 364.254 163.605C358.587 164.69 352.985 160.367 351.746 153.891C350.508 147.414 354.102 141.311 359.769 140.226C365.435 139.141 371.037 143.48 372.276 149.94Z" fill="#C7C7C7"/>
<path d="M369.216 150.15C370.325 155.955 367.095 161.484 362.003 162.431C356.911 163.378 351.876 159.476 350.767 153.68C349.658 147.884 352.88 142.347 357.972 141.399C363.063 140.452 368.099 144.338 369.216 150.15Z" fill="#455A64"/>
<path d="M48.0049 292.732H147.301L127.5 177.561H53.2506L48.0049 292.732Z" fill="#DBDBDB"/>
<path d="M48.0049 292.732H56.7073L61.5968 177.561H53.2506L48.0049 292.732Z" fill="#A6A6A6"/>
<path d="M106.857 127.33C97.6367 136.502 94.9896 151.616 94.9896 151.616C94.9896 151.616 86.1496 166.826 88.6186 175.092C89.2717 177.435 90.4835 179.585 92.1501 181.358C93.8167 183.13 95.8883 184.472 98.1872 185.267L97.3129 180.702C97.3129 180.702 100.276 186.571 110.176 188.935C120.077 191.298 133.175 188.255 139.991 184.806C144.031 182.784 147.478 179.749 149.997 175.998L147.447 182.636C147.447 182.636 157.056 182.296 162.763 172.072C168.47 161.848 152.077 147.155 150.685 143.99C149.292 140.825 147.528 117.761 123.266 121.736C123.299 121.679 113.236 121.016 106.857 127.33Z" fill="#263238"/>
<path d="M94.7143 184.612C92.1886 182.726 89.6952 180.564 88.3029 177.893C86.7846 175.124 86.2455 171.924 86.7729 168.81C87.4448 165.078 89.4119 161.783 91.3224 158.57C93.2329 155.356 95.5319 152.093 97.4505 148.718C97.5557 148.531 97.2724 148.378 97.1429 148.523C94.9872 151.055 92.9764 153.706 91.12 156.465C89.2208 158.987 87.6233 161.723 86.36 164.617C85.1792 167.281 84.7914 170.229 85.2429 173.109C85.7204 175.449 86.7594 177.638 88.2705 179.488C90.0595 181.714 92.3181 183.139 94.5848 184.814C94.7143 184.92 94.8519 184.717 94.7143 184.612Z" fill="#263238"/>
<path d="M164.843 161.5C161.929 153.008 154.319 147.617 149.649 140.209C147.139 136.202 145.188 131.766 141.918 128.285C141.829 128.188 141.667 128.342 141.748 128.439C144.435 131.572 145.989 135.344 147.932 138.963C150.002 142.524 152.421 145.87 155.153 148.952C159.962 154.716 165.718 161.54 164.617 169.611C164.107 173.335 161.905 177.464 158.084 178.621C157.938 178.67 158.027 178.913 158.173 178.848C159.68 178.243 161.048 177.337 162.193 176.186C163.339 175.035 164.237 173.663 164.835 172.153C166.123 168.719 166.126 164.936 164.843 161.5Z" fill="#263238"/>
<path d="M165.191 163.783C165.454 160.567 164.713 157.348 163.07 154.57C161.395 151.834 158.764 149.859 156.133 148.094C153.097 146.078 149.899 144.16 147.973 140.962C147.892 140.825 147.698 140.962 147.77 141.1C150.83 146.378 156.675 148.839 160.585 153.283C165.078 158.359 165.086 165.75 161.994 171.554C160.028 175.092 157.255 178.116 153.899 180.378C153.842 180.378 153.899 180.499 153.963 180.459C159.687 176.703 164.73 170.923 165.191 163.783Z" fill="#263238"/>
<path d="M128.504 202.47C153.073 215.957 182.483 232.884 200.503 228.901C208.493 227.136 244.371 180.103 245.893 174.663C247.196 169.992 214.71 151.187 211.083 154.87C204.963 161.047 188.417 195.824 185.988 196.407C183.559 196.989 162.933 192.804 141.464 188.927C120.805 185.219 111.447 193.112 128.504 202.47Z" fill="#EB9481"/>
<path d="M242.404 180.524C245.205 176.994 256.635 159.687 258.732 154.158C260.828 148.629 265.734 132.3 261.67 130.244C257.607 128.188 255.809 132.843 255.809 132.843C255.809 132.843 256.789 125.614 252.507 123.938C248.224 122.262 245.634 129.605 245.634 129.605C245.634 129.605 246.095 122.109 241.699 120.7C237.304 119.291 235.944 127.176 235.944 127.176C235.944 127.176 236.689 120.344 232.592 120.7C227.67 121.178 227.735 133.936 224.95 139.861C224.319 141.205 210.209 166.236 210.209 166.236L242.404 180.524Z" fill="#EB9481"/>
<path d="M236.041 126.537C236.041 135.919 234.422 140.031 229.565 147.851C229.468 147.997 229.67 148.175 229.792 148.03C235.296 140.809 238.065 135.951 236.527 126.512C236.422 126.051 236.041 126.091 236.041 126.537Z" fill="#263238"/>
<path d="M245.585 128.868C244.776 138.583 243.044 143.083 238.502 151.656C238.437 151.778 238.64 151.899 238.713 151.778C243.869 143.747 246.524 138.825 246.071 128.99C246.095 128.544 245.626 128.423 245.585 128.868Z" fill="#263238"/>
<path d="M255.534 133.272C254.053 142.646 252.385 147.633 246.913 155.388C246.898 155.406 246.888 155.426 246.881 155.447C246.875 155.469 246.872 155.492 246.875 155.514C246.877 155.537 246.884 155.559 246.894 155.579C246.905 155.599 246.92 155.617 246.937 155.631C246.955 155.645 246.975 155.656 246.997 155.663C247.018 155.669 247.041 155.671 247.064 155.669C247.086 155.667 247.108 155.66 247.128 155.649C247.148 155.639 247.166 155.624 247.18 155.607C253.535 148.24 255.664 142.039 255.818 133.345C255.809 132.762 255.631 132.681 255.534 133.272Z" fill="#263238"/>
<path d="M203.255 169.069C203.255 169.069 202.567 157.339 203.409 152.118C204.251 146.896 214.524 128.585 218.572 130.576C223.842 133.159 219.988 144.897 217.349 150.401C217.349 150.401 229.541 156.343 228.602 165.37C227.663 174.396 203.255 169.069 203.255 169.069Z" fill="#EB9481"/>
<path d="M219.818 131.758C222.927 137.579 219.008 144.581 216.839 150.11C216.804 150.19 216.788 150.277 216.794 150.364C216.799 150.452 216.826 150.536 216.871 150.611C216.916 150.686 216.979 150.748 217.054 150.794C217.129 150.839 217.213 150.865 217.3 150.871C222.247 153.704 228.399 159.144 228.925 165.135C228.925 165.171 228.94 165.206 228.965 165.232C228.991 165.258 229.026 165.272 229.063 165.272C229.099 165.272 229.134 165.258 229.16 165.232C229.186 165.206 229.2 165.171 229.2 165.135C229.508 158.659 223.898 152.798 218.288 150.037C220.587 144.37 224.222 137.206 219.907 131.726C219.85 131.701 219.802 131.726 219.818 131.758Z" fill="#263238"/>
<path d="M180.143 194.488L150.571 219.276C150.571 219.276 132.519 209.885 119.186 199.094C105.853 188.303 120.619 183.058 143.512 186.903C166.406 190.748 180.143 194.488 180.143 194.488Z" fill="#FFC727"/>
<path d="M145.115 199.467C144.277 198.323 143.307 197.282 142.225 196.366C143.423 198.94 145.153 201.23 147.301 203.085C146.721 201.796 145.987 200.581 145.115 199.467ZM119.211 199.111L119.567 199.386C119.801 199.135 120.036 198.868 120.255 198.576C119.882 198.746 119.534 198.924 119.194 199.143L119.211 199.111ZM168.713 199.273C167.314 199.067 165.896 199.024 164.487 199.143C165.809 199.642 167.183 199.987 168.583 200.171C169.982 200.383 171.4 200.429 172.809 200.309C171.483 199.805 170.103 199.458 168.697 199.273H168.713ZM158.812 189.688C158.794 190.228 158.813 190.769 158.869 191.307C159.067 190.821 159.234 190.324 159.371 189.817L158.812 189.688Z" fill="white"/>
<path d="M143.95 213.982C149.964 208.202 156.392 202.834 162.909 197.605C164.754 196.132 166.632 194.691 168.575 193.306C168.632 193.266 168.705 193.306 168.648 193.379C165.588 196.204 162.407 198.9 159.242 201.612C156.076 204.324 152.871 207.036 149.624 209.667C147.787 211.156 145.957 212.646 144.095 214.095C143.982 214.152 143.877 214.054 143.95 213.982Z" fill="#263238"/>
<path d="M163.135 208.744L150.563 219.268C150.563 219.268 132.511 209.885 119.178 199.094C114.442 195.265 113.252 192.14 114.701 189.866L163.135 208.744Z" fill="#263238"/>
<path d="M157.048 292.635H62.811C62.811 292.635 83.2839 213.568 102.235 191.307C102.656 190.797 103.093 190.311 103.53 189.858C103.619 189.752 103.7 189.679 103.789 189.59C105.256 188.023 106.964 186.7 108.849 185.672C109.181 185.494 109.512 185.324 109.861 185.178C117.146 181.819 124.869 184.604 130.431 189.364C132.195 190.869 152.174 216.888 153.907 226.772C155.437 235.523 149.527 244.921 149.527 244.921L157.048 292.635Z" fill="#FFC727"/>
<path d="M135.409 241.538C131.397 241.929 127.419 242.619 123.509 243.602C121.566 244.12 119.672 244.719 117.77 245.359C116.822 245.683 115.875 245.974 114.92 246.257C113.925 246.581 112.895 246.782 111.852 246.856C111.833 246.856 111.814 246.864 111.8 246.878C111.787 246.891 111.779 246.91 111.779 246.929C111.779 246.948 111.787 246.967 111.8 246.981C111.814 246.994 111.833 247.002 111.852 247.002C112.84 247.044 113.83 247.017 114.815 246.921C115.763 246.802 116.701 246.619 117.624 246.371C119.599 245.861 121.542 245.27 123.509 244.752C127.476 243.699 131.434 242.647 135.466 241.878C135.511 241.87 135.551 241.845 135.578 241.808C135.604 241.771 135.615 241.725 135.607 241.679C135.6 241.634 135.575 241.594 135.538 241.568C135.5 241.541 135.454 241.53 135.409 241.538Z" fill="#263238"/>
<path d="M145.366 245.01C142.054 244.692 138.727 244.56 135.401 244.614C133.782 244.654 132.09 244.784 130.43 244.954C129.621 245.043 128.811 245.14 128.067 245.245C127.322 245.35 126.35 245.593 125.484 245.699C125.395 245.699 125.395 245.852 125.484 245.844C126.294 245.771 127.144 245.844 127.97 245.804L130.455 245.715C132.074 245.666 133.766 245.626 135.425 245.553C138.744 245.415 142.055 245.31 145.374 245.278C145.552 245.286 145.536 245.027 145.366 245.01Z" fill="#263238"/>
<path d="M93.2814 209.893C92.8362 209.327 92.3829 208.768 91.8891 208.274L91.541 209.003C91.8648 209.505 92.2129 209.999 92.5691 210.476C93.4077 211.612 94.3778 212.645 95.4591 213.552C94.8682 212.257 94.138 211.03 93.2814 209.893ZM104.218 189.153C104.053 190.418 104.026 191.696 104.137 192.966C104.64 191.639 104.98 190.255 105.149 188.846C105.149 188.635 105.206 188.417 105.23 188.206C104.89 188.506 104.55 188.822 104.218 189.153ZM132.819 215.495C132.314 216.821 131.967 218.201 131.782 219.608C131.578 221.009 131.532 222.43 131.645 223.842C132.153 222.518 132.496 221.137 132.665 219.729C132.887 218.329 132.939 216.908 132.819 215.495ZM114.807 261.088C114.308 262.409 113.965 263.783 113.787 265.184C113.581 266.586 113.538 268.006 113.657 269.418C114.619 266.752 115.011 263.914 114.807 261.088ZM84.1905 226.667C83.6962 227.997 83.354 229.38 83.1705 230.787C82.9644 232.186 82.921 233.604 83.041 235.013C83.5364 233.686 83.876 232.306 84.0529 230.901C84.265 229.5 84.3112 228.079 84.1905 226.667ZM109.529 220.887C108.13 220.681 106.712 220.638 105.303 220.757C106.624 221.256 107.999 221.601 109.399 221.785C110.797 221.997 112.216 222.044 113.625 221.923C112.308 221.41 110.936 221.052 109.537 220.854L109.529 220.887ZM143.431 259.744C142.03 259.538 140.609 259.495 139.198 259.614C141.863 260.577 144.701 260.968 147.528 260.764C146.209 260.264 144.837 259.916 143.44 259.728L143.431 259.744ZM80.1429 256.012C78.768 255.813 77.3755 255.764 75.99 255.866H75.9091H75.9819C77.2896 256.349 78.6473 256.683 80.0295 256.862C81.4284 257.067 82.8464 257.111 84.2552 256.992C82.9269 256.507 81.5469 256.178 80.1429 256.012ZM115.697 289.437C114.298 289.232 112.88 289.188 111.471 289.308C114.139 290.272 116.981 290.661 119.81 290.449C118.471 289.955 117.08 289.616 115.665 289.437H115.697ZM77.4552 285.341C76.0536 285.136 74.633 285.092 73.2214 285.212C74.5437 285.704 75.9181 286.044 77.3176 286.223C78.7182 286.441 80.1402 286.484 81.5514 286.353C80.2187 285.858 78.8334 285.518 77.4229 285.341H77.4552ZM116.62 200.762C115.48 201.61 114.439 202.585 113.52 203.668C114.811 203.08 116.033 202.35 117.162 201.491C118.301 200.646 119.333 199.667 120.239 198.576C118.956 199.17 117.742 199.903 116.62 200.762ZM126.707 244.096C125.569 244.932 124.536 245.903 123.63 246.986C124.918 246.402 126.133 245.668 127.249 244.8C128.389 243.966 129.422 242.995 130.325 241.91C129.038 242.502 127.824 243.241 126.707 244.112V244.096ZM91.3386 270.583C90.1944 271.418 89.1584 272.391 88.2543 273.482C89.5372 272.888 90.7508 272.155 91.8729 271.296C93.0109 270.451 94.0508 269.482 94.9733 268.406C93.6737 268.98 92.4524 269.717 91.3386 270.6V270.583ZM150.078 232.479C149.24 231.335 148.27 230.295 147.188 229.379C148.385 231.952 150.115 234.242 152.263 236.098C151.682 234.814 150.948 233.604 150.078 232.495V232.479ZM138.024 281.512C137.179 280.374 136.21 279.334 135.134 278.412C135.701 279.711 136.433 280.933 137.311 282.046C138.148 283.186 139.118 284.222 140.201 285.131C139.611 283.848 138.881 282.634 138.024 281.512ZM102.534 242.946C101.694 241.805 100.724 240.764 99.6443 239.846C100.218 241.144 100.953 242.365 101.83 243.481C102.664 244.623 103.635 245.658 104.72 246.565C104.13 245.28 103.397 244.066 102.534 242.946Z" fill="white"/>
<path d="M100.308 191.922C82.1829 206.534 35.7648 264.439 46.232 277.82C56.6991 291.202 126.27 285.106 146.467 278.776C152.474 276.897 136.089 238.777 129.597 237.02C124.189 235.555 94.2043 244.419 93.6215 242.687C92.9658 240.728 101.029 229.888 111.277 206.404C123.096 179.317 108.314 185.47 100.308 191.922Z" fill="#EB9481"/>
<path d="M162.342 233.839C176.193 235.458 179.504 237.976 191.914 233.119C200.058 229.937 205.587 233.766 199.629 240.639C189.914 251.883 171.587 253.592 165.07 252.329L162.342 233.839Z" fill="#EB9481"/>
<path d="M123.493 237.506C123.493 237.506 140.679 233.062 155.607 233.305C165.936 233.475 188.36 236.349 203.579 263.152C207.19 269.507 207.829 281.131 198.155 272.866C191.291 267.013 188.708 261.225 184.094 258.546C184.094 258.546 183.147 273.417 176.638 276.792C170.946 279.736 165.051 282.27 158.999 284.378C158.357 283.359 157.784 282.299 157.282 281.204C157.282 281.204 150.903 283.779 141.092 280.209L123.493 237.506Z" fill="#EB9481"/>
<path d="M165.443 235.045C169.49 238.672 177.844 246.492 182.443 255.284C187.591 265.046 194.877 285.236 187.632 288.968C182.321 291.704 178.856 284.232 178.856 284.232C178.856 284.232 180.111 293.218 174.809 294.634C169.952 295.93 167.612 289.988 167.612 289.988C167.612 289.988 167.434 295.565 162.512 295.914C156.586 296.318 157.93 284.58 151.567 279.796C150.134 278.719 165.443 235.045 165.443 235.045Z" fill="#EB9481"/>
<path d="M171.255 259.047C174.493 263.095 179.439 274.105 179.018 284.086C179.018 284.313 178.832 284.426 178.8 284.216C177.281 275.572 174.718 267.145 171.166 259.12C171.156 259.109 171.152 259.093 171.153 259.078C171.155 259.063 171.162 259.049 171.174 259.039C171.186 259.03 171.201 259.025 171.216 259.027C171.231 259.028 171.245 259.036 171.255 259.047Z" fill="#263238"/>
<path d="M161.549 264.488C163.977 268.252 168.583 279.869 167.806 289.947C167.806 290.174 167.604 290.271 167.58 290.061C166.51 281.345 164.454 272.78 161.451 264.528C161.451 264.517 161.454 264.506 161.461 264.496C161.467 264.487 161.476 264.479 161.486 264.475C161.497 264.471 161.508 264.47 161.519 264.472C161.53 264.474 161.541 264.48 161.549 264.488Z" fill="#263238"/>
<path d="M184.118 258.481C188.166 260.91 190.424 263.767 193.436 267.272C194.908 269.028 196.475 270.701 198.131 272.283C199.653 273.7 201.895 275.829 204.178 274.817C205.449 274.251 205.797 272.729 205.903 271.466C206.002 270.046 205.795 268.621 205.295 267.289C205.295 267.224 205.393 267.175 205.417 267.248C205.914 268.424 206.241 269.664 206.388 270.931C206.58 272.123 206.408 273.345 205.894 274.437C204.632 276.671 201.717 276.25 199.888 275.076C198.806 274.327 197.8 273.473 196.884 272.526C195.986 271.644 195.128 270.721 194.294 269.782C192.586 267.839 190.991 265.807 189.307 263.856C187.657 261.996 185.889 260.243 184.013 258.611C183.94 258.546 184.037 258.432 184.118 258.481Z" fill="#263238"/>
<path d="M189.267 276.177C188.789 273.4 185.357 261.468 183.997 258.562C183.988 258.547 183.986 258.529 183.99 258.512C183.995 258.495 184.006 258.481 184.021 258.473C184.036 258.464 184.054 258.462 184.071 258.466C184.087 258.471 184.101 258.482 184.11 258.497C186.676 262.601 189.914 272.567 190.481 275.635C191.048 278.703 191.59 282.499 190.805 285.519C189.623 290.068 186.385 290.149 185.211 290.085C183.824 289.983 182.514 289.412 181.495 288.466C180.335 287.256 179.432 285.824 178.84 284.256C178.84 284.183 178.913 284.118 178.953 284.191C180.071 286.393 182.232 288.846 184.79 289.162C185.357 289.25 185.935 289.223 186.491 289.084C187.047 288.945 187.57 288.696 188.028 288.352C188.989 287.432 189.584 286.196 189.704 284.871C190.057 281.97 189.909 279.029 189.267 276.177Z" fill="#263238"/>
<path d="M167.806 289.947C168.3 290.651 169.118 292.878 171.085 293.817C171.769 294.207 172.538 294.424 173.324 294.451C174.111 294.478 174.893 294.313 175.602 293.971C176.954 293.131 177.927 291.799 178.314 290.255C178.641 288.28 178.817 286.282 178.84 284.281C178.84 284.183 178.962 284.175 178.97 284.281C179.222 286.452 179.145 288.649 178.743 290.797C178.553 291.639 178.196 292.434 177.694 293.136C177.193 293.838 176.556 294.433 175.821 294.885C175.042 295.31 174.161 295.512 173.276 295.468C172.39 295.423 171.534 295.135 170.802 294.634C170.065 294.124 167.928 291.817 167.563 290.004C167.572 289.947 167.782 289.915 167.806 289.947Z" fill="#263238"/>
<path d="M152.191 279.083C152.776 279.732 153.284 280.447 153.704 281.212C154.182 282.022 154.635 282.791 155.064 283.601C155.917 285.237 156.598 286.957 157.096 288.733C157.614 290.514 158.019 292.457 159.242 293.922C159.814 294.646 160.599 295.172 161.487 295.425C162.375 295.678 163.32 295.645 164.188 295.331C165.107 294.966 165.87 294.293 166.349 293.428C166.904 292.495 167.275 291.465 167.442 290.392C167.438 290.383 167.437 290.372 167.439 290.362C167.44 290.351 167.444 290.342 167.45 290.333C167.456 290.324 167.464 290.317 167.473 290.313C167.482 290.308 167.492 290.305 167.503 290.305C167.513 290.305 167.524 290.308 167.533 290.313C167.542 290.317 167.55 290.324 167.556 290.333C167.562 290.342 167.566 290.351 167.567 290.362C167.568 290.372 167.567 290.383 167.564 290.392C167.494 291.365 167.326 292.328 167.062 293.266C166.756 294.109 166.234 294.858 165.548 295.436C164.829 295.985 163.973 296.325 163.073 296.42C162.173 296.514 161.265 296.358 160.448 295.97C158.634 295.161 157.614 293.331 156.983 291.518C156.279 289.502 155.809 287.422 155.008 285.43C154.595 284.378 154.198 283.325 153.696 282.313C153.194 281.302 152.498 280.249 152.077 279.164C152.029 279.1 152.126 279.011 152.191 279.083Z" fill="#263238"/>
<path d="M145.868 281.593C148.427 281.963 151.016 282.09 153.599 281.973C153.68 281.973 153.729 282.208 153.648 282.224C152.367 282.464 151.064 282.565 149.762 282.524C148.442 282.468 147.137 282.214 145.892 281.771C145.787 281.714 145.787 281.577 145.868 281.593Z" fill="#263238"/>
<path d="M66.381 251.357C70.7084 249.269 75.1804 247.494 79.7624 246.047C84.2965 244.629 88.9287 243.547 93.6215 242.809C96.301 242.363 98.9886 242.048 101.717 241.716C101.798 241.716 101.814 241.829 101.717 241.837C97.0014 242.601 92.3336 243.633 87.7362 244.93C83.1597 246.176 78.6102 247.507 74.0877 248.921C71.5296 249.73 69.0038 250.637 66.47 251.519C66.381 251.584 66.3 251.414 66.381 251.357Z" fill="#263238"/>
<path d="M62.4387 227.08L100.802 231.249C100.802 231.249 110.589 213.439 115.681 197.03C120.773 180.621 106.315 183.811 89.4201 199.718C72.5254 215.625 62.4387 227.08 62.4387 227.08Z" fill="#FFC727"/>
<path d="M62.4387 227.08L100.802 231.249C100.802 231.249 110.589 213.439 115.681 197.03C120.773 180.621 106.315 183.811 89.4201 199.718C72.5254 215.625 62.4387 227.08 62.4387 227.08Z" fill="#FFC727"/>
<path d="M104.283 188.619C104.287 188.659 104.287 188.7 104.283 188.74C104.077 190.142 104.034 191.563 104.153 192.974C104.656 191.647 104.996 190.263 105.165 188.854C105.165 188.611 105.23 188.376 105.254 188.133L104.283 188.619ZM84.1905 226.667C83.8391 227.55 83.5682 228.463 83.381 229.395L84.1905 229.476C84.2794 228.541 84.2794 227.601 84.1905 226.667ZM70.8819 218.029L70.5095 218.418C70.9305 218.418 71.319 218.418 71.7805 218.345C71.4729 218.223 71.1814 218.118 70.8819 218.029ZM105.311 220.725C105.538 220.814 105.772 220.903 106.007 220.976C106.049 220.87 106.098 220.767 106.153 220.668C105.878 220.676 105.594 220.692 105.311 220.725ZM93.2814 209.893C92.4369 208.755 91.4675 207.715 90.3914 206.793C90.9607 208.094 91.6924 209.318 92.569 210.436C93.4077 211.571 94.3778 212.604 95.459 213.512C94.8656 212.231 94.1355 211.018 93.2814 209.893Z" fill="white"/>
<path d="M99.2476 230.892C99.4581 230.892 100.867 230.892 100.867 230.892C101.037 230.399 104.34 222.797 105.149 221.178C106.817 217.851 108.679 214.613 110.492 211.367C110.549 211.261 110.711 211.367 110.654 211.44C109.375 214.273 108.144 217.106 106.841 219.956C107.165 219.575 107.489 219.195 107.804 218.806C108.444 217.997 109.027 217.187 109.634 216.329C109.691 216.256 109.804 216.329 109.763 216.418C109.184 217.589 108.452 218.678 107.586 219.656C107.218 220.086 106.82 220.489 106.396 220.862C106.291 221.097 106.185 221.34 106.072 221.567C105.262 223.186 101.271 231.346 101.126 231.338L99.28 231.111C99.1424 231.143 99.1424 230.884 99.2476 230.892Z" fill="#263238"/>
<path d="M69.6676 220.563C77.9895 221.121 86.2871 222.263 94.5362 223.558C96.8784 223.93 99.2044 224.354 101.514 224.829C101.579 224.829 101.579 224.942 101.514 224.934C97.3695 224.57 93.2329 224.036 89.0962 223.526C84.9595 223.016 80.7905 222.465 76.6538 221.809C74.3224 221.453 71.9829 221.097 69.6595 220.7C69.5624 220.709 69.5624 220.555 69.6676 220.563Z" fill="#263238"/>
<path d="M113.762 186.272C113.908 187.955 120.174 199.661 127.678 200.382C130.107 200.608 131.977 187.324 131.977 187.324L132.333 186.377L137.376 173.084L122.724 160.415L120.595 158.715C120.595 158.715 119.453 162.439 118.085 167.094C118.021 167.312 117.948 167.531 117.883 167.758C117.818 167.984 117.721 168.268 117.648 168.511C117.438 169.207 117.219 169.911 117.025 170.623C116.871 171.166 116.717 171.692 116.571 172.242C116.426 172.793 116.28 173.376 116.118 173.942C115.053 177.994 114.266 182.113 113.762 186.272Z" fill="#EB9481"/>
<path d="M118.085 167.094C118.92 171.149 120.626 174.974 123.087 178.304C125.547 181.633 128.702 184.388 132.333 186.377L137.376 173.084L122.724 160.415L120.595 158.715C120.595 158.715 119.454 162.439 118.085 167.094Z" fill="#263238"/>
<path d="M141.812 152.668C143.1 158.335 148.2 162.067 153.202 160.941C158.205 159.816 161.209 154.271 159.922 148.572C158.634 142.873 153.534 139.165 148.532 140.299C143.529 141.432 140.525 146.961 141.812 152.668Z" fill="#455A64"/>
<path d="M138.955 153.688C140.396 160.027 146.062 164.147 151.632 162.892C157.202 161.638 160.537 155.477 159.104 149.13C157.671 142.784 151.996 138.671 146.435 139.926C140.873 141.181 137.522 147.333 138.955 153.688Z" fill="#C7C7C7"/>
<path d="M155.324 145.577C162.124 169.579 148.515 176.339 143.334 177.828C138.631 179.156 122.457 183.074 113.212 159.897C103.967 136.721 112.977 125.97 123.566 122.368C134.154 118.765 148.524 121.566 155.324 145.577Z" fill="#EB9481"/>
<path d="M146.969 142.557C146.399 142.614 145.826 142.638 145.253 142.63C144.65 142.745 144.027 142.657 143.48 142.379C143.324 142.259 143.213 142.09 143.163 141.9C143.113 141.709 143.128 141.508 143.205 141.327C143.411 140.993 143.703 140.721 144.051 140.539C144.398 140.356 144.788 140.271 145.18 140.29C145.977 140.202 146.779 140.412 147.43 140.881C147.571 140.999 147.675 141.154 147.729 141.329C147.784 141.504 147.787 141.691 147.738 141.867C147.69 142.044 147.591 142.203 147.455 142.325C147.319 142.447 147.15 142.528 146.969 142.557Z" fill="#263238"/>
<path d="M131.143 148.143C131.693 147.973 132.234 147.773 132.762 147.544C133.361 147.412 133.901 147.088 134.3 146.621C134.395 146.449 134.43 146.25 134.401 146.055C134.372 145.861 134.279 145.681 134.138 145.544C133.817 145.318 133.442 145.182 133.05 145.149C132.659 145.117 132.266 145.189 131.912 145.358C131.144 145.589 130.489 146.097 130.074 146.783C129.989 146.945 129.953 147.128 129.969 147.31C129.986 147.492 130.055 147.666 130.168 147.809C130.281 147.953 130.433 148.061 130.606 148.121C130.779 148.18 130.966 148.187 131.143 148.143Z" fill="#263238"/>
<path d="M136 152.377C136 152.312 135.895 152.49 135.919 152.555C136.437 154.174 136.729 156.116 135.434 157.08C135.393 157.08 135.434 157.185 135.474 157.169C137.19 156.4 136.737 153.809 136 152.377Z" fill="#263238"/>
<path d="M134.041 151.081C131.353 151.632 132.649 156.958 135.142 156.448C137.635 155.938 136.291 150.62 134.041 151.081Z" fill="#263238"/>
<path d="M133.062 151.616C132.673 152.037 132.341 152.676 131.799 152.871C131.256 153.065 130.536 152.652 129.985 152.215C129.929 152.174 129.888 152.215 129.904 152.304C130.139 153.324 130.787 154.279 131.92 154.166C133.054 154.052 133.45 152.984 133.45 151.891C133.458 151.689 133.224 151.454 133.062 151.616Z" fill="#263238"/>
<path d="M145.463 149.454C145.463 149.39 145.617 149.503 145.625 149.568C145.965 151.235 146.629 153.089 148.256 153.283C148.305 153.283 148.321 153.372 148.256 153.381C146.378 153.551 145.52 151.082 145.463 149.454Z" fill="#263238"/>
<path d="M146.524 147.382C149.131 146.572 150.571 151.834 148.143 152.603C145.714 153.372 144.346 148.07 146.524 147.382Z" fill="#263238"/>
<path d="M147.738 147.422C148.232 147.584 148.782 147.981 149.292 147.876C149.802 147.77 150.15 147.066 150.369 146.41C150.369 146.346 150.45 146.41 150.466 146.41C150.774 147.414 150.733 148.556 149.81 149.017C148.888 149.478 148.086 148.75 147.568 147.811C147.471 147.681 147.536 147.333 147.738 147.422Z" fill="#263238"/>
<path d="M139.74 165.685C140.21 166.001 140.712 166.495 141.359 166.39C141.978 166.255 142.563 165.993 143.075 165.62C143.085 165.609 143.099 165.601 143.114 165.6C143.129 165.598 143.145 165.603 143.156 165.612C143.168 165.622 143.176 165.636 143.177 165.651C143.179 165.666 143.174 165.682 143.164 165.693C142.989 166.068 142.716 166.388 142.374 166.62C142.032 166.852 141.634 166.988 141.222 167.013C140.86 166.995 140.513 166.869 140.224 166.651C139.935 166.433 139.719 166.133 139.603 165.79C139.546 165.701 139.667 165.645 139.74 165.685Z" fill="#263238"/>
<path d="M145.172 157.46C145.172 157.46 146.135 159.832 146.435 160.99C146.435 161.103 142.452 163.046 139.878 160.666C139.851 160.648 139.832 160.62 139.826 160.588C139.82 160.556 139.827 160.523 139.845 160.496C139.864 160.469 139.892 160.451 139.924 160.445C139.956 160.439 139.989 160.446 140.015 160.464C141.752 161.096 143.646 161.15 145.415 160.618C145.415 160.278 143.618 156.61 143.796 156.57C144.716 156.419 145.653 156.391 146.581 156.489C144.703 151.494 142.047 146.839 140.258 141.829C140.242 141.791 140.241 141.75 140.254 141.712C140.267 141.674 140.294 141.642 140.33 141.623C140.365 141.603 140.407 141.598 140.446 141.608C140.485 141.617 140.519 141.641 140.542 141.675C143.674 146.362 145.957 152.069 148.022 157.177C148.297 157.8 145.714 157.541 145.172 157.46Z" fill="#263238"/>
<path d="M145.407 161.176C144.977 162.251 144.28 163.198 143.383 163.929C142.879 164.307 142.272 164.521 141.643 164.544C140.258 164.544 139.894 163.402 139.845 162.326C139.826 161.756 139.872 161.185 139.983 160.626C141.685 161.385 143.587 161.578 145.407 161.176Z" fill="#263238"/>
<path d="M143.383 163.929C142.879 164.307 142.272 164.521 141.643 164.544C140.258 164.544 139.894 163.402 139.845 162.326C141.262 162.075 142.881 162.625 143.383 163.929Z" fill="#FF99BA"/>
<path d="M114.37 159.096C119.016 159.395 119.551 148.766 119.551 148.766C119.551 148.766 138.979 144.241 139.675 128.148C139.675 128.148 143.666 138.137 154.247 142.12C154.247 142.12 152.49 124.634 138.388 122.076C138.388 122.076 120.757 116.847 111.892 131.127C103.028 145.407 111.253 158.893 114.37 159.096Z" fill="#263238"/>
<path d="M139.675 126.958C140.059 129.413 139.913 131.922 139.246 134.316C138.617 136.749 137.487 139.024 135.927 140.995C135.545 141.49 135.131 141.961 134.689 142.403L134.041 143.092C133.814 143.302 133.572 143.496 133.329 143.699C132.843 144.087 132.373 144.508 131.872 144.873C131.37 145.237 130.819 145.536 130.253 145.86C129.985 146.014 129.726 146.184 129.443 146.33L128.633 146.718L126.942 147.487C125.776 147.892 124.594 148.232 123.42 148.556C124.513 147.997 125.646 147.552 126.723 146.993L128.302 146.103L129.111 145.658C129.362 145.496 129.597 145.31 129.84 145.132C130.325 144.775 130.811 144.427 131.305 144.087C131.799 143.747 132.195 143.278 132.641 142.913L133.313 142.323L133.912 141.659C134.323 141.234 134.71 140.785 135.069 140.315C136.54 138.438 137.682 136.325 138.445 134.065C138.835 132.931 139.133 131.767 139.335 130.584C139.551 129.387 139.664 128.174 139.675 126.958Z" fill="#263238"/>
<path d="M117.834 158.845C117.834 158.845 111.018 152.215 107.918 154.797C104.817 157.379 110.961 167.693 115.325 168.421C115.878 168.554 116.452 168.574 117.013 168.479C117.573 168.385 118.109 168.178 118.588 167.871C119.066 167.564 119.478 167.163 119.798 166.693C120.118 166.223 120.339 165.693 120.449 165.135L117.834 158.845Z" fill="#EB9481"/>
<path d="M109.755 157.703C109.74 157.703 109.726 157.709 109.715 157.72C109.705 157.731 109.699 157.745 109.699 157.76C109.699 157.775 109.705 157.789 109.715 157.8C109.726 157.811 109.74 157.817 109.755 157.817C112.84 158.424 114.847 160.788 116.434 163.33C115.382 162.439 114.111 162.083 112.888 163.33C112.823 163.402 112.888 163.5 112.993 163.467C113.466 163.212 114.006 163.11 114.539 163.174C115.073 163.237 115.573 163.464 115.973 163.823C116.637 164.426 117.234 165.099 117.754 165.831C117.932 166.066 118.369 165.831 118.215 165.564L118.174 165.499C117.543 161.905 113.73 157.323 109.755 157.703Z" fill="#263238"/>
<path d="M113.171 155.469C113.171 155.469 108.751 143.691 110.281 136C111.981 127.435 122.594 117.664 134.729 121.323C134.729 121.323 120.295 123.485 115.195 135.085C112.848 140.428 117.284 154.571 117.284 154.571L113.171 155.469Z" fill="#C7C7C7"/>
<path d="M119.988 172.256C125.345 170.587 128.146 164.283 126.243 158.174C124.341 152.066 118.456 148.467 113.099 150.135C107.741 151.804 104.941 158.108 106.844 164.217C108.746 170.325 114.631 173.924 119.988 172.256Z" fill="#C7C7C7"/>
<path d="M123.323 158.667C125.031 164.155 122.514 169.822 117.656 171.319C112.799 172.817 107.554 169.587 105.837 164.099C104.121 158.61 106.647 152.943 111.504 151.438C116.361 149.932 121.615 153.21 123.323 158.667Z" fill="#455A64"/>
<path d="M132.276 186.458L127.824 197.694L113.819 183.568L109.893 188.133C109.893 188.133 123.655 210.622 123.704 209.602L128.285 199.888L134.988 206.582L134.381 189.728L132.276 186.458Z" fill="#EBEBEB"/>
<path d="M135.19 198.244C134.988 195.468 134.875 192.651 134.551 189.882C134.551 189.785 134.381 189.744 134.357 189.882C133.814 192.57 134.616 203.215 134.616 205.765C134.34 205.473 128.407 199.871 128.35 199.961C127.354 201.499 123.995 208.558 123.768 209.197C121.59 205.627 112.378 191.55 109.812 188.15C109.797 188.134 109.776 188.124 109.755 188.121C109.733 188.119 109.711 188.123 109.693 188.134C109.674 188.146 109.66 188.163 109.652 188.183C109.644 188.204 109.643 188.226 109.65 188.247C111.568 192.019 123.468 210.598 123.638 210.549C125.409 207.219 127.008 203.801 128.431 200.309C129.435 201.531 135.425 207.853 135.441 207.441C135.516 204.373 135.433 201.303 135.19 198.244Z" fill="#263238"/>
<path d="M213.293 111.593C212.807 116.25 211.037 120.68 208.18 124.389C205.323 128.098 201.491 130.94 197.113 132.598C192.734 134.257 187.981 134.666 183.384 133.78C178.786 132.894 174.525 130.748 171.077 127.581L158.432 129.435L164.762 118.506C163.33 114.951 162.724 111.117 162.992 107.294C163.26 103.471 164.395 99.7587 166.31 96.4387C168.224 93.1186 170.869 90.2777 174.044 88.131C177.219 85.9843 180.841 84.5881 184.636 84.048C188.43 83.5079 192.297 83.8382 195.945 85.0138C199.593 86.1894 202.926 88.1794 205.691 90.8334C208.456 93.4873 210.581 96.7356 211.905 100.332C213.229 103.929 213.718 107.78 213.334 111.593H213.293Z" fill="white"/>
<path d="M213.293 111.593C212.804 116.252 211.039 120.686 208.193 124.408C206.795 126.266 205.125 127.904 203.239 129.265C201.377 130.676 199.325 131.818 197.143 132.657C194.96 133.511 192.669 134.055 190.335 134.276C189.17 134.382 187.998 134.404 186.83 134.34C185.656 134.313 184.487 134.191 183.333 133.976C178.67 133.137 174.333 131.015 170.809 127.848L171.109 127.937L158.48 129.88L157.566 130.018L158.027 129.208L164.333 118.255V118.692C162.851 115.07 162.22 111.155 162.491 107.25C162.762 103.345 163.927 99.5545 165.896 96.1714C167.862 92.8009 170.566 89.9197 173.805 87.7442C177.041 85.601 180.721 84.2181 184.568 83.6994C188.415 83.1807 192.329 83.5395 196.018 84.749C199.662 85.994 202.981 88.038 205.732 90.7314C208.488 93.4108 210.6 96.6802 211.909 100.294C213.219 103.907 213.692 107.77 213.293 111.593ZM213.293 111.593C213.697 107.787 213.222 103.94 211.904 100.347C210.586 96.7539 208.461 93.5116 205.692 90.8696C202.924 88.2276 199.585 86.2566 195.935 85.1084C192.284 83.9603 188.419 83.6656 184.636 84.2471C180.889 84.81 177.32 86.2222 174.201 88.3757C171.113 90.5419 168.533 93.3539 166.64 96.6166C164.778 99.8912 163.682 103.545 163.435 107.305C163.188 111.064 163.797 114.83 165.216 118.32L165.305 118.547L165.183 118.749L158.82 129.661L158.367 128.989L171.02 127.217H171.198L171.319 127.338C174.71 130.503 178.915 132.661 183.462 133.571C184.591 133.798 185.736 133.936 186.887 133.984C188.037 134.065 189.192 134.065 190.343 133.984C192.651 133.804 194.923 133.306 197.095 132.503C199.279 131.716 201.333 130.608 203.19 129.216C205.089 127.864 206.766 126.226 208.161 124.359C211.015 120.658 212.792 116.24 213.293 111.593Z" fill="#263238"/>
<path d="M199.191 112.791C200.881 112.791 202.251 111.421 202.251 109.731C202.251 108.041 200.881 106.671 199.191 106.671C197.501 106.671 196.131 108.041 196.131 109.731C196.131 111.421 197.501 112.791 199.191 112.791Z" fill="#263238"/>
<path d="M188.222 112.791C189.912 112.791 191.282 111.421 191.282 109.731C191.282 108.041 189.912 106.671 188.222 106.671C186.532 106.671 185.162 108.041 185.162 109.731C185.162 111.421 186.532 112.791 188.222 112.791Z" fill="#263238"/>
<path d="M177.261 112.791C178.951 112.791 180.321 111.421 180.321 109.731C180.321 108.041 178.951 106.671 177.261 106.671C175.571 106.671 174.201 108.041 174.201 109.731C174.201 111.421 175.571 112.791 177.261 112.791Z" fill="#263238"/>
<path d="M464.667 111.593C464.181 116.25 462.41 120.68 459.553 124.389C456.696 128.098 452.864 130.94 448.486 132.598C444.107 134.257 439.354 134.666 434.757 133.78C430.159 132.894 425.899 130.748 422.45 127.581L409.805 129.435L416.128 118.506C414.689 114.95 414.078 111.112 414.343 107.285C414.608 103.457 415.74 99.7401 417.655 96.4154C419.569 93.0907 422.216 90.2455 425.393 88.0955C428.571 85.9455 432.196 84.5472 435.995 84.0066C439.793 83.4659 443.665 83.7972 447.316 84.9752C450.967 86.1532 454.303 88.147 457.069 90.8055C459.835 93.464 461.96 96.7174 463.282 100.319C464.604 103.921 465.088 107.776 464.699 111.593H464.667Z" fill="white"/>
<path d="M464.667 111.593C464.173 116.251 462.409 120.684 459.567 124.408C458.856 125.329 458.091 126.208 457.276 127.039C456.432 127.846 455.54 128.6 454.604 129.297C452.744 130.712 450.691 131.854 448.508 132.689C446.328 133.543 444.04 134.088 441.708 134.308C440.54 134.415 439.366 134.436 438.195 134.373C437.022 134.345 435.852 134.223 434.698 134.009C430.04 133.153 425.712 131.017 422.199 127.84L422.498 127.929L409.87 129.872L408.955 130.01L409.417 129.2L415.707 118.247V118.684C414.224 115.062 413.594 111.148 413.863 107.243C414.133 103.338 415.295 99.5478 417.261 96.1633C419.23 92.7925 421.936 89.9114 425.178 87.7362C428.414 85.5929 432.094 84.2101 435.941 83.6914C439.788 83.1726 443.703 83.5315 447.391 84.741C451.035 85.9849 454.355 88.0291 457.106 90.7233C459.864 93.4026 461.977 96.6731 463.287 100.288C464.597 103.903 465.068 107.769 464.667 111.593ZM464.667 111.593C465.07 107.787 464.595 103.94 463.277 100.347C461.959 96.754 459.834 93.5116 457.066 90.8696C454.297 88.2277 450.959 86.2567 447.308 85.1085C443.657 83.9603 439.792 83.6656 436.009 84.2472C432.262 84.8101 428.693 86.2222 425.575 88.3757C422.487 90.5419 419.907 93.3539 418.014 96.6167C416.138 99.8899 415.031 103.547 414.776 107.31C414.538 111.067 415.144 114.828 416.548 118.32L416.646 118.547L416.524 118.749L410.161 129.661L409.708 128.99L422.361 127.217H422.539L422.66 127.338C426.04 130.496 430.229 132.654 434.763 133.571C435.892 133.798 437.037 133.936 438.187 133.984C439.338 134.065 440.493 134.065 441.644 133.984C443.952 133.804 446.224 133.306 448.395 132.503C450.578 131.715 452.633 130.607 454.491 129.216C456.385 127.862 458.058 126.223 459.453 124.359C462.34 120.669 464.144 116.249 464.667 111.593Z" fill="#263238"/>
<path d="M450.524 112.791C452.214 112.791 453.584 111.421 453.584 109.731C453.584 108.041 452.214 106.671 450.524 106.671C448.834 106.671 447.464 108.041 447.464 109.731C447.464 111.421 448.834 112.791 450.524 112.791Z" fill="#263238"/>
<path d="M439.563 112.791C441.253 112.791 442.623 111.421 442.623 109.731C442.623 108.041 441.253 106.671 439.563 106.671C437.873 106.671 436.503 108.041 436.503 109.731C436.503 111.421 437.873 112.791 439.563 112.791Z" fill="#263238"/>
<path d="M431.662 109.731C431.664 110.336 431.486 110.929 431.15 111.433C430.815 111.937 430.338 112.331 429.779 112.564C429.22 112.797 428.604 112.858 428.01 112.741C427.416 112.624 426.87 112.333 426.441 111.906C426.013 111.478 425.72 110.933 425.602 110.339C425.483 109.745 425.543 109.129 425.774 108.57C426.006 108.01 426.398 107.532 426.901 107.195C427.405 106.859 427.997 106.679 428.602 106.679C429.412 106.679 430.189 107 430.763 107.572C431.337 108.144 431.66 108.921 431.662 109.731Z" fill="#263238"/>
<path d="M171.457 290.757H166.042V294.294H171.457V290.757Z" fill="#455A64"/>
<path d="M178.484 290.522H173.068V294.06H178.484V290.522Z" fill="#455A64"/>
<path d="M185.51 290.287H180.095V293.825H185.51V290.287Z" fill="#455A64"/>
<path d="M192.529 290.052H187.113V293.59H192.529V290.052Z" fill="#455A64"/>
<path d="M199.556 289.818H194.14V293.355H199.556V289.818Z" fill="#455A64"/>
<path d="M206.582 289.591H201.167V293.128H206.582V289.591Z" fill="#455A64"/>
<path d="M213.601 289.356H208.185V292.894H213.601V289.356Z" fill="#455A64"/>
<path d="M220.628 289.121H215.212V292.659H220.628V289.121Z" fill="#455A64"/>
<path d="M227.646 288.887H222.23V292.424H227.646V288.887Z" fill="#455A64"/>
<path d="M228.974 296.326H164.714V292.02L228.974 290.23V296.326Z" fill="#37474F"/>
<path d="M291.696 279.358H185.616L202.486 200.381H308.566L291.696 279.358Z" fill="#455A64"/>
<path d="M295.622 279.358H189.534L206.404 200.381H312.492L295.622 279.358Z" fill="#37474F"/>
<path d="M260.181 235.296C259.856 237.094 258.924 238.726 257.54 239.919C256.157 241.113 254.406 241.795 252.579 241.853C251.755 241.879 250.936 241.717 250.184 241.381C249.431 241.045 248.764 240.542 248.234 239.911C247.703 239.28 247.323 238.537 247.12 237.738C246.918 236.938 246.9 236.104 247.067 235.296C247.388 233.498 248.318 231.864 249.701 230.669C251.083 229.474 252.834 228.79 254.66 228.731C255.486 228.704 256.306 228.865 257.061 229.201C257.815 229.537 258.484 230.04 259.015 230.673C259.547 231.305 259.928 232.049 260.13 232.85C260.332 233.651 260.349 234.488 260.181 235.296Z" fill="#263238"/>
<path d="M265.621 299.985H213.447V295.929L265.621 294.246V299.985Z" fill="#455A64"/>
<path d="M279.804 299.977H251.786L234.916 255.721H262.933L279.804 299.977Z" fill="#455A64"/>
<path d="M284.41 299.977H256.401L239.53 255.721H267.54L284.41 299.977Z" fill="#263238"/>
<path d="M162.714 301.062H108.946C104.356 301.062 110.994 287.988 127.751 282.977C144.508 277.966 168.017 296.156 162.714 301.062Z" fill="#37474F"/>
<path d="M141.667 301.062C141.703 299.572 141.948 298.095 142.395 296.674C142.827 295.237 143.433 293.859 144.201 292.57C144.97 291.273 145.934 290.102 147.058 289.097C148.173 288.1 149.456 287.308 150.847 286.758C150.272 287.227 149.616 287.567 149.09 288.077L148.281 288.781L147.52 289.591C146.525 290.632 145.653 291.784 144.921 293.023C144.177 294.263 143.537 295.563 143.011 296.909C142.471 298.262 142.022 299.649 141.667 301.062Z" fill="#263238"/>
<path d="M147.997 288.62C151.197 289.632 154.224 291.125 156.975 293.048C158.367 294.01 159.627 295.15 160.723 296.44C161.872 297.722 162.571 299.345 162.714 301.062C162.268 299.479 161.414 298.041 160.237 296.893C159.09 295.725 157.835 294.668 156.489 293.736C155.153 292.772 153.753 291.906 152.328 291.056C150.903 290.206 149.47 289.405 147.997 288.62Z" fill="#263238"/>
<path d="M419.868 290.757H414.452V294.294H419.868V290.757Z" fill="#455A64"/>
<path d="M426.894 290.522H421.479V294.06H426.894V290.522Z" fill="#455A64"/>
<path d="M433.921 290.287H428.505V293.825H433.921V290.287Z" fill="#455A64"/>
<path d="M440.94 290.052H435.524V293.59H440.94V290.052Z" fill="#455A64"/>
<path d="M447.966 289.818H442.55V293.355H447.966V289.818Z" fill="#455A64"/>
<path d="M454.993 289.591H449.577V293.128H454.993V289.591Z" fill="#455A64"/>
<path d="M462.011 289.356H456.596V292.894H462.011V289.356Z" fill="#455A64"/>
<path d="M469.038 289.121H463.622V292.659H469.038V289.121Z" fill="#455A64"/>
<path d="M476.065 288.887H470.649V292.424H476.065V288.887Z" fill="#455A64"/>
<path d="M477.392 296.326H413.132V292.02L477.392 290.23V296.326Z" fill="#37474F"/>
<path d="M540.106 279.358H434.026L450.897 200.381H556.977L540.106 279.358Z" fill="#455A64"/>
<path d="M544.032 279.358H437.952L454.823 200.381H560.903L544.032 279.358Z" fill="#37474F"/>
<path d="M508.591 235.296C508.266 237.093 507.335 238.724 505.954 239.917C504.572 241.11 502.823 241.794 500.998 241.853C500.173 241.88 499.353 241.72 498.6 241.384C497.846 241.048 497.178 240.545 496.647 239.914C496.115 239.283 495.734 238.54 495.531 237.74C495.329 236.94 495.31 236.104 495.477 235.296C495.8 233.498 496.731 231.865 498.113 230.671C499.495 229.476 501.245 228.791 503.07 228.731C503.896 228.704 504.717 228.865 505.471 229.201C506.226 229.537 506.894 230.04 507.426 230.673C507.957 231.305 508.338 232.049 508.54 232.85C508.742 233.651 508.76 234.488 508.591 235.296Z" fill="#263238"/>
<path d="M514.031 299.985H461.858V295.929L514.031 294.246V299.985Z" fill="#455A64"/>
<path d="M528.214 299.977H500.197L483.326 255.721H511.344L528.214 299.977Z" fill="#455A64"/>
<path d="M532.829 299.977H504.811L487.94 255.721H515.958L532.829 299.977Z" fill="#263238"/>
<path d="M411.149 301.062H357.356C352.766 301.062 359.404 287.988 376.161 282.977C392.918 277.966 416.427 296.156 411.149 301.062Z" fill="#37474F"/>
<path d="M390.037 301.062C390.076 299.573 390.322 298.096 390.765 296.674C391.2 295.239 391.806 293.861 392.57 292.57C393.345 291.277 394.308 290.106 395.428 289.097C396.543 288.1 397.826 287.308 399.217 286.758C398.642 287.227 397.986 287.567 397.46 288.077L396.65 288.781L395.889 289.591C394.89 290.63 394.015 291.782 393.283 293.023C392.538 294.263 391.899 295.563 391.372 296.909C390.835 298.262 390.389 299.649 390.037 301.062Z" fill="#263238"/>
<path d="M396.407 288.62C399.607 289.632 402.634 291.125 405.385 293.048C406.778 294.012 408.041 295.152 409.141 296.44C410.287 297.714 410.991 299.323 411.149 301.03C410.7 299.446 409.843 298.008 408.664 296.861C407.517 295.692 406.262 294.635 404.916 293.703C403.588 292.74 402.179 291.874 400.755 291.024C399.33 290.174 397.889 289.405 396.407 288.62Z" fill="#263238"/>
</svg>
