<svg width="26" height="26" viewBox="0 0 26 26" fill="none" xmlns="http://www.w3.org/2000/svg">
<path d="M12.7316 16.1499C16.3322 16.1924 19.7897 17.567 22.4366 20.0083L22.4874 20.0552L22.4405 20.106L21.3341 21.3101L21.2872 21.3618L21.2355 21.314C18.9113 19.1694 15.8752 17.9614 12.713 17.9233C9.55058 17.8854 6.48556 19.0205 4.11046 21.1089L4.0587 21.1538L4.0128 21.1021L2.93272 19.8765L2.88683 19.8237L2.93858 19.7778C5.64229 17.3998 9.13107 16.1075 12.7316 16.1499Z" fill="#3D3D3D" stroke="#3D3D3D" stroke-width="0.138889"/>
<path d="M12.5589 5.58862C14.0861 5.58862 15.5512 6.19525 16.6311 7.27515C17.7109 8.35494 18.3175 9.81943 18.3176 11.3464C18.3176 12.4853 17.9796 13.5987 17.3469 14.5457C16.7142 15.4926 15.8151 16.2309 14.763 16.6667C13.7108 17.1026 12.5528 17.2171 11.4358 16.9949C10.3188 16.7727 9.29288 16.224 8.48757 15.4187C7.6823 14.6134 7.13361 13.5874 6.9114 12.4705C6.68921 11.3535 6.80369 10.1955 7.23952 9.14331C7.67529 8.0913 8.41293 7.19204 9.35964 6.55933C10.3065 5.92666 11.4201 5.5887 12.5589 5.58862ZM12.5589 7.36206C11.5026 7.36346 10.4903 7.78411 9.74343 8.53101C8.99642 9.27802 8.57576 10.291 8.57449 11.3474C8.5746 12.1353 8.80867 12.9052 9.24636 13.5603C9.6842 14.2156 10.3063 14.7265 11.0344 15.0281C11.7625 15.3296 12.5634 15.4083 13.3362 15.2546C14.1092 15.1009 14.82 14.7221 15.3772 14.1648C15.9345 13.6075 16.3133 12.8967 16.4671 12.1238C16.6207 11.3509 16.542 10.55 16.2405 9.82202C15.9389 9.09392 15.428 8.47178 14.7727 8.03394C14.1175 7.59613 13.3469 7.36206 12.5589 7.36206Z" fill="#3D3D3D" stroke="#3D3D3D" stroke-width="0.138889"/>
<path d="M12.6389 0.0695801C15.9725 0.0695801 19.1694 1.394 21.5266 3.75122C23.8838 6.10845 25.2082 9.30529 25.2082 12.6389C25.2082 15.1249 24.4712 17.5553 23.0901 19.6223C21.709 21.6892 19.746 23.2999 17.4494 24.2512C15.1527 25.2026 12.625 25.452 10.1867 24.967C7.7485 24.482 5.50906 23.2845 3.75119 21.5266C1.99333 19.7687 0.795754 17.5293 0.31076 15.0911C-0.174213 12.6529 0.0752389 10.1251 1.02658 7.82837C1.97794 5.53186 3.58865 3.56879 5.65549 2.18774C7.72252 0.806598 10.1529 0.0695833 12.6389 0.0695801ZM12.6389 1.84302C9.77666 1.84627 7.03291 2.98513 5.009 5.00903C2.9851 7.03294 1.84623 9.77668 1.84299 12.6389C1.84299 14.7741 2.47606 16.8616 3.66232 18.637C4.84848 20.4121 6.53462 21.7954 8.50705 22.6125C10.4797 23.4297 12.6511 23.6443 14.7453 23.2278C16.8394 22.8112 18.7629 21.7825 20.2727 20.2727C21.7824 18.763 22.8102 16.8394 23.2268 14.7454C23.6433 12.6512 23.4296 10.4798 22.6125 8.50708C21.7954 6.53465 20.4121 4.8485 18.6369 3.66235C16.8616 2.47609 14.7741 1.84302 12.6389 1.84302Z" fill="#3D3D3D" stroke="#3D3D3D" stroke-width="0.138889"/>
</svg>
