<svg width="27" height="27" viewBox="0 0 27 27" fill="none" xmlns="http://www.w3.org/2000/svg">
<path d="M4.5 17.4167C2.18579 18.299 0.75 19.5285 0.75 20.8885C0.75 23.5735 6.34644 25.75 13.25 25.75C20.1536 25.75 25.75 23.5735 25.75 20.8885C25.75 19.5285 24.3142 18.299 22 17.4167M13.25 9.08334H13.2639M21.5833 9.08334C21.5833 14.7274 15.3333 17.4167 13.25 21.5834C11.1667 17.4167 4.91667 14.7274 4.91667 9.08334C4.91667 4.48096 8.64762 0.75 13.25 0.75C17.8524 0.75 21.5833 4.48096 21.5833 9.08334ZM14.6389 9.08334C14.6389 9.8504 14.0171 10.4722 13.25 10.4722C12.4829 10.4722 11.8611 9.8504 11.8611 9.08334C11.8611 8.31629 12.4829 7.69445 13.25 7.69445C14.0171 7.69445 14.6389 8.31629 14.6389 9.08334Z" stroke="#3D3D3D" stroke-width="1.5" stroke-linecap="round" stroke-linejoin="round"/>
</svg>
