<svg width="270" height="260" viewBox="0 0 270 260" fill="none" xmlns="http://www.w3.org/2000/svg">
<path d="M232.985 215.203C226.918 223.387 220.598 232.861 219.067 243.109C219.067 243.267 219.301 243.317 219.332 243.16C220.033 240.373 220.929 237.638 222.015 234.976C226.007 233.881 229.916 232.987 232.01 229.046C234.149 224.998 233.877 219.723 233.472 215.31C233.427 215.059 233.105 215.046 232.985 215.203Z" fill="#48C656"/>
<path d="M222.065 234.882C224.792 228.794 228.284 222.688 232.732 217.684C232.732 217.684 232.808 217.684 232.782 217.734C229.872 221.297 227.658 225.175 225.501 229.122C227.506 227.095 229.708 225.275 231.612 223.129C231.65 223.085 231.707 223.129 231.669 223.185C229.771 225.445 227.721 227.894 225.26 229.562C224.596 230.771 223.932 231.992 223.261 233.207C223.425 233.113 223.596 233.031 223.761 232.949L223.792 232.993C223.603 233.088 223.419 233.188 223.223 233.27L222.261 234.989C222.185 235.121 222.008 235.008 222.065 234.882Z" fill="#263238"/>
<path d="M224.09 232.754C225.722 231.848 227.279 230.814 228.746 229.663C228.784 229.632 228.847 229.663 228.803 229.72C227.381 230.941 225.823 231.997 224.159 232.867C224.145 232.871 224.129 232.87 224.116 232.865C224.102 232.859 224.09 232.849 224.082 232.836C224.074 232.824 224.071 232.809 224.072 232.794C224.073 232.779 224.08 232.765 224.09 232.754Z" fill="#263238"/>
<path d="M218.352 241.586C218.352 241.712 218.579 241.712 218.573 241.586C218.573 238.206 218.573 234.819 218.63 231.426C219.497 229.682 221.363 228.713 222.66 227.315C223.593 226.295 224.404 225.172 225.077 223.966C226.64 221.085 227.595 217.917 227.886 214.656C228.246 211.042 226.867 199.126 225.355 199.548C224.564 199.762 221.996 205.666 221.319 207.612C220.212 210.83 219.403 214.142 218.902 217.507C217.643 225.439 217.744 233.591 218.352 241.586Z" fill="#48C656"/>
<path d="M218.314 227.026C218.497 222.751 219.465 218.439 220.37 214.297C221.344 209.834 222.483 205.635 224.798 201.656C224.807 201.641 224.821 201.63 224.837 201.626C224.854 201.621 224.872 201.623 224.887 201.631C224.902 201.64 224.913 201.654 224.918 201.67C224.923 201.687 224.921 201.704 224.912 201.719C223.375 204.816 222.185 208.071 221.363 211.426C221.515 211.187 221.705 210.961 221.863 210.728C221.926 210.639 222.078 210.728 222.015 210.816C221.809 211.177 221.568 211.517 221.293 211.829C221.288 211.831 221.283 211.833 221.278 211.833C221.272 211.833 221.267 211.831 221.262 211.829C220.471 215.021 219.895 218.282 219.408 221.536C219.447 221.497 219.483 221.455 219.516 221.41C219.516 221.41 219.585 221.41 219.566 221.448C219.547 221.486 219.44 221.668 219.377 221.775C219.13 223.425 218.902 225.074 218.668 226.711C221.629 224.193 224.153 221.234 225.576 217.583C224.185 221.36 221.983 224.734 218.617 227.026C218.554 227.466 218.491 227.907 218.434 228.347C218.434 228.436 218.269 228.41 218.269 228.347C218.269 227.963 218.269 227.573 218.307 227.183C218.295 227.174 218.284 227.162 218.278 227.148C218.271 227.134 218.267 227.118 218.268 227.103C218.269 227.087 218.273 227.072 218.281 227.058C218.289 227.045 218.3 227.034 218.314 227.026Z" fill="#263238"/>
<path d="M219.718 220.837C222.03 217.581 224.045 214.126 225.741 210.513C225.741 210.476 225.836 210.513 225.817 210.545C224.465 214.335 222.438 217.852 219.832 220.926C219.781 220.982 219.674 220.907 219.718 220.837Z" fill="#263238"/>
<path d="M222.742 209.689C223.679 208.04 224.64 206.434 225.545 204.76C225.545 204.709 225.633 204.76 225.614 204.798C224.894 206.551 223.979 208.219 222.888 209.771C222.806 209.878 222.666 209.783 222.742 209.689Z" fill="#263238"/>
<path d="M216.055 231.822C216.011 234.061 215.746 236.289 215.264 238.476C215.302 238.715 215.334 238.955 215.372 239.206C216.062 236.79 216.464 234.301 216.568 231.791C216.588 231.756 216.598 231.717 216.598 231.678C216.598 231.638 216.588 231.599 216.568 231.564C216.664 228.201 216.413 224.836 215.821 221.524C214.771 215.317 212.475 209.368 208.128 204.716C208.092 204.685 208.049 204.663 208.003 204.651C207.957 204.64 207.909 204.639 207.863 204.648C207.816 204.658 207.773 204.678 207.736 204.707C207.698 204.737 207.668 204.774 207.647 204.816C205.889 209.254 206.502 214.549 207.995 218.98C208.81 221.378 209.971 223.645 211.443 225.71C212.943 227.781 214.847 229.543 216.055 231.822Z" fill="#48C656"/>
<path d="M208.647 206.781C212.765 213.434 215.606 221.328 215.986 229.185C215.986 229.323 215.758 229.361 215.739 229.222C215.638 228.511 215.53 227.812 215.416 227.114C213.624 225.539 212.052 223.733 210.741 221.744C210.741 221.712 210.773 221.668 210.798 221.7C212.214 223.426 213.73 225.068 215.34 226.616C215.043 224.879 214.708 223.173 214.284 221.486C214.17 221.36 214.062 221.228 213.955 221.102C213.847 220.976 214.005 220.9 214.075 220.982L214.176 221.089C213.595 218.781 212.877 216.508 212.025 214.284C210.975 213.025 209.798 211.961 209.039 210.463L209.09 210.432C209.722 211.288 210.298 212.15 210.988 212.95C211.266 213.264 211.576 213.579 211.861 213.869C210.911 211.458 209.784 209.121 208.489 206.875C208.482 206.855 208.483 206.833 208.491 206.813C208.498 206.793 208.512 206.777 208.531 206.766C208.549 206.755 208.57 206.751 208.591 206.753C208.612 206.756 208.632 206.765 208.647 206.781Z" fill="#263238"/>
<path d="M209.457 214.989C210.785 216.771 212.304 218.477 213.544 220.321C213.575 220.372 213.499 220.428 213.455 220.384C211.876 218.776 210.501 216.981 209.362 215.04C209.356 214.983 209.457 214.914 209.457 214.989Z" fill="#263238"/>
<path d="M213.752 220.73L213.809 220.787C213.847 220.825 213.809 220.888 213.752 220.85L213.695 220.793C213.651 220.756 213.714 220.693 213.752 220.73Z" fill="#263238"/>
<path d="M202.188 219.572C202.676 223.29 204.182 226.802 206.54 229.726C207.511 230.873 208.711 231.805 210.064 232.464C211.595 233.214 213.189 234.082 214.771 234.699C215.522 236.601 216.08 238.573 216.435 240.585C216.485 240.415 216.536 240.239 216.593 240.063C215.574 231.401 209.938 223.991 202.725 219.232C202.669 219.198 202.604 219.179 202.537 219.18C202.471 219.18 202.406 219.199 202.35 219.235C202.294 219.27 202.249 219.321 202.22 219.38C202.191 219.44 202.18 219.507 202.188 219.572Z" fill="#48C656"/>
<path d="M204.68 222.134C204.63 222.09 204.68 222.002 204.756 222.04C208.718 224.971 211.877 228.846 213.942 233.308C213.993 233.428 213.835 233.528 213.765 233.409C213.43 232.83 213.088 232.257 212.74 231.703C211.095 231.394 209.539 230.242 208.312 229.147C208.28 229.115 208.312 229.071 208.362 229.097C208.992 229.666 209.691 230.155 210.444 230.551C211.114 230.891 211.842 231.105 212.538 231.375C211.905 230.412 211.272 229.487 210.64 228.593C208.862 227.92 207.195 226.989 205.692 225.829C205.648 225.792 205.693 225.716 205.743 225.748C207.232 226.64 208.765 227.457 210.336 228.196C209.333 226.872 208.249 225.611 207.091 224.419C206.534 224.13 205.965 223.834 205.427 223.519C205.383 223.519 205.427 223.418 205.427 223.437C205.873 223.596 206.297 223.807 206.692 224.067C206.072 223.412 205.401 222.764 204.68 222.134Z" fill="#263238"/>
<path d="M204.838 225.131C204.933 225.19 205.024 225.255 205.11 225.326C205.142 225.326 205.11 225.383 205.079 225.37C204.976 225.325 204.879 225.271 204.788 225.206C204.737 225.175 204.788 225.093 204.838 225.131Z" fill="#263238"/>
<path d="M227.841 259.357H208.084L209.678 241.454L210.032 237.507H225.899L226.247 241.454L227.841 259.357Z" fill="#455A64"/>
<path d="M226.247 241.454H209.678L210.033 237.507H225.899L226.247 241.454Z" fill="#263238"/>
<path d="M226.842 234.743H209.083V238.653H226.842V234.743Z" fill="#455A64"/>
<path d="M265.75 13.5085V197.03H126.963V13.5085H265.75Z" fill="#00428D" stroke="black" stroke-width="0.3"/>
<g opacity="0.1">
<path d="M265.75 13.5085V197.03H126.963V13.5085H265.75Z" fill="#020100" stroke="black" stroke-width="0.3"/>
</g>
<path d="M261.966 13.5085V197.03H123.18V13.5085H261.966Z" fill="white" fill-opacity="0.3" stroke="black" stroke-width="0.3"/>
<path d="M254.059 20.8479L256.175 186.151L133.703 187.704L131.586 22.4007L254.059 20.8479Z" fill="#EBEBEB" stroke="black" stroke-width="0.3"/>
<path d="M132.577 20.3328L255.031 22.9702L251.436 188.249L128.982 185.611L132.577 20.3328Z" fill="#DBDBDB" stroke="black" stroke-width="0.3"/>
<path d="M253.235 21.6229V186.939H130.753V21.6229H253.235Z" fill="white" stroke="black" stroke-width="0.3"/>
<path d="M145.104 71.5173L145.328 71.7399C145.25 71.7409 145.173 71.742 145.098 71.7429C145.097 71.6653 145.096 71.5872 145.095 71.5085L145.104 71.5173ZM145.601 71.5671C146.97 71.585 148.814 71.6155 150.716 71.6511C148.844 71.6863 147.017 71.7172 145.599 71.736L145.601 71.652C145.601 71.6238 145.601 71.5955 145.601 71.5671ZM145.375 59.5241C145.373 63.0712 145.344 67.7959 145.304 71.2624C145.273 71.262 145.243 71.2618 145.212 71.2614L145.091 71.2595C145.037 67.7097 145.046 63.0696 145.021 59.5261L145.211 59.5251C145.266 59.5248 145.32 59.5244 145.375 59.5241ZM157.949 59.4479C157.928 60.8636 157.899 62.686 157.865 64.5515C157.83 62.6552 157.799 60.8169 157.779 59.4499C157.807 59.4496 157.836 59.4502 157.865 59.4499L157.949 59.4479ZM145.183 58.8708L145.501 58.8718L145.42 58.9538L145.104 59.2692L145.02 59.3522L145.019 59.0339V58.8708H145.183ZM145.676 58.8727C149.254 58.9015 153.907 58.8777 157.47 58.9352L157.473 59.0622C157.473 59.0918 157.474 59.1219 157.474 59.152C153.989 59.1908 149.207 59.2053 145.675 59.2224C145.675 59.168 145.676 59.1139 145.676 59.0602V58.8727ZM157.956 58.9431C157.955 59.0197 157.955 59.0978 157.953 59.1774L157.728 58.9538L157.713 58.9391C157.795 58.9406 157.876 58.9415 157.956 58.9431Z" fill="#C7C7C7" stroke="black" stroke-width="0.3"/>
<path d="M168.387 61.1936C175.181 60.9659 182.005 60.9662 188.8 61.1946C182.003 61.4254 175.181 61.4223 168.387 61.1936Z" fill="#C7C7C7" stroke="black" stroke-width="0.3"/>
<path d="M174.786 64.2338C192.29 64.0189 210.774 64.0228 228.298 64.2328C210.771 64.4396 192.292 64.4454 174.786 64.2338Z" fill="#C7C7C7" stroke="black" stroke-width="0.3"/>
<path d="M158.45 57.1995C158.101 58.2827 157.692 59.346 157.221 60.3831L157.22 60.385C156.684 61.5956 156.091 62.7812 155.454 63.9358C154.342 65.9633 153.107 67.9226 151.76 69.803L151.176 70.6038L150.507 71.4905L149.992 70.7053L149.99 70.7034C149.32 69.7161 148.664 68.7233 148.032 67.7122C147.723 67.1869 147.403 66.6976 147.112 66.176C146.949 65.8826 146.784 65.6025 146.625 65.3206C146.877 65.544 147.125 65.7708 147.373 66.0002C147.813 66.4068 148.234 66.8262 148.63 67.2512V67.2522L148.635 67.2571C149.141 67.7536 149.637 68.2596 150.125 68.7717C149.961 69.0974 149.8 69.4253 149.643 69.7542L149.531 69.9846L149.787 69.968L151.236 69.8743L151.551 69.8538L151.337 69.6223C151.057 69.3196 150.774 69.0194 150.489 68.72C151.495 66.7421 152.617 64.8245 153.851 62.9778C154.582 61.8817 155.36 60.8099 156.184 59.7639H156.185C156.891 58.867 157.647 58.0105 158.45 57.1995ZM150.345 69.0032C150.531 69.1997 150.716 69.3968 150.901 69.595L150.026 69.6516C150.132 69.435 150.237 69.2184 150.345 69.0032Z" fill="#263238" stroke="black" stroke-width="0.3"/>
<path d="M145.104 95.1741L145.328 95.3967C145.25 95.3977 145.173 95.3988 145.098 95.3997C145.097 95.3221 145.096 95.244 145.095 95.1653L145.104 95.1741ZM145.601 95.2239C146.97 95.2418 148.814 95.2723 150.716 95.3079C148.844 95.3431 147.017 95.374 145.599 95.3928L145.601 95.3088C145.601 95.2806 145.601 95.2523 145.601 95.2239ZM145.375 83.1809C145.373 86.7283 145.344 91.4577 145.304 94.9192C145.273 94.9188 145.243 94.9186 145.212 94.9182L145.091 94.9163C145.037 91.3668 145.046 86.7312 145.021 83.1829L145.211 83.1819C145.266 83.1816 145.32 83.1812 145.375 83.1809ZM157.949 83.1116C157.928 84.5265 157.899 86.3468 157.865 88.2102C157.83 86.3159 157.799 84.4794 157.779 83.1125C157.807 83.1122 157.836 83.1129 157.865 83.1125L157.949 83.1116ZM145.183 82.5276L145.501 82.5286L145.42 82.6106L145.104 82.926L145.02 83.009L145.019 82.6907V82.5276H145.183ZM145.676 82.5295C149.254 82.5583 153.908 82.5343 157.471 82.5969L157.473 82.719C157.473 82.7508 157.474 82.7832 157.474 82.8157C153.989 82.854 149.207 82.8636 145.675 82.8801C145.675 82.8255 145.676 82.7711 145.676 82.717V82.5295ZM157.956 82.6057C157.955 82.6823 157.955 82.7605 157.953 82.8401L157.73 82.6125L157.719 82.6018C157.799 82.6033 157.878 82.6041 157.956 82.6057Z" fill="#C7C7C7" stroke="black" stroke-width="0.3"/>
<path d="M168.4 84.8322C175.185 84.604 182.001 84.6001 188.786 84.8302C181.998 85.058 175.185 85.0593 168.4 84.8322Z" fill="#C7C7C7" stroke="black" stroke-width="0.3"/>
<path d="M174.786 87.8669C192.322 87.6539 210.842 87.6558 228.395 87.866C210.839 88.0771 192.324 88.0822 174.786 87.8669Z" fill="#C7C7C7" stroke="black" stroke-width="0.3"/>
<path d="M158.45 80.8679C158.101 81.9515 157.692 83.0152 157.221 84.0525L157.22 84.0544C156.684 85.271 156.091 86.4507 155.454 87.6121C154.341 89.6378 153.107 91.5948 151.76 93.4734L151.176 94.2732L150.507 95.1648L149.992 94.3757L149.99 94.3728L149.49 93.6345C148.994 92.8939 148.506 92.1445 148.032 91.3816C147.723 90.8563 147.403 90.367 147.112 89.8455C146.945 89.5445 146.773 89.2421 146.609 88.9382C146.866 89.1665 147.119 89.3981 147.373 89.6326C147.813 90.039 148.234 90.4576 148.63 90.8826V90.8835L148.635 90.8875C149.142 91.3882 149.637 91.8968 150.126 92.4099C149.962 92.7333 149.801 93.058 149.643 93.3845L149.531 93.616L149.787 93.6003L151.235 93.5115L151.552 93.4929L151.337 93.2605C151.057 92.958 150.774 92.6576 150.49 92.3582C151.498 90.3915 152.618 88.4842 153.85 86.6472H153.851C154.582 85.5511 155.36 84.4794 156.184 83.4333H156.185C156.889 82.5351 157.646 81.6783 158.45 80.8679ZM150.345 92.6404C150.531 92.8366 150.716 93.0334 150.9 93.2312L150.026 93.2839C150.132 93.0689 150.237 92.854 150.345 92.6404Z" fill="#263238" stroke="black" stroke-width="0.3"/>
<path d="M145.104 118.787L145.328 119.01C145.25 119.011 145.173 119.012 145.098 119.013C145.097 118.935 145.096 118.857 145.095 118.778L145.104 118.787ZM145.601 118.836C146.972 118.854 148.819 118.885 150.723 118.921C148.849 118.956 147.019 118.987 145.599 119.006L145.601 118.922C145.601 118.893 145.601 118.865 145.601 118.836ZM145.375 106.794C145.373 110.341 145.344 115.066 145.304 118.532C145.273 118.532 145.243 118.532 145.212 118.531L145.091 118.529C145.037 114.98 145.046 110.34 145.021 106.796L145.211 106.795C145.266 106.795 145.32 106.794 145.375 106.794ZM157.95 106.718C157.929 108.134 157.899 109.96 157.865 111.83C157.83 109.93 157.799 108.088 157.779 106.719C157.807 106.719 157.836 106.719 157.865 106.719L157.95 106.718ZM145.183 106.159L145.483 106.16L145.42 106.224L145.104 106.538L145.02 106.621L145.019 106.304V106.159H145.183ZM145.676 106.161C149.254 106.19 153.908 106.166 157.471 106.224L157.473 106.332C157.473 106.362 157.474 106.392 157.474 106.422C153.989 106.461 149.207 106.474 145.675 106.491C145.675 106.437 145.676 106.384 145.676 106.33V106.161ZM157.956 106.232C157.955 106.302 157.955 106.374 157.953 106.447L157.732 106.228C157.807 106.229 157.882 106.23 157.956 106.232Z" fill="#C7C7C7" stroke="black" stroke-width="0.3"/>
<path d="M168.387 108.463C175.171 108.236 181.985 108.236 188.769 108.463C181.982 108.691 175.171 108.691 168.387 108.463Z" fill="#C7C7C7" stroke="black" stroke-width="0.3"/>
<path d="M174.786 111.503C192.29 111.289 210.774 111.292 228.298 111.502C210.771 111.709 192.292 111.715 174.786 111.503Z" fill="#C7C7C7" stroke="black" stroke-width="0.3"/>
<path d="M145.104 142.419L145.328 142.641C145.25 142.642 145.173 142.643 145.098 142.644C145.097 142.567 145.096 142.489 145.095 142.41L145.104 142.419ZM145.601 142.469C146.97 142.486 148.814 142.517 150.716 142.552C148.844 142.588 147.017 142.619 145.599 142.637L145.601 142.553C145.601 142.525 145.601 142.497 145.601 142.469ZM145.375 130.426C145.373 133.973 145.344 138.702 145.304 142.164C145.273 142.163 145.243 142.163 145.212 142.163L145.091 142.161C145.037 138.611 145.046 133.976 145.021 130.427L145.211 130.427C145.266 130.426 145.32 130.426 145.375 130.426ZM157.949 130.356C157.928 131.769 157.899 133.589 157.865 135.453C157.83 133.559 157.799 131.724 157.779 130.357C157.807 130.357 157.836 130.358 157.865 130.357L157.949 130.356ZM145.183 129.772L145.501 129.773L145.42 129.855L145.104 130.171L145.02 130.254L145.019 129.935V129.772H145.183ZM145.676 129.774C149.254 129.803 153.908 129.779 157.471 129.842L157.473 129.964C157.473 129.995 157.474 130.028 157.474 130.06C153.989 130.099 149.207 130.108 145.675 130.125C145.675 130.07 145.676 130.016 145.676 129.962V129.774ZM157.956 129.85C157.955 129.927 157.955 130.005 157.953 130.085L157.73 129.857L157.719 129.846C157.799 129.848 157.878 129.849 157.956 129.85Z" fill="#C7C7C7" stroke="black" stroke-width="0.3"/>
<path d="M168.356 132.1C175.16 131.868 181.995 131.868 188.8 132.1C181.992 132.329 175.16 132.329 168.356 132.1Z" fill="#C7C7C7" stroke="black" stroke-width="0.3"/>
<path d="M174.786 135.136C192.322 134.923 210.842 134.925 228.395 135.135C210.839 135.347 192.324 135.352 174.786 135.136Z" fill="#C7C7C7" stroke="black" stroke-width="0.3"/>
<path d="M145.104 166.057L145.328 166.279C145.25 166.28 145.173 166.281 145.098 166.282C145.097 166.205 145.096 166.127 145.095 166.048L145.104 166.057ZM145.601 166.106C146.957 166.124 148.779 166.154 150.661 166.189C148.809 166.224 147.003 166.254 145.599 166.274L145.601 166.191C145.601 166.163 145.601 166.135 145.601 166.106ZM145.375 154.063C145.373 157.611 145.344 162.335 145.304 165.802C145.273 165.801 145.243 165.801 145.212 165.801L145.091 165.799C145.037 162.249 145.046 157.609 145.021 154.065L145.211 154.064C145.266 154.064 145.32 154.064 145.375 154.063ZM157.949 153.987C157.928 155.402 157.899 157.222 157.865 159.085C157.83 157.185 157.799 155.347 157.779 153.989C157.807 153.989 157.836 153.99 157.865 153.989L157.949 153.987ZM145.183 153.41L145.501 153.411L145.42 153.493L145.104 153.809L145.02 153.892L145.019 153.573V153.41H145.183ZM145.676 153.412C149.254 153.441 153.907 153.417 157.47 153.475L157.473 153.602C157.473 153.631 157.474 153.661 157.474 153.691C153.989 153.73 149.207 153.745 145.675 153.762C145.675 153.707 145.676 153.653 145.676 153.6V153.412ZM157.956 153.482C157.955 153.559 157.955 153.637 157.953 153.717L157.728 153.493L157.713 153.479C157.795 153.48 157.876 153.481 157.956 153.482Z" fill="#C7C7C7" stroke="black" stroke-width="0.3"/>
<path d="M168.387 155.739C175.171 155.512 181.985 155.512 188.769 155.739C181.982 155.967 175.171 155.967 168.387 155.739Z" fill="#C7C7C7" stroke="black" stroke-width="0.3"/>
<path d="M174.786 158.773C192.29 158.558 210.774 158.562 228.298 158.772C210.771 158.979 192.292 158.985 174.786 158.773Z" fill="#C7C7C7" stroke="black" stroke-width="0.3"/>
<path d="M221.243 10.1533V28.1464H161.234V10.1533H221.243Z" fill="#B5B5B5" stroke="black" stroke-width="0.3"/>
<path d="M209.557 0.150391L211.704 9.85254H170.77L172.377 0.150391H209.557ZM192.137 2.81055C191.706 2.63317 191.232 2.58734 190.775 2.67773C190.318 2.76824 189.897 2.99116 189.567 3.31934C189.238 3.6475 189.013 4.06613 188.922 4.52148C188.831 4.97685 188.878 5.44904 189.057 5.87793C189.235 6.30664 189.537 6.67291 189.925 6.93066C190.313 7.18846 190.769 7.32617 191.235 7.32617V7.3252C191.545 7.32597 191.851 7.26689 192.138 7.14941C192.424 7.03182 192.685 6.85875 192.904 6.64062C193.123 6.42267 193.297 6.16385 193.415 5.87891C193.533 5.59366 193.594 5.28714 193.593 4.97852C193.593 4.51446 193.454 4.06053 193.195 3.6748C192.936 3.28895 192.567 2.98806 192.137 2.81055Z" fill="#B5B5B5" stroke="black" stroke-width="0.3"/>
<path d="M211.271 7.91852L211.703 9.85309H170.77L171.092 7.91852H211.271Z" fill="#7D7D7D" stroke="black" stroke-width="0.3"/>
<mask id="path-44-outside-1_67_14906" maskUnits="userSpaceOnUse" x="157.827" y="33.4639" width="67" height="13" fill="black">
<rect fill="white" x="157.827" y="33.4639" width="67" height="13"/>
<path d="M161.45 45.4639V37.7919L158.65 37.9319V35.5519H166.84V37.9319L163.97 37.7919V43.2239L164.124 44.6239L163.97 45.4639H161.45ZM169.933 45.6039C168.794 45.6039 167.912 45.3332 167.287 44.7919C166.661 44.2505 166.349 43.3732 166.349 42.1599C166.349 40.9372 166.661 40.0599 167.287 39.5279C167.912 38.9865 168.794 38.7159 169.933 38.7159C171.099 38.7159 171.981 38.9865 172.579 39.5279C173.185 40.0599 173.489 40.9372 173.489 42.1599C173.489 43.3732 173.185 44.2505 172.579 44.7919C171.981 45.3332 171.099 45.6039 169.933 45.6039ZM169.933 43.7839C170.315 43.7839 170.581 43.6439 170.731 43.3639C170.88 43.0745 170.955 42.6732 170.955 42.1599C170.955 41.6372 170.88 41.2359 170.731 40.9559C170.581 40.6759 170.315 40.5359 169.933 40.5359C169.541 40.5359 169.265 40.6759 169.107 40.9559C168.957 41.2359 168.883 41.6372 168.883 42.1599C168.883 42.6732 168.957 43.0745 169.107 43.3639C169.265 43.6439 169.541 43.7839 169.933 43.7839ZM174.533 42.9439V41.2639H179.013V42.9439H174.533ZM182.722 45.6039C182.283 45.6039 181.858 45.4919 181.448 45.2679C181.046 45.0439 180.715 44.6892 180.454 44.2039C180.192 43.7185 180.062 43.0839 180.062 42.2999C180.062 41.4319 180.188 40.7365 180.44 40.2139C180.701 39.6912 181.037 39.3132 181.448 39.0799C181.858 38.8372 182.283 38.7159 182.722 38.7159C183.384 38.7159 183.851 38.7719 184.122 38.8839C184.402 38.9959 184.542 39.0519 184.542 39.0519L184.402 36.4059L184.542 35.5659H187.076V43.2239L187.356 44.6239L187.076 45.4779H184.682V44.7919L184.542 44.7219C184.542 44.7219 184.472 44.7965 184.332 44.9459C184.192 45.0859 183.986 45.2305 183.716 45.3799C183.445 45.5292 183.114 45.6039 182.722 45.6039ZM183.772 43.6299L184.542 43.4339V41.3899C184.542 41.1752 184.472 41.0072 184.332 40.8859C184.192 40.7552 184.005 40.6899 183.772 40.6899C183.426 40.6899 183.165 40.8065 182.988 41.0399C182.81 41.2639 182.722 41.6372 182.722 42.1599C182.722 42.6732 182.824 43.0465 183.03 43.2799C183.235 43.5132 183.482 43.6299 183.772 43.6299ZM191.849 45.6039C190.71 45.6039 189.828 45.3332 189.203 44.7919C188.577 44.2505 188.265 43.3732 188.265 42.1599C188.265 40.9372 188.577 40.0599 189.203 39.5279C189.828 38.9865 190.71 38.7159 191.849 38.7159C193.015 38.7159 193.897 38.9865 194.495 39.5279C195.101 40.0599 195.405 40.9372 195.405 42.1599C195.405 43.3732 195.101 44.2505 194.495 44.7919C193.897 45.3332 193.015 45.6039 191.849 45.6039ZM191.849 43.7839C192.231 43.7839 192.497 43.6439 192.647 43.3639C192.796 43.0745 192.871 42.6732 192.871 42.1599C192.871 41.6372 192.796 41.2359 192.647 40.9559C192.497 40.6759 192.231 40.5359 191.849 40.5359C191.457 40.5359 191.181 40.6759 191.023 40.9559C190.873 41.2359 190.799 41.6372 190.799 42.1599C190.799 42.6732 190.873 43.0745 191.023 43.3639C191.181 43.6439 191.457 43.7839 191.849 43.7839ZM200.232 45.4639L199.952 44.6239L200.232 43.2239V35.5519H202.752V41.3059L202.612 43.2239H202.892L205.398 43.0839L206.392 42.9439L207.624 44.5679L206.938 45.4639H200.232ZM209.866 38.4499L208.088 36.6579L209.866 34.8799L211.644 36.6579L209.866 38.4499ZM208.606 45.4639V40.8299L208.312 39.7099L208.592 38.8559H211.126V45.4639H208.606ZM215.424 45.6039C214.743 45.6039 214.141 45.5339 213.618 45.3939C213.095 45.2539 212.689 45.1092 212.4 44.9599V43.0139C212.783 43.1819 213.175 43.3125 213.576 43.4059C213.987 43.4992 214.355 43.5645 214.682 43.6019C215.009 43.6299 215.242 43.6439 215.382 43.6439C215.541 43.6439 215.653 43.6205 215.718 43.5739C215.783 43.5179 215.816 43.4525 215.816 43.3779C215.816 43.2752 215.732 43.1912 215.564 43.1259C215.396 43.0512 215.079 42.9579 214.612 42.8459C214.229 42.7525 213.856 42.6359 213.492 42.4959C213.137 42.3465 212.843 42.1412 212.61 41.8799C212.386 41.6185 212.274 41.2685 212.274 40.8299C212.274 40.2885 212.4 39.8639 212.652 39.5559C212.904 39.2479 213.263 39.0332 213.73 38.9119C214.197 38.7812 214.743 38.7159 215.368 38.7159C215.723 38.7159 216.054 38.7345 216.362 38.7719C216.67 38.8092 216.889 38.8372 217.02 38.8559L218.322 39.6959L217.692 41.1939L215.242 40.6619C214.943 40.6619 214.794 40.7599 214.794 40.9559C214.794 41.1612 215.009 41.3152 215.438 41.4179C215.774 41.4925 216.119 41.5765 216.474 41.6699C216.829 41.7539 217.151 41.8659 217.44 42.0059C217.739 42.1459 217.977 42.3325 218.154 42.5659C218.341 42.7992 218.434 43.1072 218.434 43.4899C218.434 44.1992 218.177 44.7312 217.664 45.0859C217.16 45.4312 216.413 45.6039 215.424 45.6039ZM222.116 45.6039C221.481 45.6039 220.973 45.4172 220.59 45.0439C220.207 44.6705 220.016 44.1992 220.016 43.6299V40.5779H218.994V39.2479L219.876 38.5619L220.87 36.8259H222.522V38.8559H224.482V40.6759H222.522V43.6719L224.482 43.6579V45.1839C224.482 45.1839 224.37 45.2212 224.146 45.2959C223.931 45.3612 223.647 45.4265 223.292 45.4919C222.937 45.5665 222.545 45.6039 222.116 45.6039Z"/>
</mask>
<path d="M161.45 45.4639V37.7919L158.65 37.9319V35.5519H166.84V37.9319L163.97 37.7919V43.2239L164.124 44.6239L163.97 45.4639H161.45ZM169.933 45.6039C168.794 45.6039 167.912 45.3332 167.287 44.7919C166.661 44.2505 166.349 43.3732 166.349 42.1599C166.349 40.9372 166.661 40.0599 167.287 39.5279C167.912 38.9865 168.794 38.7159 169.933 38.7159C171.099 38.7159 171.981 38.9865 172.579 39.5279C173.185 40.0599 173.489 40.9372 173.489 42.1599C173.489 43.3732 173.185 44.2505 172.579 44.7919C171.981 45.3332 171.099 45.6039 169.933 45.6039ZM169.933 43.7839C170.315 43.7839 170.581 43.6439 170.731 43.3639C170.88 43.0745 170.955 42.6732 170.955 42.1599C170.955 41.6372 170.88 41.2359 170.731 40.9559C170.581 40.6759 170.315 40.5359 169.933 40.5359C169.541 40.5359 169.265 40.6759 169.107 40.9559C168.957 41.2359 168.883 41.6372 168.883 42.1599C168.883 42.6732 168.957 43.0745 169.107 43.3639C169.265 43.6439 169.541 43.7839 169.933 43.7839ZM174.533 42.9439V41.2639H179.013V42.9439H174.533ZM182.722 45.6039C182.283 45.6039 181.858 45.4919 181.448 45.2679C181.046 45.0439 180.715 44.6892 180.454 44.2039C180.192 43.7185 180.062 43.0839 180.062 42.2999C180.062 41.4319 180.188 40.7365 180.44 40.2139C180.701 39.6912 181.037 39.3132 181.448 39.0799C181.858 38.8372 182.283 38.7159 182.722 38.7159C183.384 38.7159 183.851 38.7719 184.122 38.8839C184.402 38.9959 184.542 39.0519 184.542 39.0519L184.402 36.4059L184.542 35.5659H187.076V43.2239L187.356 44.6239L187.076 45.4779H184.682V44.7919L184.542 44.7219C184.542 44.7219 184.472 44.7965 184.332 44.9459C184.192 45.0859 183.986 45.2305 183.716 45.3799C183.445 45.5292 183.114 45.6039 182.722 45.6039ZM183.772 43.6299L184.542 43.4339V41.3899C184.542 41.1752 184.472 41.0072 184.332 40.8859C184.192 40.7552 184.005 40.6899 183.772 40.6899C183.426 40.6899 183.165 40.8065 182.988 41.0399C182.81 41.2639 182.722 41.6372 182.722 42.1599C182.722 42.6732 182.824 43.0465 183.03 43.2799C183.235 43.5132 183.482 43.6299 183.772 43.6299ZM191.849 45.6039C190.71 45.6039 189.828 45.3332 189.203 44.7919C188.577 44.2505 188.265 43.3732 188.265 42.1599C188.265 40.9372 188.577 40.0599 189.203 39.5279C189.828 38.9865 190.71 38.7159 191.849 38.7159C193.015 38.7159 193.897 38.9865 194.495 39.5279C195.101 40.0599 195.405 40.9372 195.405 42.1599C195.405 43.3732 195.101 44.2505 194.495 44.7919C193.897 45.3332 193.015 45.6039 191.849 45.6039ZM191.849 43.7839C192.231 43.7839 192.497 43.6439 192.647 43.3639C192.796 43.0745 192.871 42.6732 192.871 42.1599C192.871 41.6372 192.796 41.2359 192.647 40.9559C192.497 40.6759 192.231 40.5359 191.849 40.5359C191.457 40.5359 191.181 40.6759 191.023 40.9559C190.873 41.2359 190.799 41.6372 190.799 42.1599C190.799 42.6732 190.873 43.0745 191.023 43.3639C191.181 43.6439 191.457 43.7839 191.849 43.7839ZM200.232 45.4639L199.952 44.6239L200.232 43.2239V35.5519H202.752V41.3059L202.612 43.2239H202.892L205.398 43.0839L206.392 42.9439L207.624 44.5679L206.938 45.4639H200.232ZM209.866 38.4499L208.088 36.6579L209.866 34.8799L211.644 36.6579L209.866 38.4499ZM208.606 45.4639V40.8299L208.312 39.7099L208.592 38.8559H211.126V45.4639H208.606ZM215.424 45.6039C214.743 45.6039 214.141 45.5339 213.618 45.3939C213.095 45.2539 212.689 45.1092 212.4 44.9599V43.0139C212.783 43.1819 213.175 43.3125 213.576 43.4059C213.987 43.4992 214.355 43.5645 214.682 43.6019C215.009 43.6299 215.242 43.6439 215.382 43.6439C215.541 43.6439 215.653 43.6205 215.718 43.5739C215.783 43.5179 215.816 43.4525 215.816 43.3779C215.816 43.2752 215.732 43.1912 215.564 43.1259C215.396 43.0512 215.079 42.9579 214.612 42.8459C214.229 42.7525 213.856 42.6359 213.492 42.4959C213.137 42.3465 212.843 42.1412 212.61 41.8799C212.386 41.6185 212.274 41.2685 212.274 40.8299C212.274 40.2885 212.4 39.8639 212.652 39.5559C212.904 39.2479 213.263 39.0332 213.73 38.9119C214.197 38.7812 214.743 38.7159 215.368 38.7159C215.723 38.7159 216.054 38.7345 216.362 38.7719C216.67 38.8092 216.889 38.8372 217.02 38.8559L218.322 39.6959L217.692 41.1939L215.242 40.6619C214.943 40.6619 214.794 40.7599 214.794 40.9559C214.794 41.1612 215.009 41.3152 215.438 41.4179C215.774 41.4925 216.119 41.5765 216.474 41.6699C216.829 41.7539 217.151 41.8659 217.44 42.0059C217.739 42.1459 217.977 42.3325 218.154 42.5659C218.341 42.7992 218.434 43.1072 218.434 43.4899C218.434 44.1992 218.177 44.7312 217.664 45.0859C217.16 45.4312 216.413 45.6039 215.424 45.6039ZM222.116 45.6039C221.481 45.6039 220.973 45.4172 220.59 45.0439C220.207 44.6705 220.016 44.1992 220.016 43.6299V40.5779H218.994V39.2479L219.876 38.5619L220.87 36.8259H222.522V38.8559H224.482V40.6759H222.522V43.6719L224.482 43.6579V45.1839C224.482 45.1839 224.37 45.2212 224.146 45.2959C223.931 45.3612 223.647 45.4265 223.292 45.4919C222.937 45.5665 222.545 45.6039 222.116 45.6039Z" fill="black"/>
<path d="M161.45 45.4639H161.15V45.7639H161.45V45.4639ZM161.45 37.7919H161.75V37.4765L161.435 37.4922L161.45 37.7919ZM158.65 37.9319H158.35V38.2472L158.665 38.2315L158.65 37.9319ZM158.65 35.5519V35.2519H158.35V35.5519H158.65ZM166.84 35.5519H167.14V35.2519H166.84V35.5519ZM166.84 37.9319L166.825 38.2315L167.14 38.2469V37.9319H166.84ZM163.97 37.7919L163.984 37.4922L163.67 37.4769V37.7919H163.97ZM163.97 43.2239H163.67V43.2403L163.672 43.2567L163.97 43.2239ZM164.124 44.6239L164.419 44.678L164.427 44.6347L164.422 44.5911L164.124 44.6239ZM163.97 45.4639V45.7639H164.22L164.265 45.518L163.97 45.4639ZM161.45 45.4639H161.75V37.7919H161.45H161.15V45.4639H161.45ZM161.45 37.7919L161.435 37.4922L158.635 37.6322L158.65 37.9319L158.665 38.2315L161.465 38.0915L161.45 37.7919ZM158.65 37.9319H158.95V35.5519H158.65H158.35V37.9319H158.65ZM158.65 35.5519V35.8519H166.84V35.5519V35.2519H158.65V35.5519ZM166.84 35.5519H166.54V37.9319H166.84H167.14V35.5519H166.84ZM166.84 37.9319L166.854 37.6322L163.984 37.4922L163.97 37.7919L163.955 38.0915L166.825 38.2315L166.84 37.9319ZM163.97 37.7919H163.67V43.2239H163.97H164.27V37.7919H163.97ZM163.97 43.2239L163.672 43.2567L163.826 44.6567L164.124 44.6239L164.422 44.5911L164.268 43.1911L163.97 43.2239ZM164.124 44.6239L163.829 44.5698L163.675 45.4098L163.97 45.4639L164.265 45.518L164.419 44.678L164.124 44.6239ZM163.97 45.4639V45.1639H161.45V45.4639V45.7639H163.97V45.4639ZM167.287 44.7919L167.483 44.565L167.287 44.7919ZM167.287 39.5279L167.481 39.7564L167.483 39.7547L167.287 39.5279ZM172.579 39.5279L172.377 39.7502L172.381 39.7534L172.579 39.5279ZM172.579 44.7919L172.379 44.568L172.377 44.5696L172.579 44.7919ZM170.731 43.3639L170.995 43.5051L170.997 43.5015L170.731 43.3639ZM170.731 40.9559L170.995 40.8147L170.731 40.9559ZM169.107 40.9559L168.846 40.8079L168.842 40.8147L169.107 40.9559ZM169.107 43.3639L168.84 43.5016L168.846 43.5118L169.107 43.3639ZM169.933 45.6039V45.3039C168.839 45.3039 168.036 45.044 167.483 44.565L167.287 44.7919L167.09 45.0187C167.788 45.6224 168.749 45.9039 169.933 45.9039V45.6039ZM167.287 44.7919L167.483 44.565C166.949 44.1032 166.649 43.3276 166.649 42.1599H166.349H166.049C166.049 43.4188 166.373 44.3979 167.09 45.0187L167.287 44.7919ZM166.349 42.1599H166.649C166.649 40.9814 166.95 40.2081 167.481 39.7564L167.287 39.5279L167.092 39.2994C166.373 39.9117 166.049 40.893 166.049 42.1599H166.349ZM167.287 39.5279L167.483 39.7547C168.036 39.2757 168.839 39.0159 169.933 39.0159V38.7159V38.4159C168.749 38.4159 167.788 38.6973 167.09 39.301L167.287 39.5279ZM169.933 38.7159V39.0159C171.058 39.0159 171.855 39.2772 172.377 39.7502L172.579 39.5279L172.78 39.3056C172.107 38.6958 171.141 38.4159 169.933 38.4159V38.7159ZM172.579 39.5279L172.381 39.7534C172.895 40.2044 173.189 40.9789 173.189 42.1599H173.489H173.789C173.789 40.8955 173.475 39.9153 172.776 39.3023L172.579 39.5279ZM173.489 42.1599H173.189C173.189 43.3301 172.896 44.1068 172.379 44.568L172.579 44.7919L172.778 45.0157C173.475 44.3943 173.789 43.4163 173.789 42.1599H173.489ZM172.579 44.7919L172.377 44.5696C171.855 45.0425 171.058 45.3039 169.933 45.3039V45.6039V45.9039C171.141 45.9039 172.107 45.6239 172.78 45.0142L172.579 44.7919ZM169.933 43.7839V44.0839C170.399 44.0839 170.782 43.9047 170.995 43.505L170.731 43.3639L170.466 43.2227C170.38 43.383 170.232 43.4839 169.933 43.4839V43.7839ZM170.731 43.3639L170.997 43.5015C171.178 43.152 171.255 42.6962 171.255 42.1599H170.955H170.655C170.655 42.6502 170.582 42.9971 170.464 43.2263L170.731 43.3639ZM170.955 42.1599H171.255C171.255 41.6162 171.178 41.1576 170.995 40.8147L170.731 40.9559L170.466 41.097C170.582 41.3141 170.655 41.6582 170.655 42.1599H170.955ZM170.731 40.9559L170.995 40.8147C170.782 40.415 170.399 40.2359 169.933 40.2359V40.5359V40.8359C170.232 40.8359 170.38 40.9367 170.466 41.097L170.731 40.9559ZM169.933 40.5359V40.2359C169.46 40.2359 169.07 40.4121 168.846 40.808L169.107 40.9559L169.368 41.1038C169.461 40.9397 169.621 40.8359 169.933 40.8359V40.5359ZM169.107 40.9559L168.842 40.8147C168.659 41.1576 168.583 41.6162 168.583 42.1599H168.883H169.183C169.183 41.6582 169.256 41.3141 169.371 41.097L169.107 40.9559ZM168.883 42.1599H168.583C168.583 42.6962 168.66 43.152 168.84 43.5015L169.107 43.3639L169.373 43.2263C169.255 42.9971 169.183 42.6502 169.183 42.1599H168.883ZM169.107 43.3639L168.846 43.5118C169.07 43.9077 169.46 44.0839 169.933 44.0839V43.7839V43.4839C169.621 43.4839 169.461 43.3801 169.368 43.216L169.107 43.3639ZM174.533 42.9439H174.233V43.2439H174.533V42.9439ZM174.533 41.2639V40.9639H174.233V41.2639H174.533ZM179.013 41.2639H179.313V40.9639H179.013V41.2639ZM179.013 42.9439V43.2439H179.313V42.9439H179.013ZM174.533 42.9439H174.833V41.2639H174.533H174.233V42.9439H174.533ZM174.533 41.2639V41.5639H179.013V41.2639V40.9639H174.533V41.2639ZM179.013 41.2639H178.713V42.9439H179.013H179.313V41.2639H179.013ZM179.013 42.9439V42.6439H174.533V42.9439V43.2439H179.013V42.9439ZM181.448 45.2679L181.301 45.5298L181.304 45.5312L181.448 45.2679ZM180.454 44.2039L180.718 44.0616L180.454 44.2039ZM180.44 40.2139L180.171 40.0797L180.169 40.0836L180.44 40.2139ZM181.448 39.0799L181.596 39.3407L181.6 39.3381L181.448 39.0799ZM184.122 38.8839L184.007 39.1611L184.01 39.1624L184.122 38.8839ZM184.542 39.0519L184.43 39.3304L184.866 39.5047L184.841 39.036L184.542 39.0519ZM184.402 36.4059L184.106 36.3565L184.1 36.3889L184.102 36.4217L184.402 36.4059ZM184.542 35.5659V35.2659H184.287L184.246 35.5165L184.542 35.5659ZM187.076 35.5659H187.376V35.2659H187.076V35.5659ZM187.076 43.2239H186.776V43.2536L186.781 43.2827L187.076 43.2239ZM187.356 44.6239L187.641 44.7173L187.665 44.6424L187.65 44.565L187.356 44.6239ZM187.076 45.4779V45.7779H187.293L187.361 45.5713L187.076 45.4779ZM184.682 45.4779H184.382V45.7779H184.682V45.4779ZM184.682 44.7919H184.982V44.6065L184.816 44.5235L184.682 44.7919ZM184.542 44.7219L184.676 44.4535L184.476 44.3535L184.323 44.5167L184.542 44.7219ZM184.332 44.9459L184.544 45.1581L184.55 45.151L184.332 44.9459ZM183.716 45.3799L183.86 45.6425L183.716 45.3799ZM183.772 43.6299V43.9299H183.809L183.846 43.9206L183.772 43.6299ZM184.542 43.4339L184.616 43.7246L184.842 43.6671V43.4339H184.542ZM184.332 40.8859L184.127 41.1053L184.135 41.1126L184.332 40.8859ZM182.988 41.0399L183.223 41.2261L183.226 41.2214L182.988 41.0399ZM183.03 43.2799L183.255 43.0817L183.03 43.2799ZM182.722 45.6039V45.3039C182.336 45.3039 181.961 45.2061 181.591 45.0045L181.448 45.2679L181.304 45.5312C181.756 45.7776 182.229 45.9039 182.722 45.9039V45.6039ZM181.448 45.2679L181.594 45.0059C181.252 44.8149 180.957 44.5068 180.718 44.0616L180.454 44.2039L180.189 44.3461C180.472 44.8716 180.841 45.2728 181.301 45.5298L181.448 45.2679ZM180.454 44.2039L180.718 44.0616C180.488 43.6346 180.362 43.0539 180.362 42.2999H180.062H179.762C179.762 43.1138 179.897 43.8025 180.189 44.3461L180.454 44.2039ZM180.062 42.2999H180.362C180.362 41.4565 180.485 40.8111 180.71 40.3442L180.44 40.2139L180.169 40.0836C179.89 40.662 179.762 41.4072 179.762 42.2999H180.062ZM180.44 40.2139L180.708 40.348C180.949 39.8659 181.248 39.5384 181.596 39.3407L181.448 39.0799L181.299 38.819C180.826 39.088 180.453 39.5165 180.171 40.0797L180.44 40.2139ZM181.448 39.0799L181.6 39.3381C181.969 39.1203 182.341 39.0159 182.722 39.0159V38.7159V38.4159C182.225 38.4159 181.748 38.5541 181.295 38.8216L181.448 39.0799ZM182.722 38.7159V39.0159C183.382 39.0159 183.796 39.0738 184.007 39.1611L184.122 38.8839L184.236 38.6067C183.906 38.47 183.386 38.4159 182.722 38.4159V38.7159ZM184.122 38.8839L184.01 39.1624C184.012 39.1632 184.012 39.163 184.013 39.1637C184.014 39.1639 184.014 39.1642 184.015 39.1644C184.016 39.1646 184.016 39.1648 184.017 39.165C184.017 39.1652 184.018 39.1655 184.018 39.1657C184.019 39.1659 184.019 39.1661 184.02 39.1663C184.021 39.1667 184.022 39.1672 184.023 39.1676C184.027 39.1691 184.032 39.1713 184.036 39.1727C184.043 39.1757 184.054 39.18 184.061 39.1828C184.08 39.1902 184.091 39.1948 184.109 39.2018C184.135 39.2123 184.172 39.2272 184.194 39.2359C184.198 39.2377 184.228 39.2496 184.232 39.251C184.239 39.2539 184.26 39.2624 184.266 39.2648C184.267 39.2651 184.269 39.2661 184.27 39.2664C184.27 39.2666 184.271 39.2667 184.271 39.2668C184.271 39.267 184.272 39.2671 184.272 39.2672C184.273 39.2677 184.273 39.2676 184.274 39.268C184.275 39.2683 184.281 39.2709 184.282 39.2712C184.282 39.2713 184.283 39.2714 184.283 39.2716C184.283 39.2717 184.284 39.2718 184.284 39.272C184.284 39.272 184.286 39.2727 184.286 39.2727C184.286 39.2728 184.288 39.2734 184.288 39.2735C184.288 39.2736 184.288 39.2738 184.289 39.2739C184.289 39.274 184.289 39.2741 184.29 39.2743C184.29 39.2745 184.291 39.2747 184.292 39.275C184.292 39.2751 184.292 39.2753 184.293 39.2754C184.293 39.2755 184.293 39.2756 184.294 39.2758C184.294 39.2759 184.295 39.2764 184.295 39.2765C184.296 39.2766 184.296 39.2768 184.296 39.2769C184.297 39.277 184.297 39.2771 184.297 39.2773C184.308 39.2817 184.315 39.2844 184.325 39.2884C184.34 39.2944 184.36 39.3025 184.371 39.3068C184.371 39.3069 184.371 39.3069 184.372 39.307C184.372 39.3071 184.372 39.3072 184.372 39.3073C184.372 39.3074 184.373 39.3074 184.373 39.3075C184.373 39.3076 184.373 39.3077 184.373 39.3078C184.374 39.3078 184.374 39.3079 184.374 39.308C184.374 39.3081 184.374 39.3082 184.375 39.3082C184.375 39.3083 184.375 39.3084 184.375 39.3085C184.375 39.3086 184.376 39.3086 184.376 39.3087C184.376 39.3089 184.378 39.3095 184.378 39.3096C184.38 39.3103 184.379 39.31 184.38 39.3106C184.383 39.3116 184.387 39.3131 184.389 39.314C184.395 39.3162 184.392 39.315 184.397 39.3171C184.397 39.3173 184.397 39.3173 184.398 39.3175C184.398 39.3175 184.398 39.3176 184.398 39.3177C184.398 39.3177 184.399 39.3178 184.399 39.3178C184.399 39.318 184.399 39.3181 184.4 39.3182C184.4 39.3184 184.4 39.3184 184.4 39.3186C184.401 39.3186 184.401 39.3187 184.401 39.3187C184.401 39.3188 184.401 39.3188 184.401 39.3189C184.401 39.3189 184.402 39.3192 184.402 39.3192C184.403 39.3195 184.403 39.3197 184.404 39.3199C184.406 39.3209 184.414 39.3239 184.415 39.3245C184.418 39.3257 184.422 39.327 184.424 39.3278C184.424 39.328 184.424 39.3279 184.424 39.3281C184.425 39.3282 184.425 39.3283 184.425 39.3284C184.425 39.3284 184.425 39.3284 184.425 39.3285C184.425 39.3285 184.425 39.3285 184.425 39.3285C184.426 39.3286 184.426 39.3286 184.426 39.3286C184.426 39.3286 184.426 39.3287 184.426 39.3287C184.426 39.3287 184.426 39.3287 184.426 39.3287C184.426 39.3288 184.426 39.3288 184.426 39.3288C184.426 39.3288 184.426 39.3289 184.426 39.3289C184.426 39.3289 184.426 39.3289 184.426 39.3289C184.427 39.329 184.427 39.329 184.427 39.3291C184.427 39.3291 184.427 39.3291 184.427 39.3291C184.427 39.3291 184.427 39.3292 184.427 39.3292C184.427 39.3292 184.427 39.3292 184.427 39.3292C184.427 39.3292 184.427 39.3293 184.427 39.3293C184.427 39.3293 184.428 39.3294 184.428 39.3294C184.428 39.3294 184.428 39.3296 184.428 39.3296C184.428 39.3296 184.428 39.3297 184.428 39.3298C184.429 39.3299 184.429 39.3299 184.429 39.33C184.429 39.3301 184.429 39.3301 184.429 39.3302C184.43 39.3302 184.43 39.3302 184.43 39.3302C184.43 39.3302 184.43 39.3302 184.43 39.3302C184.43 39.3302 184.43 39.3302 184.43 39.3302C184.43 39.3303 184.43 39.3303 184.43 39.3303C184.43 39.3303 184.43 39.3303 184.43 39.3303C184.43 39.3303 184.43 39.3303 184.43 39.3303C184.43 39.3303 184.43 39.3303 184.43 39.3303C184.43 39.3303 184.43 39.3304 184.43 39.3304C184.43 39.3304 184.43 39.3304 184.43 39.3304C184.43 39.3304 184.43 39.3304 184.43 39.3304C184.43 39.3304 184.43 39.3304 184.43 39.3304C184.43 39.3304 184.43 39.3304 184.43 39.3304C184.43 39.3304 184.43 39.3304 184.43 39.3304C184.43 39.3304 184.43 39.3304 184.542 39.0519C184.653 38.7733 184.653 38.7733 184.653 38.7733C184.653 38.7733 184.653 38.7733 184.653 38.7733C184.653 38.7733 184.653 38.7733 184.653 38.7733C184.653 38.7733 184.653 38.7733 184.653 38.7733C184.653 38.7733 184.653 38.7733 184.653 38.7733C184.653 38.7733 184.653 38.7732 184.653 38.7732C184.653 38.7732 184.652 38.773 184.652 38.773C184.652 38.7729 184.652 38.7729 184.652 38.7729C184.652 38.7729 184.652 38.7729 184.652 38.7729C184.652 38.7729 184.652 38.7728 184.652 38.7728C184.652 38.7728 184.651 38.7727 184.651 38.7727C184.65 38.7723 184.648 38.7715 184.646 38.7707C184.646 38.7706 184.631 38.7647 184.627 38.7628C184.606 38.7545 184.586 38.7466 184.548 38.7313C184.533 38.7254 184.508 38.7153 184.489 38.7077C184.476 38.7027 184.434 38.6856 184.417 38.6788C184.411 38.6766 184.402 38.6731 184.397 38.6708C184.387 38.6669 184.386 38.6665 184.376 38.6624C184.374 38.6616 184.356 38.6546 184.354 38.6537C184.353 38.6535 184.353 38.6534 184.353 38.6532C184.352 38.653 184.352 38.6528 184.351 38.6526C184.351 38.6524 184.35 38.6522 184.35 38.6521C184.349 38.6519 184.349 38.6517 184.348 38.6515C184.348 38.6515 184.346 38.6504 184.346 38.6504C184.345 38.6501 184.344 38.6496 184.343 38.6493C184.342 38.6488 184.338 38.6474 184.337 38.647C184.337 38.6468 184.336 38.6466 184.336 38.6464C184.335 38.6462 184.335 38.646 184.334 38.6458C184.334 38.6457 184.333 38.6455 184.333 38.6453C184.332 38.6451 184.332 38.6449 184.331 38.6447C184.287 38.6268 184.282 38.6249 184.233 38.6053L184.122 38.8839ZM184.542 39.0519L184.841 39.036L184.701 36.39L184.402 36.4059L184.102 36.4217L184.242 39.0677L184.542 39.0519ZM184.402 36.4059L184.697 36.4552L184.837 35.6152L184.542 35.5659L184.246 35.5165L184.106 36.3565L184.402 36.4059ZM184.542 35.5659V35.8659H187.076V35.5659V35.2659H184.542V35.5659ZM187.076 35.5659H186.776V43.2239H187.076H187.376V35.5659H187.076ZM187.076 43.2239L186.781 43.2827L187.061 44.6827L187.356 44.6239L187.65 44.565L187.37 43.165L187.076 43.2239ZM187.356 44.6239L187.07 44.5304L186.79 45.3844L187.076 45.4779L187.361 45.5713L187.641 44.7173L187.356 44.6239ZM187.076 45.4779V45.1779H184.682V45.4779V45.7779H187.076V45.4779ZM184.682 45.4779H184.982V44.7919H184.682H184.382V45.4779H184.682ZM184.682 44.7919L184.816 44.5235L184.676 44.4535L184.542 44.7219L184.407 44.9902L184.547 45.0602L184.682 44.7919ZM184.542 44.7219C184.323 44.5167 184.323 44.5167 184.323 44.5167C184.323 44.5167 184.323 44.5167 184.323 44.5167C184.323 44.5167 184.323 44.5167 184.323 44.5167C184.323 44.5167 184.323 44.5167 184.323 44.5167C184.323 44.5167 184.323 44.5167 184.323 44.5167C184.323 44.5167 184.323 44.5167 184.323 44.5167C184.323 44.5167 184.323 44.5167 184.323 44.5167C184.323 44.5167 184.323 44.5167 184.323 44.5168C184.323 44.5168 184.323 44.5168 184.323 44.5168C184.323 44.5168 184.323 44.5168 184.323 44.5168C184.323 44.5169 184.323 44.5168 184.322 44.5169C184.322 44.5169 184.322 44.5171 184.322 44.5172C184.322 44.5176 184.322 44.5171 184.322 44.5176C184.322 44.5176 184.322 44.5176 184.322 44.5176C184.322 44.5176 184.322 44.5177 184.322 44.5177C184.322 44.5177 184.322 44.5177 184.322 44.5178C184.322 44.5178 184.321 44.518 184.321 44.5181C184.321 44.5181 184.321 44.5185 184.321 44.5187C184.32 44.52 184.321 44.5187 184.319 44.5202C184.318 44.5218 184.317 44.5224 184.315 44.5246C184.315 44.5248 184.315 44.525 184.315 44.5252C184.315 44.5253 184.315 44.5253 184.315 44.5254C184.314 44.5255 184.314 44.5255 184.314 44.5256C184.314 44.5256 184.314 44.5257 184.314 44.5258C184.314 44.5258 184.314 44.5259 184.314 44.5259C184.314 44.5264 184.314 44.5262 184.313 44.5267C184.313 44.5269 184.313 44.5271 184.313 44.5274C184.312 44.5278 184.312 44.5286 184.311 44.529C184.311 44.5295 184.31 44.5301 184.31 44.5307C184.309 44.5312 184.307 44.5337 184.306 44.5344C184.306 44.5348 184.303 44.5381 184.302 44.5386C184.298 44.5425 184.297 44.5437 184.293 44.5482C184.288 44.5537 184.278 44.5648 184.27 44.5727C184.249 44.5954 184.235 44.6106 184.205 44.6427C184.194 44.6537 184.195 44.6529 184.184 44.6646C184.181 44.6676 184.176 44.6729 184.173 44.6762C184.166 44.6838 184.169 44.6804 184.162 44.6882C184.162 44.6884 184.161 44.6895 184.16 44.6897C184.16 44.6898 184.159 44.6911 184.159 44.6913C184.159 44.6914 184.156 44.6942 184.156 44.6944C184.153 44.6977 184.153 44.6973 184.15 44.7007C184.15 44.7009 184.15 44.7012 184.149 44.7014C184.149 44.7017 184.149 44.702 184.149 44.7022C184.148 44.7025 184.148 44.7028 184.148 44.703C184.148 44.7033 184.147 44.7036 184.147 44.7038C184.147 44.704 184.146 44.7053 184.146 44.7054C184.145 44.7057 184.145 44.706 184.145 44.7062C184.145 44.7065 184.144 44.7068 184.144 44.7071C184.139 44.713 184.144 44.7076 184.138 44.7136C184.136 44.7157 184.128 44.7246 184.126 44.7269C184.125 44.7272 184.125 44.7275 184.125 44.7278C184.125 44.728 184.124 44.7283 184.124 44.7286C184.124 44.7289 184.123 44.7292 184.123 44.7295C184.123 44.7297 184.123 44.73 184.122 44.7303C184.122 44.7306 184.119 44.7334 184.119 44.7337C184.119 44.7344 184.118 44.7348 184.118 44.7355C184.117 44.7358 184.117 44.736 184.117 44.7363C184.116 44.7366 184.116 44.7369 184.116 44.7372C184.115 44.7387 184.116 44.7374 184.114 44.7389C184.114 44.7394 184.113 44.7402 184.113 44.7407L184.332 44.9459L184.55 45.151C184.612 45.0855 184.681 45.0113 184.708 44.983C184.709 44.9818 184.72 44.9706 184.72 44.9699C184.725 44.9652 184.727 44.9627 184.731 44.9585C184.74 44.9488 184.74 44.9485 184.747 44.941C184.754 44.9335 184.752 44.9358 184.757 44.9305C184.758 44.9297 184.759 44.9282 184.76 44.9279C184.76 44.9275 184.76 44.9275 184.76 44.9273C184.76 44.9272 184.76 44.9271 184.76 44.9271C184.76 44.9271 184.76 44.9271 184.76 44.9271C184.76 44.9271 184.76 44.9271 184.76 44.9271C184.76 44.9271 184.76 44.9271 184.76 44.9271C184.76 44.927 184.76 44.927 184.542 44.7219ZM184.332 44.9459L184.119 44.7337C184.007 44.8459 183.829 44.9748 183.571 45.1172L183.716 45.3799L183.86 45.6425C184.144 45.4863 184.376 45.3258 184.544 45.158L184.332 44.9459ZM183.716 45.3799L183.571 45.1172C183.355 45.2363 183.076 45.3039 182.722 45.3039V45.6039V45.9039C183.151 45.9039 183.535 45.8221 183.86 45.6425L183.716 45.3799ZM183.772 43.6299L183.846 43.9206L184.616 43.7246L184.542 43.4339L184.468 43.1431L183.698 43.3391L183.772 43.6299ZM184.542 43.4339H184.842V41.3899H184.542H184.242V43.4339H184.542ZM184.542 41.3899H184.842C184.842 41.1035 184.745 40.8468 184.528 40.6592L184.332 40.8859L184.135 41.1126C184.199 41.1676 184.242 41.2469 184.242 41.3899H184.542ZM184.332 40.8859L184.536 40.6666C184.329 40.4732 184.063 40.3899 183.772 40.3899V40.6899V40.9899C183.946 40.9899 184.054 41.0372 184.127 41.1052L184.332 40.8859ZM183.772 40.6899V40.3899C183.351 40.3899 182.993 40.5365 182.749 40.8583L182.988 41.0399L183.226 41.2214C183.336 41.0765 183.501 40.9899 183.772 40.9899V40.6899ZM182.988 41.0399L182.752 40.8537C182.51 41.1594 182.422 41.6189 182.422 42.1599H182.722H183.022C183.022 41.6555 183.11 41.3683 183.223 41.2261L182.988 41.0399ZM182.722 42.1599H182.422C182.422 42.7018 182.528 43.164 182.804 43.4781L183.03 43.2799L183.255 43.0817C183.12 42.9291 183.022 42.6446 183.022 42.1599H182.722ZM183.03 43.2799L182.804 43.4781C183.062 43.7707 183.389 43.9299 183.772 43.9299V43.6299V43.3299C183.575 43.3299 183.408 43.2557 183.255 43.0817L183.03 43.2799ZM189.203 44.7919L189.399 44.565L189.203 44.7919ZM189.203 39.5279L189.397 39.7564L189.399 39.7547L189.203 39.5279ZM194.495 39.5279L194.293 39.7502L194.297 39.7534L194.495 39.5279ZM194.495 44.7919L194.295 44.568L194.293 44.5696L194.495 44.7919ZM192.647 43.3639L192.911 43.5051L192.913 43.5015L192.647 43.3639ZM192.647 40.9559L192.911 40.8147L192.647 40.9559ZM191.023 40.9559L190.762 40.8079L190.758 40.8147L191.023 40.9559ZM191.023 43.3639L190.756 43.5016L190.762 43.5118L191.023 43.3639ZM191.849 45.6039V45.3039C190.755 45.3039 189.952 45.044 189.399 44.565L189.203 44.7919L189.006 45.0187C189.704 45.6224 190.665 45.9039 191.849 45.9039V45.6039ZM189.203 44.7919L189.399 44.565C188.865 44.1032 188.565 43.3276 188.565 42.1599H188.265H187.965C187.965 43.4188 188.289 44.3979 189.006 45.0187L189.203 44.7919ZM188.265 42.1599H188.565C188.565 40.9814 188.866 40.2081 189.397 39.7564L189.203 39.5279L189.008 39.2994C188.289 39.9117 187.965 40.893 187.965 42.1599H188.265ZM189.203 39.5279L189.399 39.7547C189.952 39.2757 190.755 39.0159 191.849 39.0159V38.7159V38.4159C190.665 38.4159 189.704 38.6973 189.006 39.301L189.203 39.5279ZM191.849 38.7159V39.0159C192.974 39.0159 193.771 39.2772 194.293 39.7502L194.495 39.5279L194.696 39.3056C194.023 38.6958 193.057 38.4159 191.849 38.4159V38.7159ZM194.495 39.5279L194.297 39.7534C194.811 40.2044 195.105 40.9789 195.105 42.1599H195.405H195.705C195.705 40.8955 195.391 39.9153 194.692 39.3023L194.495 39.5279ZM195.405 42.1599H195.105C195.105 43.3301 194.812 44.1068 194.295 44.568L194.495 44.7919L194.694 45.0157C195.391 44.3943 195.705 43.4163 195.705 42.1599H195.405ZM194.495 44.7919L194.293 44.5696C193.771 45.0425 192.974 45.3039 191.849 45.3039V45.6039V45.9039C193.057 45.9039 194.023 45.6239 194.696 45.0142L194.495 44.7919ZM191.849 43.7839V44.0839C192.315 44.0839 192.698 43.9047 192.911 43.505L192.647 43.3639L192.382 43.2227C192.296 43.383 192.148 43.4839 191.849 43.4839V43.7839ZM192.647 43.3639L192.913 43.5015C193.094 43.152 193.171 42.6962 193.171 42.1599H192.871H192.571C192.571 42.6502 192.498 42.9971 192.38 43.2263L192.647 43.3639ZM192.871 42.1599H193.171C193.171 41.6162 193.094 41.1576 192.911 40.8147L192.647 40.9559L192.382 41.097C192.498 41.3141 192.571 41.6582 192.571 42.1599H192.871ZM192.647 40.9559L192.911 40.8147C192.698 40.415 192.315 40.2359 191.849 40.2359V40.5359V40.8359C192.148 40.8359 192.296 40.9367 192.382 41.097L192.647 40.9559ZM191.849 40.5359V40.2359C191.376 40.2359 190.986 40.4121 190.762 40.808L191.023 40.9559L191.284 41.1038C191.377 40.9397 191.537 40.8359 191.849 40.8359V40.5359ZM191.023 40.9559L190.758 40.8147C190.575 41.1576 190.499 41.6162 190.499 42.1599H190.799H191.099C191.099 41.6582 191.172 41.3141 191.287 41.097L191.023 40.9559ZM190.799 42.1599H190.499C190.499 42.6962 190.576 43.152 190.756 43.5015L191.023 43.3639L191.289 43.2263C191.171 42.9971 191.099 42.6502 191.099 42.1599H190.799ZM191.023 43.3639L190.762 43.5118C190.986 43.9077 191.376 44.0839 191.849 44.0839V43.7839V43.4839C191.537 43.4839 191.377 43.3801 191.284 43.216L191.023 43.3639ZM200.232 45.4639L199.947 45.5587L200.016 45.7639H200.232V45.4639ZM199.952 44.6239L199.658 44.565L199.642 44.6432L199.667 44.7187L199.952 44.6239ZM200.232 43.2239L200.526 43.2827L200.532 43.2536V43.2239H200.232ZM200.232 35.5519V35.2519H199.932V35.5519H200.232ZM202.752 35.5519H203.052V35.2519H202.752V35.5519ZM202.752 41.3059L203.051 41.3277L203.052 41.3168V41.3059H202.752ZM202.612 43.2239L202.313 43.202L202.289 43.5239H202.612V43.2239ZM202.892 43.2239V43.5239H202.9L202.909 43.5234L202.892 43.2239ZM205.398 43.0839L205.415 43.3834L205.427 43.3827L205.44 43.3809L205.398 43.0839ZM206.392 42.9439L206.631 42.7626L206.524 42.6222L206.35 42.6468L206.392 42.9439ZM207.624 44.5679L207.862 44.7502L208.001 44.5687L207.863 44.3866L207.624 44.5679ZM206.938 45.4639V45.7639H207.086L207.176 45.6462L206.938 45.4639ZM200.232 45.4639L200.517 45.369L200.237 44.529L199.952 44.6239L199.667 44.7187L199.947 45.5587L200.232 45.4639ZM199.952 44.6239L200.246 44.6827L200.526 43.2827L200.232 43.2239L199.938 43.165L199.658 44.565L199.952 44.6239ZM200.232 43.2239H200.532V35.5519H200.232H199.932V43.2239H200.232ZM200.232 35.5519V35.8519H202.752V35.5519V35.2519H200.232V35.5519ZM202.752 35.5519H202.452V41.3059H202.752H203.052V35.5519H202.752ZM202.752 41.3059L202.453 41.284L202.313 43.202L202.612 43.2239L202.911 43.2457L203.051 41.3277L202.752 41.3059ZM202.612 43.2239V43.5239H202.892V43.2239V42.9239H202.612V43.2239ZM202.892 43.2239L202.909 43.5234L205.415 43.3834L205.398 43.0839L205.381 42.7843L202.875 42.9243L202.892 43.2239ZM205.398 43.0839L205.44 43.3809L206.434 43.2409L206.392 42.9439L206.35 42.6468L205.356 42.7868L205.398 43.0839ZM206.392 42.9439L206.153 43.1252L207.385 44.7492L207.624 44.5679L207.863 44.3866L206.631 42.7626L206.392 42.9439ZM207.624 44.5679L207.386 44.3855L206.7 45.2815L206.938 45.4639L207.176 45.6462L207.862 44.7502L207.624 44.5679ZM206.938 45.4639V45.1639H200.232V45.4639V45.7639H206.938V45.4639ZM209.866 38.4499L209.653 38.6612L209.866 38.8758L210.079 38.6612L209.866 38.4499ZM208.088 36.6579L207.876 36.4457L207.665 36.657L207.875 36.8692L208.088 36.6579ZM209.866 34.8799L210.078 34.6677L209.866 34.4556L209.654 34.6677L209.866 34.8799ZM211.644 36.6579L211.857 36.8692L212.068 36.657L211.856 36.4457L211.644 36.6579ZM208.606 45.4639H208.306V45.7639H208.606V45.4639ZM208.606 40.8299H208.906V40.7911L208.896 40.7537L208.606 40.8299ZM208.312 39.7099L208.027 39.6164L208 39.7005L208.022 39.786L208.312 39.7099ZM208.592 38.8559V38.5559H208.375L208.307 38.7624L208.592 38.8559ZM211.126 38.8559H211.426V38.5559H211.126V38.8559ZM211.126 45.4639V45.7639H211.426V45.4639H211.126ZM209.866 38.4499L210.079 38.2386L208.301 36.4466L208.088 36.6579L207.875 36.8692L209.653 38.6612L209.866 38.4499ZM208.088 36.6579L208.3 36.87L210.078 35.092L209.866 34.8799L209.654 34.6677L207.876 36.4457L208.088 36.6579ZM209.866 34.8799L209.654 35.092L211.432 36.87L211.644 36.6579L211.856 36.4457L210.078 34.6677L209.866 34.8799ZM211.644 36.6579L211.431 36.4466L209.653 38.2386L209.866 38.4499L210.079 38.6612L211.857 36.8692L211.644 36.6579ZM208.606 45.4639H208.906V40.8299H208.606H208.306V45.4639H208.606ZM208.606 40.8299L208.896 40.7537L208.602 39.6337L208.312 39.7099L208.022 39.786L208.316 40.906L208.606 40.8299ZM208.312 39.7099L208.597 39.8033L208.877 38.9493L208.592 38.8559L208.307 38.7624L208.027 39.6164L208.312 39.7099ZM208.592 38.8559V39.1559H211.126V38.8559V38.5559H208.592V38.8559ZM211.126 38.8559H210.826V45.4639H211.126H211.426V38.8559H211.126ZM211.126 45.4639V45.1639H208.606V45.4639V45.7639H211.126V45.4639ZM213.618 45.3939L213.54 45.6837L213.618 45.3939ZM212.4 44.9599H212.1V45.1426L212.263 45.2265L212.4 44.9599ZM212.4 43.0139L212.521 42.7392L212.1 42.5545V43.0139H212.4ZM213.576 43.4059L213.508 43.6981L213.51 43.6984L213.576 43.4059ZM214.682 43.6019L214.648 43.9L214.657 43.9008L214.682 43.6019ZM215.718 43.5739L215.892 43.818L215.903 43.8103L215.913 43.8016L215.718 43.5739ZM215.564 43.1259L215.442 43.4L215.449 43.4029L215.455 43.4055L215.564 43.1259ZM214.612 42.8459L214.541 43.1373L214.542 43.1376L214.612 42.8459ZM213.492 42.4959L213.376 42.7725L213.384 42.7759L213.492 42.4959ZM212.61 41.8799L212.382 42.0751L212.386 42.0797L212.61 41.8799ZM213.73 38.9119L213.806 39.2023L213.811 39.2008L213.73 38.9119ZM216.362 38.7719L216.326 39.0697V39.0697L216.362 38.7719ZM217.02 38.8559L217.183 38.6038L217.128 38.5682L217.063 38.5589L217.02 38.8559ZM218.322 39.6959L218.599 39.8122L218.696 39.5802L218.485 39.4438L218.322 39.6959ZM217.692 41.1939L217.628 41.487L217.872 41.5399L217.969 41.3102L217.692 41.1939ZM215.242 40.6619L215.306 40.3687L215.274 40.3619H215.242V40.6619ZM215.438 41.4179L215.368 41.7097L215.373 41.7107L215.438 41.4179ZM216.474 41.6699L216.398 41.9601L216.405 41.9618L216.474 41.6699ZM217.44 42.0059L217.309 42.2759L217.313 42.2775L217.44 42.0059ZM218.154 42.5659L217.915 42.7474L217.92 42.7533L218.154 42.5659ZM217.664 45.0859L217.834 45.3333L217.835 45.3327L217.664 45.0859ZM215.424 45.6039V45.3039C214.763 45.3039 214.188 45.2358 213.696 45.1041L213.618 45.3939L213.54 45.6837C214.094 45.8319 214.723 45.9039 215.424 45.9039V45.6039ZM213.618 45.3939L213.696 45.1041C213.182 44.9665 212.8 44.8284 212.538 44.6933L212.4 44.9599L212.263 45.2265C212.579 45.39 213.009 45.5412 213.54 45.6837L213.618 45.3939ZM212.4 44.9599H212.7V43.0139H212.4H212.1V44.9599H212.4ZM212.4 43.0139L212.28 43.2886C212.679 43.4639 213.089 43.6005 213.508 43.6981L213.576 43.4059L213.644 43.1137C213.261 43.0246 212.887 42.8998 212.521 42.7392L212.4 43.0139ZM213.576 43.4059L213.51 43.6984C213.928 43.7935 214.308 43.8611 214.648 43.8999L214.682 43.6019L214.716 43.3038C214.403 43.268 214.045 43.2049 213.643 43.1133L213.576 43.4059ZM214.682 43.6019L214.657 43.9008C214.983 43.9288 215.228 43.9439 215.382 43.9439V43.6439V43.3439C215.256 43.3439 215.034 43.3309 214.708 43.303L214.682 43.6019ZM215.382 43.6439V43.9439C215.552 43.9439 215.746 43.9223 215.892 43.818L215.718 43.5739L215.544 43.3297C215.556 43.3209 215.555 43.3262 215.524 43.3327C215.494 43.3389 215.448 43.3439 215.382 43.3439V43.6439ZM215.718 43.5739L215.913 43.8016C216.034 43.6983 216.116 43.5539 216.116 43.3779H215.816H215.516C215.516 43.3745 215.517 43.3696 215.518 43.3639C215.519 43.3582 215.521 43.353 215.523 43.3487C215.528 43.3398 215.531 43.3396 215.523 43.3461L215.718 43.5739ZM215.816 43.3779H216.116C216.116 43.0743 215.862 42.9197 215.673 42.8463L215.564 43.1259L215.455 43.4055C215.485 43.4172 215.507 43.4278 215.521 43.4365C215.536 43.4452 215.541 43.4503 215.541 43.45C215.54 43.4494 215.533 43.4422 215.527 43.4275C215.52 43.412 215.516 43.3945 215.516 43.3779H215.816ZM215.564 43.1259L215.686 42.8517C215.49 42.7645 215.147 42.6657 214.682 42.5542L214.612 42.8459L214.542 43.1376C215.01 43.25 215.303 43.3379 215.442 43.4L215.564 43.1259ZM214.612 42.8459L214.683 42.5544C214.313 42.4641 213.952 42.3512 213.6 42.2159L213.492 42.4959L213.384 42.7759C213.76 42.9205 214.146 43.041 214.541 43.1373L214.612 42.8459ZM213.492 42.4959L213.609 42.2194C213.291 42.0856 213.035 41.905 212.834 41.6801L212.61 41.8799L212.386 42.0797C212.652 42.3774 212.984 42.6075 213.376 42.7724L213.492 42.4959ZM212.61 41.8799L212.838 41.6846C212.672 41.4912 212.574 41.2171 212.574 40.8299H212.274H211.974C211.974 41.32 212.1 41.7458 212.382 42.0751L212.61 41.8799ZM212.274 40.8299H212.574C212.574 40.3329 212.69 39.9837 212.884 39.7458L212.652 39.5559L212.42 39.3659C212.111 39.744 211.974 40.2442 211.974 40.8299H212.274ZM212.652 39.5559L212.884 39.7458C213.088 39.4967 213.387 39.311 213.806 39.2022L213.73 38.9119L213.655 38.6215C213.14 38.7554 212.72 38.999 212.42 39.3659L212.652 39.5559ZM213.73 38.9119L213.811 39.2008C214.245 39.0792 214.763 39.0159 215.368 39.0159V38.7159V38.4159C214.723 38.4159 214.149 38.4832 213.649 38.623L213.73 38.9119ZM215.368 38.7159V39.0159C215.712 39.0159 216.032 39.034 216.326 39.0697L216.362 38.7719L216.398 38.474C216.077 38.4351 215.733 38.4159 215.368 38.4159V38.7159ZM216.362 38.7719L216.326 39.0697C216.634 39.107 216.85 39.1347 216.978 39.1529L217.02 38.8559L217.063 38.5589C216.928 38.5397 216.706 38.5114 216.398 38.474L216.362 38.7719ZM217.02 38.8559L216.857 39.108L218.159 39.948L218.322 39.6959L218.485 39.4438L217.183 38.6038L217.02 38.8559ZM218.322 39.6959L218.046 39.5796L217.416 41.0776L217.692 41.1939L217.969 41.3102L218.599 39.8122L218.322 39.6959ZM217.692 41.1939L217.756 40.9007L215.306 40.3687L215.242 40.6619L215.178 40.955L217.628 41.487L217.692 41.1939ZM215.242 40.6619V40.3619C215.07 40.3619 214.888 40.3885 214.742 40.4846C214.573 40.5951 214.494 40.7684 214.494 40.9559H214.794H215.094C215.094 40.9452 215.096 40.9505 215.09 40.9631C215.083 40.9768 215.073 40.9845 215.071 40.9862C215.07 40.9866 215.08 40.9798 215.11 40.9733C215.14 40.9668 215.183 40.9619 215.242 40.9619V40.6619ZM214.794 40.9559H214.494C214.494 41.1823 214.619 41.3537 214.78 41.4691C214.933 41.579 215.138 41.6545 215.368 41.7096L215.438 41.4179L215.508 41.1261C215.309 41.0785 215.191 41.0257 215.13 40.9816C215.076 40.9431 215.094 40.9348 215.094 40.9559H214.794ZM215.438 41.4179L215.373 41.7107C215.705 41.7845 216.047 41.8676 216.398 41.96L216.474 41.6699L216.55 41.3797C216.192 41.2855 215.843 41.2006 215.503 41.125L215.438 41.4179ZM216.474 41.6699L216.405 41.9618C216.741 42.0414 217.042 42.1466 217.309 42.2759L217.44 42.0059L217.571 41.7358C217.259 41.5851 216.916 41.4663 216.543 41.3779L216.474 41.6699ZM217.44 42.0059L217.313 42.2775C217.573 42.3995 217.771 42.5573 217.915 42.7474L218.154 42.5659L218.393 42.3843C218.183 42.1078 217.904 41.8922 217.567 41.7342L217.44 42.0059ZM218.154 42.5659L217.92 42.7533C218.053 42.92 218.134 43.1559 218.134 43.4899H218.434H218.734C218.734 43.0585 218.628 42.6784 218.388 42.3785L218.154 42.5659ZM218.434 43.4899H218.134C218.134 44.1163 217.914 44.5487 217.494 44.839L217.664 45.0859L217.835 45.3327C218.441 44.9137 218.734 44.2821 218.734 43.4899H218.434ZM217.664 45.0859L217.495 44.8384C217.063 45.1343 216.387 45.3039 215.424 45.3039V45.6039V45.9039C216.44 45.9039 217.258 45.7281 217.834 45.3333L217.664 45.0859ZM220.59 45.0439L220.8 44.8291L220.59 45.0439ZM220.016 40.5779H220.316V40.2779H220.016V40.5779ZM218.994 40.5779H218.694V40.8779H218.994V40.5779ZM218.994 39.2479L218.81 39.0111L218.694 39.1011V39.2479H218.994ZM219.876 38.5619L220.06 38.7987L220.107 38.7623L220.136 38.7109L219.876 38.5619ZM220.87 36.8259V36.5259H220.696L220.61 36.6768L220.87 36.8259ZM222.522 36.8259H222.822V36.5259H222.522V36.8259ZM222.522 38.8559H222.222V39.1559H222.522V38.8559ZM224.482 38.8559H224.782V38.5559H224.482V38.8559ZM224.482 40.6759V40.9759H224.782V40.6759H224.482ZM222.522 40.6759V40.3759H222.222V40.6759H222.522ZM222.522 43.6719H222.222V43.974L222.524 43.9719L222.522 43.6719ZM224.482 43.6579H224.782V43.3557L224.48 43.3579L224.482 43.6579ZM224.482 45.1839L224.577 45.4685L224.782 45.4001V45.1839H224.482ZM224.146 45.2959L224.233 45.583L224.241 45.5805L224.146 45.2959ZM223.292 45.4919L223.238 45.1967L223.23 45.1983L223.292 45.4919ZM222.116 45.6039V45.3039C221.544 45.3039 221.116 45.1378 220.8 44.8291L220.59 45.0439L220.381 45.2586C220.83 45.6966 221.419 45.9039 222.116 45.9039V45.6039ZM220.59 45.0439L220.8 44.8291C220.479 44.5162 220.316 44.1242 220.316 43.6299H220.016H219.716C219.716 44.2742 219.936 44.8249 220.381 45.2586L220.59 45.0439ZM220.016 43.6299H220.316V40.5779H220.016H219.716V43.6299H220.016ZM220.016 40.5779V40.2779H218.994V40.5779V40.8779H220.016V40.5779ZM218.994 40.5779H219.294V39.2479H218.994H218.694V40.5779H218.994ZM218.994 39.2479L219.178 39.4847L220.06 38.7987L219.876 38.5619L219.692 38.3251L218.81 39.0111L218.994 39.2479ZM219.876 38.5619L220.136 38.7109L221.13 36.9749L220.87 36.8259L220.61 36.6768L219.616 38.4128L219.876 38.5619ZM220.87 36.8259V37.1259H222.522V36.8259V36.5259H220.87V36.8259ZM222.522 36.8259H222.222V38.8559H222.522H222.822V36.8259H222.522ZM222.522 38.8559V39.1559H224.482V38.8559V38.5559H222.522V38.8559ZM224.482 38.8559H224.182V40.6759H224.482H224.782V38.8559H224.482ZM224.482 40.6759V40.3759H222.522V40.6759V40.9759H224.482V40.6759ZM222.522 40.6759H222.222V43.6719H222.522H222.822V40.6759H222.522ZM222.522 43.6719L222.524 43.9719L224.484 43.9579L224.482 43.6579L224.48 43.3579L222.52 43.3719L222.522 43.6719ZM224.482 43.6579H224.182V45.1839H224.482H224.782V43.6579H224.482ZM224.482 45.1839C224.387 44.8993 224.387 44.8993 224.387 44.8993C224.387 44.8993 224.387 44.8993 224.387 44.8993C224.387 44.8993 224.387 44.8993 224.387 44.8993C224.387 44.8993 224.387 44.8993 224.387 44.8993C224.387 44.8993 224.387 44.8993 224.387 44.8993C224.387 44.8993 224.387 44.8993 224.387 44.8993C224.387 44.8993 224.387 44.8993 224.387 44.8993C224.387 44.8993 224.387 44.8993 224.387 44.8994C224.387 44.8994 224.386 44.8996 224.386 44.8997C224.386 44.8997 224.385 44.8999 224.385 44.8999C224.384 44.9002 224.385 44.9 224.384 44.9002C224.381 44.9012 224.385 44.9 224.382 44.901C224.38 44.9017 224.379 44.9022 224.375 44.9032C224.373 44.9041 224.37 44.9051 224.366 44.9063C224.356 44.9098 224.354 44.9103 224.34 44.915C224.336 44.9164 224.336 44.9163 224.332 44.9177C224.33 44.9185 224.33 44.9185 224.327 44.9192C224.325 44.9201 224.326 44.9198 224.323 44.9207C224.321 44.9212 224.315 44.9233 224.313 44.9239C224.31 44.925 224.312 44.9244 224.308 44.9255C224.307 44.926 224.307 44.9259 224.306 44.9264C224.304 44.9271 224.305 44.9265 224.303 44.9273C224.302 44.9277 224.303 44.9273 224.302 44.9277C224.301 44.9279 224.301 44.9279 224.301 44.9281C224.3 44.9284 224.299 44.9288 224.298 44.929C224.295 44.9301 224.298 44.9289 224.295 44.9299C224.295 44.9299 224.294 44.9304 224.294 44.9304C224.293 44.9306 224.293 44.9306 224.292 44.9309C224.291 44.9312 224.282 44.9343 224.281 44.9347C224.262 44.941 224.276 44.9364 224.256 44.943C224.252 44.9445 224.206 44.9596 224.198 44.9623C224.177 44.9693 224.086 44.9996 224.051 45.0113L224.146 45.2959L224.241 45.5805C224.263 45.5733 224.302 45.5602 224.32 45.5542C224.348 45.5447 224.328 45.5516 224.355 45.5424C224.356 45.5422 224.359 45.5412 224.359 45.541C224.36 45.5408 224.363 45.5398 224.364 45.5396C224.364 45.5393 224.371 45.5371 224.372 45.5368C224.376 45.5354 224.376 45.5356 224.38 45.5341C224.382 45.5336 224.386 45.532 224.388 45.5315C224.389 45.5312 224.403 45.5265 224.403 45.5263C224.407 45.5251 224.415 45.5226 224.418 45.5214C224.426 45.519 224.439 45.5144 224.446 45.5122C224.465 45.5057 224.477 45.5018 224.493 45.4965C224.503 45.493 224.503 45.493 224.513 45.4899C224.517 45.4884 224.517 45.4884 224.522 45.487C224.522 45.4869 224.522 45.4868 224.522 45.4868C224.522 45.4867 224.522 45.4867 224.523 45.4866C224.523 45.4865 224.523 45.4865 224.523 45.4864C224.523 45.4864 224.523 45.4863 224.524 45.4863C224.524 45.4862 224.524 45.4861 224.524 45.4861C224.524 45.486 224.525 45.486 224.525 45.4859C224.525 45.4857 224.525 45.4857 224.526 45.4856C224.526 45.4853 224.527 45.4851 224.528 45.4849C224.528 45.4848 224.528 45.4848 224.528 45.4847C224.528 45.4847 224.529 45.4846 224.529 45.4846C224.529 45.4845 224.53 45.4843 224.53 45.4842C224.53 45.4841 224.533 45.483 224.534 45.4829C224.536 45.482 224.535 45.4826 224.537 45.4817C224.538 45.4815 224.544 45.4796 224.544 45.4794C224.55 45.4775 224.551 45.4771 224.556 45.4755C224.56 45.4741 224.557 45.4752 224.561 45.4738C224.561 45.4736 224.561 45.4736 224.562 45.4735C224.562 45.4734 224.562 45.4734 224.562 45.4734C224.562 45.4733 224.562 45.4733 224.563 45.4733C224.563 45.4732 224.563 45.4732 224.563 45.4732C224.563 45.4732 224.563 45.4731 224.563 45.4731C224.564 45.4729 224.565 45.4725 224.565 45.4724C224.565 45.4724 224.565 45.4724 224.565 45.4723C224.565 45.4723 224.566 45.4723 224.566 45.4722C224.566 45.4722 224.566 45.4722 224.566 45.4722C224.566 45.4721 224.566 45.4721 224.566 45.4721C224.567 45.4719 224.566 45.472 224.567 45.4718C224.568 45.4715 224.568 45.4715 224.569 45.4712C224.57 45.4707 224.57 45.4707 224.572 45.4702C224.575 45.469 224.573 45.4698 224.576 45.4689C224.576 45.4689 224.576 45.4688 224.576 45.4688C224.576 45.4688 224.576 45.4688 224.576 45.4688C224.576 45.4688 224.576 45.4687 224.576 45.4687C224.576 45.4687 224.576 45.4687 224.576 45.4687C224.576 45.4687 224.577 45.4686 224.577 45.4686C224.577 45.4686 224.577 45.4685 224.577 45.4685C224.577 45.4685 224.577 45.4685 224.577 45.4685C224.577 45.4685 224.577 45.4685 224.577 45.4685L224.577 45.4685C224.577 45.4685 224.577 45.4685 224.482 45.1839ZM224.146 45.2959L224.059 45.0089C223.859 45.0695 223.587 45.1325 223.238 45.1968L223.292 45.4919L223.346 45.7869C223.706 45.7206 224.003 45.6529 224.233 45.5829L224.146 45.2959ZM223.292 45.4919L223.23 45.1983C222.899 45.268 222.528 45.3039 222.116 45.3039V45.6039V45.9039C222.563 45.9039 222.976 45.8651 223.354 45.7854L223.292 45.4919Z" fill="black" mask="url(#path-44-outside-1_67_14906)"/>
<path d="M0 259.357C86.4821 258.973 183.504 258.966 269.986 259.357C183.504 259.747 86.4821 259.741 0 259.357Z" fill="#263238"/>
<path d="M128.464 259.351C126.921 259.854 82.8001 259.294 81.1362 258.205C80.5036 257.808 80.2063 251.406 80.0734 243.663V243.418C80.0418 241.825 80.0228 240.176 80.0165 238.514C80.0165 238.281 80.0165 238.054 80.0165 237.828L82.1485 215.052L111.661 215.335L108.757 237.897L108.719 238.791L108.542 243.462V243.94C108.542 243.94 125.333 251.671 127.034 253.055C128.736 254.44 130.014 258.866 128.464 259.351Z" fill="#F0B78D"/>
<path d="M128.464 259.35C126.921 259.854 82.8001 259.294 81.1362 258.205C80.5036 257.808 80.2063 251.406 80.0734 243.663V243.418C80.0418 241.825 80.0228 240.176 80.0165 238.514C80.0165 238.281 80.0165 238.054 80.0165 237.828L108.757 237.897L108.719 238.791L108.542 243.462V243.94C108.542 243.94 125.333 251.67 127.034 253.055C128.736 254.44 130.014 258.866 128.464 259.35Z" fill="#EBEBEB"/>
<path d="M128.471 259.35C127.673 259.609 115.691 259.583 103.975 259.35C101.615 259.3 99.2741 259.25 97.0156 259.187C88.6584 258.96 81.7563 258.62 81.1173 258.205C80.4783 257.789 80.1873 251.582 80.0608 243.984C80.0608 243.877 80.0608 243.77 80.0608 243.663C80.0608 243.556 80.0608 243.493 80.0608 243.411H80.0924L108.523 243.462V243.94C108.523 243.94 125.32 251.671 127.022 253.049C128.724 254.428 130.014 258.859 128.471 259.35Z" fill="#FDD142"/>
<path d="M127.99 257.645C120.556 257.368 90.5437 256.952 83.1734 257.242C83.1102 257.242 83.1102 257.286 83.1734 257.292C90.5374 257.726 120.55 257.922 127.99 257.764C128.148 257.764 128.148 257.651 127.99 257.645Z" fill="#263238"/>
<path d="M111.706 243.581C108.789 243.002 105.202 243.405 102.937 245.47C102.849 245.552 102.937 245.671 103.064 245.646C105.87 244.784 108.761 244.222 111.687 243.972C111.739 243.974 111.789 243.956 111.828 243.921C111.867 243.886 111.89 243.838 111.892 243.786C111.895 243.734 111.876 243.684 111.841 243.645C111.806 243.607 111.758 243.584 111.706 243.581Z" fill="#263238"/>
<path d="M113.8 244.878C110.883 244.299 107.296 244.696 105.038 246.767C104.949 246.849 105.038 246.974 105.158 246.943C107.966 246.08 110.859 245.518 113.787 245.268C113.839 245.27 113.89 245.251 113.927 245.216C113.965 245.18 113.988 245.131 113.989 245.08C113.991 245.028 113.972 244.978 113.936 244.94C113.901 244.902 113.852 244.88 113.8 244.878Z" fill="#263238"/>
<path d="M115.9 246.169C112.977 245.59 109.396 245.992 107.132 248.057C107.043 248.139 107.132 248.259 107.252 248.233C110.059 247.368 112.952 246.807 115.881 246.559C115.933 246.561 115.984 246.543 116.022 246.509C116.061 246.474 116.084 246.425 116.087 246.373C116.089 246.322 116.071 246.271 116.036 246.233C116.001 246.194 115.952 246.171 115.9 246.169Z" fill="#263238"/>
<path d="M103.994 259.35C101.634 259.3 99.2932 259.25 97.0346 259.187C88.6774 258.96 81.7753 258.62 81.1363 258.205C80.4974 257.789 80.2064 251.582 80.0798 243.984C80.0798 243.877 80.0798 243.77 80.0798 243.663C80.0798 243.556 80.0798 243.493 80.0798 243.411H80.1115C84.0022 246.131 97.7305 255.202 103.994 259.35Z" fill="#263238"/>
<path d="M110.238 243.562H78.4665C78.4665 243.562 84.8435 169.715 84.5968 168.425C84.2805 166.775 82.4016 159.303 79.9026 149.539C79.1181 146.48 78.2704 143.207 77.3721 139.807C74.9996 130.623 72.3868 120.582 70.1093 111.844C66.6867 98.757 64.0233 92.015 64.0233 92.015H90.9485C90.9485 92.015 113.091 155.079 113.97 168.11C114.749 179.479 110.238 243.562 110.238 243.562Z" fill="#263238"/>
<path d="M108.827 238.168C103.975 238.067 105.373 238.029 100.52 237.979C98.1417 237.979 82.5344 237.828 80.3139 238.193C80.2696 238.193 80.2696 238.281 80.3139 238.293C82.5344 238.659 98.1417 238.52 100.52 238.495C105.373 238.445 103.975 238.407 108.827 238.306C108.845 238.306 108.863 238.299 108.876 238.286C108.889 238.273 108.897 238.255 108.897 238.237C108.897 238.218 108.889 238.201 108.876 238.188C108.863 238.175 108.845 238.168 108.827 238.168Z" fill="#37474F"/>
<path d="M90.5753 163.924C89.5315 159.353 87.9752 154.878 86.615 150.389C83.8609 141.274 81.0878 132.165 78.2957 123.062C76.9039 118.511 70.4447 101.477 69.8057 99.2103C69.5463 98.2913 69.4071 98.7949 69.7424 99.9657C70.413 102.326 81.4463 136.093 84.2426 145.347C85.6428 149.988 87.0452 154.626 88.4496 159.259C89.1588 161.466 89.7334 163.713 90.1704 165.988C90.5446 168.37 90.638 170.787 90.4488 173.19C90.1451 178.025 89.5821 182.859 89.1392 187.669L87.7917 202.147C86.8976 211.775 86.0119 221.4 85.1346 231.023C85.0271 232.244 84.9195 233.459 84.8246 234.68C84.8246 235.089 85.413 235.058 85.4573 234.68C86.5011 225.162 87.3046 215.612 88.1966 206.082C89.0886 196.551 89.9806 187.115 90.8663 177.628C91.0941 175.248 91.3471 172.863 91.3471 170.471C91.335 168.266 91.0761 166.071 90.5753 163.924Z" fill="#37474F"/>
<path d="M87.9182 92.015C86.0202 106.406 82.4964 129.968 79.9026 149.546C73.8229 125.826 64.0486 92.0213 64.0486 92.0213L87.9182 92.015Z" fill="#37474F"/>
<path d="M95.6112 259.785C94.0612 260.289 49.9408 259.886 48.2769 258.809C47.6443 258.413 47.3153 252.011 47.1572 244.268V244.022C47.1192 242.429 47.0939 240.786 47.0812 239.118C47.0812 238.892 47.0812 238.659 47.0812 238.432C46.9737 227.252 47.7835 215.656 47.7835 215.656L76.6193 215.839L75.8158 238.401V239.294L75.6513 243.965V244.444C75.6513 244.444 92.467 252.118 94.1814 253.49C95.8959 254.862 97.1548 259.288 95.6112 259.785Z" fill="#F0B78D"/>
<path d="M95.6111 259.785C94.0611 260.288 49.9407 259.886 48.2769 258.809C47.6442 258.413 47.3153 252.01 47.1571 244.268V244.022C47.1191 242.429 47.0938 240.786 47.0812 239.118C47.0812 238.892 47.0812 238.659 47.0812 238.432L75.8158 238.401V239.294L75.6513 243.965V244.444C75.6513 244.444 92.4669 252.117 94.1814 253.49C95.8958 254.862 97.1548 259.288 95.6111 259.785Z" fill="#EBEBEB"/>
<path d="M95.6111 259.785C94.0612 260.289 49.9407 259.886 48.2769 258.809C47.6442 258.413 47.3153 252.011 47.1571 244.268V244.022L75.626 243.965V244.444C75.626 244.444 92.4416 252.118 94.1561 253.49C95.8705 254.862 97.1548 259.288 95.6111 259.785Z" fill="#FDD142"/>
<path d="M95.1366 258.079C87.7031 257.827 57.6906 257.525 50.3203 257.84C50.257 257.84 50.257 257.884 50.3203 257.884C57.6842 258.293 87.6967 258.356 95.1366 258.199C95.2821 258.192 95.2821 258.085 95.1366 258.079Z" fill="#263238"/>
<path d="M78.7892 244.072C75.8664 243.506 72.2856 243.921 70.0271 245.961C69.9448 246.043 70.0587 246.162 70.1536 246.137C72.9575 245.26 75.8487 244.688 78.7765 244.431C78.815 244.42 78.849 244.397 78.8736 244.366C78.8982 244.335 78.9122 244.296 78.9136 244.256C78.915 244.217 78.9038 244.177 78.8814 244.144C78.859 244.111 78.8268 244.086 78.7892 244.072Z" fill="#263238"/>
<path d="M80.8895 245.363C77.9667 244.79 74.386 245.206 72.1274 247.251C72.0452 247.333 72.1591 247.453 72.2539 247.428C75.0604 246.568 77.9511 246.009 80.8769 245.76C80.9297 245.761 80.9811 245.742 81.0196 245.706C81.0582 245.67 81.0808 245.62 81.0825 245.568C81.0841 245.515 81.0648 245.464 81.0286 245.425C80.9924 245.387 80.9424 245.365 80.8895 245.363Z" fill="#263238"/>
<path d="M82.9899 246.647C80.0671 246.074 76.4864 246.49 74.2342 248.536C74.1456 248.611 74.2342 248.737 74.3544 248.706C77.1601 247.839 80.0508 247.274 82.9773 247.019C83.0018 247.019 83.0262 247.015 83.0492 247.007C83.0721 246.998 83.0932 246.985 83.1111 246.969C83.129 246.952 83.1435 246.932 83.1536 246.91C83.1638 246.887 83.1694 246.864 83.1702 246.839C83.1711 246.815 83.1671 246.79 83.1585 246.768C83.1498 246.745 83.1368 246.724 83.12 246.706C83.1033 246.688 83.0832 246.674 83.0609 246.664C83.0385 246.654 83.0144 246.648 82.9899 246.647Z" fill="#263238"/>
<path d="M90.7904 92.015C90.2368 98.6312 89.044 105.179 87.2286 111.567C86.9945 112.405 86.7352 113.229 86.4568 114.023C86.4568 114.023 84.0781 115.131 79.3839 117.995C79.3839 117.995 79.0802 128.312 78.7512 139.813C78.4096 152.674 78.0553 167.021 78.1186 170.061C78.3906 181.443 76.7015 244.028 76.7015 244.028L44.9365 244.167C44.9365 244.167 50.6303 174.292 50.6303 170.099C50.567 163.395 52.1613 133.776 53.3886 112.184C54.1415 98.8766 54.7614 92.0402 54.7614 92.0402L90.7904 92.015Z" fill="#263238"/>
<path d="M75.645 238.407C70.7926 238.331 72.1844 238.281 67.3321 238.262C64.9597 238.262 49.3524 238.18 47.1318 238.558C47.0812 238.558 47.0875 238.646 47.1318 238.652C49.3524 239.011 64.9597 238.803 67.3384 238.772C72.1908 238.703 70.7926 238.671 75.645 238.552C75.6606 238.547 75.6744 238.537 75.6842 238.524C75.6939 238.511 75.6992 238.496 75.6992 238.479C75.6992 238.463 75.6939 238.447 75.6842 238.434C75.6744 238.421 75.6606 238.412 75.645 238.407Z" fill="#37474F"/>
<path d="M57.4565 96.6041C56.8745 114.23 56.2608 128.451 55.47 146.083C54.6792 163.716 53.6101 181.449 52.1297 199.094C51.3009 208.952 50.5228 222.82 49.4536 232.659C49.4536 232.722 49.5485 232.748 49.5548 232.659C51.864 215.165 53.1482 193.536 54.287 175.928C55.4258 158.321 56.1849 140.676 56.7859 123.05C57.1212 113.078 57.3806 106.525 57.678 96.5538C57.6843 96.4467 57.4629 96.4593 57.4565 96.6041Z" fill="#37474F"/>
<path d="M58.6775 108.061C59.462 107.86 60.2971 107.797 61.0942 107.671C61.7268 107.57 62.3595 107.457 62.9921 107.318C64.2142 107.099 65.3723 106.613 66.3831 105.896C67.9647 104.637 69.7867 98.4234 70.0081 98.0268C70.3877 97.3406 70.5016 97.9387 70.5016 98.0268C70.5016 98.7507 68.8377 104.215 68.1924 105.235C67.0157 107.123 64.9027 107.853 62.796 108.118C62.195 108.193 61.5876 108.237 60.9803 108.269C60.2143 108.338 59.4435 108.338 58.6775 108.269C58.6542 108.263 58.6335 108.25 58.6187 108.231C58.6039 108.212 58.5958 108.189 58.5958 108.165C58.5958 108.141 58.6039 108.118 58.6187 108.099C58.6335 108.08 58.6542 108.067 58.6775 108.061Z" fill="#37474F"/>
<path d="M86.3556 114.193C83.2636 115.31 80.2748 116.691 77.4227 118.322C77.4014 118.335 77.3856 118.355 77.3781 118.378C77.3706 118.402 77.3721 118.427 77.3823 118.45C77.3924 118.472 77.4105 118.49 77.4331 118.5C77.4557 118.511 77.4813 118.512 77.505 118.505C80.5163 117.246 83.591 115.987 86.5328 114.533C86.5683 114.504 86.5929 114.465 86.6023 114.421C86.6118 114.376 86.6055 114.33 86.5846 114.29C86.5637 114.25 86.5294 114.218 86.4877 114.201C86.4459 114.183 86.3992 114.18 86.3556 114.193Z" fill="#37474F"/>
<path d="M87.2603 93.6329C87.2603 93.5321 87.0705 93.507 87.0705 93.6329C87.0719 96.9777 86.9029 100.32 86.5643 103.648C86.4252 105.197 85.1789 113.72 82.4838 113.091C82.0346 112.99 81.8069 112.543 81.7373 111.87C81.7462 110.986 81.8652 110.106 82.0916 109.251C82.3889 107.463 82.6293 105.669 82.7875 103.869C83.0976 100.506 83.0594 97.1201 82.6736 93.7651C82.6685 93.7464 82.6573 93.73 82.6419 93.7183C82.6265 93.7066 82.6076 93.7003 82.5882 93.7003C82.5688 93.7003 82.5499 93.7066 82.5345 93.7183C82.5191 93.73 82.5079 93.7464 82.5028 93.7651C82.5834 98.4269 82.3085 103.088 81.6804 107.709C81.3451 109.924 80.219 113.267 82.5534 113.613C84.8878 113.96 86.4694 108.357 86.7605 106.827C87.5006 102.469 87.6686 98.034 87.2603 93.6329Z" fill="#37474F"/>
<path d="M82.5598 113.33C82.3073 113.904 82.0959 114.495 81.9271 115.099C81.7558 115.565 81.6701 116.057 81.6741 116.553C81.6741 116.648 81.8133 116.654 81.8639 116.591C82.146 116.154 82.3593 115.676 82.4965 115.175C82.699 114.627 82.9141 114.086 83.1292 113.532C83.156 113.456 83.1517 113.374 83.1173 113.302C83.0829 113.23 83.0212 113.174 82.9457 113.148C82.8702 113.121 82.7871 113.125 82.7147 113.159C82.6424 113.194 82.5866 113.255 82.5598 113.33Z" fill="#37474F"/>
<path d="M85.4951 57.8517C84.5651 71.9401 85.2168 86.3369 87.0325 88.9431C89.8477 92.9908 108.327 101.647 114.546 103.227C116.583 103.743 121.195 90.2713 119.835 88.4898C118.475 86.7083 98.3251 78.8898 97.3192 77.9645C96.7815 77.4672 93.8587 65.8842 91.3914 58.028C89.1012 50.7257 85.7798 53.5711 85.4951 57.8517Z" fill="#F0B78D"/>
<path d="M88.2705 52.5352C89.0051 52.5362 89.7039 52.963 90.2881 53.6221C90.875 54.2844 91.3675 55.2032 91.6904 56.2442C92.6562 59.3508 94.0618 64.4865 95.3125 68.8858C95.9384 71.0874 96.5255 73.1051 97 74.5958C97.2374 75.3414 97.4452 75.9521 97.6152 76.3868C97.7004 76.6046 97.7744 76.7741 97.8359 76.8926C97.8667 76.9519 97.8931 76.9937 97.9131 77.0215C97.9223 77.0344 97.9286 77.0417 97.9316 77.045C98.7727 77.518 102.692 79.3173 106.423 81.0069C108.29 81.8527 110.106 82.6686 111.455 83.2735C112.129 83.5758 112.686 83.8261 113.075 84.0001C113.27 84.087 113.423 84.1549 113.526 84.2012C113.578 84.2244 113.618 84.242 113.645 84.254C113.658 84.2599 113.668 84.2646 113.675 84.2676C113.678 84.2691 113.681 84.2698 113.683 84.2706L113.685 84.2715V84.2725L113.854 84.3477L113.792 84.5215L107.731 101.481L107.658 101.686L107.46 101.596C107.459 101.596 107.457 101.594 107.456 101.594C107.454 101.593 107.45 101.592 107.446 101.59C107.437 101.586 107.424 101.579 107.406 101.571C107.371 101.555 107.318 101.531 107.249 101.499C107.111 101.436 106.909 101.344 106.651 101.225C106.135 100.986 105.395 100.642 104.5 100.22C102.709 99.3757 100.296 98.2184 97.8047 96.9659C95.3142 95.7136 92.7434 94.3655 90.6406 93.1387C89.5895 92.5255 88.653 91.9407 87.9004 91.4131C87.152 90.8885 86.5705 90.4101 86.2441 90.0069C85.8322 89.4969 85.498 88.6869 85.2227 87.6768C84.9459 86.6614 84.7227 85.4215 84.5459 84.0333C84.1923 81.2563 84.0208 77.8675 83.9717 74.4542C83.8736 67.632 84.2667 60.6787 84.6973 58.2823C85.0649 56.2393 85.5881 54.813 86.1982 53.8926C86.81 52.9699 87.5261 52.5343 88.2705 52.5352Z" fill="#4487A7" stroke="black" stroke-width="0.4"/>
<path d="M104.746 99.1599C104.987 97.9009 106.847 92.8334 107.328 91.6058C107.808 90.3783 109.858 85.3989 110.383 84.1147C110.383 84.0455 110.522 84.0643 110.491 84.1147C110.023 85.3737 108.327 90.5231 107.859 91.7758C107.391 93.0285 105.48 98.0709 104.81 99.1851C104.808 99.1892 104.806 99.193 104.802 99.1962C104.799 99.1994 104.796 99.2019 104.792 99.2037C104.787 99.2054 104.783 99.2064 104.779 99.2064C104.774 99.2065 104.77 99.2056 104.765 99.204C104.761 99.2023 104.757 99.1999 104.754 99.1968C104.751 99.1937 104.749 99.19 104.747 99.1859C104.745 99.1818 104.744 99.1774 104.744 99.1729C104.744 99.1685 104.745 99.1641 104.746 99.1599Z" fill="#263238"/>
<path opacity="0.1" d="M101.609 98.6186C95.9148 95.8613 87.9562 91.7947 86.4252 89.8873C83.3442 86.0662 84.0591 63.0703 84.9195 58.3175C85.6534 54.2132 87.0135 52.7086 88.3358 52.7401L101.609 98.6186Z" fill="#020100"/>
<path d="M53.5214 91.9143C53.591 92.0276 92.1822 96.7111 92.606 96.3901C92.7642 96.2705 93.7195 61.9498 89.6706 52.8345C88.0004 49.0575 81.2248 47.0808 77.4416 51.0719C58.9495 70.5488 53.4329 91.7632 53.5214 91.9143Z" fill="#EBEBEB"/>
<path d="M59.1009 106.378L139.776 77.9036L145.735 94.6203L65.0599 123.095L59.1009 106.378Z" fill="#FDD142" stroke="black" stroke-width="0.3"/>
<path opacity="0.1" d="M59.1009 106.378L139.776 77.9036L145.735 94.6203L65.0599 123.095L59.1009 106.378Z" fill="#020100" stroke="black" stroke-width="0.3"/>
<g opacity="0.1">
<path d="M138.479 82.1759C114.552 90.8253 87.6398 100.325 63.5804 108.615C87.507 99.9658 114.42 90.4665 138.479 82.1759Z" fill="black"/>
<path d="M139.643 85.4368C115.716 94.0799 88.8102 103.579 64.7698 111.863C88.6963 103.214 115.609 93.7211 139.668 85.4242L139.643 85.4368Z" fill="black"/>
<path d="M140.801 88.6913C116.874 97.3407 89.9616 106.84 65.9022 115.131C89.8287 106.481 116.748 96.9819 140.801 88.6913Z" fill="black"/>
<path d="M141.952 91.9521C118.026 100.602 91.113 110.101 67.0536 118.391C90.9801 109.742 117.893 100.249 141.952 91.9521Z" fill="black"/>
</g>
<path d="M52.8218 108.967L58.6792 125.404L58.7251 125.532L58.603 125.589V125.59L58.6011 125.591C58.5998 125.592 58.5976 125.592 58.5952 125.593C58.5901 125.596 58.5825 125.6 58.5728 125.604C58.5534 125.613 58.5248 125.626 58.4878 125.642C58.4134 125.675 58.3041 125.722 58.1646 125.778C57.8853 125.89 57.4832 126.039 56.9907 126.189C56.0068 126.488 54.6567 126.79 53.1987 126.797C51.7403 126.805 50.1676 126.517 48.7466 125.629C47.3236 124.741 46.0652 123.259 45.2251 120.903C44.3852 118.547 44.424 116.607 44.9663 115.025C45.508 113.444 46.5471 112.234 47.6841 111.325C48.8208 110.416 50.0607 109.803 51.0142 109.418C51.4913 109.226 51.8982 109.09 52.186 109.001C52.3299 108.957 52.4444 108.925 52.5229 108.904C52.5619 108.893 52.5921 108.886 52.6128 108.88C52.6232 108.878 52.6318 108.876 52.6372 108.875C52.6398 108.874 52.6417 108.873 52.6431 108.873H52.645L52.7759 108.841L52.8218 108.967Z" fill="white" stroke="#263238" stroke-width="0.3"/>
<path d="M52.23 107.418L59.0697 126.605L63.7502 124.953L56.9106 105.766L52.23 107.418Z" fill="#A6A6A6"/>
<path d="M57.3942 105.588L64.2339 124.775L68.9144 123.123L62.0747 103.936L57.3942 105.588Z" fill="#A6A6A6"/>
<path d="M139.662 78.0778L153.751 80.067L158.401 80.6965L155.238 84.1525L145.565 94.5331L142.572 93.7147C142.572 93.7147 144.363 91.2911 144.388 91.2407L141.395 90.4224C141.395 90.4224 143.192 87.9988 143.217 87.9484L140.238 87.1678C140.238 87.1678 142.022 84.7065 142.041 84.6498L139.067 83.8692C139.067 83.8692 140.845 81.4078 140.87 81.3512L137.891 80.5706C137.891 80.5706 139.643 78.1281 139.662 78.0778Z" fill="#FDD142"/>
<path opacity="0.6" d="M139.662 78.0778L153.751 80.067L158.401 80.6965L155.238 84.1525L145.565 94.5331L142.572 93.7147C142.572 93.7147 144.363 91.2911 144.388 91.2407L141.395 90.4224C141.395 90.4224 143.192 87.9988 143.217 87.9484L140.238 87.1678C140.238 87.1678 142.022 84.7065 142.041 84.6498L139.067 83.8692C139.067 83.8692 140.845 81.4078 140.87 81.3512L137.891 80.5706C137.891 80.5706 139.643 78.1281 139.662 78.0778Z" fill="white"/>
<path d="M153.751 80.067L158.401 80.7091L155.206 84.1525L153.751 80.067Z" fill="#263238"/>
<path d="M74.0823 53.3444C65.3709 61.0559 53.5468 75.2576 54.0782 78.9024C55.4068 88.024 62.2077 99.5125 65.7694 103.762C67.8445 106.242 81.5349 95.9746 79.7951 93.6895C77.0621 90.0699 70.5522 78.6569 69.812 77.1713C69.4135 76.3781 75.4552 65.5002 78.7449 58.0469C82.3257 49.9388 78.3337 49.5926 74.0823 53.3444Z" fill="#F0B78D"/>
<path d="M84.3817 100.847C83.8883 99.8461 84.4134 99.588 86.1974 100.438C87.9815 101.288 94.3332 106.204 95.8705 103.856C97.4078 101.508 88.3484 94.7156 85.2548 93.5133C82.1612 92.3109 76.79 91.4485 76.79 91.4485C78.2704 93.1167 81.5095 97.5232 84.3817 100.847Z" fill="#F0B78D"/>
<path d="M65.6746 103.692C70.0588 108.25 75.2401 114.199 82.1232 116.131C82.8834 116.369 83.702 116.342 84.445 116.056C87.5197 116.981 88.8735 115.81 88.8735 115.81C91.9988 115.81 93.2261 114.419 93.2261 114.419C93.2261 114.419 96.8385 115.458 97.8381 113.387C98.9642 111.07 93.6626 110.057 91.0878 107.721C85.1916 102.383 78.3084 93.1481 76.7648 91.4421L65.6746 103.692Z" fill="#F0B78D"/>
<path d="M80.9655 106.45C82.6733 108.041 84.4891 109.513 86.3999 110.856C88.5773 112.188 90.8504 113.357 93.2008 114.356C93.2104 114.357 93.2197 114.361 93.2279 114.366C93.2361 114.371 93.243 114.378 93.248 114.386C93.253 114.394 93.2561 114.404 93.257 114.413C93.2578 114.423 93.2564 114.433 93.2529 114.442C93.2494 114.451 93.2438 114.459 93.2367 114.465C93.2295 114.472 93.2209 114.477 93.2116 114.479C93.2023 114.482 93.1925 114.483 93.1829 114.481C93.1733 114.479 93.1643 114.475 93.1565 114.47C88.4185 112.996 84.1778 110.256 80.8959 106.55C80.82 106.443 80.8769 106.374 80.9655 106.45Z" fill="#263238"/>
<path d="M77.214 109.528C79.017 110.925 82.1992 113.368 88.9115 115.741C88.9115 115.741 88.9115 115.792 88.9115 115.785C84.4931 114.853 80.423 112.714 77.157 109.61C77.0368 109.515 77.0938 109.434 77.214 109.528Z" fill="#263238"/>
<path d="M75.2211 111.215C78.3843 113.481 80.6554 114.514 84.445 116.037C84.445 116.037 84.445 116.087 84.445 116.075C79.9595 114.816 78.4791 113.821 75.1451 111.309C75.0186 111.228 75.1008 111.127 75.2211 111.215Z" fill="#263238"/>
<path d="M78.0658 50.5862C78.966 50.2362 79.7605 50.1369 80.3724 50.3499C81.0049 50.57 81.3952 51.1054 81.5101 51.8997C81.6235 52.6831 81.4737 53.7353 81.0345 55.051C79.5567 59.4875 73.9357 71.2022 70.8822 77.2043L79.6801 91.2542L79.7816 91.4172L79.6234 91.5256L62.1752 103.417L61.9974 103.538L61.889 103.352V103.351C61.8887 103.35 61.8877 103.35 61.8871 103.349C61.8857 103.346 61.8831 103.342 61.8802 103.337C61.8746 103.327 61.8667 103.313 61.8558 103.294C61.8338 103.256 61.8006 103.2 61.7582 103.126C61.6732 102.979 61.549 102.761 61.391 102.484C61.0749 101.928 60.6242 101.13 60.0863 100.157C59.0107 98.2133 57.5857 95.5732 56.1869 92.7922C54.7884 90.0119 53.4145 87.086 52.4437 84.5715C51.9584 83.3146 51.5723 82.1561 51.3344 81.1672C51.098 80.1849 51.0016 79.3451 51.1176 78.7385C51.1999 78.3078 51.486 77.7003 51.9213 76.968C52.3607 76.2287 52.9651 75.3411 53.7015 74.344C55.1748 72.3492 57.186 69.9054 59.4935 67.3167C64.1075 62.1403 69.9165 56.3696 74.9906 52.425L74.9916 52.4241C76.1177 51.556 77.1599 50.9384 78.0658 50.5862Z" fill="#4487A7" stroke="black" stroke-width="0.4"/>
<path d="M62.2709 98.946C63.2072 98.0143 67.6673 94.8605 68.7871 94.0862C69.9069 93.3119 74.4809 90.3532 75.6639 89.5663C75.7272 89.5223 75.8031 89.5978 75.7398 89.6419C74.6137 90.4413 70.2422 93.7651 69.1287 94.5457C68.0153 95.3263 63.5045 98.4549 62.3088 99.0026C62.2709 99.0278 62.2393 98.9774 62.2709 98.946Z" fill="#263238"/>
<path d="M77.6631 62.85C75.917 67.1432 73.5319 71.5624 71.5707 75.7675C71.4315 76.0696 70.995 77.0265 70.9381 77.1776C72.8993 80.6398 75.3666 84.3665 77.4227 87.8162L79.5357 91.31L79.0549 91.6121L79.504 91.2596V91.3037L77.1822 87.9358C74.9807 84.6246 72.5387 81.0112 70.5332 77.6182C70.4509 77.4356 70.3371 77.3412 70.3497 77.0894C70.5079 76.5292 70.7198 75.9853 70.9824 75.4653C72.9436 71.3735 75.5121 66.797 77.6441 62.8059L77.6631 62.85Z" fill="#263238"/>
<path d="M77.7896 63.6873C77.4453 64.3576 76.952 64.941 76.3472 65.3932C76.7931 64.7963 77.2748 64.2266 77.7896 63.6873Z" fill="#263238"/>
<path d="M114.211 97.5169C115.267 95.6284 116.906 97.945 116.906 97.945C116.906 97.945 115.362 94.0357 117.209 92.506C119.057 90.9763 120.872 93.9161 121.005 94.1176C120.923 93.9098 119.601 90.2776 121.638 88.9304C123.675 87.5833 125.118 90.7434 125.206 90.9511C125.206 90.7371 125.067 87.8036 126.832 87.1741C129.869 86.0158 130.938 94.2875 133 95.9242L137.764 94.7345C136.811 95.5581 136.117 96.6379 135.765 97.8442C135.208 99.5754 134.848 100.727 134.044 101.533C133.694 101.907 133.233 102.158 132.728 102.25C132.223 102.342 131.702 102.269 131.241 102.043C131.241 102.043 131.703 104.297 130.147 105.405C129.35 105.971 127.724 105.203 127.724 105.203C127.724 105.203 128.015 107.022 126.573 107.923C125.421 108.647 123.972 107.765 123.972 107.765C123.972 107.765 123.441 109.654 122.024 110C119.177 110.705 111.946 101.565 114.211 97.5169Z" fill="#F0B78D"/>
<path d="M134.133 95.792L137.663 94.747H138.08C142.794 94.6652 146.659 99.2795 143.439 100.306C140.991 101.086 137.619 98.3226 135.215 99.4872L134.133 95.792Z" fill="#F0B78D"/>
<path d="M123.713 107.633C123.713 107.633 123.713 107.709 123.675 107.684C120.43 105.169 118.031 101.73 116.798 97.8254C116.767 97.6995 116.956 97.5862 117.02 97.7184C118.754 101.33 121.009 104.67 123.713 107.633Z" fill="#263238"/>
<path d="M127.737 105.241C127.737 105.272 127.737 105.323 127.673 105.291C124.479 102.773 121.587 98.6186 120.847 94.0861C120.847 93.9288 120.955 93.7651 120.999 93.9414C121.708 96.9189 125.155 102.496 127.737 105.241Z" fill="#263238"/>
<path d="M125.257 90.6175C126.136 94.9359 128.319 98.543 131.096 101.949C131.134 101.993 131.064 102.037 131.026 102.012C129.217 100.753 127.673 98.3856 126.598 96.4656C125.593 94.7 125.069 92.7034 125.08 90.6742C125.105 90.5672 125.238 90.5294 125.257 90.6175Z" fill="#263238"/>
<path d="M82.7559 48.3902C80.8579 49.1519 81.0161 51.6448 82.313 54.7231C83.6099 57.8014 85.6344 59.9732 87.7158 59.8095C89.7972 59.6458 90.5753 56.7186 90.7651 55.0378C90.9106 53.7159 90.4235 51.0468 88.1333 49.7437C85.8432 48.4406 83.8377 47.9559 82.7559 48.3902Z" fill="#455A64"/>
<path d="M87.1906 58.6323C84.9131 58.2861 82.275 53.2437 81.9081 50.1214C81.9081 49.9073 82.9013 48.1636 84.0464 45.9855C84.7297 44.6636 85.4635 43.1779 86.0329 41.7678L94.0295 47.4649C92.813 49.0141 91.7911 50.7053 90.9865 52.5009C90.9089 52.6943 90.8496 52.8946 90.8094 53.0989C90.8115 53.1325 90.8115 53.1661 90.8094 53.1997C90.5183 54.3894 89.3922 58.966 87.1906 58.6323Z" fill="#F0B78D"/>
<path d="M90.8094 53.1304C90.8094 53.1304 90.8094 53.187 90.8094 53.2248C90.4912 53.1454 90.1802 53.0401 89.8794 52.9101C84.8182 50.7383 86.1215 44.0025 86.6023 42.1518L88.5951 43.5745L94.0548 47.4711C92.8375 49.0198 91.8155 50.7111 91.0118 52.5072C90.9235 52.7076 90.8557 52.9164 90.8094 53.1304Z" fill="#263238"/>
<path d="M87.6146 31.872C85.8432 34.9314 85.4004 44.8272 87.2603 47.4837C89.9554 51.33 95.4847 52.8975 99.0274 49.4226C102.482 46.0547 102.823 33.1436 100.653 30.6192C97.4395 26.9051 90.2211 27.3584 87.6146 31.872Z" fill="#F0B78D"/>
<path d="M95.5858 40.1877C95.5858 40.1877 95.5352 40.1877 95.5352 40.2444C95.5352 40.9117 95.396 41.6734 94.776 41.8622C94.776 41.8622 94.776 41.9063 94.776 41.9C95.5288 41.8371 95.687 40.8235 95.5858 40.1877Z" fill="#263238"/>
<path d="M95.0227 39.4638C93.9536 39.3253 93.7574 41.4719 94.757 41.5978C95.7566 41.7237 95.9274 39.5771 95.0227 39.4638Z" fill="#263238"/>
<path d="M99.388 40.4018C99.388 40.4018 99.4386 40.4018 99.4323 40.4647C99.3564 41.1257 99.3754 41.9 99.9574 42.1707C99.9574 42.1707 99.9574 42.2148 99.9574 42.2085C99.2236 42.0385 99.2046 41.0124 99.388 40.4018Z" fill="#263238"/>
<path d="M100.046 39.7597C101.128 39.7597 101.02 41.9252 100.046 41.9126C99.0716 41.9 99.1412 39.7471 100.046 39.7597Z" fill="#263238"/>
<path d="M94.1117 37.783C94.407 37.7544 94.7005 37.7103 94.9911 37.6508C95.3068 37.6499 95.6135 37.546 95.8641 37.355C95.9252 37.2742 95.9582 37.1759 95.9582 37.0748C95.9582 36.9738 95.9252 36.8755 95.8641 36.7947C95.7262 36.6479 95.5518 36.5398 95.3586 36.4812C95.1654 36.4227 94.9601 36.4157 94.7633 36.4611C94.3502 36.4961 93.9648 36.6823 93.6815 36.9836C93.6164 37.0577 93.5756 37.1498 93.5644 37.2477C93.5532 37.3455 93.5723 37.4444 93.619 37.5312C93.6657 37.618 93.7378 37.6886 93.8259 37.7336C93.9139 37.7786 94.0136 37.7958 94.1117 37.783Z" fill="#263238"/>
<path d="M101.128 38.0537C100.845 37.9693 100.566 37.8706 100.293 37.7579C99.9835 37.6921 99.704 37.5287 99.4956 37.292C99.4505 37.2076 99.433 37.1113 99.4454 37.0165C99.4579 36.9218 99.4998 36.8332 99.5652 36.7632C99.7293 36.6461 99.9215 36.5739 100.123 36.554C100.323 36.5341 100.526 36.5672 100.71 36.6499C101.108 36.765 101.448 37.023 101.666 37.3739C101.704 37.4551 101.718 37.5453 101.708 37.6344C101.698 37.7234 101.663 37.8079 101.607 37.8783C101.551 37.9488 101.477 38.0025 101.392 38.0334C101.308 38.0644 101.216 38.0714 101.128 38.0537Z" fill="#263238"/>
<path d="M95.0671 44.097C95.2118 44.3755 95.413 44.6212 95.658 44.8184C95.903 45.0156 96.1865 45.1601 96.4905 45.2427C96.7561 45.3166 97.0309 45.3526 97.3066 45.3497C97.3591 45.3563 97.4123 45.3563 97.4648 45.3497H97.6103C97.6473 45.3462 97.6821 45.3308 97.7095 45.3058C97.7369 45.2808 97.7554 45.2476 97.7621 45.2112V45.1419V45.079C97.8254 44.5691 97.8444 43.7885 97.8444 43.7885C98.0215 43.9018 98.9452 44.418 98.9515 44.141C99.0968 41.8298 99.0077 39.5099 98.6858 37.2165C98.6858 37.1998 98.6791 37.1837 98.6672 37.1719C98.6554 37.1601 98.6393 37.1535 98.6225 37.1535C98.6057 37.1535 98.5896 37.1601 98.5778 37.1719C98.5659 37.1837 98.5593 37.1998 98.5593 37.2165C98.4137 39.3505 98.6415 41.4971 98.5593 43.65C98.2334 43.4604 97.8818 43.3184 97.5154 43.2282C97.4395 43.2282 97.5154 44.7391 97.4585 44.972C97.0334 44.9778 96.6115 44.8983 96.218 44.7382C95.8245 44.5781 95.4675 44.3408 95.1683 44.0403C95.0861 44.0025 95.0291 44.0403 95.0671 44.097Z" fill="#263238"/>
<path d="M85.1409 38.4503C85.0397 37.5375 84.6348 29.7883 85.0523 28.8063C85.4699 27.8242 86.3935 28.46 86.4189 28.4097C86.4442 28.3593 86.615 27.5158 87.1907 27.2829C87.3857 27.238 87.5879 27.2332 87.7848 27.2689C87.9817 27.3047 88.1692 27.3801 88.3358 27.4906C88.3358 27.4906 88.6458 26.6219 89.2468 26.4708C89.4464 26.4442 89.6495 26.469 89.8367 26.5428C90.0239 26.6167 90.1889 26.7371 90.3159 26.8926C90.4071 26.6631 90.5534 26.4594 90.742 26.2992C90.9306 26.1389 91.1557 26.0271 91.3977 25.9735C91.6089 25.9498 91.8221 25.9947 92.0056 26.1013C92.1891 26.2079 92.3332 26.3706 92.4163 26.5652C92.4163 26.5652 92.8022 25.7531 93.4159 25.6839C94.0295 25.6147 94.4407 26.3134 94.4407 26.3134C94.5615 26.114 94.7338 25.9505 94.9396 25.8397C95.1454 25.729 95.3773 25.6752 95.6111 25.6839C95.8326 25.7353 96.0335 25.8516 96.1879 26.0176C96.3424 26.1837 96.4434 26.3919 96.4779 26.6156C96.6239 26.4307 96.8103 26.2813 97.0229 26.1788C97.2356 26.0763 97.4689 26.0233 97.7052 26.0238C98.3821 26.112 98.477 26.987 98.477 26.987C98.477 26.987 98.8692 26.2882 99.4956 26.4393C100.122 26.5904 100.128 27.4969 100.128 27.4969C100.128 27.4969 100.698 26.6156 101.324 27.1003C102.064 27.6794 102.115 33.3954 101.957 35.7875C101.957 35.7875 101.691 34.0186 101.008 33.9934C100.324 33.9682 99.8625 35.435 98.6225 34.9754C97.3825 34.5159 95.7377 33.0869 93.903 33.1624C92.0683 33.238 90.5943 35.051 89.5251 37.6697C88.3421 40.6221 85.3813 40.6095 85.1409 38.4503Z" fill="#263238"/>
<path d="M93.7574 43.2597C93.2419 43.1452 92.7689 42.8889 92.3925 42.5201C92.0161 42.1513 91.7513 41.6847 91.6283 41.1735C91.5052 40.6623 91.5289 40.127 91.6965 39.6286C91.8642 39.1301 92.1691 38.6884 92.5766 38.3539C92.9841 38.0194 93.4777 37.8054 94.0014 37.7363C94.5251 37.6672 95.0578 37.7458 95.5388 37.9632C96.0198 38.1805 96.4298 38.5278 96.7222 38.9656C97.0146 39.4034 97.1776 39.9141 97.1927 40.4395C97.2025 40.866 97.1149 41.2892 96.9365 41.6771C96.7581 42.0651 96.4936 42.4077 96.1629 42.6792C95.8322 42.9507 95.4439 43.144 95.0272 43.2446C94.6106 43.3451 94.1764 43.3503 93.7574 43.2597ZM94.9088 38.1418C94.7009 38.0987 94.4886 38.0796 94.2762 38.0852C93.6566 38.1103 93.0698 38.369 92.6349 38.8088C92.1999 39.2486 91.9494 39.8366 91.9342 40.4534C91.919 41.0703 92.1402 41.6698 92.5529 42.1303C92.9656 42.5908 93.539 42.8779 94.1566 42.9332C94.7742 42.9885 95.3898 42.8079 95.8786 42.4281C96.3673 42.0483 96.6925 41.4978 96.7882 40.8881C96.8839 40.2785 96.743 39.6554 96.394 39.1454C96.0449 38.6354 95.514 38.2766 94.9088 38.1418Z" fill="#FDD142"/>
<path d="M100.198 43.8955C99.1476 43.6563 98.4327 42.3721 98.5845 40.9117C98.6451 40.2147 98.9239 39.5541 99.3817 39.0231C99.5727 38.7917 99.8163 38.6087 100.092 38.4894C100.369 38.3701 100.669 38.3179 100.97 38.337C101.267 38.3777 101.55 38.4894 101.795 38.6626C102.039 38.8358 102.238 39.0653 102.374 39.3316C102.713 39.9458 102.85 40.6503 102.766 41.346C102.602 42.8883 101.533 44.0403 100.381 43.9207L100.198 43.8955ZM101.071 38.7336H100.932C100.691 38.7201 100.45 38.7646 100.229 38.8632C100.009 38.9618 99.8161 39.1117 99.6664 39.3001C99.2592 39.7697 99.0132 40.3563 98.9641 40.9746C98.8186 42.3092 99.4766 43.4926 100.419 43.5745C101.362 43.6563 102.248 42.668 102.393 41.3334C102.464 40.7168 102.345 40.0932 102.051 39.5456C101.955 39.349 101.818 39.175 101.649 39.035C101.48 38.8951 101.283 38.7923 101.071 38.7336Z" fill="#FDD142"/>
<path d="M97.0662 40.7543L96.8574 40.4396C97.3193 40.1311 98.3505 39.7534 98.9641 40.5529L98.6605 40.7795C98.1164 40.0619 97.1105 40.7228 97.0662 40.7543Z" fill="#FDD142"/>
<path d="M84.483 40.1751L84.173 39.9674C84.2679 39.8226 85.1409 38.5384 85.9887 38.4881C86.8364 38.4377 91.7647 39.4323 91.9798 39.4764L91.9039 39.8478C90.4741 39.5582 86.6276 38.828 86.014 38.8658C85.4003 38.9035 84.717 39.8226 84.483 40.1751Z" fill="#FDD142"/>
<path d="M87.8677 40.0808C87.8677 40.0808 86.343 36.5492 84.774 37.0214C83.2051 37.4935 83.901 42.3092 85.4067 43.2661C85.5933 43.4022 85.8058 43.4992 86.0312 43.5512C86.2566 43.6032 86.4903 43.609 86.7181 43.5684C86.9459 43.5278 87.163 43.4415 87.3562 43.3149C87.5495 43.1883 87.7149 43.0239 87.8424 42.8317L87.8677 40.0808Z" fill="#F0B78D"/>
<path d="M85.0144 38.4C85.0144 38.4 84.9765 38.4 85.0144 38.4377C86.0773 39.1491 86.4632 40.3263 86.6593 41.5412C86.617 41.4112 86.5466 41.2921 86.4532 41.192C86.3598 41.0919 86.2455 41.0133 86.1183 40.9617C85.9912 40.9102 85.8543 40.8869 85.7172 40.8934C85.58 40.9 85.446 40.9363 85.3244 40.9998C85.2865 40.9998 85.3244 41.0691 85.3244 41.0691C85.5414 41.0456 85.7604 41.0899 85.9509 41.196C86.1413 41.302 86.2939 41.4645 86.3873 41.6608C86.5408 41.9891 86.6575 42.3332 86.7352 42.6869C86.7732 42.8065 86.9693 42.7876 86.9566 42.6869V42.6554C87.2793 41.1698 86.5644 38.8721 85.0144 38.4Z" fill="#263238"/>
</svg>
