<svg width="28" height="28" viewBox="0 0 28 28" fill="none" xmlns="http://www.w3.org/2000/svg">
<path d="M13.5417 26.0417C20.4452 26.0417 26.0417 20.4453 26.0417 13.5417C26.0417 6.63819 20.4452 1.04175 13.5417 1.04175C6.63812 1.04175 1.04167 6.63819 1.04167 13.5417C1.04167 20.4453 6.63812 26.0417 13.5417 26.0417Z" stroke="#3D3D3D" stroke-width="2.08333" stroke-linecap="round" stroke-linejoin="round"/>
<mask id="path-2-inside-1_9_2134" fill="white">
<path d="M12.5831 19.5816V12.3113C12.5795 12.1836 12.6016 12.0565 12.6484 11.9377C12.6952 11.8189 12.7654 11.7108 12.8552 11.62C12.9448 11.529 13.0519 11.4572 13.17 11.4088C13.2881 11.3604 13.4149 11.3363 13.5425 11.3382C13.6684 11.3381 13.7931 11.3635 13.9089 11.413C14.0248 11.4623 14.1295 11.5346 14.2166 11.6255C14.3038 11.7165 14.3715 11.824 14.416 11.9419C14.4604 12.0597 14.4804 12.1854 14.4749 12.3113V19.5816C14.4749 19.7058 14.4504 19.8288 14.403 19.9435C14.3554 20.0582 14.2857 20.1626 14.1979 20.2504C14.11 20.3382 14.0058 20.4078 13.8911 20.4554C13.7762 20.503 13.6533 20.5274 13.5291 20.5274C13.4049 20.5274 13.2818 20.503 13.1671 20.4554C13.0523 20.4078 12.948 20.3382 12.8602 20.2504C12.7723 20.1626 12.7026 20.0582 12.6552 19.9435C12.6076 19.8288 12.5831 19.7058 12.5831 19.5816Z"/>
</mask>
<path d="M12.5831 19.5816V12.3113C12.5795 12.1836 12.6016 12.0565 12.6484 11.9377C12.6952 11.8189 12.7654 11.7108 12.8552 11.62C12.9448 11.529 13.0519 11.4572 13.17 11.4088C13.2881 11.3604 13.4149 11.3363 13.5425 11.3382C13.6684 11.3381 13.7931 11.3635 13.9089 11.413C14.0248 11.4623 14.1295 11.5346 14.2166 11.6255C14.3038 11.7165 14.3715 11.824 14.416 11.9419C14.4604 12.0597 14.4804 12.1854 14.4749 12.3113V19.5816C14.4749 19.7058 14.4504 19.8288 14.403 19.9435C14.3554 20.0582 14.2857 20.1626 14.1979 20.2504C14.11 20.3382 14.0058 20.4078 13.8911 20.4554C13.7762 20.503 13.6533 20.5274 13.5291 20.5274C13.4049 20.5274 13.2818 20.503 13.1671 20.4554C13.0523 20.4078 12.948 20.3382 12.8602 20.2504C12.7723 20.1626 12.7026 20.0582 12.6552 19.9435C12.6076 19.8288 12.5831 19.7058 12.5831 19.5816Z" fill="#3D3D3D"/>
<path d="M12.5831 12.3113H14.6665V12.2816L14.6656 12.2518L12.5831 12.3113ZM12.8552 11.62L14.3371 13.0843L14.3393 13.0821L12.8552 11.62ZM13.5425 11.3382L13.5116 13.4213L13.5281 13.4216L13.5447 13.4216L13.5425 11.3382ZM13.9089 11.413L13.0907 13.3289L13.0926 13.3297L13.9089 11.413ZM14.4749 12.3113L12.3936 12.2198L12.3916 12.2655V12.3113H14.4749ZM14.403 19.9435L16.3275 20.7414L16.3283 20.7395L14.403 19.9435ZM13.8911 20.4554L14.6882 22.3802L14.689 22.3799L13.8911 20.4554ZM12.6552 19.9435L14.5804 19.1475L14.5796 19.1456L12.6552 19.9435ZM12.5831 19.5816H14.6665V12.3113H12.5831H10.4998V19.5816H12.5831ZM12.5831 12.3113L14.6656 12.2518C14.67 12.4042 14.6436 12.5569 14.587 12.7008L12.6484 11.9377L10.7098 11.1746C10.5597 11.5561 10.489 11.9631 10.5007 12.3708L12.5831 12.3113ZM12.6484 11.9377L14.587 12.7008C14.5309 12.8431 14.4463 12.9738 14.3371 13.0843L12.8552 11.62L11.3732 10.1557C11.0846 10.4478 10.8594 10.7947 10.7098 11.1746L12.6484 11.9377ZM12.8552 11.62L14.3393 13.0821C14.2314 13.1916 14.1023 13.2782 13.9597 13.3366L13.17 11.4088L12.3803 9.48091C12.0015 9.63609 11.6581 9.86649 11.371 10.1579L12.8552 11.62ZM13.17 11.4088L13.9597 13.3366C13.8184 13.3945 13.6661 13.4236 13.5116 13.4213L13.5425 11.3382L13.5734 9.25513C13.1637 9.24906 12.7579 9.32626 12.3803 9.48091L13.17 11.4088ZM13.5425 11.3382L13.5447 13.4216C13.3892 13.4217 13.2347 13.3904 13.0907 13.3289L13.9089 11.413L14.7272 9.49704C14.3516 9.33663 13.9477 9.25447 13.5402 9.25491L13.5425 11.3382ZM13.9089 11.413L13.0926 13.3297C12.9499 13.2689 12.8205 13.1797 12.7126 13.0671L14.2166 11.6255L15.7207 10.184C15.4384 9.88945 15.0996 9.65567 14.7253 9.49624L13.9089 11.413ZM14.2166 11.6255L12.7126 13.0671C12.6045 12.9543 12.5212 12.8215 12.4668 12.6773L14.416 11.9419L16.3652 11.2065C16.2219 10.8266 16.0031 10.4786 15.7207 10.184L14.2166 11.6255ZM14.416 11.9419L12.4668 12.6773C12.4113 12.5303 12.3868 12.3746 12.3936 12.2198L14.4749 12.3113L16.5562 12.4029C16.5741 11.9962 16.5096 11.5891 16.3652 11.2065L14.416 11.9419ZM14.4749 12.3113H12.3916V19.5816H14.4749H16.5582V12.3113H14.4749ZM14.4749 19.5816H12.3916C12.3916 19.4323 12.421 19.2848 12.4777 19.1475L14.403 19.9435L16.3283 20.7395C16.4799 20.3727 16.5582 19.9793 16.5582 19.5816H14.4749ZM14.403 19.9435L12.4785 19.1456C12.5356 19.0078 12.6193 18.8827 12.7247 18.7773L14.1979 20.2504L15.671 21.7235C15.9521 21.4424 16.1752 21.1086 16.3275 20.7414L14.403 19.9435ZM14.1979 20.2504L12.7247 18.7773C12.8305 18.6715 12.9558 18.5879 13.0932 18.5309L13.8911 20.4554L14.689 22.3799C15.0559 22.2278 15.3896 22.005 15.671 21.7235L14.1979 20.2504ZM13.8911 20.4554L13.094 18.5306C13.2317 18.4736 13.3796 18.4441 13.5291 18.4441V20.5274V22.6108C13.927 22.6108 14.3208 22.5324 14.6882 22.3802L13.8911 20.4554ZM13.5291 20.5274V18.4441C13.6781 18.4441 13.8262 18.4734 13.965 18.5309L13.1671 20.4554L12.3692 22.3799C12.7373 22.5325 13.1316 22.6108 13.5291 22.6108V20.5274ZM13.1671 20.4554L13.965 18.5309C14.1016 18.5876 14.2269 18.6709 14.3333 18.7773L12.8602 20.2504L11.387 21.7235C11.6691 22.0056 12.0031 22.2281 12.3692 22.3799L13.1671 20.4554ZM12.8602 20.2504L14.3333 18.7773C14.4387 18.8827 14.5229 19.0083 14.5804 19.1475L12.6552 19.9435L10.7299 20.7395C10.8823 21.1082 11.1059 21.4425 11.387 21.7235L12.8602 20.2504ZM12.6552 19.9435L14.5796 19.1456C14.637 19.284 14.6665 19.4322 14.6665 19.5816H12.5831H10.4998C10.4998 19.9794 10.5781 20.3735 10.7307 20.7414L12.6552 19.9435Z" fill="#3D3D3D" mask="url(#path-2-inside-1_9_2134)"/>
<circle cx="13.5842" cy="8.25903" r="1.01729" fill="#3D3D3D" stroke="#3D3D3D" stroke-width="0.4"/>
</svg>
