<svg width="25" height="26" viewBox="0 0 25 26" fill="none" xmlns="http://www.w3.org/2000/svg">
<path d="M6.25 5.39012V1.87363C6.25 1.1044 6.90476 0.5 7.7381 0.5C8.57143 0.5 9.22619 1.1044 9.22619 1.87363V5.39012C9.22619 6.15935 8.57143 6.76374 7.7381 6.76374C6.90476 6.76374 6.25 6.15935 6.25 5.39012ZM17.2619 6.76374C18.0952 6.76374 18.75 6.15935 18.75 5.39012V1.87363C18.75 1.1044 18.0952 0.5 17.2619 0.5C16.4286 0.5 15.7738 1.1044 15.7738 1.87363V5.39012C15.7738 6.15935 16.4286 6.76374 17.2619 6.76374ZM7.20238 11.489H17.7679C18.4226 11.489 18.9583 10.9945 18.9583 10.3901C18.9583 9.78573 18.4226 9.29122 17.7679 9.29122H7.20238C6.54762 9.29122 6.01191 9.78573 6.01191 10.3901C6.01191 10.9945 6.54762 11.489 7.20238 11.489ZM23.8095 2.42308H21.3393C20.6845 2.42308 20.1488 2.91759 20.1488 3.52198C20.1488 4.12638 20.6845 4.62088 21.3393 4.62088H22.619V23.3022H2.38095V4.62088H3.66071C4.31548 4.62088 4.85119 4.12638 4.85119 3.52198C4.85119 2.91759 4.31548 2.42308 3.66071 2.42308H1.19048C0.535714 2.42308 0 3.02748 0 3.63187V24.4011C0 25.0055 0.535714 25.5 1.19048 25.5H23.8095C24.4643 25.5 25 25.0055 25 24.4011V3.63187C25 3.02748 24.4643 2.42308 23.8095 2.42308ZM11.5179 4.62088H13.4821C14.1369 4.62088 14.6726 4.12638 14.6726 3.52198C14.6726 2.91759 14.1369 2.42308 13.4821 2.42308H11.5179C10.8631 2.42308 10.3274 2.91759 10.3274 3.52198C10.3274 4.12638 10.8631 4.62088 11.5179 4.62088ZM7.20238 16.4341H17.7679C18.4226 16.4341 18.9583 15.9396 18.9583 15.3352C18.9583 14.7308 18.4226 14.2363 17.7679 14.2363H7.20238C6.54762 14.2363 6.01191 14.7308 6.01191 15.3352C6.01191 15.9396 6.54762 16.4341 7.20238 16.4341Z" fill="#3D3D3D"/>
</svg>
